<?xml version="1.0" standalone="no"?>
<!DOCTYPE svg PUBLIC "-//W3C//DTD SVG 1.1//EN" "http://www.w3.org/Graphics/SVG/1.1/DTD/svg11.dtd" >
<svg xmlns="http://www.w3.org/2000/svg" xmlns:xlink="http://www.w3.org/1999/xlink" version="1.1">
<metadata>
Created by FontForge 20190801 at Fri Nov 18 10:51:18 1994
 By Jimmy Wärting
URW Software, Copyright 1994 by URW
</metadata>
<defs>
<font id="ClarendonT-Medi" horiz-adv-x="1024" >
  <font-face 
    font-family="ClarendonTMed"
    font-weight="400"
    font-stretch="normal"
    units-per-em="2048"
    panose-1="2 4 7 4 4 7 5 2 2 4"
    ascent="1547"
    descent="-501"
    x-height="937"
    cap-height="1365"
    bbox="-328 -512 2265 1834"
    underline-thickness="211"
    underline-position="-316"
    unicode-range="U+0020-F002"
  />
<missing-glyph horiz-adv-x="512" 
d="M51 0v1365h410v-1365h-410zM410 51v1263h-308v-1263h308z" />
    <glyph glyph-name=".notdef" horiz-adv-x="512" 
d="M51 0v1365h410v-1365h-410zM410 51v1263h-308v-1263h308z" />
    <glyph glyph-name="glyph1" horiz-adv-x="0" 
 />
    <glyph glyph-name="glyph2" horiz-adv-x="512" 
 />
    <glyph glyph-name="space" unicode=" " horiz-adv-x="512" 
 />
    <glyph glyph-name="exclam" unicode="!" horiz-adv-x="633" 
d="M320 273q62 0 105 -48q38 -42 38 -98q0 -65 -48 -108q-42 -38 -98 -38q-65 0 -108 48q-38 42 -38 99q0 63 48 108q42 37 101 37zM262 363l-78 720q-10 93 -10 126q0 73 44 118q36 38 104 38q84 0 120 -67q19 -36 19 -81q0 -27 -12 -134l-82 -720h-105z" />
    <glyph glyph-name="quotedbl" unicode="&#x22;" horiz-adv-x="800" 
d="M307 817h-174l-43 548h261zM666 817h-173l-43 548h261z" />
    <glyph glyph-name="numbersign" unicode="#" horiz-adv-x="1229" 
d="M1165 598l-32 -212h-213l-61 -386h-242l62 386h-200l-61 -386h-239l61 386h-213l32 212h214l30 197h-211l32 212h212l57 358h239l-57 -358h200l57 358h242l-58 -358h209l-32 -212h-209l-31 -197h212zM742 795h-200l-30 -197h200z" />
    <glyph glyph-name="dollar" unicode="$" horiz-adv-x="1283" 
d="M561 1364h128v-116q195 -9 309 -84q129 -86 129 -208q0 -78 -51 -124q-44 -39 -110 -39q-68 0 -110 42q-36 35 -36 92q0 61 46 91q27 17 59 17q11 0 28 -1q-54 44 -115 61q-88 24 -197 24q-142 0 -216 -47q-35 -22 -55.5 -60t-20.5 -79q0 -75 65 -112q31 -17 106 -35
q58 -13 111 -26q95 -23 106 -26q201 -46 267 -79q185 -94 185 -301q0 -229 -215 -327q-106 -48 -285 -56v-163h-128v163q-182 17 -283 72q-84 45 -129.5 109t-45.5 136q0 74 50 121q44 42 108 42q68 0 112 -46q37 -38 37 -89q0 -53 -40 -85q-30 -23 -60 -23q-15 0 -39 5
q38 -53 117 -76q114 -34 237 -34q130 0 218 34q50 20 80 62t30 92q0 84 -79 120q-47 21 -249 66q-278 61 -379 119q-102 59 -134 182q-11 44 -11 87q0 84 41.5 159.5t114.5 126.5q105 72 232 89q31 4 72 8v116z" />
    <glyph glyph-name="percent" unicode="%" horiz-adv-x="1708" 
d="M361 1232q128 0 216 -81q100 -94 100 -234q0 -130 -90 -218q-92 -91 -238 -91q-117 0 -201 64q-58 43 -91.5 108t-33.5 134q0 106 70 197q92 121 268 121zM354 1144q-73 0 -112 -60q-42 -67 -42 -170q0 -216 151 -216q99 0 133 111q18 56 18 128q0 83 -28 136
q-37 71 -120 71zM1169 610q128 0 215 -81q100 -94 100 -234q0 -130 -89 -218q-93 -91 -239 -91q-116 0 -200 64q-58 43 -91.5 108t-33.5 134q0 106 70 197q92 121 268 121zM1161 522q-72 0 -111 -60q-42 -66 -42 -169q0 -216 151 -216q82 0 116 68q35 67 35 162
q0 215 -149 215zM1263 1212l90 -89l-1107 -1119l-89 85z" />
    <glyph glyph-name="ampersand" unicode="&#x26;" horiz-adv-x="1551" 
d="M848 777h598v-139h-53q-74 0 -123 -19q-39 -14 -62 -42q-20 -22 -49 -74q-98 -174 -171 -259q28 -33 47 -48q35 -27 87 -27q124 0 157 127q14 54 16 150h151q1 -31 1 -46q0 -187 -81 -301q-86 -119 -270 -119q-99 0 -182 37q-42 18 -98 62q-138 -98 -305 -98
q-204 0 -330 115q-118 108 -118 273q0 182 148 291q63 46 157 84q-47 111 -47 202q0 154 102 249q87 82 208 82q137 0 208 -88q54 -67 54 -145q0 -117 -105 -232q-36 -41 -123 -109q153 -258 231 -339q54 60 85 119.5t31 102.5q0 37 -32 47q-15 5 -58 5h-74v139zM592 835
q54 35 80 61q55 53 55 127q0 61 -40 87q-27 16 -60 16q-41 0 -71 -26q-38 -34 -38 -83q0 -36 33 -103q8 -15 15 -30zM439 584q-49 -22 -72 -43q-49 -47 -49 -125q0 -100 67 -179q74 -87 185 -87q69 0 135 48q-153 179 -266 386z" />
    <glyph glyph-name="quotesingle" unicode="'" horiz-adv-x="440" 
d="M307 817h-173l-44 548h261z" />
    <glyph glyph-name="parenleft" unicode="(" horiz-adv-x="824" 
d="M771 1395v-136q-174 -37 -266 -186q-80 -130 -104 -335q-12 -104 -12 -246q0 -360 78 -552q60 -147 188 -224q40 -24 116 -51v-140q-128 25 -208 57.5t-156 90.5q-146 112 -225 285q-97 212 -97 493q0 370 171 622q120 178 321 268q92 42 194 54z" />
    <glyph glyph-name="parenright" unicode=")" horiz-adv-x="825" 
d="M51 -475v136q174 37 266 186q80 130 104 335q12 104 12 247q0 359 -78 550q-60 148 -188 225q-40 24 -116 51v140q128 -25 208.5 -57.5t155.5 -90.5q146 -112 225 -285q98 -212 98 -493q0 -370 -171 -622q-121 -177 -321 -268q-93 -42 -195 -54z" />
    <glyph glyph-name="asterisk" unicode="*" horiz-adv-x="922" 
d="M461 906q-21 0 -39 -39q-5 -11 -26 -114q-7 -35 -32.5 -57.5t-56.5 -22.5q-47 0 -88 35q-42 36 -42 86q0 51 46 83q19 13 75 36q103 41 103 81q0 24 -43 24q-54 0 -101 -12q-51 -13 -74 -13q-41 0 -73 36q-27 32 -27 75q0 47 31 84q30 37 79 37q35 0 58 -16
q24 -18 54 -60q56 -78 98 -78q22 0 22 32q0 34 -17 62l-33 54q-28 47 -28 88q0 40 37 68q31 24 77 24q53 0 86 -33q27 -27 27 -60q0 -40 -28 -87l-32 -54q-16 -27 -16 -61q0 -33 22 -33q42 0 98 78q29 42 53 60q22 16 58 16q54 0 85 -45q24 -36 24 -78q0 -48 -35 -81
q-31 -28 -66 -28q-22 0 -73 13q-47 12 -101 12q-43 0 -43 -24q0 -40 103 -81q63 -26 83 -42q38 -31 38 -78q0 -57 -54 -94q-37 -26 -76 -26q-53 0 -80 54q-6 12 -27 118q-13 61 -46 61z" />
    <glyph glyph-name="plus" unicode="+" horiz-adv-x="1283" 
d="M198 801h326v324h235v-324h326v-218h-326v-323h-235v323h-326v218z" />
    <glyph glyph-name="comma" unicode="," horiz-adv-x="544" 
d="M110 -267v109q146 38 161 158q-30 -18 -59 -18q-48 0 -80 31q-38 37 -38 93q0 70 56 116q39 31 94 31q96 0 145 -79q36 -56 36 -128q0 -147 -126 -241q-70 -52 -189 -72z" />
    <glyph glyph-name="hyphen" unicode="-" horiz-adv-x="511" 
d="M0 597h511v-197h-511v197z" />
    <glyph glyph-name="period" unicode="." horiz-adv-x="545" 
d="M274 273q62 0 105 -48q38 -42 38 -98q0 -65 -48 -108q-42 -38 -98 -38q-65 0 -108 48q-38 42 -38 99q0 63 48 107q41 38 101 38z" />
    <glyph glyph-name="slash" unicode="/" horiz-adv-x="781" 
d="M521 1365h151l-588 -1810h-147z" />
    <glyph glyph-name="zero" unicode="0" horiz-adv-x="1283" 
d="M648 1248q192 0 339 -120q107 -87 158 -214q55 -137 55 -293q0 -295 -171 -483q-153 -167 -393 -167q-225 0 -382 155q-88 88 -129.5 201t-41.5 269q0 327 170 498q155 154 395 154zM638 1100q-59 0 -110.5 -34t-81.5 -92q-65 -129 -65 -355q0 -501 271 -501
q123 0 186.5 118.5t63.5 351.5q0 276 -70 400q-63 112 -194 112z" />
    <glyph glyph-name="one" unicode="1" horiz-adv-x="1284" 
d="M789 1219v-866q2 -114 3 -128.5t11 -34.5q14 -28 49 -34q15 -3 50 -3h122v-153h-736v153h130q52 0 72 10q36 15 40 72q0 19 2 118v537h-244v139q122 0 190 29q60 27 93 86q12 21 30 75h188z" />
    <glyph glyph-name="two" unicode="2" horiz-adv-x="1283" 
d="M1049 429h129q-3 -181 -37 -270q-70 -188 -292 -188q-98 0 -216 46q-52 20 -165 74q-79 37 -117 37q-36 0 -62 -21q-30 -26 -30 -79q0 -12 1 -28h-144q-1 30 -1 49q0 184 98 311q68 89 244 174q201 97 243 128q116 86 116 213q0 110 -88 175q-68 51 -185 51
q-132 0 -205 -64q-37 -33 -55 -100q47 19 78 19q67 0 108 -53q28 -37 28 -92q0 -83 -56 -128q-42 -33 -107 -33q-105 0 -161 79q-40 58 -40 140q0 159 130 269q131 111 358 111q228 0 366 -114q134 -112 134 -283q0 -183 -133 -282q-86 -64 -258 -109q-228 -60 -280 -88
q-105 -56 -143 -123q-12 -21 -24 -59q51 41 98 54q41 12 92 12q45 0 260 -34q60 -10 116 -10q141 0 182 102q16 40 18 114z" />
    <glyph glyph-name="three" unicode="3" horiz-adv-x="1283" 
d="M531 571v143q37 -1 55 -1q108 0 168 31q86 44 86 164q0 95 -71 148q-77 58 -200 58q-86 0 -145 -28q-25 -12 -53 -43q54 0 83 -18q57 -36 57 -111q0 -49 -26 -88q-44 -64 -136 -64q-74 0 -121 44q-54 49 -54 131q0 55 26 109.5t70 91.5q130 110 363 110q250 0 399 -120
q49 -40 77.5 -99t28.5 -121q0 -66 -31 -124t-84 -89q-58 -34 -187 -54q158 -45 232 -107q57 -49 81 -132q11 -37 11 -75q0 -124 -98 -221q-137 -135 -401 -135q-231 0 -385 96q-144 89 -144 234q0 88 57 147q52 54 132 54q84 0 128 -59q31 -41 31 -90q0 -43 -23.5 -76.5
t-61.5 -44.5q-28 -9 -86 -12q78 -120 270 -120q156 0 227 89q48 61 48 157q0 226 -274 226q-19 0 -49 -1z" />
    <glyph glyph-name="four" unicode="4" horiz-adv-x="1284" 
d="M947 1218v-725h221v-153h-221q1 -39 1 -52q0 -63 6 -81q12 -41 48 -49q18 -5 58 -5h108v-153h-707v153h112q52 0 72 9q35 15 39 71q1 54 2 107h-588v137l619 741h230zM686 493v451l-378 -451h378z" />
    <glyph glyph-name="five" unicode="5" horiz-adv-x="1284" 
d="M207 587v660q208 -67 398 -67q271 0 468 87q-17 -68 -35.5 -103.5t-50.5 -63.5q-88 -79 -249 -113q-89 -19 -177 -19q-68 0 -217 14v-212q58 40 102 59q90 37 220 37q234 0 362 -123q73 -70 107 -173q24 -71 24 -146q0 -108 -47 -202.5t-131 -155.5q-132 -95 -352 -95
q-114 0 -214.5 29.5t-165.5 82.5q-115 94 -115 217q0 83 58 141q46 46 130 46q90 0 134 -57q32 -42 32 -94q0 -132 -162 -140q44 -50 102 -72t144 -22q127 0 209 64q101 78 101 244q0 149 -95 233q-84 75 -207 75q-108 0 -194 -55q-35 -22 -75 -76h-104z" />
    <glyph glyph-name="six" unicode="6" horiz-adv-x="1284" 
d="M413 654q139 100 306 100q213 0 325 -120q96 -104 96 -249q0 -108 -51 -198.5t-142 -144.5q-120 -71 -282 -71q-249 0 -394 156q-147 157 -147 461q0 328 170 508q143 152 378 152q189 0 306 -92q49 -39 78 -96t29 -114q0 -66 -44 -111q-42 -42 -111 -42q-73 0 -114 50
q-34 41 -34 93q0 105 116 126q-74 64 -181 64q-146 0 -236 -106q-80 -96 -80 -240q0 -46 12 -126zM634 606q-98 0 -165 -71q-61 -65 -61 -173q0 -144 88 -211q60 -46 138 -46q110 0 168 80q53 75 53 181q0 120 -73 188q-57 52 -148 52z" />
    <glyph glyph-name="seven" unicode="7" horiz-adv-x="1283" 
d="M150 651v568h157v-159q44 62 74 89q69 62 184 62q71 0 138 -20q49 -14 120 -40q81 -30 120 -30q75 0 98 98h133q-17 -99 -36 -153q-23 -68 -84 -163l-110 -170q-97 -149 -145 -339q-33 -129 -33 -263q0 -49 7 -131h-291q-2 58 -2 86q0 197 55 343q43 115 123 216
q63 78 148 166q96 101 137 176q-78 -35 -179 -35q-57 0 -229 27q-20 3 -46 3q-65 0 -111 -38q-51 -41 -64 -109q-4 -22 -5 -130q0 -18 -2 -54h-157z" />
    <glyph glyph-name="eight" unicode="8" horiz-adv-x="1284" 
d="M892 697q120 -57 173 -106q107 -97 107 -242q0 -84 -39 -158t-108 -121q-143 -99 -375 -99q-240 0 -404 91q-66 37 -103.5 97t-37.5 128q0 123 112 215q60 50 164 84q-120 61 -165 115q-70 83 -70 190q0 140 112 246q61 57 163 89.5t220 32.5q120 0 221.5 -35t161.5 -96
q80 -83 80 -183q0 -102 -76 -172q-39 -36 -136 -76zM767 732q131 99 131 217q0 69 -68 114q-73 49 -194 49q-110 0 -176 -37q-32 -18 -52 -50t-20 -66q0 -111 167 -167q35 -12 212 -60zM503 527q-67 -33 -99 -61q-33 -27 -53 -66.5t-20 -75.5q0 -43 27 -84.5t72 -68.5
q88 -53 226 -53q103 0 178 34q101 46 101 133q0 35 -21.5 68.5t-56.5 52.5q-61 34 -212 83q-32 11 -86 25.5t-56 12.5z" />
    <glyph glyph-name="nine" unicode="9" horiz-adv-x="1284" 
d="M865 568q-119 -100 -318 -100q-187 0 -300 109q-109 104 -109 261q0 80 33.5 157.5t90.5 130.5q61 57 154 89.5t193 32.5q105 0 206.5 -36t168.5 -98q98 -91 141 -242q34 -118 34 -246q0 -317 -172 -503q-141 -152 -371 -152q-167 0 -289 74q-133 80 -133 219
q0 82 50 126q43 37 103 37q65 0 109 -39q44 -40 44 -103q0 -102 -116 -124q39 -32 71 -43q43 -16 102 -16q172 0 251 122q69 106 69 242q0 38 -12 102zM639 1114q-100 0 -163 -78q-54 -68 -54 -171q0 -114 58 -184q56 -66 161 -66q109 0 169 71q56 67 56 169q0 104 -46 171
q-60 88 -181 88z" />
    <glyph glyph-name="colon" unicode=":" horiz-adv-x="545" 
d="M274 273q62 0 105 -48q38 -42 38 -98q0 -65 -48 -108q-42 -38 -98 -38q-65 0 -108 48q-38 42 -38 99q0 63 48 107q41 38 101 38zM274 935q62 0 105 -48q38 -42 38 -98q0 -65 -48 -109q-42 -37 -98 -37q-65 0 -108 48q-38 42 -38 99q0 63 48 107q41 38 101 38z" />
    <glyph glyph-name="semicolon" unicode=";" horiz-adv-x="544" 
d="M110 -267v109q146 38 161 158q-30 -18 -59 -18q-48 0 -80 31q-38 37 -38 93q0 70 56 116q39 31 94 31q96 0 145 -79q36 -56 36 -128q0 -147 -126 -241q-70 -52 -189 -72zM273 935q62 0 105 -48q38 -42 38 -98q0 -65 -48 -109q-42 -37 -98 -37q-65 0 -108 48
q-38 42 -38 99q0 63 48 107q41 38 101 38z" />
    <glyph glyph-name="less" unicode="&#x3c;" 
d="M955 1224v-234l-638 -309l638 -309v-232l-887 443v199z" />
    <glyph glyph-name="equal" unicode="=" horiz-adv-x="1283" 
d="M198 972h887v-206h-887v206zM198 628h887v-206h-887v206z" />
    <glyph glyph-name="greater" unicode="&#x3e;" 
d="M68 140v233l638 309l-637 310v232l886 -443v-199z" />
    <glyph glyph-name="question" unicode="?" horiz-adv-x="1044" 
d="M468 273q63 0 106 -48q38 -42 38 -98q0 -65 -48 -108q-42 -38 -98 -38q-65 0 -109 48q-37 42 -37 99q0 64 48 108q42 37 100 37zM536 363h-132q-2 39 -2 64q0 103 51 195q16 29 149 201q67 87 67 188q0 87 -75 147q-74 60 -175 60q-119 0 -188 -79q-44 -50 -44 -106
q0 -16 4 -44q43 51 110 51q59 0 98 -43q33 -37 33 -96q0 -69 -45 -110q-46 -44 -123 -44q-86 0 -144 62q-70 76 -70 189q0 76 35 148t98 124q114 95 303 95q116 0 219.5 -39t167.5 -106q90 -95 90 -210q0 -141 -121 -266q-26 -26 -193 -157q-107 -89 -113 -224z" />
    <glyph glyph-name="at" unicode="@" horiz-adv-x="1502" 
d="M980 1010h163l-78 -403q-13 -69 -13 -91q0 -33 14.5 -53t37.5 -20q56 0 106 70q82 115 82 273q0 209 -146 338q-138 122 -353 122q-240 0 -403 -163q-168 -169 -168 -413q0 -238 157 -399q148 -153 411 -153q215 0 395 71l39 -148q-190 -71 -429 -71q-322 0 -518 188
q-103 99 -160 238q-55 134 -55 276q0 206 109 385q104 171 283 260q152 77 332 77q266 0 447 -156q103 -88 157 -216q47 -111 47 -235q0 -182 -94 -322q-64 -95 -148 -134q-50 -23 -95 -23q-76 0 -126 52q-25 27 -34 67q-31 -47 -73 -75q-88 -59 -182 -59q-124 0 -207 92
q-84 94 -84 234q0 172 117 301q103 113 243 113q144 0 208 -114zM774 862q-89 0 -147 -87q-46 -68 -46 -149q0 -67 33 -111q42 -55 114 -55q89 0 146 91q43 69 43 150q0 68 -33 111q-39 50 -110 50z" />
    <glyph glyph-name="A" unicode="A" horiz-adv-x="1473" 
d="M596 1378h296l369 -1080q38 -100 54 -120q28 -31 91 -32h108v-146h-759v146h137q113 0 113 57q0 18 -27 95l-48 139h-459l-43 -139q-22 -71 -22 -103q0 -49 69 -49h166v-146h-682v146h79q63 -1 106 26q22 14 37 47q3 7 29 79zM892 583l-189 540l-180 -540h369z" />
    <glyph glyph-name="B" unicode="B" horiz-adv-x="1473" 
d="M1075 702q116 -29 179 -69q65 -41 101.5 -114t36.5 -163q0 -148 -86 -245q-77 -86 -199 -105q-35 -6 -187 -6h-857v147h115q51 0 72 9q35 16 39 74q0 18 2 119v668q-2 113 -3 128.5t-11 35.5q-14 28 -48 35q-15 3 -51 3h-115v146h651q206 0 276 -10q182 -25 280 -128
q83 -86 83 -213q0 -134 -97 -222q-61 -56 -181 -90zM567 782h198q121 0 182 28q52 24 80 83q23 49 23 107q0 141 -111 196q-48 23 -213 23h-159v-437zM567 146h180q134 0 175 10q87 21 129 90q36 59 36 138q0 150 -108 208q-45 24 -105 30q-22 2 -111 2h-196v-478z" />
    <glyph glyph-name="C" unicode="C" horiz-adv-x="1421" 
d="M1276 1365v-535h-155q-19 125 -50 185q-62 120 -174 170q-65 29 -144 29q-213 0 -299 -162q-74 -138 -74 -386q0 -528 361 -528q224 0 314 181q39 79 58 204h163q-11 -159 -45 -241q-76 -181 -244 -259q-113 -52 -272 -52q-244 0 -407 132q-111 88 -170 221
q-77 169 -77 362q0 337 208 544q164 165 414 165q148 0 250 -66q50 -32 128 -110l52 146h163z" />
    <glyph glyph-name="D" unicode="D" horiz-adv-x="1573" 
d="M303 349v668q-2 113 -3 128.5t-11 35.5q-14 28 -49 35q-14 3 -50 3h-129v146h683q140 0 185.5 -2.5t96.5 -13.5q251 -56 376 -255q110 -175 110 -408q0 -271 -144 -456q-131 -167 -350 -213q-83 -17 -302 -17h-655v147h129q51 0 71 9q36 16 40 74q0 18 2 119zM579 146
h129q215 0 326 67q183 111 183 470q0 328 -176 461q-69 53 -168 68q-50 7 -133 7h-161v-1073z" />
    <glyph glyph-name="E" unicode="E" horiz-adv-x="1580" 
d="M1404 1365v-555h-155q2 171 -51 278q-35 71 -97.5 101t-176.5 30h-343v-445h40q58 -1 71 -1q104 0 140 68q30 57 30 181v20h143v-697h-143q0 129 -27 198q-27 71 -99 87q-24 5 -64 5h-53h-38v-489h339q110 0 152 15q178 65 178 337q0 28 -1 82h155v-580h-1341v147h129
q51 0 71 9q36 16 40 74q0 18 2 119v668q-3 127 -3.5 135.5t-10.5 28.5q-14 28 -49 35q-15 3 -50 3h-129v146h1341z" />
    <glyph glyph-name="F" unicode="F" horiz-adv-x="1362" 
d="M1336 1365v-557h-156q1 27 1 41q0 161 -66 266q-50 79 -145 98q-29 6 -133 6h-258v-433q37 -2 56 -2q135 0 175 67q21 35 25 104q2 20 2 92h148v-717h-148q-1 150 -24 216q-34 97 -179 97q-19 0 -55 -1v-293q2 -114 3 -129.5t11 -35.5q14 -28 48 -34q15 -3 51 -3h115
v-147h-746v147h129q51 0 71 9q36 16 40 74q0 18 2 119v668q-2 113 -3 128.5t-11 35.5q-14 28 -49 35q-14 3 -50 3h-129v146h1275z" />
    <glyph glyph-name="G" unicode="G" horiz-adv-x="1553" 
d="M1284 1390v-548h-152q-28 126 -66 185q-68 108 -185 156q-70 29 -146 29q-160 0 -253 -119q-54 -69 -78 -165t-24 -245q0 -135 22.5 -227t71.5 -159q48 -66 122.5 -102.5t160.5 -36.5q97 0 174 44q80 45 99 111q10 32 10 81v61v3q-2 94 -15 108q-17 24 -100 25h-129v146
h746v-146h-94q-60 0 -84 -6q-38 -8 -46 -60q-4 -20 -4 -70v-455h-150l-63 126q-85 -72 -157 -104q-115 -51 -255 -51q-243 0 -404 147q-101 92 -160 238q-64 157 -64 328q0 254 128 450q171 262 500 262q137 0 243 -46q62 -26 142 -104l58 144h152z" />
    <glyph glyph-name="H" unicode="H" horiz-adv-x="1721" 
d="M579 767h563v250q-2 115 -3.5 129.5t-10.5 34.5q-14 28 -49 35q-15 3 -50 3h-115v146h746v-146h-129q-52 0 -71 -10q-36 -16 -40 -73q0 -19 -2 -119v-668q2 -99 2 -119q4 -58 40 -74q20 -9 71 -9h129v-147h-746v147h115q51 0 71 9q36 16 39 74q1 17 3 119v272h-563v-272
q2 -114 3 -129.5t11 -35.5q14 -28 48 -34q15 -3 51 -3h115v-147h-746v147h129q51 0 71 9q36 16 40 74q0 18 2 119v668q-2 98 -2 119q-4 57 -40 73q-19 10 -71 10h-129v146h746v-146h-115q-51 0 -71 -10q-36 -15 -40 -73q0 -19 -2 -119v-250z" />
    <glyph glyph-name="I" unicode="I" horiz-adv-x="868" 
d="M303 349v668q-2 113 -3 128.5t-11 35.5q-14 28 -49 35q-14 3 -50 3h-129v146h746v-146h-115q-52 0 -71 -10q-36 -16 -40 -73q0 -19 -2 -119v-668q2 -99 2 -119q4 -58 40 -74q20 -9 71 -9h115v-147h-746v147h129q51 0 71 9q36 16 40 74q0 18 2 119z" />
    <glyph glyph-name="J" unicode="J" horiz-adv-x="1073" 
d="M158 190q41 -34 73 -46q48 -19 110 -19q139 0 191 86q24 40 28 91q2 30 2 73v642q-2 115 -3.5 129.5t-10.5 34.5q-14 28 -49 35q-15 3 -50 3h-115v146h746v-146h-129q-51 0 -71 -10q-36 -15 -40 -73q0 -19 -2 -119v-642q0 -92 -15 -139q-40 -129 -162 -200
q-110 -65 -264 -65q-177 0 -300 87q-74 52 -112 135q-25 52 -25 106q0 91 63 152q52 50 130 50q84 0 132 -58q37 -46 37 -105q0 -75 -55 -118q-38 -30 -109 -30z" />
    <glyph glyph-name="K" unicode="K" horiz-adv-x="1602" 
d="M965 837l362 -514q73 -103 92 -120q64 -57 154 -57h79v-146h-774v146h87q105 0 105 58q0 24 -12 40l-58 79l-224 327l-195 -178v-124q2 -98 2 -119q4 -57 40 -73q21 -10 73 -10h80v-146h-713v147h129q51 0 71 9q36 16 40 74q0 18 2 119v668q-2 98 -2 119q-4 57 -40 73
q-20 10 -71 10h-129v146h713v-146h-80q-52 0 -73 -10q-36 -15 -40 -73q0 -19 -2 -119v-310l421 409q62 59 62 81q0 23 -37 23l-36 -1h-113v146h695v-146h-120q-73 0 -126 -39q-36 -30 -151 -139z" />
    <glyph glyph-name="L" unicode="L" horiz-adv-x="1322" 
d="M1324 588v-588h-1263v146h135q51 0 72 10q35 16 39 74q0 18 2 119v668q-2 113 -3 128.5t-11 35.5q-14 29 -48 35q-15 3 -51 3h-135v146h766v-146h-129q-52 0 -71 -10q-36 -16 -40 -73q0 -19 -2 -119v-871h218q90 0 122.5 3.5t65.5 15.5q148 57 175 237q9 64 8 186h150z
" />
    <glyph glyph-name="M" unicode="M" horiz-adv-x="2019" 
d="M867 0l-377 1202v-854q2 -113 3 -128.5t11 -35.5q14 -28 49 -35q14 -3 51 -3h107v-146h-650v147h115q51 0 72 9q35 16 39 74q0 18 2 119v668q-2 98 -2 119q-4 57 -39 73q-20 10 -72 10h-115v146h650l281 -910l305 910h661v-146h-129q-51 0 -71 -10q-36 -15 -40 -73
q0 -19 -2 -119v-668q2 -114 3 -129.5t11 -35.5q14 -28 49 -34q14 -3 50 -3h129v-147h-760v147h129q51 0 71 9q36 16 40 74q0 18 2 119v853l-407 -1202h-166z" />
    <glyph glyph-name="N" unicode="N" horiz-adv-x="1686" 
d="M648 1365l577 -942v594q-1 98 -2 119q-4 57 -39 73q-20 10 -72 10h-129v146h671v-146h-115q-51 0 -71 -10q-36 -15 -40 -73q0 -19 -2 -119v-1017h-278l-642 1042v-693q2 -114 3 -129.5t11 -35.5q14 -28 49 -34q14 -3 50 -3h129v-147h-685v147h129q51 0 71 9q36 16 40 74
q0 18 2 119v668q-2 98 -2 119q-4 57 -40 73q-19 10 -71 10h-129v146h585z" />
    <glyph glyph-name="O" unicode="O" horiz-adv-x="1574" 
d="M808 1395q136 0 263 -50.5t225 -143.5q216 -206 216 -527q0 -247 -134 -428q-118 -159 -313 -229q-128 -46 -277 -46q-259 0 -450 136q-135 95 -206 238t-71 316q0 255 141 451q120 166 334 239q129 44 272 44zM792 1228q-169 0 -277 -116q-135 -145 -135 -438
q0 -261 114 -407q112 -142 296 -142q180 0 290 139q113 142 113 387q0 151 -33 272.5t-94 194.5q-92 110 -274 110z" />
    <glyph glyph-name="P" unicode="P" horiz-adv-x="1361" 
d="M579 627v-278q2 -114 3 -129.5t11 -35.5q14 -28 48 -34q15 -3 51 -3h115v-147h-746v147h129q51 0 71 9q36 16 40 74q0 18 2 119v668q-2 98 -2 119q-4 57 -40 73q-20 10 -71 10h-129v146h797q157 0 217 -15q127 -33 205 -138q72 -97 72 -225q0 -122 -65 -211
q-72 -99 -215 -133q-66 -16 -216 -16h-277zM579 773h167q156 0 218 37q90 53 90 189q0 121 -92 179q-45 28 -102 36q-32 5 -107 5h-174v-446z" />
    <glyph glyph-name="Q" unicode="Q" horiz-adv-x="1596" 
d="M1489 302h134q1 -34 1 -54q0 -168 -66 -264q-70 -101 -201 -101q-88 0 -170 50q-41 25 -108 90q-159 -52 -296 -52q-285 0 -480 172q-108 95 -174 237q-69 150 -69 303q0 225 139 426q113 164 300 236q127 50 260 50q130 0 258 -47t220 -128q124 -110 194 -290
q52 -136 52 -263q0 -256 -191 -488q68 -97 123 -97q53 0 66 70q9 47 9 100q0 9 -1 50zM1105 372q27 86 37 130q19 87 19 185q0 214 -88 365q-103 177 -297 177q-186 0 -295 -164q-102 -155 -102 -386q0 -168 44 -289q14 -39 50 -88q14 75 36 110q40 68 120 101q59 25 131 25
q172 0 345 -166zM946 179q-58 93 -96 135q-63 70 -136 70q-59 0 -98 -41q-36 -38 -36 -87q0 -63 58 -101q45 -30 116 -30q96 0 192 54z" />
    <glyph glyph-name="R" unicode="R" horiz-adv-x="1560" 
d="M579 642v-293q2 -99 2 -119q4 -58 40 -74q20 -9 71 -9h129v-147h-760v147h129q51 0 71 9q36 16 40 74q0 18 2 119v668q-2 98 -2 119q-4 57 -40 73q-19 10 -71 10h-129v146h889q131 0 185 -16q124 -37 191 -143q52 -82 52 -184q0 -178 -162 -264q-75 -40 -224 -69
q148 -34 208 -108q46 -57 58 -171q6 -101 10 -170q4 -83 63 -83q42 0 57 43q9 27 9 86q0 34 -2 106h131q3 -70 3 -106q0 -143 -42 -215q-58 -100 -222 -100q-140 0 -210 78q-47 53 -60 122q-8 49 -10 109q-4 133 -11 173q-38 206 -283 189h-112zM579 788h222q132 0 182 28
q41 24 66 74.5t25 109.5q0 118 -83 177q-50 35 -115 40q-32 2 -81 2h-216v-431z" />
    <glyph glyph-name="S" unicode="S" horiz-adv-x="1320" 
d="M1165 1365v-520h-139q-22 145 -95 233q-124 150 -343 150q-148 0 -210 -75q-41 -50 -41 -110q0 -87 79 -125q57 -28 219 -58q209 -39 293 -70q320 -116 320 -395q0 -241 -198 -355q-120 -69 -300 -69t-303 66q-60 32 -137 110l-50 -147h-142v582h142q23 -147 67 -218
q73 -116 204 -175q100 -45 218 -45q80 0 144 23.5t96 64.5q33 43 33 106q0 99 -98 149q-79 41 -448 116q-117 24 -183.5 52t-107.5 72q-93 98 -93 249q0 175 114 290q130 129 379 129q150 0 258 -54q56 -28 138 -99l61 123h123z" />
    <glyph glyph-name="T" unicode="T" horiz-adv-x="1322" 
d="M27 1365h1267v-562h-153q4 213 -80 312q-97 104 -268 104v-871q2 -116 3 -130.5t11 -33.5q14 -28 49 -35q15 -3 52 -3h162v-146h-827v146h161q51 0 72 10q35 16 39 73q0 18 2 119v871q-345 -1 -345 -375q0 -14 1 -41h-146v562z" />
    <glyph glyph-name="U" unicode="U" horiz-adv-x="1544" 
d="M522 1017v-478q0 -157 14 -208q27 -98 126 -143q75 -35 164 -35q163 0 237 102q38 53 43 121q4 53 4 163v478q-2 113 -3 129t-11 35q-14 29 -49 35q-14 3 -50 3h-146v146h695v-146h-115q-51 0 -71 -10q-36 -15 -40 -73q0 -19 -2 -119v-478q0 -149 -1.5 -182t-11.5 -74
q-38 -167 -201 -248q-130 -64 -315 -64q-181 0 -311 59q-172 77 -215 269q-17 75 -17 240v478q-2 113 -3 129t-11 35q-14 29 -49 35q-15 3 -51 3h-136v146h768v-146h-129q-51 0 -71 -10q-36 -15 -40 -73q0 -19 -2 -119z" />
    <glyph glyph-name="V" unicode="V" horiz-adv-x="1402" 
d="M568 0l-354 997q-48 136 -70 168q-40 54 -131 54h-68v146h745v-146h-98q-56 0 -83 -12q-39 -17 -39 -65q0 -34 38 -145l234 -683l237 683q35 100 35 146q0 76 -133 76h-97v146h672v-146h-70q-80 -1 -112 -36q-24 -27 -39 -71l-41 -115l-349 -997h-277z" />
    <glyph glyph-name="W" unicode="W" horiz-adv-x="2131" 
d="M563 0l-342 975q-40 112 -63 158q-44 87 -113 86h-100v146h698v-146h-80q-101 0 -101 -60q0 -27 33 -130l239 -724l240 724q-16 56 -21 75q-23 85 -59 104q-20 11 -78 11h-100v146h730v-146h-90q-123 0 -123 -66q0 -23 34 -124l230 -696l226 696q27 83 27 113
q0 77 -120 77h-121v146h677v-146h-70q-72 0 -105 -44q-26 -37 -84 -200l-335 -975h-258l-254 759l-264 -759h-253z" />
    <glyph glyph-name="X" unicode="X" horiz-adv-x="1532" 
d="M901 740l322 -412q78 -99 122 -137q36 -29 67 -37q24 -8 77 -8h90v-146h-798v146h100q86 0 86 60q0 26 -47 84l-196 241l-208 -241q-38 -44 -38 -79q0 -27 21 -45q22 -20 61 -20h107v-146h-715v146h58q84 0 134 34q30 20 58 54l79 94l317 360l-284 355q-91 115 -126 144
q-43 33 -99 32h-104v146h766v-146h-84q-81 0 -81 -53q0 -34 30 -71l165 -203l180 203q38 44 38 77q0 47 -75 47h-87v146h673v-146h-58q-98 0 -162 -45q-35 -26 -63 -59l-63 -72z" />
    <glyph glyph-name="Y" unicode="Y" horiz-adv-x="1418" 
d="M-51 1219v146h767v-146h-97q-92 -3 -106 -9q-26 -12 -26 -45q0 -29 36 -80l221 -313l221 313q43 61 43 88q0 30 -32 40q-17 6 -66 6h-110v146h669v-146h-52q-68 -1 -104 -22q-56 -34 -147 -163l-309 -442v-244q2 -113 3 -129t11 -35q14 -28 48 -35q15 -3 51 -3h167v-146
h-826v146h161q51 0 72 10q35 16 39 73q0 17 1 119v244l-334 442q-49 65 -63 85q-48 68 -84 84t-87 16h-67z" />
    <glyph glyph-name="Z" unicode="Z" horiz-adv-x="1342" 
d="M1251 1365v-179l-814 -1040h164q148 0 239 16q260 48 260 390q0 18 -1 58h168v-610h-1192v167l822 1052h-184q-174 -2 -225 -12q-92 -15 -153 -99q-49 -65 -62 -199q-3 -19 -4 -116h-164v572h1146z" />
    <glyph glyph-name="bracketleft" unicode="[" horiz-adv-x="830" 
d="M619 -298v-147h-482v1810h482v-146h-214v-1517h214z" />
    <glyph glyph-name="backslash" unicode="\" horiz-adv-x="781" 
d="M261 1365l583 -1810h-146l-589 1810h152z" />
    <glyph glyph-name="bracketright" unicode="]" horiz-adv-x="830" 
d="M694 -445h-482v147h214v1517h-214v146h482v-1810z" />
    <glyph glyph-name="asciicircum" unicode="^" 
d="M267 701h-247l337 671h309l337 -671h-247l-245 483z" />
    <glyph glyph-name="underscore" unicode="_" 
d="M0 -106h1024v-211h-1024v211z" />
    <glyph glyph-name="grave" unicode="`" 
d="M586 1068h-97l-221 212l-17 15q-32 29 -32 54q0 21 25 33q9 5 68 5h177z" />
    <glyph glyph-name="a" unicode="a" horiz-adv-x="1148" 
d="M1028 339h132q-2 -148 -11 -205q-28 -163 -236 -163q-134 0 -194 66q-29 32 -39 100q-47 -69 -90 -103q-78 -63 -223 -63q-157 0 -237 79q-71 70 -71 168q0 216 344 296q202 46 243 77q48 36 48 98q0 78 -72 128q-64 43 -158 43q-131 0 -172 -75q57 -1 86.5 -29.5
t29.5 -81.5q0 -55 -39 -89q-44 -40 -105 -40t-108 41t-47 118q0 118 102 189q103 73 293 73q264 0 360 -128q39 -51 46 -120q4 -40 4 -96v-356q0 -104 12 -130q10 -22 40 -22q62 0 62 85v140zM676 485q-65 -35 -207 -95q-118 -51 -118 -147q0 -52 36 -87q33 -32 95 -32
q197 0 197 285q0 22 -3 76z" />
    <glyph glyph-name="b" unicode="b" horiz-adv-x="1149" 
d="M380 1365v-565q66 101 120 136q74 48 168 48q79 0 155 -32.5t131 -89.5q133 -138 133 -381q0 -256 -153 -400q-115 -109 -284 -109q-116 0 -199 44q-51 27 -108 104l-84 -140h-114v1086q-1 59 -1 93q-1 56 -37 66q-18 3 -60 4h-18v136h351zM600 822q-79 0 -141 -70
q-80 -92 -80 -284q0 -147 52 -233q61 -101 165 -101q54 0 100 32t72 88q42 92 42 241q0 154 -45 231q-57 96 -165 96z" />
    <glyph glyph-name="c" unicode="c" horiz-adv-x="1043" 
d="M815 392h161q-4 -157 -69 -253q-61 -90 -166 -132q-90 -36 -191 -36q-181 0 -313 105q-176 142 -176 389q0 179 102 314q141 187 407 187q201 0 315 -101q95 -84 95 -197q0 -80 -44 -124q-42 -41 -117 -41q-60 0 -101 35q-43 37 -43 100q0 106 122 125q-59 73 -176 73
q-135 0 -211 -100q-72 -95 -72 -257q0 -166 72 -254q75 -91 189 -91q63 0 113.5 31.5t73.5 85.5q22 52 29 141z" />
    <glyph glyph-name="d" unicode="d" horiz-adv-x="1234" 
d="M1013 1365v-1066q1 -65 2 -90q2 -37 25.5 -54.5t71.5 -17.5h101v-137h-435v154q-95 -183 -305 -183q-175 0 -281 107q-131 131 -131 391q0 281 176 423q92 75 231 75q123 0 204 -57q41 -28 106 -110v266q-1 66 -2 91q-2 37 -25.5 54.5t-71.5 17.5h-109v136h443zM537 806
q-53 0 -99.5 -29.5t-71.5 -78.5q-41 -83 -41 -218q0 -120 33 -208q25 -68 82 -103q38 -23 87 -23q107 0 183 88q70 83 70 247q0 156 -71 241q-69 84 -172 84z" />
    <glyph glyph-name="e" unicode="e" horiz-adv-x="1064" 
d="M1001 425h-670q4 -133 45 -205q61 -106 204 -106q187 0 246 215h172q-15 -76 -34 -121t-56 -89q-124 -148 -352 -148q-219 0 -356 128q-139 130 -139 359q0 123 48 232t131 176q123 99 311 99q211 0 331 -140q120 -138 120 -352q0 -16 -1 -48zM738 562q-15 129 -50 182
q-51 77 -154 77q-106 0 -161 -87q-37 -57 -46 -172h411z" />
    <glyph glyph-name="f" unicode="f" horiz-adv-x="747" 
d="M509 937h229v-137h-229v-501q1 -71 2 -90q2 -37 25.5 -54.5t71.5 -17.5h92v-137h-617v137h92q67 2 85 34q13 23 13 63q0 11 1 65v501h-188v137h188q-3 67 -3 104q0 355 331 355q116 0 193 -52q96 -66 96 -173q0 -67 -46 -107q-40 -36 -98 -36q-60 0 -98 37q-34 33 -34 83
q0 51 36 79q17 14 58 27q-39 24 -76 24q-125 0 -125 -158v-76q1 -20 1 -107z" />
    <glyph glyph-name="g" unicode="g" horiz-adv-x="1262" 
d="M954 800q67 -79 67 -185q0 -159 -123 -260q-118 -97 -307 -97q-107 0 -232 44q-64 -30 -64 -76q0 -59 93 -73q35 -6 174 -6h45q145 2 192 2q180 0 259 -86q72 -78 72 -179q0 -184 -185 -271q-118 -55 -346 -55q-534 0 -534 241q0 85 82 134q35 20 111 35q-72 24 -104 51
q-61 51 -61 131q0 86 72 140q37 27 123 47q-65 50 -93 89q-61 83 -61 186q0 154 123 256q118 98 315 98q137 0 237 -48q39 -19 95 -63q46 58 83 80q51 31 111 31q96 0 152 -73q49 -63 49 -143q0 -70 -40 -113q-31 -32 -89 -32q-54 0 -87 31q-36 34 -36 87t32 83q25 24 57 24
q6 0 17 -2q-33 40 -76 40q-61 0 -123 -68zM570 846q-171 0 -171 -260q0 -122 55 -172q49 -45 123 -45q91 0 135 62q38 54 38 184q0 136 -57 189q-45 42 -123 42zM542 -66q-129 0 -182 -11q-46 -10 -76 -46q-23 -27 -23 -63q0 -75 102 -113q98 -36 225 -36q151 0 234 32
q39 15 62.5 47.5t23.5 71.5q0 56 -44 84q-40 27 -186 32q-69 2 -136 2z" />
    <glyph glyph-name="h" unicode="h" horiz-adv-x="1302" 
d="M468 1365v-628q56 100 111 148q94 81 224 81q171 0 245 -114q36 -54 38 -119q1 -22 1 -95v-339q1 -75 2 -90q3 -38 26 -55t71 -17h109v-137h-593v137h51q73 3 87 30q11 20 11 67q0 11 1 65v290q0 99 -6 126q-25 108 -141 108q-85 0 -151 -60q-67 -61 -79 -132
q-7 -38 -7 -108v-224q2 -90 3 -104t9 -28q14 -27 87 -30h51v-137h-585v137h109q67 2 85 34q12 23 13 63l1 65v767q-1 66 -2 91q-2 37 -25.5 54.5t-71.5 17.5h-109v136h435z" />
    <glyph glyph-name="i" unicode="i" horiz-adv-x="695" 
d="M361 1369q66 0 113 -51q40 -45 40 -104q0 -70 -52 -116q-44 -40 -103 -40q-70 0 -116 51q-40 45 -40 106q0 67 52 114q44 40 106 40zM486 937v-638q1 -65 2 -90q2 -37 25.5 -54.5t71.5 -17.5h109v-137h-634v137h92q67 2 85 34q13 23 13 63l1 65v338q-1 67 -2 91
q-2 37 -25.5 54.5t-71.5 17.5h-92v137h426z" />
    <glyph glyph-name="j" unicode="j" horiz-adv-x="661" 
d="M375 1361q67 0 114 -52q40 -44 40 -104q0 -70 -52 -117q-44 -40 -104 -40q-70 0 -117 52q-40 44 -40 106q0 68 52 115q44 40 107 40zM516 937v-1047q0 -120 -7 -148q-21 -93 -115 -147q-92 -52 -210 -52t-191 56q-88 67 -88 174q0 73 51 115q42 35 97 35q62 0 97 -44
q26 -33 26 -78q0 -105 -120 -122q44 -33 88 -33q103 0 120 82q6 31 6 176v733q-1 67 -2 91q-2 37 -25.5 54.5t-71.5 17.5h-92v137h437z" />
    <glyph glyph-name="k" unicode="k" horiz-adv-x="1304" 
d="M463 1365v-903l257 215q68 56 68 85q0 38 -77 38h-101v137h620v-137h-83q-58 0 -101 -31q-46 -40 -105 -92l-118 -99l219 -294q61 -85 70 -96.5t32 -28.5q23 -18 43 -20q10 -2 43 -2h99v-137h-648v137h72q66 0 66 49q0 34 -49 98l-119 157l-188 -155v-35q1 -35 1 -43
q-1 -52 24 -64q16 -7 52 -7h52v-137h-572v137h109q67 2 85 34q12 23 13 63l1 65v767q-1 66 -2 91q-2 37 -25.5 54.5t-71.5 17.5h-109v136h443z" />
    <glyph glyph-name="l" unicode="l" horiz-adv-x="665" 
d="M460 1365v-1066q1 -65 2 -90q2 -37 25.5 -54.5t71.5 -17.5h92v-137h-617v137h92q67 2 85 34q13 23 13 63l1 65v767q-1 66 -2 91q-2 37 -25.5 54.5t-71.5 17.5h-92v136h426z" />
    <glyph glyph-name="m" unicode="m" horiz-adv-x="1930" 
d="M504 937v-184q49 90 109 141q85 72 214 72q124 0 199 -58q45 -36 95 -128q37 66 78 106q83 80 210 80q176 0 259 -115q39 -54 44 -121q4 -46 4 -128v-303q1 -71 2 -90q2 -37 25.5 -54.5t71.5 -17.5h109v-137h-593v137h51q67 2 85 34q12 23 13 63l1 65v266q0 103 -4 123
q-11 61 -64 90q-43 24 -98 24q-104 0 -157 -74.5t-53 -220.5v-208q1 -65 2 -90q2 -37 25.5 -54.5t71.5 -17.5h51v-137h-528v137h51q67 2 85 34q13 23 13 63l1 65v266q0 92 -7 121q-14 64 -65 94q-41 24 -92 24q-108 0 -169 -91q-32 -49 -37 -96q-3 -30 -3 -110v-208
q1 -75 2 -90q3 -38 26 -55t71 -17h51v-137h-593v137h109q67 2 85 34q12 23 13 63l1 65v338q-1 67 -2 91q-2 37 -25.5 54.5t-71.5 17.5h-109v137h443z" />
    <glyph glyph-name="n" unicode="n" horiz-adv-x="1332" 
d="M506 937v-181q53 82 107 128q96 82 216 82q162 0 242 -110q39 -53 45 -121q4 -51 4 -140v-296q1 -65 2 -90q2 -37 25.5 -54.5t71.5 -17.5h109v-137h-593v137h51q67 2 85 34q13 23 13 63q0 11 1 65v255q0 107 -4 126q-13 60 -67 93q-45 27 -99 27q-105 0 -168 -85
q-30 -40 -37 -81q-4 -27 -4 -80v-255q1 -65 2 -90q2 -37 25.5 -54.5t71.5 -17.5h51v-137h-593v137h109q67 2 85 34q12 23 13 63l1 65v338q-1 67 -2 91q-2 37 -25.5 54.5t-71.5 17.5h-109v137h443z" />
    <glyph glyph-name="o" unicode="o" horiz-adv-x="1188" 
d="M597 966q176 0 321 -103q99 -71 154 -177q54 -105 54 -225q0 -210 -153 -353q-146 -137 -362 -137q-186 0 -332 95q-104 69 -161.5 172.5t-57.5 223.5q0 158 94 290q87 121 237 178q97 36 206 36zM593 849q-140 0 -204 -117q-52 -95 -52 -249q0 -153 39 -249
q29 -72 99 -108q49 -26 111 -26q137 0 205 102q58 85 58 250q0 205 -65 304q-60 93 -191 93z" />
    <glyph glyph-name="p" unicode="p" horiz-adv-x="1250" 
d="M477 937v-155q61 91 114 127q84 57 195 57q181 0 297 -136q108 -127 108 -333q0 -246 -125 -397q-49 -60 -123 -94.5t-153 -34.5q-119 0 -215 73q-42 32 -98 110v-302q1 -66 2 -90q2 -37 25.5 -54.5t71.5 -17.5h101v-137h-643v137h109q67 2 85 34q13 23 13 63q0 11 1 65
v785q-1 72 -2 91q-2 37 -25.5 54.5t-71.5 17.5h-109v137h443zM706 816q-48 0 -93.5 -25t-73.5 -67q-70 -106 -70 -256q0 -141 66 -238q29 -43 77 -68.5t100 -25.5q112 0 167 105q46 89 46 235q0 150 -45 235q-55 105 -174 105z" />
    <glyph glyph-name="q" unicode="q" horiz-adv-x="1200" 
d="M769 155q-60 -99 -117 -135q-78 -49 -190 -49q-173 0 -279 124q-120 140 -120 367q0 215 104 351q120 154 318 154q115 0 193 -64q39 -33 91 -111v145h426v-137h-92q-66 -1 -85 -34q-13 -23 -13 -63l-1 -66v-782q1 -66 2 -91q2 -37 25.5 -54.5t71.5 -17.5h92v-137h-634
v137h109q67 2 85 34q13 23 13 63l1 66v300zM536 799q-107 0 -159 -93q-49 -86 -49 -235q0 -333 202 -333q118 0 188 110q51 81 51 219q0 167 -57 246q-62 86 -176 86z" />
    <glyph glyph-name="r" unicode="r" horiz-adv-x="959" 
d="M515 937v-137q84 166 239 166q101 0 163 -69q60 -67 60 -155q0 -89 -58 -144q-46 -44 -112 -44q-59 0 -98 37q-44 42 -44 102q0 109 134 138q-35 14 -58 14q-56 0 -107.5 -33.5t-80.5 -88.5q-30 -58 -36 -125q-2 -18 -2 -108v-191q1 -65 2 -90q2 -37 25.5 -54.5
t71.5 -17.5h109v-137h-662v137h109q67 2 85 34q12 23 13 63l1 65v338q-1 67 -2 91q-2 37 -25.5 54.5t-71.5 17.5h-109v137h454z" />
    <glyph glyph-name="s" unicode="s" horiz-adv-x="1047" 
d="M923 937v-359h-140q-7 84 -64 157q-39 49 -102 76q-58 25 -118 25q-67 0 -106 -39q-33 -34 -33 -77q0 -64 75 -92q17 -6 163 -39q373 -83 373 -322q0 -142 -110 -224q-96 -72 -248 -72q-115 0 -208 40q-47 20 -116 74l-30 -85h-147v381h147q13 -84 43 -127
q57 -84 143 -125q60 -28 131 -28q102 0 141 58q20 28 20 66q0 49 -38 78q-29 23 -62 33q-37 10 -119 28q-191 41 -286 99q-58 35 -92 103q-27 54 -27 117q0 115 89 194q103 89 266 89q111 0 197 -45q38 -20 88 -64l30 80h140z" />
    <glyph glyph-name="t" unicode="t" horiz-adv-x="871" 
d="M458 919h272v-145h-272v-451q0 -104 6 -128q13 -55 73 -55q57 0 71 48q13 49 13 245h144q4 -87 4 -137q0 -325 -266 -325q-82 0 -146 31.5t-97 87.5q-29 49 -35 114q-2 18 -2 119v451h-199v145q107 4 175 64q99 93 109 320h150v-384z" />
    <glyph glyph-name="u" unicode="u" horiz-adv-x="1275" 
d="M1068 937v-638q1 -71 2 -90q2 -37 25.5 -54.5t71.5 -17.5h109v-137h-443v184q-46 -91 -95 -135q-86 -78 -225 -78q-160 0 -237 95q-45 55 -50 131q-3 42 -3 118v323q-1 66 -2 90q-2 38 -25.5 55t-71.5 17h-32v137h366v-568q0 -124 21 -166q32 -63 126 -63q120 0 187 113
q33 54 38 109q3 25 3 77v199q-1 66 -2 90q-2 38 -25.5 55t-71.5 17h-119v137h453z" />
    <glyph glyph-name="v" unicode="v" horiz-adv-x="1005" 
d="M-55 937h534v-137h-48q-42 0 -55 -13q-12 -11 -12 -32q0 -30 20 -88l156 -470l154 470q19 59 19 90q0 27 -23 37q-13 6 -50 6h-72v137h478v-137h-39q-42 0 -62 -10q-27 -13 -49 -68q-12 -30 -35 -96l-220 -626h-276l-229 626q-40 116 -66 148q-21 25 -88 26h-37v137z" />
    <glyph glyph-name="w" unicode="w" horiz-adv-x="1530" 
d="M-52 937h511v-137h-42q-71 0 -71 -43q0 -18 24 -95l152 -476l139 476q6 23 11 40q9 29 9 50q0 48 -67 48h-69v137h508v-137h-62q-64 0 -64 -44q0 -9 12 -50l12 -44l149 -476l136 476q18 61 18 90q0 48 -59 48h-54v137h427v-137h-57q-44 0 -63 -31q-19 -32 -56 -144
l-197 -625h-265l-164 513l-152 -513h-273l-204 625q-31 92 -39 111q-23 62 -100 64h-50v137z" />
    <glyph glyph-name="x" unicode="x" horiz-adv-x="1256" 
d="M778 509l241 -260q69 -73 103 -93q31 -19 88 -19h46v-137h-605v137h75q50 0 50 40q0 23 -24 48l-138 142l-160 -142q-33 -29 -33 -54q0 -34 51 -34h89v-137h-534v137h42q59 0 112 29q35 20 103 83l233 217l-209 222q-61 63 -82 82q-38 30 -99 30h-80v137h596v-137h-59
q-28 0 -36.5 -4.5t-8.5 -18.5q0 -16 12 -28l25 -26l107 -119l122 119q31 29 31 50q0 27 -58 27h-52v137h500v-137h-55q-64 0 -95 -15q-36 -18 -116 -96z" />
    <glyph glyph-name="y" unicode="y" horiz-adv-x="1178" 
d="M-14 937h608v-137h-50q-97 0 -97 -50q0 -27 23 -81l181 -415l169 415q17 40 17 64q0 67 -98 67h-57v137h523v-137h-32q-89 -1 -119 -42q-14 -21 -60 -122l-343 -797q-59 -136 -139 -211q-88 -83 -219 -83q-103 0 -185 56q-108 74 -108 197q0 79 48 126q49 48 115 48
q55 0 94 -34q42 -37 42 -88q0 -49 -38 -85q-33 -31 -104 -31q35 -46 108 -46q116 0 187 126q20 36 66 159l-306 663q-44 94 -58 111q-43 52 -125 53h-43v137z" />
    <glyph glyph-name="z" unicode="z" horiz-adv-x="1034" 
d="M111 937h846v-137l-614 -663h161q110 0 169 15.5t86 50.5q48 61 48 260h150v-463h-881v154l598 646h-152q-94 0 -130 -5q-87 -13 -113 -95q-17 -55 -17 -132q0 -15 1 -46h-152v415z" />
    <glyph glyph-name="braceleft" unicode="{" 
d="M483 460q57 -37 80 -70q41 -62 43 -185v-306q2 -82 12 -102q18 -34 66 -44q38 -7 91 -7q10 0 33 1v-206q-46 -1 -61 -2q-54 -2 -68 -2q-106 0 -161 22q-100 40 -130 139q-17 55 -17 136v356q-1 98 -28 131q-36 41 -85 49v197q56 11 85 50q22 29 28 113v362q0 162 79 229
q51 44 128 55q46 7 103 7q14 0 66 -2q20 -1 61 -1v-207q-22 1 -33 1q-100 0 -132 -23q-31 -21 -35 -69q-1 -16 -2 -59v-310q0 -123 -40 -181q-23 -34 -83 -72z" />
    <glyph glyph-name="bar" unicode="|" 
d="M394 1365h236v-1706h-236v1706z" />
    <glyph glyph-name="braceright" unicode="}" 
d="M540 460q-57 37 -80 71q-42 62 -43 184v306q-2 82 -12 102q-18 34 -67 44q-37 7 -90 7q-10 0 -33 -1v207q47 0 61 1q56 2 68 2q106 0 161 -22q100 -40 130 -139q17 -55 17 -136v-356q2 -98 28 -131q35 -40 85 -49v-197q-56 -11 -86 -49q-21 -30 -27 -114v-362
q0 -162 -78 -229q-52 -44 -129 -55q-46 -7 -103 -7q-16 0 -66 2q-20 1 -61 2v206q22 -1 33 -1q100 0 132 23q31 21 35 69q1 16 2 59v310q0 123 40 181q23 34 83 72z" />
    <glyph glyph-name="asciitilde" unicode="~" horiz-adv-x="1365" 
d="M317 1159l-131 86q8 16 15 32q46 101 85 148q78 92 202 92q70 0 217 -58q99 -38 123 -44q31 -8 60 -8q65 0 106 42q21 22 51 71l135 -78q-72 -150 -141 -201q-82 -61 -178 -61q-40 0 -112 23q-54 18 -186 68q-50 19 -89 19q-67 0 -109 -52q-20 -25 -48 -79z" />
    <glyph glyph-name="Adieresis" unicode="&#xc4;" horiz-adv-x="1473" 
d="M596 1378h296l369 -1080q38 -100 54 -120q28 -31 91 -32h108v-146h-759v146h137q113 0 113 57q0 18 -27 95l-48 139h-459l-43 -139q-22 -71 -22 -103q0 -49 69 -49h166v-146h-682v146h79q63 -1 106 26q22 14 37 47q3 7 29 79zM892 583l-189 540l-180 -540h369zM539 1756
q56 0 96 -44q34 -37 34 -88q0 -59 -44 -98q-37 -34 -88 -34q-59 0 -98 44q-34 37 -34 89q0 57 44 97q37 34 90 34zM939 1756q56 0 96 -44q34 -37 34 -88q0 -59 -44 -98q-37 -34 -88 -34q-59 0 -98 44q-34 37 -34 89q0 57 44 97q37 34 90 34z" />
    <glyph glyph-name="Aring" unicode="&#xc5;" horiz-adv-x="1473" 
d="M596 1378h296l369 -1080q38 -100 54 -120q28 -31 91 -32h108v-146h-759v146h137q113 0 113 57q0 18 -27 95l-48 139h-459l-43 -139q-22 -71 -22 -103q0 -49 69 -49h166v-146h-682v146h79q63 -1 106 26q22 14 37 47q3 7 29 79zM892 583l-189 540l-180 -540h369zM741 1834
q85 0 145 -66q51 -57 51 -134q0 -89 -66 -149q-57 -51 -134 -51q-89 0 -149 66q-51 57 -51 136q0 86 66 147q57 51 138 51zM736 1717q-36 0 -61 -27q-21 -24 -21 -56q0 -37 27 -62q24 -21 56 -21q37 0 62 27q21 24 21 57q0 35 -28 61q-23 21 -56 21z" />
    <glyph glyph-name="Ccedilla" unicode="&#xc7;" horiz-adv-x="1421" 
d="M734 -28l-62 -93q43 10 74 10q76 0 120 -39t44 -98q0 -78 -75 -129q-56 -40 -153 -40q-101 0 -211 44l35 73q84 -32 152 -32q38 0 62 13q39 22 39 63q0 36 -32 57q-24 16 -56 16t-79 -17l-38 36l93 136q-145 16 -250 72q-148 78 -234 229q-102 180 -102 413
q0 337 208 544q164 165 414 165q148 0 250 -66q50 -32 128 -110l52 146h163v-535h-155q-19 125 -50 185q-62 120 -174 170q-65 29 -144 29q-213 0 -299 -162q-74 -138 -74 -386q0 -528 361 -528q224 0 314 181q39 79 58 204h163q-7 -108 -21.5 -169.5t-46.5 -119.5
q-148 -263 -474 -262z" />
    <glyph glyph-name="Eacute" unicode="&#xc9;" horiz-adv-x="1580" 
d="M1404 1365v-555h-155q2 171 -51 278q-35 71 -97.5 101t-176.5 30h-343v-445h40q58 -1 71 -1q104 0 140 68q30 57 30 181v20h143v-697h-143q0 129 -27 198q-27 71 -99 87q-24 5 -64 5h-53h-38v-489h339q110 0 152 15q178 65 178 337q0 28 -1 82h155v-580h-1341v147h129
q51 0 71 9q36 16 40 74q0 18 2 119v668q-3 127 -3.5 135.5t-10.5 28.5q-14 28 -49 35q-15 3 -50 3h-129v146h1341zM662 1499l261 253h176q63 0 75 -9q18 -13 18 -30q0 -42 -62 -68l-344 -146h-124z" />
    <glyph glyph-name="Ntilde" unicode="&#xd1;" horiz-adv-x="1686" 
d="M648 1365l577 -942v594q-1 98 -2 119q-4 57 -39 73q-20 10 -72 10h-129v146h671v-146h-115q-51 0 -71 -10q-36 -15 -40 -73q0 -19 -2 -119v-1017h-278l-642 1042v-693q2 -114 3 -129.5t11 -35.5q14 -28 49 -34q14 -3 50 -3h129v-147h-685v147h129q51 0 71 9q36 16 40 74
q0 18 2 119v668q-2 98 -2 119q-4 57 -40 73q-19 10 -71 10h-129v146h585zM1122 1759h117q-5 -69 -40 -126q-29 -48 -76 -75q-51 -30 -106 -30t-175 37q-80 24 -116 24q-34 0 -60 -14q-21 -11 -34 -54h-114q20 87 41 125q25 48 69 76t95 28q52 0 161 -29q116 -30 167 -30
q54 0 71 68z" />
    <glyph glyph-name="Odieresis" unicode="&#xd6;" horiz-adv-x="1574" 
d="M808 1395q136 0 263 -50.5t225 -143.5q216 -206 216 -527q0 -247 -134 -428q-118 -159 -313 -229q-128 -46 -277 -46q-259 0 -450 136q-135 95 -206 238t-71 316q0 255 141 451q120 166 334 239q129 44 272 44zM792 1228q-169 0 -277 -116q-135 -145 -135 -438
q0 -261 114 -407q112 -142 296 -142q180 0 290 139q113 142 113 387q0 151 -33 272.5t-94 194.5q-92 110 -274 110zM604 1756q56 0 96 -44q34 -37 34 -88q0 -59 -44 -98q-37 -34 -88 -34q-59 0 -98 44q-34 37 -34 89q0 57 44 97q37 34 90 34zM1004 1756q56 0 96 -44
q34 -37 34 -88q0 -59 -44 -98q-37 -34 -88 -34q-59 0 -98 44q-34 37 -34 89q0 57 44 97q37 34 90 34z" />
    <glyph glyph-name="Udieresis" unicode="&#xdc;" horiz-adv-x="1544" 
d="M522 1017v-478q0 -157 14 -208q27 -98 126 -143q75 -35 164 -35q163 0 237 102q38 53 43 121q4 53 4 163v478q-2 113 -3 129t-11 35q-14 29 -49 35q-14 3 -50 3h-146v146h695v-146h-115q-51 0 -71 -10q-36 -15 -40 -73q0 -19 -2 -119v-478q0 -149 -1.5 -182t-11.5 -74
q-38 -167 -201 -248q-130 -64 -315 -64q-181 0 -311 59q-172 77 -215 269q-17 75 -17 240v478q-2 113 -3 129t-11 35q-14 29 -49 35q-15 3 -51 3h-136v146h768v-146h-129q-51 0 -71 -10q-36 -15 -40 -73q0 -19 -2 -119zM615 1756q56 0 96 -44q34 -37 34 -88q0 -59 -44 -98
q-37 -34 -88 -34q-59 0 -98 44q-34 37 -34 89q0 57 44 97q37 34 90 34zM1015 1756q57 0 96 -44q34 -38 34 -88q0 -58 -44 -98q-37 -34 -88 -34q-59 0 -98 44q-34 37 -34 89q0 57 44 97q37 34 90 34z" />
    <glyph glyph-name="aacute" unicode="&#xe1;" horiz-adv-x="1148" 
d="M1028 339h132q-2 -148 -11 -205q-28 -163 -236 -163q-134 0 -194 66q-29 32 -39 100q-47 -69 -90 -103q-78 -63 -223 -63q-157 0 -237 79q-71 70 -71 168q0 216 344 296q202 46 243 77q48 36 48 98q0 78 -72 128q-64 43 -158 43q-131 0 -172 -75q57 -1 86.5 -29.5
t29.5 -81.5q0 -55 -39 -89q-44 -40 -105 -40t-108 41t-47 118q0 118 102 189q103 73 293 73q264 0 360 -128q39 -51 46 -120q4 -40 4 -96v-356q0 -104 12 -130q10 -22 40 -22q62 0 62 85v140zM676 485q-65 -35 -207 -95q-118 -51 -118 -147q0 -52 36 -87q33 -32 95 -32
q197 0 197 285q0 22 -3 76zM425 1068l97 319h177q62 0 74 -9q18 -13 18 -29q0 -24 -21 -43l-27 -26l-221 -212h-97z" />
    <glyph glyph-name="agrave" unicode="&#xe0;" horiz-adv-x="1148" 
d="M1028 339h132q-2 -148 -11 -205q-28 -163 -236 -163q-134 0 -194 66q-29 32 -39 100q-47 -69 -90 -103q-78 -63 -223 -63q-157 0 -237 79q-71 70 -71 168q0 216 344 296q202 46 243 77q48 36 48 98q0 78 -72 128q-64 43 -158 43q-131 0 -172 -75q57 -1 86.5 -29.5
t29.5 -81.5q0 -55 -39 -89q-44 -40 -105 -40t-108 41t-47 118q0 118 102 189q103 73 293 73q264 0 360 -128q39 -51 46 -120q4 -40 4 -96v-356q0 -104 12 -130q10 -22 40 -22q62 0 62 85v140zM676 485q-65 -35 -207 -95q-118 -51 -118 -147q0 -52 36 -87q33 -32 95 -32
q197 0 197 285q0 22 -3 76zM635 1068h-97l-221 212l-17 15q-32 29 -32 54q0 21 25 33q9 5 68 5h177z" />
    <glyph glyph-name="acircumflex" unicode="&#xe2;" horiz-adv-x="1148" 
d="M1028 339h132q-2 -148 -11 -205q-28 -163 -236 -163q-134 0 -194 66q-29 32 -39 100q-47 -69 -90 -103q-78 -63 -223 -63q-157 0 -237 79q-71 70 -71 168q0 216 344 296q202 46 243 77q48 36 48 98q0 78 -72 128q-64 43 -158 43q-131 0 -172 -75q57 -1 86.5 -29.5
t29.5 -81.5q0 -55 -39 -89q-44 -40 -105 -40t-108 41t-47 118q0 118 102 189q103 73 293 73q264 0 360 -128q39 -51 46 -120q4 -40 4 -96v-356q0 -104 12 -130q10 -22 40 -22q62 0 62 85v140zM676 485q-65 -35 -207 -95q-118 -51 -118 -147q0 -52 36 -87q33 -32 95 -32
q197 0 197 285q0 22 -3 76zM403 1380h248l192 -309h-244l-103 171l-155 -171h-132z" />
    <glyph glyph-name="adieresis" unicode="&#xe4;" horiz-adv-x="1148" 
d="M1028 339h132q-2 -148 -11 -205q-28 -163 -236 -163q-134 0 -194 66q-29 32 -39 100q-47 -69 -90 -103q-78 -63 -223 -63q-157 0 -237 79q-71 70 -71 168q0 216 344 296q202 46 243 77q48 36 48 98q0 78 -72 128q-64 43 -158 43q-131 0 -172 -75q57 -1 86.5 -29.5
t29.5 -81.5q0 -55 -39 -89q-44 -40 -105 -40t-108 41t-47 118q0 118 102 189q103 73 293 73q264 0 360 -128q39 -51 46 -120q4 -40 4 -96v-356q0 -104 12 -130q10 -22 40 -22q62 0 62 85v140zM676 485q-65 -35 -207 -95q-118 -51 -118 -147q0 -52 36 -87q33 -32 95 -32
q197 0 197 285q0 22 -3 76zM328 1365q58 0 99 -45q35 -39 35 -91q0 -61 -45 -102q-39 -35 -91 -35q-61 0 -102 45q-35 39 -35 93q0 59 45 100q39 35 94 35zM718 1365q58 0 99 -45q35 -39 35 -91q0 -61 -45 -102q-39 -35 -92 -35q-60 0 -101 45q-35 39 -35 93q0 59 45 100
q39 35 94 35z" />
    <glyph glyph-name="atilde" unicode="&#xe3;" horiz-adv-x="1148" 
d="M1028 339h132q-2 -148 -11 -205q-28 -163 -236 -163q-134 0 -194 66q-29 32 -39 100q-47 -69 -90 -103q-78 -63 -223 -63q-157 0 -237 79q-71 70 -71 168q0 216 344 296q202 46 243 77q48 36 48 98q0 78 -72 128q-64 43 -158 43q-131 0 -172 -75q57 -1 86.5 -29.5
t29.5 -81.5q0 -55 -39 -89q-44 -40 -105 -40t-108 41t-47 118q0 118 102 189q103 73 293 73q264 0 360 -128q39 -51 46 -120q4 -40 4 -96v-356q0 -104 12 -130q10 -22 40 -22q62 0 62 85v140zM676 485q-65 -35 -207 -95q-118 -51 -118 -147q0 -52 36 -87q33 -32 95 -32
q197 0 197 285q0 22 -3 76zM758 1337h111q-3 -95 -55 -158q-68 -82 -173 -82q-45 0 -155 31q-100 28 -134 28q-61 0 -72 -76h-108q1 74 43 139q61 96 183 96q50 0 208 -39q60 -15 83 -15q29 0 52 29q13 17 17 47z" />
    <glyph glyph-name="aring" unicode="&#xe5;" horiz-adv-x="1148" 
d="M1028 339h132q-2 -148 -11 -205q-28 -163 -236 -163q-134 0 -194 66q-29 32 -39 100q-47 -69 -90 -103q-78 -63 -223 -63q-157 0 -237 79q-71 70 -71 168q0 216 344 296q202 46 243 77q48 36 48 98q0 78 -72 128q-64 43 -158 43q-131 0 -172 -75q57 -1 86.5 -29.5
t29.5 -81.5q0 -55 -39 -89q-44 -40 -105 -40t-108 41t-47 118q0 118 102 189q103 73 293 73q264 0 360 -128q39 -51 46 -120q4 -40 4 -96v-356q0 -104 12 -130q10 -22 40 -22q62 0 62 85v140zM676 485q-65 -35 -207 -95q-118 -51 -118 -147q0 -52 36 -87q33 -32 95 -32
q197 0 197 285q0 22 -3 76zM525 1452q85 0 145 -66q51 -56 51 -133q0 -89 -66 -148q-57 -51 -134 -51q-89 0 -149 66q-51 56 -51 135q0 86 66 146q57 51 138 51zM520 1336q-36 0 -61 -27q-21 -24 -21 -56q0 -37 27 -62q24 -21 56 -21q37 0 62 27q21 24 21 57q0 35 -28 61
q-23 21 -56 21z" />
    <glyph glyph-name="ccedilla" unicode="&#xe7;" horiz-adv-x="1043" 
d="M565 -28l-61 -93q43 10 73 10q76 0 120 -39q44 -38 44 -98q0 -78 -74 -129q-57 -40 -154 -40q-100 0 -210 44l34 73q85 -32 153 -32q37 0 61 13q39 22 39 63q0 36 -32 57q-24 16 -56 16t-79 -17l-37 36l95 140q-63 8 -110 25q-125 46 -206 149q-104 131 -104 315
q0 179 102 314q141 187 407 187q201 0 315 -101q95 -84 95 -197q0 -80 -44 -124q-42 -41 -117 -41q-60 0 -101 35q-43 37 -43 100q0 106 122 125q-59 73 -176 73q-135 0 -211 -100q-72 -95 -72 -257q0 -166 72 -254q75 -91 189 -91q63 0 113.5 31.5t73.5 85.5q22 52 29 141
h161q-1 -230 -160 -344q-103 -72 -251 -76z" />
    <glyph glyph-name="eacute" unicode="&#xe9;" horiz-adv-x="1064" 
d="M1001 425h-670q4 -133 45 -205q61 -106 204 -106q187 0 246 215h172q-15 -76 -34 -121t-56 -89q-124 -148 -352 -148q-219 0 -356 128q-139 130 -139 359q0 123 48 232t131 176q123 99 311 99q211 0 331 -140q120 -138 120 -352q0 -16 -1 -48zM738 562q-15 129 -50 182
q-51 77 -154 77q-106 0 -161 -87q-37 -57 -46 -172h411zM444 1068l97 319h177q62 0 74 -9q18 -13 18 -29q0 -24 -21 -43l-27 -26l-221 -212h-97z" />
    <glyph glyph-name="egrave" unicode="&#xe8;" horiz-adv-x="1064" 
d="M1001 425h-670q4 -133 45 -205q61 -106 204 -106q187 0 246 215h172q-15 -76 -34 -121t-56 -89q-124 -148 -352 -148q-219 0 -356 128q-139 130 -139 359q0 123 48 232t131 176q123 99 311 99q211 0 331 -140q120 -138 120 -352q0 -16 -1 -48zM738 562q-15 129 -50 182
q-51 77 -154 77q-106 0 -161 -87q-37 -57 -46 -172h411zM660 1068h-97l-221 212l-17 15q-32 29 -32 54q0 21 25 33q9 5 68 5h177z" />
    <glyph glyph-name="ecircumflex" unicode="&#xea;" horiz-adv-x="1064" 
d="M1001 425h-670q4 -133 45 -205q61 -106 204 -106q187 0 246 215h172q-15 -76 -34 -121t-56 -89q-124 -148 -352 -148q-219 0 -356 128q-139 130 -139 359q0 123 48 232t131 176q123 99 311 99q211 0 331 -140q120 -138 120 -352q0 -16 -1 -48zM738 562q-15 129 -50 182
q-51 77 -154 77q-106 0 -161 -87q-37 -57 -46 -172h411zM436 1380h248l192 -309h-244l-103 171l-155 -171h-132z" />
    <glyph glyph-name="edieresis" unicode="&#xeb;" horiz-adv-x="1064" 
d="M1001 425h-670q4 -133 45 -205q61 -106 204 -106q187 0 246 215h172q-15 -76 -34 -121t-56 -89q-124 -148 -352 -148q-219 0 -356 128q-139 130 -139 359q0 123 48 232t131 176q123 99 311 99q211 0 331 -140q120 -138 120 -352q0 -16 -1 -48zM738 562q-15 129 -50 182
q-51 77 -154 77q-106 0 -161 -87q-37 -57 -46 -172h411zM367 1365q58 0 99 -45q35 -39 35 -91q0 -61 -45 -102q-39 -35 -91 -35q-61 0 -102 45q-35 39 -35 93q0 59 45 100q39 35 94 35zM757 1365q58 0 99 -45q35 -39 35 -91q0 -61 -45 -102q-39 -35 -92 -35q-60 0 -101 45
q-35 39 -35 93q0 59 45 100q39 35 94 35z" />
    <glyph glyph-name="iacute" unicode="&#xed;" horiz-adv-x="695" 
d="M486 937v-638q1 -65 2 -90q2 -37 25.5 -54.5t71.5 -17.5h109v-137h-634v137h92q67 2 85 34q13 23 13 63l1 65v338q-1 67 -2 91q-2 37 -25.5 54.5t-71.5 17.5h-92v137h426zM233 1068l97 319h177q62 0 74 -9q18 -13 18 -29q0 -24 -21 -43l-27 -26l-221 -212h-97z" />
    <glyph glyph-name="igrave" unicode="&#xec;" horiz-adv-x="695" 
d="M486 937v-638q1 -65 2 -90q2 -37 25.5 -54.5t71.5 -17.5h109v-137h-634v137h92q67 2 85 34q13 23 13 63l1 65v338q-1 67 -2 91q-2 37 -25.5 54.5t-71.5 17.5h-92v137h426zM421 1068h-97l-221 212l-17 15q-32 29 -32 54q0 21 25 33q9 5 68 5h177z" />
    <glyph glyph-name="icircumflex" unicode="&#xee;" horiz-adv-x="695" 
d="M486 937v-638q1 -65 2 -90q2 -37 25.5 -54.5t71.5 -17.5h109v-137h-634v137h92q67 2 85 34q13 23 13 63l1 65v338q-1 67 -2 91q-2 37 -25.5 54.5t-71.5 17.5h-92v137h426zM211 1380h248l192 -309h-244l-103 171l-155 -171h-132z" />
    <glyph glyph-name="idieresis" unicode="&#xef;" horiz-adv-x="695" 
d="M486 937v-638q1 -65 2 -90q2 -37 25.5 -54.5t71.5 -17.5h109v-137h-634v137h92q67 2 85 34q13 23 13 63l1 65v338q-1 67 -2 91q-2 37 -25.5 54.5t-71.5 17.5h-92v137h426zM156 1365q58 0 99 -45q35 -39 35 -91q0 -61 -45 -102q-39 -35 -91 -35q-61 0 -102 45
q-35 39 -35 93q0 59 45 100q39 35 94 35zM492 1365q58 0 99 -45q35 -39 35 -91q0 -61 -45 -102q-39 -35 -91 -35q-61 0 -102 45q-35 39 -35 93q0 59 45 100q39 35 94 35z" />
    <glyph glyph-name="ntilde" unicode="&#xf1;" horiz-adv-x="1332" 
d="M506 937v-181q53 82 107 128q96 82 216 82q162 0 242 -110q39 -53 45 -121q4 -51 4 -140v-296q1 -65 2 -90q2 -37 25.5 -54.5t71.5 -17.5h109v-137h-593v137h51q67 2 85 34q13 23 13 63q0 11 1 65v255q0 107 -4 126q-13 60 -67 93q-45 27 -99 27q-105 0 -168 -85
q-30 -40 -37 -81q-4 -27 -4 -80v-255q1 -65 2 -90q2 -37 25.5 -54.5t71.5 -17.5h51v-137h-593v137h109q67 2 85 34q12 23 13 63l1 65v338q-1 67 -2 91q-2 37 -25.5 54.5t-71.5 17.5h-109v137h443zM905 1337h111q-3 -95 -55 -158q-68 -82 -173 -82q-45 0 -155 31
q-100 28 -134 28q-61 0 -72 -76h-108q1 74 43 139q61 96 183 96q50 0 208 -39q60 -15 83 -15q29 0 52 29q13 17 17 47z" />
    <glyph glyph-name="oacute" unicode="&#xf3;" horiz-adv-x="1188" 
d="M597 966q176 0 321 -103q99 -71 154 -177q54 -105 54 -225q0 -210 -153 -353q-146 -137 -362 -137q-186 0 -332 95q-104 69 -161.5 172.5t-57.5 223.5q0 158 94 290q87 121 237 178q97 36 206 36zM593 849q-140 0 -204 -117q-52 -95 -52 -249q0 -153 39 -249
q29 -72 99 -108q49 -26 111 -26q137 0 205 102q58 85 58 250q0 205 -65 304q-60 93 -191 93zM486 1068l97 319h177q62 0 74 -9q18 -13 18 -29q0 -24 -21 -43l-27 -26l-221 -212h-97z" />
    <glyph glyph-name="ograve" unicode="&#xf2;" horiz-adv-x="1188" 
d="M597 966q176 0 321 -103q99 -71 154 -177q54 -105 54 -225q0 -210 -153 -353q-146 -137 -362 -137q-186 0 -332 95q-104 69 -161.5 172.5t-57.5 223.5q0 158 94 290q87 121 237 178q97 36 206 36zM593 849q-140 0 -204 -117q-52 -95 -52 -249q0 -153 39 -249
q29 -72 99 -108q49 -26 111 -26q137 0 205 102q58 85 58 250q0 205 -65 304q-60 93 -191 93zM709 1068h-97l-221 212l-17 15q-32 29 -32 54q0 21 25 33q9 5 68 5h177z" />
    <glyph glyph-name="ocircumflex" unicode="&#xf4;" horiz-adv-x="1188" 
d="M597 966q176 0 321 -103q99 -71 154 -177q54 -105 54 -225q0 -210 -153 -353q-146 -137 -362 -137q-186 0 -332 95q-104 69 -161.5 172.5t-57.5 223.5q0 158 94 290q87 121 237 178q97 36 206 36zM593 849q-140 0 -204 -117q-52 -95 -52 -249q0 -153 39 -249
q29 -72 99 -108q49 -26 111 -26q137 0 205 102q58 85 58 250q0 205 -65 304q-60 93 -191 93zM498 1380h248l192 -309h-244l-103 171l-155 -171h-132z" />
    <glyph glyph-name="odieresis" unicode="&#xf6;" horiz-adv-x="1188" 
d="M597 966q176 0 321 -103q99 -71 154 -177q54 -105 54 -225q0 -210 -153 -353q-146 -137 -362 -137q-186 0 -332 95q-104 69 -161.5 172.5t-57.5 223.5q0 158 94 290q87 121 237 178q97 36 206 36zM593 849q-140 0 -204 -117q-52 -95 -52 -249q0 -153 39 -249
q29 -72 99 -108q49 -26 111 -26q137 0 205 102q58 85 58 250q0 205 -65 304q-60 93 -191 93zM402 1365q58 0 99 -45q35 -39 35 -91q0 -61 -45 -102q-39 -35 -91 -35q-61 0 -102 45q-35 39 -35 93q0 59 45 100q39 35 94 35zM792 1365q58 0 99 -45q35 -39 35 -91
q0 -61 -45 -102q-39 -35 -92 -35q-60 0 -101 45q-35 39 -35 93q0 59 45 100q39 35 94 35z" />
    <glyph glyph-name="otilde" unicode="&#xf5;" horiz-adv-x="1188" 
d="M597 966q176 0 321 -103q99 -71 154 -177q54 -105 54 -225q0 -210 -153 -353q-146 -137 -362 -137q-186 0 -332 95q-104 69 -161.5 172.5t-57.5 223.5q0 158 94 290q87 121 237 178q97 36 206 36zM593 849q-140 0 -204 -117q-52 -95 -52 -249q0 -153 39 -249
q29 -72 99 -108q49 -26 111 -26q137 0 205 102q58 85 58 250q0 205 -65 304q-60 93 -191 93zM845 1337h111q-3 -95 -55 -158q-68 -82 -173 -82q-45 0 -155 31q-100 28 -134 28q-61 0 -72 -76h-108q1 74 43 139q61 96 183 96q50 0 208 -39q60 -15 83 -15q29 0 52 29
q13 17 17 47z" />
    <glyph glyph-name="uacute" unicode="&#xfa;" horiz-adv-x="1275" 
d="M1068 937v-638q1 -71 2 -90q2 -37 25.5 -54.5t71.5 -17.5h109v-137h-443v184q-46 -91 -95 -135q-86 -78 -225 -78q-160 0 -237 95q-45 55 -50 131q-3 42 -3 118v323q-1 66 -2 90q-2 38 -25.5 55t-71.5 17h-32v137h366v-568q0 -124 21 -166q32 -63 126 -63q120 0 187 113
q33 54 38 109q3 25 3 77v199q-1 66 -2 90q-2 38 -25.5 55t-71.5 17h-119v137h453zM530 1068l97 319h177q62 0 74 -9q18 -13 18 -29q0 -24 -21 -43l-27 -26l-221 -212h-97z" />
    <glyph glyph-name="ugrave" unicode="&#xf9;" horiz-adv-x="1275" 
d="M1068 937v-638q1 -71 2 -90q2 -37 25.5 -54.5t71.5 -17.5h109v-137h-443v184q-46 -91 -95 -135q-86 -78 -225 -78q-160 0 -237 95q-45 55 -50 131q-3 42 -3 118v323q-1 66 -2 90q-2 38 -25.5 55t-71.5 17h-32v137h366v-568q0 -124 21 -166q32 -63 126 -63q120 0 187 113
q33 54 38 109q3 25 3 77v199q-1 66 -2 90q-2 38 -25.5 55t-71.5 17h-119v137h453zM726 1068h-97l-221 212l-17 15q-32 29 -32 54q0 21 25 33q9 5 68 5h177z" />
    <glyph glyph-name="ucircumflex" unicode="&#xfb;" horiz-adv-x="1275" 
d="M1068 937v-638q1 -71 2 -90q2 -37 25.5 -54.5t71.5 -17.5h109v-137h-443v184q-46 -91 -95 -135q-86 -78 -225 -78q-160 0 -237 95q-45 55 -50 131q-3 42 -3 118v323q-1 66 -2 90q-2 38 -25.5 55t-71.5 17h-32v137h366v-568q0 -124 21 -166q32 -63 126 -63q120 0 187 113
q33 54 38 109q3 25 3 77v199q-1 66 -2 90q-2 38 -25.5 55t-71.5 17h-119v137h453zM515 1380h248l192 -309h-244l-103 171l-155 -171h-132z" />
    <glyph glyph-name="udieresis" unicode="&#xfc;" horiz-adv-x="1275" 
d="M1068 937v-638q1 -71 2 -90q2 -37 25.5 -54.5t71.5 -17.5h109v-137h-443v184q-46 -91 -95 -135q-86 -78 -225 -78q-160 0 -237 95q-45 55 -50 131q-3 42 -3 118v323q-1 66 -2 90q-2 38 -25.5 55t-71.5 17h-32v137h366v-568q0 -124 21 -166q32 -63 126 -63q120 0 187 113
q33 54 38 109q3 25 3 77v199q-1 66 -2 90q-2 38 -25.5 55t-71.5 17h-119v137h453zM446 1365q58 0 99 -45q35 -39 35 -91q0 -61 -45 -102q-39 -35 -91 -35q-61 0 -102 45q-35 39 -35 93q0 59 45 100q39 35 94 35zM836 1365q58 0 99 -45q35 -39 35 -91q0 -61 -45 -102
q-39 -35 -92 -35q-60 0 -101 45q-35 39 -35 93q0 59 45 100q39 35 94 35z" />
    <glyph glyph-name="dagger" unicode="&#x2020;" horiz-adv-x="1016" 
d="M556 938q67 6 135 34q81 33 121 33q68 0 97 -40q23 -31 23 -79q0 -50 -31 -82q-32 -33 -85 -33q-43 0 -114 33q-73 33 -146 37q1 -43 2 -141q8 -237 17 -428q9 -126 35 -299q22 -147 22 -194q0 -65 -24 -99q-39 -57 -101 -57q-67 0 -105 63q-19 32 -19 93q0 45 22 194
t31 243q7 83 15 308l9 176l-5 102q0 8 4 39q-73 -4 -146 -37q-71 -33 -114 -33q-53 0 -85 33q-31 32 -31 82q0 48 23 79q29 40 97 40q39 0 120 -33q69 -28 136 -34q-13 115 -30 171q-11 38 -28 82q-12 34 -12 78q0 45 26 78q36 45 93 45t93 -45q26 -33 26 -78
q0 -44 -26 -112q-32 -95 -45 -219z" />
    <glyph glyph-name="degree" unicode="&#xb0;" horiz-adv-x="1284" 
d="M646 1356q123 0 215 -89q90 -88 90 -214q0 -125 -89 -214q-91 -90 -220 -90t-219 90q-90 89 -90 214q0 128 90 214q93 89 223 89zM640 1216q-67 0 -116 -48q-48 -48 -48 -115q0 -68 48 -116q49 -48 118 -48t118 49q48 48 48 114q0 70 -49 116q-50 48 -119 48z" />
    <glyph glyph-name="cent" unicode="&#xa2;" horiz-adv-x="1284" 
d="M615 1338h128v-186q148 -12 243 -76q127 -87 127 -226q0 -82 -48 -125q-43 -40 -114 -40q-66 0 -104 36q-41 40 -41 98q0 69 54 105q23 15 69 18q-35 47 -71 64q-44 20 -101 20q-77 0 -140 -36.5t-96 -99.5q-50 -97 -50 -226q0 -149 66 -247q67 -99 191 -99q104 0 164 67
q43 49 62 190h154q-2 -203 -117 -313q-103 -94 -248 -112v-177h-128v177q-120 16 -192 57q-100 58 -164 174q-70 127 -70 271q0 191 115 332q113 137 311 168v186z" />
    <glyph glyph-name="sterling" unicode="&#xa3;" horiz-adv-x="1283" 
d="M526 673h191v-113h-144q12 -52 12 -80q0 -67 -46 -126q-32 -40 -122 -129q107 45 158 45q81 0 196 -70q49 -31 87 -49q35 -18 70 -18q62 0 87 71q12 34 12 79q0 15 -2 43h132q5 -48 5 -71q0 -117 -55 -196q-62 -88 -201 -88q-92 0 -232 58q-70 29 -118 45q-53 17 -112 17
q-81 0 -152 -45q-22 -15 -60 -48l-104 137q186 118 186 272q0 72 -51 153h-135v113h83q-39 69 -54 112t-15 89q0 86 49 163t139 131q134 80 352 80q258 0 386 -118q96 -88 96 -223q0 -104 -58 -167q-50 -54 -127 -54t-123 54q-35 41 -35 94q0 68 51 105q31 23 81 23
q31 0 72 -16q-24 64 -68 95q-75 54 -206 54q-135 0 -221 -53q-42 -27 -68 -68.5t-26 -83.5q0 -43 20 -83q7 -15 46 -87q8 -15 24 -47z" />
    <glyph glyph-name="section" unicode="&#xa7;" horiz-adv-x="1283" 
d="M945 252q85 -43 131 -86q91 -84 91 -208q0 -208 -217 -313q-139 -67 -328 -67q-222 0 -353 97q-98 73 -98 189q0 73 41 125q46 57 124 57q70 0 116 -51q38 -42 38 -98q0 -86 -106 -126q85 -58 238 -58q105 0 183 53q76 53 76 131q0 85 -100 139q-38 21 -224 78
q-218 67 -328 128q-148 83 -148 234q0 101 70 180q54 60 201 110q-79 35 -117 71q-81 76 -81 191q0 188 190 290q128 68 300 68q216 0 353 -99q116 -83 116 -199q0 -76 -59 -128q-46 -41 -107 -41q-73 0 -117 51q-30 35 -30 85q0 97 108 133q-85 66 -236 66q-100 0 -170 -46
q-72 -47 -72 -118q0 -76 99 -123q25 -13 225 -84q195 -70 252 -97q121 -58 164 -126q34 -53 34 -127q0 -149 -120 -219q-47 -28 -139 -62zM474 703q-76 0 -123 -39q-46 -40 -46 -94q0 -58 69 -109q74 -54 242 -112q126 -43 204 -43q68 0 111 41q42 39 42 91q0 61 -70 114
q-67 50 -205 99q-143 52 -224 52z" />
    <glyph glyph-name="bullet" unicode="&#x2022;" horiz-adv-x="1365" 
d="M689 978q113 0 196 -83q84 -83 84 -201t-83 -201t-201 -83q-116 0 -199 82q-85 84 -85 202q0 121 84 202q86 82 204 82z" />
    <glyph glyph-name="paragraph" unicode="&#xb6;" horiz-adv-x="1319" 
d="M446 -192v846q-20 -1 -30 -1q-141 0 -243 80q-120 93 -120 270q0 120 59 208q54 79 153.5 116.5t254.5 37.5h651v-182h-143v-1375h-200v1375h-182v-1375h-200z" />
    <glyph glyph-name="germandbls" unicode="&#xdf;" horiz-adv-x="1204" 
d="M523 799v134q37 -2 65 -2q100 0 154 49q49 43 49 127q0 77 -46 121q-49 47 -128 47q-57 0 -99.5 -27t-56.5 -73q-13 -43 -13 -173v-1002h-376v137h43q66 2 84 34q13 23 13 63l1 65v703q0 152 22 209q76 194 362 194q236 0 370 -117q102 -89 102 -211q0 -135 -109 -198
q-49 -27 -148 -51q108 -45 153 -72q166 -101 166 -341q0 -107 -34.5 -199.5t-95.5 -152.5q-94 -92 -233 -92q-147 0 -212 92q-37 53 -37 156q0 40 4 113h151q-2 -68 -2 -89q0 -129 70 -129q114 0 114 273q0 246 -101 338q-82 75 -195 75q-13 0 -37 -1z" />
    <glyph glyph-name="registered" unicode="&#xae;" horiz-adv-x="1566" 
d="M794 1394q135 0 263 -54.5t226 -152.5q100 -100 154.5 -231.5t54.5 -273.5q0 -141 -54 -272t-153 -231q-100 -100 -229.5 -154t-271.5 -54q-140 0 -270 53.5t-229 152.5q-101 100 -156 231.5t-55 272.5q0 203 105 375q102 169 285 262q151 76 330 76zM778 1278
q-110 0 -216.5 -45.5t-187.5 -127.5q-82 -83 -127 -193t-45 -230q0 -248 173 -423q81 -83 188 -128t221 -45q115 0 222 45.5t188 129.5q170 174 170 419q0 120 -45 232t-126 193q-173 173 -415 173zM689 653v-157q1 -66 3 -75q5 -19 16 -25q13 -6 42 -6h57v-96h-414v96h56
q41 0 52 14q8 15 9 92v374q-1 66 -3 75q-4 19 -16 25t-42 6h-56v96h485q79 0 112 -9q77 -22 118 -83q33 -49 33 -107q0 -145 -206 -188l11 -3q68 -19 97 -66q21 -33 26 -85l6 -95q2 -40 32 -40q32 0 32 64l-1 60v7h92q0 -6 2 -42v-24q0 -101 -41 -142t-125 -41
q-85 0 -130 46q-42 42 -44 134q-2 83 -12 116q-32 87 -158 79h-33zM689 748h99q78 0 106 15q51 28 51 97q0 117 -160 117h-96v-229z" />
    <glyph glyph-name="copyright" unicode="&#xa9;" horiz-adv-x="1566" 
d="M794 1394q135 0 263 -54.5t226 -152.5q100 -100 154.5 -231.5t54.5 -273.5q0 -141 -54 -272t-153 -231q-100 -100 -229.5 -154t-271.5 -54q-140 0 -270 53.5t-229 152.5q-101 100 -156 231.5t-55 272.5q0 203 105 375q102 169 285 262q151 76 330 76zM778 1278
q-110 0 -216.5 -45.5t-187.5 -127.5q-82 -83 -127 -193t-45 -230q0 -248 173 -423q81 -83 188 -128t221 -45q115 0 222 45.5t188 129.5q170 174 170 419q0 120 -45 232t-126 193q-173 173 -415 173zM1129 1072v-313h-106q-14 85 -41 124q-62 91 -173 91q-125 0 -175 -87
q-43 -76 -43 -212q0 -291 211 -291q129 0 181 98q23 42 36 118h111q-9 -114 -43 -173q-89 -150 -301 -150q-149 0 -249 75q-72 54 -111.5 141.5t-39.5 191.5q0 193 127 310q101 94 253 94q91 0 154 -38q28 -16 70 -56l30 77h109z" />
    <glyph glyph-name="trademark" unicode="&#x2122;" horiz-adv-x="2004" 
d="M10 1365h774v-328h-105q2 94 -30 154q-24 44 -95 68q-29 9 -71 10v-480q1 -66 3 -75q5 -19 17 -25t42 -6h105v-95h-511v95h104q41 0 51 14q9 14 9 39q0 11 1 53v481q-193 -3 -193 -203v-30h-101v328zM1309 587l-215 638v-436q1 -66 3 -76q5 -19 16 -25q13 -5 42 -5h72
v-96h-404v96h76q41 0 51 14q9 14 9 39q0 11 1 53v374q-1 66 -3 76q-4 18 -16 25q-12 5 -42 5h-76v96h402l164 -495l178 495h408v-96h-84q-41 0 -52 -14q-8 -15 -9 -92v-374q1 -66 3 -75q4 -19 16 -25t42 -6h84v-96h-469v96h84q41 0 51 14q9 14 9 39q0 11 1 53v439l-233 -641
h-109z" />
    <glyph glyph-name="acute" unicode="&#xb4;" 
d="M438 1068l97 319h177q62 0 74 -9q18 -13 18 -29q0 -24 -21 -43l-27 -26l-221 -212h-97z" />
    <glyph glyph-name="dieresis" unicode="&#xa8;" 
d="M319 1365q58 0 99 -45q35 -39 35 -91q0 -61 -45 -102q-39 -35 -91 -35q-61 0 -102 45q-35 39 -35 93q0 59 45 100q39 35 94 35zM709 1365q58 0 99 -45q35 -39 35 -91q0 -61 -45 -102q-39 -35 -92 -35q-60 0 -101 45q-35 39 -35 93q0 59 45 100q39 35 94 35z" />
    <glyph glyph-name="notequal" unicode="&#x2260;" 
d="M541 948l112 223l151 -75l-74 -148h226v-212h-322l-75 -149h397v-212h-493l-104 -206l-150 75l65 131h-206v212h302l76 149h-378v212h473z" />
    <glyph glyph-name="AE" unicode="&#xc6;" horiz-adv-x="2373" 
d="M2196 1365v-551h-154q-2 173 -43 254q-77 152 -290 152l-109 -1h-236v-438h85q75 0 103 9q103 31 103 176q0 32 -2 76h138v-701h-138q-1 94 -6 131q-19 156 -196 155h-87v-481h232l119 -1q78 0 150.5 35t113.5 91q64 89 64 246q0 18 -1 56h154v-573h-1336v147h115
q51 0 71 9q36 16 40 74q0 18 2 119v200h-418l-148 -249q-36 -60 -36 -95q0 -37 39 -51q24 -8 78 -8h113v-146h-761v146h86q121 0 185 60q42 36 115 156l402 661q54 89 54 131q0 46 -51 59q-23 6 -76 6h-105v146h1631zM1088 714v505l-312 -505h312z" />
    <glyph glyph-name="Oslash" unicode="&#xd8;" horiz-adv-x="1574" 
d="M1187 1472l108 -65l-83 -136q115 -90 174 -178q124 -182 124 -430q0 -338 -249 -533q-197 -155 -485 -155q-159 0 -305 60l-97 -150l-108 67l94 147q-114 79 -173 161q-123 173 -123 416q0 364 268 574q192 149 456 149q165 0 317 -65zM569 196q91 -67 219 -67
q157 0 262 109q141 147 141 435q0 169 -42 289q-16 48 -57 110zM1001 1158q-43 38 -83 53q-57 21 -134 21q-173 0 -267 -111q-134 -157 -134 -476q0 -144 36 -237q18 -46 62 -116z" />
    <glyph glyph-name="infinity" unicode="&#x221e;" horiz-adv-x="1365" 
d="M688 542q-144 -175 -325 -175q-157 0 -252 108q-76 87 -76 221q0 158 107 249q94 79 220 79q176 0 316 -174q135 174 324 174q167 0 262 -120q66 -84 66 -208q0 -157 -104 -248q-93 -82 -221 -82q-182 0 -317 176zM799 695q82 -117 169 -117q52 0 88 37q32 33 32 81
q0 57 -44 91q-34 26 -77 26q-68 0 -128 -66q-8 -10 -24.5 -30.5t-15.5 -21.5zM566 695q-82 117 -169 117q-52 0 -88 -36q-32 -34 -32 -81q0 -57 44 -91q34 -26 77 -26q68 0 128 66q9 9 25 29.5t15 21.5z" />
    <glyph glyph-name="plusminus" unicode="&#xb1;" horiz-adv-x="1283" 
d="M198 937h326v323h236v-323h325v-218h-325v-324h-236v324h-326v218zM198 312h887v-218h-887v218z" />
    <glyph glyph-name="lessequal" unicode="&#x2264;" 
d="M955 1336v-220l-638 -299l638 -297v-221l-887 420v199zM955 241v-212h-887v212h887z" />
    <glyph glyph-name="greaterequal" unicode="&#x2265;" 
d="M68 299v221l638 298l-637 298v220l886 -419v-199zM68 29v212h887v-212h-887z" />
    <glyph glyph-name="yen" unicode="&#xa5;" horiz-adv-x="1283" 
d="M521 451h-411v115h401l-95 130h-327v113h243l-53 72q-93 125 -111 146q-40 39 -123 39h-26v153h642v-153h-29q-91 -2 -107 -10q-26 -11 -26 -41t36 -83l139 -209l144 209q42 61 42 88q0 30 -32 40q-17 6 -66 6h-28v153h530v-153h-11q-68 -1 -105 -22q-56 -33 -146 -163
l-50 -72h242v-113h-319l-90 -130h388v-115h-395v-96q2 -113 3 -129t11 -35q14 -28 48 -35q15 -3 51 -3h112v-153h-700v153h106q51 0 72 10q35 16 39 73q0 17 1 119v96z" />
    <glyph glyph-name="mu" unicode="&#xb5;" 
d="M65 -351v1333h234v-528q0 -114 20 -162q30 -71 97 -105q47 -23 99 -23q96 0 155 73q35 43 47 96q11 44 11 130v519h233v-982h-233v130q-33 -67 -68 -97q-63 -55 -150 -55q-132 0 -211 131v-460h-234z" />
    <glyph glyph-name="partialdiff" unicode="&#x2202;" 
d="M125 1159l30 205q195 -24 336 -76q130 -49 236.5 -144t169.5 -218q89 -174 89 -388q0 -216 -97 -357q-66 -95 -169 -148q-103 -52 -224 -52q-145 0 -262 78q-97 66 -152.5 169t-55.5 221q0 88 33.5 171.5t92.5 143.5q121 122 297 122q155 0 263 -107q-50 111 -114 177
q-102 101 -272 161q-86 29 -201 42zM498 689q-100 0 -168 -78q-61 -69 -61 -170q0 -118 79 -190q65 -59 152 -59q103 0 170 79q61 71 61 173q0 126 -84 193q-64 52 -149 52z" />
    <glyph glyph-name="summation" unicode="&#x2211;" horiz-adv-x="1365" 
d="M1258 1536v-495h-211l-25 284h-710l512 -778l-513 -847h731l14 287h221v-499h-1231v237l502 822l-502 754v235h1212z" />
    <glyph glyph-name="product" unicode="&#x220f;" horiz-adv-x="1483" 
d="M80 1536h1323v-211h-166v-1625h166v-212h-569v212h164v1625h-513v-1625h162v-212h-567v212h168v1625h-168v211z" />
    <glyph glyph-name="pi" unicode="&#x3c0;" horiz-adv-x="1319" 
d="M228 0v787h-156v211h1175v-211h-153v-787h-236v787h-394v-787h-236z" />
    <glyph glyph-name="integral" unicode="&#x222b;" 
d="M121 -491l44 210q65 -21 109 -21q103 0 114 110q3 27 3 156v1050q0 116 3 191q4 143 66 220q89 111 267 111q70 0 176 -22l-44 -209q-64 21 -109 21q-103 0 -114 -110q-2 -20 -3 -276v-930q0 -202 -9 -262q-24 -157 -150 -221q-74 -38 -183 -38q-86 0 -170 20z" />
    <glyph glyph-name="ordfeminine" unicode="&#xaa;" horiz-adv-x="742" 
d="M577 935h81q0 -76 -6 -110q-15 -87 -127 -87q-48 0 -83 19q-16 8 -20 16q-16 33 -17 33l-5 -1l-38 -31q-35 -29 -58 -33q-27 -4 -53 -4q-78 0 -122 36q-45 37 -45 96q0 111 180 153q112 25 129 43q14 15 14 37q0 28 -21 48q-32 31 -90 31q-44 0 -74 -24h2q52 -6 52 -62
q0 -19 -9 -35q-23 -36 -72 -36q-34 0 -60 22q-26 23 -26 65q0 62 55 99q55 38 152 38q127 0 179 -53q38 -39 38 -125v-178q0 -45 3 -56q4 -13 18 -13q23 0 23 35v77zM399 990q-27 -14 -97 -43q-56 -24 -56 -66q0 -54 61 -54q93 0 93 135q0 10 -1 28zM645 645v-99h-548v99
h548z" />
    <glyph glyph-name="ordmasculine" unicode="&#xba;" horiz-adv-x="723" 
d="M363 1248q92 0 168 -53q109 -76 109 -207q0 -107 -80 -181q-77 -70 -190 -70q-97 0 -173 49q-115 73 -115 204q0 58 27 112t74 88q78 58 180 58zM362 1176q-125 0 -125 -176q0 -185 121 -185q127 0 127 176q0 185 -123 185zM626 645v-99h-529v99h529z" />
    <glyph glyph-name="Omega" unicode="&#x2126;" horiz-adv-x="1365" 
d="M58 0v212h302q-128 79 -191 165q-111 148 -111 372q0 276 179 462q179 187 446 187q266 0 446 -187q178 -185 178 -462q0 -235 -121 -385q-65 -80 -180 -152h301v-212h-548v189q123 70 185 152q117 151 117 381q0 187 -97 314q-114 150 -281 150q-147 0 -258 -119
q-121 -129 -121 -345q0 -245 131 -397q66 -76 172 -136v-189h-549z" />
    <glyph glyph-name="ae" unicode="&#xe6;" horiz-adv-x="1653" 
d="M1591 427h-665q0 -84 16 -133q31 -97 109 -143q62 -37 144 -37q187 0 229 197h163q-16 -85 -45 -137.5t-87 -99.5q-126 -103 -320 -103q-146 0 -268 56q-57 26 -140 86q-81 -69 -153 -98q-108 -44 -224 -44q-152 0 -229 82q-60 64 -60 156q0 96 67 171q52 59 200 106
q16 5 184 53q103 29 131 60q28 30 28 82q0 95 -76 137q-62 34 -142 34q-77 0 -134 -29q-23 -12 -52 -46q11 1 18 1q42 0 71 -25q38 -32 38 -87q0 -52 -35 -90q-38 -41 -101 -41q-66 0 -108 47q-44 48 -44 118q0 51 26.5 101t70.5 83q109 81 303 81q135 0 228 -37
q38 -15 88 -49q64 49 122 66q72 20 159 20q245 0 377 -164q95 -118 107 -267q4 -45 4 -107zM1342 564q-6 112 -41 170q-53 87 -169 87q-114 0 -165 -81q-35 -54 -37 -176h412zM677 487q-70 -38 -130 -62q-125 -49 -159 -86q-39 -44 -39 -98t37 -94q32 -33 85 -33
q75 0 135 50q58 49 71 141q5 38 5 88q0 35 -5 94z" />
    <glyph glyph-name="oslash" unicode="&#xf8;" horiz-adv-x="1188" 
d="M275 -155l-114 65l95 154q-98 75 -147.5 175.5t-49.5 221.5q0 120 53.5 226t149.5 175q135 98 321 98q86 0 182 -30l91 155l114 -66l-80 -136q96 -69 142 -131q97 -130 97 -294q0 -100 -39.5 -195.5t-109.5 -165.5q-73 -73 -177 -114t-214 -41q-106 0 -224 52zM446 130
q68 -58 146 -58q141 0 208 144q41 88 41 212q0 151 -51 288zM693 805q-54 25 -105 25q-129 0 -189 -98q-63 -104 -63 -262q0 -82 28 -222z" />
    <glyph glyph-name="questiondown" unicode="&#xbf;" horiz-adv-x="1044" 
d="M579 965q62 0 106 -48q37 -41 37 -98q0 -65 -48 -109q-42 -37 -98 -37q-65 0 -109 48q-37 42 -37 99q0 63 48 108q41 37 101 37zM506 583h132q2 -39 2 -64q0 -103 -51 -195q-16 -29 -150 -201q-68 -87 -68 -189q0 -85 76 -146q74 -60 175 -60q119 0 189 79q44 50 44 106
q0 16 -4 45q-44 -52 -110 -52q-60 0 -98 43q-33 37 -33 96q0 69 45 110q46 44 123 44q86 0 144 -62q70 -75 70 -189q0 -76 -35 -148t-98 -124q-114 -95 -303 -95q-116 0 -219.5 39t-167.5 107q-90 94 -90 209q0 141 121 266q26 26 193 157q107 89 113 224z" />
    <glyph glyph-name="exclamdown" unicode="&#xa1;" horiz-adv-x="633" 
d="M320 965q62 0 105 -48q38 -42 38 -98q0 -65 -48 -109q-42 -37 -98 -37q-65 0 -108 48q-38 42 -38 99q0 63 48 107q42 38 101 38zM372 583l78 -720q10 -91 10 -126q0 -73 -43 -118q-37 -38 -104 -38q-85 0 -120 67q-19 36 -19 79q0 35 11 136l82 720h105z" />
    <glyph glyph-name="logicalnot" unicode="&#xac;" 
d="M719 0v335h-651v211h887v-546h-236z" />
    <glyph glyph-name="radical" unicode="&#x221a;" horiz-adv-x="1365" 
d="M1365 1693v-211h-375l-364 -1482h-309l-130 570h-187v211h381l47 -195q21 -103 36 -295h19q34 316 111 622l192 780h579z" />
    <glyph glyph-name="florin" unicode="&#x192;" horiz-adv-x="1284" 
d="M914 913v-113h-160l-91 -776q-21 -176 -141 -263q-91 -67 -228 -67q-128 0 -193 53q-59 49 -59 119q0 44 27 76q32 38 83 38q79 0 110 -98q17 -50 27 -61q18 -19 38 -19q23 0 45 21.5t33 53.5q14 44 26 149l88 774h-107v113h121l15 151q17 172 140 262q92 66 229 66
q128 0 193 -53q59 -48 59 -118q0 -45 -27 -76q-33 -38 -84 -38q-78 0 -110 97q-16 51 -26 61q-18 19 -39 19q-22 0 -43.5 -20.5t-33.5 -53.5q-17 -46 -26 -149l-14 -148h148z" />
    <glyph glyph-name="approxequal" unicode="&#x2248;" 
d="M146 699l-131 85q38 90 75 145q85 127 227 127q71 0 217 -57q100 -39 123 -44q32 -8 60 -8q64 0 106 42q22 22 51 71l134 -78q-70 -149 -141 -201q-81 -61 -177 -61q-41 0 -112 23q-51 17 -186 67q-50 19 -90 19q-66 0 -109 -52q-19 -24 -47 -78zM146 302l-131 85
q37 89 75 145q85 127 227 127q70 0 217 -57q99 -39 123 -44q32 -8 60 -8q65 0 106 41q21 22 51 72l134 -78q-71 -149 -141 -201q-80 -61 -177 -61q-41 0 -112 23q-51 16 -186 67q-50 19 -90 19q-66 0 -109 -52q-19 -25 -47 -78z" />
    <glyph glyph-name="Delta" unicode="&#x2206;" horiz-adv-x="1365" 
d="M39 0l512 1365h255l520 -1365h-1287zM376 214h608l-304 864z" />
    <glyph glyph-name="guillemotleft" unicode="&#xab;" horiz-adv-x="915" 
d="M290 782h144q-10 -24 -48 -111q-45 -100 -45 -181q0 -100 93 -300h-144q-125 189 -125 301q0 96 125 291zM619 782h145q-10 -24 -49 -111q-45 -99 -45 -181q0 -100 94 -300h-145q-125 190 -125 301q0 93 125 291z" />
    <glyph glyph-name="guillemotright" unicode="&#xbb;" horiz-adv-x="915" 
d="M625 190h-144q10 24 48 111q45 99 45 181q0 98 -93 300h144q125 -191 125 -301q0 -96 -125 -291zM296 190h-145q10 24 49 111q45 99 45 181q0 101 -94 300h145q125 -192 125 -301q0 -95 -125 -291z" />
    <glyph glyph-name="ellipsis" unicode="&#x2026;" horiz-adv-x="1636" 
d="M274 273q62 0 105 -48q38 -42 38 -98q0 -65 -48 -108q-42 -38 -98 -38q-65 0 -108 48q-38 42 -38 99q0 63 48 107q41 38 101 38zM819 273q62 0 105 -48q38 -42 38 -98q0 -65 -48 -108q-42 -38 -98 -38q-65 0 -108 48q-38 42 -38 99q0 63 48 107q41 38 101 38zM1363 273
q63 0 106 -48q38 -42 38 -98q0 -65 -48 -108q-42 -38 -98 -38q-65 0 -108 48q-38 42 -38 99q0 63 48 107q41 38 100 38z" />
    <glyph glyph-name="glyph172" horiz-adv-x="1283" 
 />
    <glyph glyph-name="Agrave" unicode="&#xc0;" horiz-adv-x="1473" 
d="M596 1378h296l369 -1080q38 -100 54 -120q28 -31 91 -32h108v-146h-759v146h137q113 0 113 57q0 18 -27 95l-48 139h-459l-43 -139q-22 -71 -22 -103q0 -49 69 -49h166v-146h-682v146h79q63 -1 106 26q22 14 37 47q3 7 29 79zM892 583l-189 540l-180 -540h369zM899 1499
h-124l-344 146q-62 26 -62 67q0 23 24 35q10 5 68 5h177z" />
    <glyph glyph-name="Atilde" unicode="&#xc3;" horiz-adv-x="1473" 
d="M596 1378h296l369 -1080q38 -100 54 -120q28 -31 91 -32h108v-146h-759v146h137q113 0 113 57q0 18 -27 95l-48 139h-459l-43 -139q-22 -71 -22 -103q0 -49 69 -49h166v-146h-682v146h79q63 -1 106 26q22 14 37 47q3 7 29 79zM892 583l-189 540l-180 -540h369zM980 1759
h117q-5 -69 -40 -126q-29 -48 -76 -75q-51 -30 -106 -30t-175 37q-80 24 -116 24q-34 0 -60 -14q-21 -11 -34 -54h-114q20 87 41 125q25 48 69 76t95 28q52 0 161 -29q116 -30 167 -30q54 0 71 68z" />
    <glyph glyph-name="Otilde" unicode="&#xd5;" horiz-adv-x="1574" 
d="M808 1395q136 0 263 -50.5t225 -143.5q216 -206 216 -527q0 -247 -134 -428q-118 -159 -313 -229q-128 -46 -277 -46q-259 0 -450 136q-135 95 -206 238t-71 316q0 255 141 451q120 166 334 239q129 44 272 44zM792 1228q-169 0 -277 -116q-135 -145 -135 -438
q0 -261 114 -407q112 -142 296 -142q180 0 290 139q113 142 113 387q0 151 -33 272.5t-94 194.5q-92 110 -274 110zM1044 1759h117q-5 -69 -40 -126q-29 -48 -76 -75q-51 -30 -106 -30t-175 37q-80 24 -116 24q-34 0 -60 -14q-21 -11 -34 -54h-114q20 87 41 125q25 48 69 76
t95 28q52 0 161 -29q116 -30 167 -30q54 0 71 68z" />
    <glyph glyph-name="OE" unicode="&#x152;" horiz-adv-x="2350" 
d="M2172 1348v-534h-158q-3 220 -77 302q-56 66 -192 83q-34 3 -164 3h-231v-429h85q66 0 112 15q83 26 83 182q0 21 -2 77h142v-708h-142q0 153 -9 195q-14 65 -77 83q-25 9 -96 9h-96v-480h242q185 1 272 34q65 25 98 76t43 140q10 84 9 188h158v-584h-822q-15 0 -73 1
q-44 1 -67 1q-72 0 -183 -4q-35 -1 -163 -20q-52 -7 -121 -7q-205 0 -360 94q-119 72 -198 188q-125 182 -125 419q0 234 129 416q195 276 547 276q71 0 154 -5q157 -10 238 -11h204h840zM1066 363v599q0 127 -35 177q-50 71 -211 71q-182 0 -284 -111q-145 -158 -145 -443
q0 -273 145 -419q111 -112 309 -112q148 0 196 77q23 38 25 89v72z" />
    <glyph glyph-name="oe" unicode="&#x153;" horiz-adv-x="1870" 
d="M1809 426h-694q-1 -20 -1 -30q0 -109 63 -183q74 -88 213 -88q218 0 248 177h163q-11 -94 -67 -177q-52 -77 -159 -122q-109 -46 -232 -46q-217 0 -368 121q-84 -72 -178.5 -106.5t-207.5 -34.5q-205 0 -355 126q-173 146 -173 384q0 237 181 388q154 129 353 129
q123 0 245 -55q53 -24 135 -79q169 135 373 135q112 0 207 -46t155 -130q74 -103 89 -236q7 -55 10 -127zM1548 563q-3 127 -58 192.5t-160 65.5q-123 0 -177 -98q-31 -56 -38 -160h433zM589 821q-58 0 -111 -28t-82 -73q-58 -93 -58 -274q0 -180 69 -277q63 -89 185 -89
q130 0 197 110q52 87 52 226q0 405 -252 405z" />
    <glyph glyph-name="endash" unicode="&#x2013;" horiz-adv-x="1016" 
d="M82 597h852v-197h-852v197z" />
    <glyph glyph-name="emdash" unicode="&#x2014;" horiz-adv-x="1466" 
d="M0 597h1466v-197h-1466v197z" />
    <glyph glyph-name="quotedblleft" unicode="&#x201c;" horiz-adv-x="962" 
d="M852 1386v-110q-146 -38 -161 -158q31 18 59 18q48 0 80 -31q39 -37 39 -93q0 -70 -57 -116q-39 -31 -94 -31q-95 0 -145 79q-36 57 -36 129q0 147 126 240q70 52 189 73zM434 1386v-110q-146 -37 -161 -158q31 18 59 18q48 0 80 -31q39 -37 39 -93q0 -70 -57 -116
q-39 -31 -94 -31q-95 0 -145 79q-36 55 -36 128q0 148 126 241q70 52 189 73z" />
    <glyph glyph-name="quotedblright" unicode="&#x201d;" horiz-adv-x="961" 
d="M110 866v109q146 38 161 158q-30 -18 -59 -18q-48 0 -80 31q-38 37 -38 92q0 70 56 116q39 31 94 31q94 0 143 -79q36 -57 36 -129q0 -146 -126 -239q-69 -52 -187 -72zM527 866v109q146 38 161 158q-30 -18 -59 -18q-48 0 -80 31q-38 36 -38 92q0 70 56 116q39 31 94 31
q96 0 146 -78q35 -56 35 -129q0 -147 -127 -240q-70 -52 -188 -72z" />
    <glyph glyph-name="quoteleft" unicode="&#x2018;" horiz-adv-x="544" 
d="M432 1386v-110q-146 -37 -161 -158q31 18 59 18q48 0 80 -31q39 -37 39 -93q0 -70 -57 -116q-39 -31 -94 -31q-95 0 -145 79q-36 56 -36 128q0 147 126 241q70 52 189 73z" />
    <glyph glyph-name="quoteright" unicode="&#x2019;" horiz-adv-x="544" 
d="M110 866v109q146 38 161 158q-30 -18 -59 -18q-48 0 -80 31q-38 36 -38 92q0 71 56 116q39 31 94 31q96 0 145 -78q36 -57 36 -129q0 -147 -126 -240q-70 -52 -189 -72z" />
    <glyph glyph-name="divide" unicode="&#xf7;" horiz-adv-x="1283" 
d="M643 1186q55 0 95 -39q42 -40 42 -100q0 -57 -41 -97q-41 -41 -97 -41q-58 0 -98 41q-41 40 -41 97q0 60 42 100q41 39 98 39zM643 476q55 0 95 -39q42 -40 42 -100q0 -57 -41 -97q-40 -41 -97 -41q-58 0 -98 41q-41 41 -41 97q0 60 42 100q41 39 98 39zM198 801h887
v-218h-887v218z" />
    <glyph glyph-name="lozenge" unicode="&#x25ca;" horiz-adv-x="1365" 
d="M683 1419l531 -736l-531 -736l-532 736zM683 1238l-404 -555l404 -554l403 554z" />
    <glyph glyph-name="ydieresis" unicode="&#xff;" horiz-adv-x="1178" 
d="M-14 937h608v-137h-50q-97 0 -97 -50q0 -27 23 -81l181 -415l169 415q17 40 17 64q0 67 -98 67h-57v137h523v-137h-32q-89 -1 -119 -42q-14 -21 -60 -122l-343 -797q-59 -136 -139 -211q-88 -83 -219 -83q-103 0 -185 56q-108 74 -108 197q0 79 48 126q49 48 115 48
q55 0 94 -34q42 -37 42 -88q0 -49 -38 -85q-33 -31 -104 -31q35 -46 108 -46q116 0 187 126q20 36 66 159l-306 663q-44 94 -58 111q-43 52 -125 53h-43v137zM437 1365q58 0 99 -45q35 -39 35 -91q0 -61 -45 -102q-39 -35 -91 -35q-61 0 -102 45q-35 39 -35 93q0 59 45 100
q39 35 94 35zM827 1365q58 0 99 -45q35 -39 35 -91q0 -61 -45 -102q-39 -35 -92 -35q-60 0 -101 45q-35 39 -35 93q0 59 45 100q39 35 94 35z" />
    <glyph glyph-name="Ydieresis" unicode="&#x178;" horiz-adv-x="1418" 
d="M-51 1219v146h767v-146h-97q-92 -3 -106 -9q-26 -12 -26 -45q0 -29 36 -80l221 -313l221 313q43 61 43 88q0 30 -32 40q-17 6 -66 6h-110v146h669v-146h-52q-68 -1 -104 -22q-56 -34 -147 -163l-309 -442v-244q2 -113 3 -129t11 -35q14 -28 48 -35q15 -3 51 -3h167v-146
h-826v146h161q51 0 72 10q35 16 39 73q0 17 1 119v244l-334 442q-49 65 -63 85q-48 68 -84 84t-87 16h-67zM546 1756q56 0 96 -44q34 -38 34 -88q0 -58 -44 -98q-37 -34 -88 -34q-59 0 -98 44q-34 37 -34 89q0 57 44 97q37 34 90 34zM946 1756q56 0 96 -44q34 -37 34 -88
q0 -59 -44 -98q-37 -34 -88 -34q-59 0 -98 44q-34 37 -34 89q0 57 44 97q37 34 90 34z" />
    <glyph glyph-name="fraction" unicode="&#x2215;" horiz-adv-x="221" 
d="M379 1218h143l-707 -1218h-143z" />
    <glyph glyph-name="currency" unicode="&#xa4;" horiz-adv-x="1365" 
d="M60 273l206 207q-93 132 -93 284q0 146 94 283l-209 208l129 129l208 -208q140 94 289 94q147 0 284 -92l207 205l128 -128l-205 -205q96 -145 96 -287q0 -144 -93 -282l207 -207l-127 -129l-207 207q-136 -96 -290 -96q-144 0 -290 94l-206 -204zM680 1060
q-119 0 -206 -87q-86 -87 -86 -210t87 -210q86 -87 208 -87q123 0 210 87q86 87 86 209q0 126 -86 211q-89 87 -213 87z" />
    <glyph glyph-name="guilsinglleft" unicode="&#x2039;" horiz-adv-x="641" 
d="M290 782h144q-10 -24 -48 -111q-45 -100 -45 -181q0 -100 93 -300h-144q-125 189 -125 301q0 96 125 291z" />
    <glyph glyph-name="guilsinglright" unicode="&#x203a;" horiz-adv-x="642" 
d="M351 190h-144q10 24 48 111q45 100 45 181q0 99 -93 300h144q125 -190 125 -301q0 -96 -125 -291z" />
    <glyph glyph-name="fi" unicode="&#xf001;" horiz-adv-x="1333" 
d="M509 937h614v-638q1 -65 2 -90q2 -37 25.5 -54.5t71.5 -17.5h109v-137h-1248v137h92q67 2 85 34q13 23 13 63q0 11 1 65v501h-188v137h188v81q0 88 15.5 142t53.5 101q109 134 376 134q125 0 232 -25q196 -47 196 -174q0 -59 -42 -99q-40 -38 -100 -38q-75 0 -114 50
q-29 36 -29 95q0 29 11 55q-55 19 -131 19q-154 0 -205 -83q-28 -46 -28 -135v-123zM509 800v-500q1 -72 2 -91q2 -37 25.5 -54.5t70.5 -17.5h182q67 2 85 34q13 23 13 63l1 66v337q-1 67 -2 91q-2 37 -25.5 54.5t-71.5 17.5h-280z" />
    <glyph glyph-name="fl" unicode="&#xf002;" horiz-adv-x="1328" 
d="M904 1367l219 28v-1096q1 -65 2 -90q2 -37 25.5 -54.5t71.5 -17.5h92v-137h-1231v137h92q67 2 85 34q13 23 13 63q0 11 1 65v501h-188v137h188v100q0 154 75 235q114 123 355 123q105 0 200 -28zM888 800h-379v-500q1 -72 2 -91q2 -37 25.5 -54.5t70.5 -17.5h182
q67 2 85 34q13 23 13 63l1 66v500zM509 937h379v117q0 93 -26 136q-54 88 -164 88q-72 0 -125 -44q-49 -41 -59 -105q-5 -31 -5 -75v-117z" />
    <glyph glyph-name="daggerdbl" unicode="&#x2021;" horiz-adv-x="1016" 
d="M368 522q64 80 83 190q8 52 8 129q-66 -4 -144 -36q-81 -34 -120 -34q-48 0 -80 33t-32 85q0 45 25 76q33 41 90 41q44 0 128 -36q61 -26 133 -31q-2 96 -45 219q-25 69 -25 111q0 45 28 79q35 44 91 44t91 -44q28 -34 28 -79q0 -42 -25 -111q-14 -38 -25 -74
q-19 -66 -21 -145q75 6 159 42q58 25 102 25q57 0 90 -41q25 -31 25 -76q0 -52 -32 -85t-80 -33q-40 0 -120 34q-78 32 -144 36q-1 -23 -1 -35q0 -71 18 -140q19 -73 74 -144q-59 -84 -78 -176q-14 -69 -14 -137q0 -11 1 -34q66 4 144 35q80 34 120 34q48 0 80 -33t32 -84
q0 -45 -25 -76q-33 -41 -90 -41q-44 0 -128 36q-61 26 -133 32q2 -79 21 -146q11 -37 25 -74q25 -69 25 -112q0 -45 -28 -79q-35 -44 -91 -44t-91 44q-28 34 -28 79q0 43 25 112q43 123 45 220q-76 -7 -159 -43q-58 -25 -102 -25q-57 0 -90 41q-25 31 -25 76q0 51 32 84
t80 33q40 0 120 -34q78 -31 144 -35v34q-3 196 -91 313z" />
    <glyph glyph-name="periodcentered" unicode="&#x2219;" horiz-adv-x="545" 
d="M274 628q62 0 105 -48q38 -42 38 -98q0 -65 -48 -108q-42 -38 -98 -38q-65 0 -108 48q-38 42 -38 99q0 63 48 107q41 38 101 38z" />
    <glyph glyph-name="quotesinglbase" unicode="&#x201a;" horiz-adv-x="544" 
d="M110 -267v109q146 38 161 158q-30 -18 -59 -18q-48 0 -80 31q-38 37 -38 93q0 70 56 116q39 31 94 31q96 0 145 -79q36 -56 36 -128q0 -147 -126 -241q-70 -52 -189 -72z" />
    <glyph glyph-name="quotedblbase" unicode="&#x201e;" horiz-adv-x="961" 
d="M110 -267v109q146 38 161 158q-31 -18 -59 -18q-48 0 -80 31q-38 37 -38 93q0 70 56 116q39 31 94 31q95 0 143 -79q36 -57 36 -129q0 -146 -126 -240q-69 -52 -187 -72zM527 -267v109q146 38 161 158q-30 -18 -59 -18q-48 0 -80 31q-38 37 -38 93q0 70 56 116
q39 31 94 31q96 0 146 -79q35 -56 35 -128q0 -147 -127 -241q-69 -52 -188 -72z" />
    <glyph glyph-name="perthousand" unicode="&#x2030;" horiz-adv-x="2288" 
d="M361 1232q128 0 216 -81q100 -94 100 -234q0 -130 -90 -218q-92 -91 -238 -91q-117 0 -201 64q-58 43 -91.5 108t-33.5 134q0 106 70 197q92 121 268 121zM354 1144q-73 0 -112 -60q-42 -67 -42 -170q0 -216 151 -216q99 0 133 111q18 56 18 128q0 83 -28 136
q-37 71 -120 71zM1169 610q128 0 215 -81q100 -94 100 -234q0 -130 -89 -218q-93 -91 -239 -91q-116 0 -200 64q-58 43 -91.5 108t-33.5 134q0 106 70 197q92 121 268 121zM1161 522q-72 0 -111 -60q-42 -66 -42 -169q0 -216 151 -216q82 0 116 68q35 67 35 162
q0 215 -149 215zM1263 1212l90 -89l-1107 -1119l-89 85zM1949 610q129 0 216 -81q100 -94 100 -234q0 -130 -89 -218q-93 -91 -238 -91q-117 0 -201 64q-58 43 -91.5 108t-33.5 134q0 106 70 197q92 121 267 121zM1943 522q-73 0 -112 -60q-42 -66 -42 -169q0 -216 151 -216
q82 0 116 68q35 67 35 162q0 215 -148 215z" />
    <glyph glyph-name="Acircumflex" unicode="&#xc2;" horiz-adv-x="1473" 
d="M596 1378h296l369 -1080q38 -100 54 -120q28 -31 91 -32h108v-146h-759v146h137q113 0 113 57q0 18 -27 95l-48 139h-459l-43 -139q-22 -71 -22 -103q0 -49 69 -49h166v-146h-682v146h79q63 -1 106 26q22 14 37 47q3 7 29 79zM892 583l-189 540l-180 -540h369zM621 1742
h248l254 -240h-279l-116 116l-169 -116h-173z" />
    <glyph glyph-name="Ecircumflex" unicode="&#xca;" horiz-adv-x="1580" 
d="M1404 1365v-555h-155q2 171 -51 278q-35 71 -97.5 101t-176.5 30h-343v-445h40q58 -1 71 -1q104 0 140 68q30 57 30 181v20h143v-697h-143q0 129 -27 198q-27 71 -99 87q-24 5 -64 5h-53h-38v-489h339q110 0 152 15q178 65 178 337q0 28 -1 82h155v-580h-1341v147h129
q51 0 71 9q36 16 40 74q0 18 2 119v668q-3 127 -3.5 135.5t-10.5 28.5q-14 28 -49 35q-15 3 -50 3h-129v146h1341zM688 1742h248l254 -240h-279l-116 116l-169 -116h-173z" />
    <glyph glyph-name="Aacute" unicode="&#xc1;" horiz-adv-x="1473" 
d="M596 1378h296l369 -1080q38 -100 54 -120q28 -31 91 -32h108v-146h-759v146h137q113 0 113 57q0 18 -27 95l-48 139h-459l-43 -139q-22 -71 -22 -103q0 -49 69 -49h166v-146h-682v146h79q63 -1 106 26q22 14 37 47q3 7 29 79zM892 583l-189 540l-180 -540h369zM581 1499
l261 253h176q63 0 75 -9q18 -13 18 -30q0 -42 -62 -68l-344 -146h-124z" />
    <glyph glyph-name="Edieresis" unicode="&#xcb;" horiz-adv-x="1580" 
d="M1404 1365v-555h-155q2 171 -51 278q-35 71 -97.5 101t-176.5 30h-343v-445h40q58 -1 71 -1q104 0 140 68q30 57 30 181v20h143v-697h-143q0 129 -27 198q-27 71 -99 87q-24 5 -64 5h-53h-38v-489h339q110 0 152 15q178 65 178 337q0 28 -1 82h155v-580h-1341v147h129
q51 0 71 9q36 16 40 74q0 18 2 119v668q-3 127 -3.5 135.5t-10.5 28.5q-14 28 -49 35q-15 3 -50 3h-129v146h1341zM606 1756q56 0 96 -44q34 -37 34 -88q0 -59 -44 -98q-37 -34 -88 -34q-59 0 -98 44q-34 37 -34 89q0 57 44 97q37 34 90 34zM1006 1756q56 0 96 -44
q34 -37 34 -88q0 -59 -44 -98q-37 -34 -88 -34q-59 0 -98 44q-34 37 -34 89q0 57 44 97q37 34 90 34z" />
    <glyph glyph-name="Egrave" unicode="&#xc8;" horiz-adv-x="1580" 
d="M1404 1365v-555h-155q2 171 -51 278q-35 71 -97.5 101t-176.5 30h-343v-445h40q58 -1 71 -1q104 0 140 68q30 57 30 181v20h143v-697h-143q0 129 -27 198q-27 71 -99 87q-24 5 -64 5h-53h-38v-489h339q110 0 152 15q178 65 178 337q0 28 -1 82h155v-580h-1341v147h129
q51 0 71 9q36 16 40 74q0 18 2 119v668q-3 127 -3.5 135.5t-10.5 28.5q-14 28 -49 35q-15 3 -50 3h-129v146h1341zM946 1499h-124l-344 146q-62 26 -62 67q0 23 24 35q10 5 68 5h177z" />
    <glyph glyph-name="Iacute" unicode="&#xcd;" horiz-adv-x="868" 
d="M303 349v668q-2 113 -3 128.5t-11 35.5q-14 28 -49 35q-14 3 -50 3h-129v146h746v-146h-115q-52 0 -71 -10q-36 -16 -40 -73q0 -19 -2 -119v-668q2 -99 2 -119q4 -58 40 -74q20 -9 71 -9h115v-147h-746v147h129q51 0 71 9q36 16 40 74q0 18 2 119zM278 1499l261 253h176
q63 0 75 -9q18 -13 18 -30q0 -42 -62 -68l-344 -146h-124z" />
    <glyph glyph-name="Icircumflex" unicode="&#xce;" horiz-adv-x="868" 
d="M303 349v668q-2 113 -3 128.5t-11 35.5q-14 28 -49 35q-14 3 -50 3h-129v146h746v-146h-115q-52 0 -71 -10q-36 -16 -40 -73q0 -19 -2 -119v-668q2 -99 2 -119q4 -58 40 -74q20 -9 71 -9h115v-147h-746v147h129q51 0 71 9q36 16 40 74q0 18 2 119zM290 1742h248l240 -240
h-291l-90 116l-141 -116h-173z" />
    <glyph glyph-name="Idieresis" unicode="&#xcf;" horiz-adv-x="868" 
d="M303 349v668q-2 113 -3 128.5t-11 35.5q-14 28 -49 35q-14 3 -50 3h-129v146h746v-146h-115q-52 0 -71 -10q-36 -16 -40 -73q0 -19 -2 -119v-668q2 -99 2 -119q4 -58 40 -74q20 -9 71 -9h115v-147h-746v147h129q51 0 71 9q36 16 40 74q0 18 2 119zM264 1756q56 0 96 -44
q34 -38 34 -88q0 -58 -44 -98q-37 -34 -88 -34q-59 0 -98 44q-34 37 -34 89q0 57 44 97q37 34 90 34zM609 1756q57 0 96 -44q34 -37 34 -88q0 -59 -44 -98q-37 -34 -88 -34q-59 0 -98 44q-34 37 -34 89q0 57 44 97q37 34 90 34z" />
    <glyph glyph-name="Igrave" unicode="&#xcc;" horiz-adv-x="868" 
d="M303 349v668q-2 113 -3 128.5t-11 35.5q-14 28 -49 35q-14 3 -50 3h-129v146h746v-146h-115q-52 0 -71 -10q-36 -16 -40 -73q0 -19 -2 -119v-668q2 -99 2 -119q4 -58 40 -74q20 -9 71 -9h115v-147h-746v147h129q51 0 71 9q36 16 40 74q0 18 2 119zM603 1499h-124
l-344 146q-62 26 -62 67q0 23 24 35q10 5 68 5h177z" />
    <glyph glyph-name="Oacute" unicode="&#xd3;" horiz-adv-x="1574" 
d="M808 1395q136 0 263 -50.5t225 -143.5q216 -206 216 -527q0 -247 -134 -428q-118 -159 -313 -229q-128 -46 -277 -46q-259 0 -450 136q-135 95 -206 238t-71 316q0 255 141 451q120 166 334 239q129 44 272 44zM792 1228q-169 0 -277 -116q-135 -145 -135 -438
q0 -261 114 -407q112 -142 296 -142q180 0 290 139q113 142 113 387q0 151 -33 272.5t-94 194.5q-92 110 -274 110zM645 1499l261 253h176q63 0 75 -9q18 -13 18 -30q0 -42 -62 -68l-344 -146h-124z" />
    <glyph glyph-name="Ocircumflex" unicode="&#xd4;" horiz-adv-x="1574" 
d="M808 1395q136 0 263 -50.5t225 -143.5q216 -206 216 -527q0 -247 -134 -428q-118 -159 -313 -229q-128 -46 -277 -46q-259 0 -450 136q-135 95 -206 238t-71 316q0 255 141 451q120 166 334 239q129 44 272 44zM792 1228q-169 0 -277 -116q-135 -145 -135 -438
q0 -261 114 -407q112 -142 296 -142q180 0 290 139q113 142 113 387q0 151 -33 272.5t-94 194.5q-92 110 -274 110zM685 1742h248l254 -240h-279l-116 116l-169 -116h-173z" />
    <glyph glyph-name="apple" unicode="&#xf000;" horiz-adv-x="1365" 
d="M984 1416v-20q0 -162 -127 -266q-80 -65 -146 -68q-13 -1 -31 -1q0 141 82 239q91 104 222 116zM1277 935q-65 -49 -98 -92q-67 -84 -67 -192q0 -150 111 -250q34 -31 92 -56q-65 -161 -139 -256q-110 -143 -208 -143q-39 0 -82 18l-83 34q-17 7 -75 7q-73 0 -98 -10
l-87 -35q-41 -17 -79 -17q-54 0 -113.5 43.5t-112.5 123.5q-172 256 -172 526q0 176 100 306q103 135 281 135q67 0 160 -36q68 -26 101 -26q31 0 85 21q71 27 101 35q36 10 87 10q189 0 296 -146z" />
    <glyph glyph-name="Ograve" unicode="&#xd2;" horiz-adv-x="1574" 
d="M808 1395q136 0 263 -50.5t225 -143.5q216 -206 216 -527q0 -247 -134 -428q-118 -159 -313 -229q-128 -46 -277 -46q-259 0 -450 136q-135 95 -206 238t-71 316q0 255 141 451q120 166 334 239q129 44 272 44zM792 1228q-169 0 -277 -116q-135 -145 -135 -438
q0 -261 114 -407q112 -142 296 -142q180 0 290 139q113 142 113 387q0 151 -33 272.5t-94 194.5q-92 110 -274 110zM956 1499h-124l-344 146q-62 26 -62 67q0 23 24 35q10 5 68 5h177z" />
    <glyph glyph-name="Uacute" unicode="&#xda;" horiz-adv-x="1544" 
d="M522 1017v-478q0 -157 14 -208q27 -98 126 -143q75 -35 164 -35q163 0 237 102q38 53 43 121q4 53 4 163v478q-2 113 -3 129t-11 35q-14 29 -49 35q-14 3 -50 3h-146v146h695v-146h-115q-51 0 -71 -10q-36 -15 -40 -73q0 -19 -2 -119v-478q0 -149 -1.5 -182t-11.5 -74
q-38 -167 -201 -248q-130 -64 -315 -64q-181 0 -311 59q-172 77 -215 269q-17 75 -17 240v478q-2 113 -3 129t-11 35q-14 29 -49 35q-15 3 -51 3h-136v146h768v-146h-129q-51 0 -71 -10q-36 -15 -40 -73q0 -19 -2 -119zM650 1499l261 253h176q63 0 75 -9q18 -13 18 -30
q0 -42 -62 -68l-344 -146h-124z" />
    <glyph glyph-name="Ucircumflex" unicode="&#xdb;" horiz-adv-x="1544" 
d="M522 1017v-478q0 -157 14 -208q27 -98 126 -143q75 -35 164 -35q163 0 237 102q38 53 43 121q4 53 4 163v478q-2 113 -3 129t-11 35q-14 29 -49 35q-14 3 -50 3h-146v146h695v-146h-115q-51 0 -71 -10q-36 -15 -40 -73q0 -19 -2 -119v-478q0 -149 -1.5 -182t-11.5 -74
q-38 -167 -201 -248q-130 -64 -315 -64q-181 0 -311 59q-172 77 -215 269q-17 75 -17 240v478q-2 113 -3 129t-11 35q-14 29 -49 35q-15 3 -51 3h-136v146h768v-146h-129q-51 0 -71 -10q-36 -15 -40 -73q0 -19 -2 -119zM683 1742h248l254 -240h-279l-116 116l-169 -116h-173
z" />
    <glyph glyph-name="Ugrave" unicode="&#xd9;" horiz-adv-x="1544" 
d="M522 1017v-478q0 -157 14 -208q27 -98 126 -143q75 -35 164 -35q163 0 237 102q38 53 43 121q4 53 4 163v478q-2 113 -3 129t-11 35q-14 29 -49 35q-14 3 -50 3h-146v146h695v-146h-115q-51 0 -71 -10q-36 -15 -40 -73q0 -19 -2 -119v-478q0 -149 -1.5 -182t-11.5 -74
q-38 -167 -201 -248q-130 -64 -315 -64q-181 0 -311 59q-172 77 -215 269q-17 75 -17 240v478q-2 113 -3 129t-11 35q-14 29 -49 35q-15 3 -51 3h-136v146h768v-146h-129q-51 0 -71 -10q-36 -15 -40 -73q0 -19 -2 -119zM955 1499h-124l-344 146q-62 26 -62 67q0 23 24 35
q10 5 68 5h177z" />
    <glyph glyph-name="dotlessi" unicode="&#x131;" horiz-adv-x="695" 
d="M486 937v-638q1 -65 2 -90q2 -37 25.5 -54.5t71.5 -17.5h109v-137h-634v137h92q67 2 85 34q13 23 13 63l1 65v338q-1 67 -2 91q-2 37 -25.5 54.5t-71.5 17.5h-92v137h426z" />
    <glyph glyph-name="circumflex" unicode="&#x2c6;" 
d="M389 1380h248l192 -309h-244l-103 171l-155 -171h-132z" />
    <glyph glyph-name="tilde" unicode="&#x2dc;" 
d="M749 1337h111q-3 -95 -55 -158q-68 -82 -173 -82q-45 0 -155 31q-100 28 -134 28q-61 0 -72 -76h-108q1 74 43 139q61 96 183 96q50 0 208 -39q60 -15 83 -15q29 0 52 29q13 17 17 47z" />
    <glyph glyph-name="macron" unicode="&#x2c9;" 
d="M198 1092v150h628v-150h-628z" />
    <glyph glyph-name="breve" unicode="&#x2d8;" 
d="M203 1354h116q40 -110 196 -110q146 0 189 110h118q-16 -106 -78 -180q-42 -48 -108 -75q-63 -24 -129 -24q-149 0 -240 114q-48 61 -64 165z" />
    <glyph glyph-name="dotaccent" unicode="&#x2d9;" 
d="M514 1365q58 0 99 -45q35 -39 35 -91q0 -61 -45 -102q-39 -35 -91 -35q-61 0 -102 45q-35 39 -35 93q0 59 45 100q39 35 94 35z" />
    <glyph glyph-name="ring" unicode="&#x2da;" 
d="M516 1452q85 0 145 -66q51 -56 51 -133q0 -89 -66 -148q-57 -51 -134 -51q-89 0 -149 66q-51 56 -51 135q0 86 66 146q57 51 138 51zM511 1336q-36 0 -61 -27q-21 -24 -21 -56q0 -37 27 -62q24 -21 56 -21q37 0 62 27q21 24 21 57q0 35 -28 61q-23 21 -56 21z" />
    <glyph glyph-name="cedilla" unicode="&#xb8;" 
d="M576 0l-81 -121q43 9 73 9q76 0 121 -39q44 -39 44 -97q0 -78 -75 -130q-56 -39 -152 -39q-103 0 -212 44l34 73q86 -33 153 -33q38 0 62 13q39 21 39 62q0 36 -32 57q-24 16 -56 16q-33 0 -79 -16l-38 37l112 164h87z" />
    <glyph glyph-name="hungarumlaut" unicode="&#x2dd;" 
d="M269 1068l138 319h122q63 0 75 -9q18 -13 18 -29q0 -25 -21 -43l-28 -26l-221 -212h-83zM594 1068l138 319h122q63 0 75 -9q18 -13 18 -29q0 -25 -21 -43l-28 -26l-221 -212h-83z" />
    <glyph glyph-name="ogonek" unicode="&#x2db;" 
d="M561 0h153q-141 -90 -141 -177q0 -89 94 -89q44 0 99 8v-127q-58 -14 -129 -14q-93 0 -150 56q-57 57 -57 140q0 120 131 203z" />
    <glyph glyph-name="caron" unicode="&#x2c7;" 
d="M635 1071h-248l-192 309h244l103 -171l155 171h132z" />
    <glyph glyph-name="Lslash" unicode="&#x141;" horiz-adv-x="1322" 
d="M309 511l-248 -161v156l248 161v350q-2 113 -3 128.5t-11 35.5q-14 29 -48 35q-15 3 -51 3h-135v146h766v-146h-129q-52 0 -71 -10q-36 -16 -40 -73q0 -19 -2 -119v-205l432 280v-156l-432 -280v-510h218q90 0 122 3.5t66 15.5q147 57 175 237q8 64 8 186h150v-588h-1263
v146h135q51 0 72 10q35 16 39 74q0 18 2 119v162z" />
    <glyph glyph-name="lslash" unicode="&#x142;" horiz-adv-x="665" 
d="M460 857l198 151v-159l-198 -151v-399q1 -65 2 -90q2 -37 25.5 -54.5t71.5 -17.5h92v-137h-617v137h92q67 2 85 34q13 23 13 63l1 65v261l-191 -147v158l191 147v348q-1 66 -2 91q-2 37 -25.5 54.5t-71.5 17.5h-92v136h426v-508z" />
    <glyph glyph-name="Scaron" unicode="&#x160;" horiz-adv-x="1320" 
d="M1165 1365v-520h-139q-22 145 -95 233q-124 150 -343 150q-148 0 -210 -75q-41 -50 -41 -110q0 -87 79 -125q57 -28 219 -58q209 -39 293 -70q320 -116 320 -395q0 -241 -198 -355q-120 -69 -300 -69t-303 66q-60 32 -137 110l-50 -147h-142v582h142q23 -147 67 -218
q73 -116 204 -175q100 -45 218 -45q80 0 144 23.5t96 64.5q33 43 33 106q0 99 -98 149q-79 41 -448 116q-117 24 -183.5 52t-107.5 72q-93 98 -93 249q0 175 114 290q130 129 379 129q150 0 258 -54q56 -28 138 -99l61 123h123zM798 1502h-248l-254 240h278l117 -116
l169 116h173z" />
    <glyph glyph-name="scaron" unicode="&#x161;" horiz-adv-x="1047" 
d="M923 937v-359h-140q-7 84 -64 157q-39 49 -102 76q-58 25 -118 25q-67 0 -106 -39q-33 -34 -33 -77q0 -64 75 -92q17 -6 163 -39q373 -83 373 -322q0 -142 -110 -224q-96 -72 -248 -72q-115 0 -208 40q-47 20 -116 74l-30 -85h-147v381h147q13 -84 43 -127
q57 -84 143 -125q60 -28 131 -28q102 0 141 58q20 28 20 66q0 49 -38 78q-29 23 -62 33q-37 10 -119 28q-191 41 -286 99q-58 35 -92 103q-27 54 -27 117q0 115 89 194q103 89 266 89q111 0 197 -45q38 -20 88 -64l30 80h140zM674 1071h-248l-192 309h244l103 -171l155 171
h132z" />
    <glyph glyph-name="Zcaron" unicode="&#x17d;" horiz-adv-x="1342" 
d="M1251 1365v-179l-814 -1040h164q148 0 239 16q260 48 260 390q0 18 -1 58h168v-610h-1192v167l822 1052h-184q-174 -2 -225 -12q-92 -15 -153 -99q-49 -65 -62 -199q-3 -19 -4 -116h-164v572h1146zM816 1502h-248l-254 240h278l117 -116l169 116h173z" />
    <glyph glyph-name="zcaron" unicode="&#x17e;" horiz-adv-x="1034" 
d="M111 937h846v-137l-614 -663h161q110 0 169 15.5t86 50.5q48 61 48 260h150v-463h-881v154l598 646h-152q-94 0 -130 -5q-87 -13 -113 -95q-17 -55 -17 -132q0 -15 1 -46h-152v415zM673 1071h-248l-192 309h244l103 -171l155 171h132z" />
    <glyph glyph-name="brokenbar" unicode="&#xa6;" 
d="M394 1365h236v-702h-236v702zM394 314h236v-655h-236v655z" />
    <glyph glyph-name="Eth" unicode="&#xd0;" horiz-adv-x="1570" 
d="M304 628h-243v143h243v246q-2 113 -3 129t-11 35q-14 29 -48 35q-15 3 -51 3h-130v146h680q139 0 185 -2.5t97 -13.5q251 -56 376 -255q110 -176 110 -408q0 -271 -145 -456q-130 -167 -349 -213q-83 -17 -302 -17h-652v146h130q51 0 72 10q35 16 39 73q0 19 2 119v280z
M576 146h129q215 0 325 67q184 111 184 470q0 328 -176 461q-69 53 -168 68q-50 7 -133 7h-161v-445h341v-143h-341v-485z" />
    <glyph glyph-name="eth" unicode="&#xf0;" horiz-adv-x="1188" 
d="M680 1278l187 69l69 -92l-167 -63q141 -170 212 -284q147 -237 147 -429q0 -226 -156 -372q-145 -137 -360 -137q-185 0 -332 98q-106 70 -162.5 172.5t-56.5 223.5q0 156 96 288q85 117 237 177q99 38 172 38q42 0 129 -21q-54 92 -111 173l-164 -62l-57 99l164 65
l-29 42q-44 64 -69 100h170q25 -24 54 -57q16 -18 27 -28zM596 849q-137 0 -202 -118q-51 -93 -51 -253q0 -156 40 -244q31 -69 97 -105q52 -29 116 -29q247 0 247 355q0 203 -61 300q-59 94 -186 94z" />
    <glyph glyph-name="Yacute" unicode="&#xdd;" horiz-adv-x="1418" 
d="M-51 1219v146h767v-146h-97q-92 -3 -106 -9q-26 -12 -26 -45q0 -29 36 -80l221 -313l221 313q43 61 43 88q0 30 -32 40q-17 6 -66 6h-110v146h669v-146h-52q-68 -1 -104 -22q-56 -34 -147 -163l-309 -442v-244q2 -113 3 -129t11 -35q14 -28 48 -35q15 -3 51 -3h167v-146
h-826v146h161q51 0 72 10q35 16 39 73q0 17 1 119v244l-334 442q-49 65 -63 85q-48 68 -84 84t-87 16h-67zM587 1499l261 253h176q63 0 75 -9q18 -13 18 -30q0 -42 -62 -68l-344 -146h-124z" />
    <glyph glyph-name="yacute" unicode="&#xfd;" horiz-adv-x="1178" 
d="M-14 937h608v-137h-50q-97 0 -97 -50q0 -27 23 -81l181 -415l169 415q17 40 17 64q0 67 -98 67h-57v137h523v-137h-32q-89 -1 -119 -42q-14 -21 -60 -122l-343 -797q-59 -136 -139 -211q-88 -83 -219 -83q-103 0 -185 56q-108 74 -108 197q0 79 48 126q49 48 115 48
q55 0 94 -34q42 -37 42 -88q0 -49 -38 -85q-33 -31 -104 -31q35 -46 108 -46q116 0 187 126q20 36 66 159l-306 663q-44 94 -58 111q-43 52 -125 53h-43v137zM529 1068l97 319h177q62 0 74 -9q18 -13 18 -29q0 -24 -21 -43l-27 -26l-221 -212h-97z" />
    <glyph glyph-name="Thorn" unicode="&#xde;" horiz-adv-x="1365" 
d="M582 367v-18q2 -114 3 -129.5t11 -35.5q14 -28 49 -35q14 -3 51 -3h111v-146h-746v146h131q51 0 71 10q36 16 40 74q0 18 2 119v668q-2 98 -2 119q-4 58 -40 73q-19 10 -71 10h-131v146h765v-146h-131q-69 0 -90 -25q-16 -16 -20 -49l-2 -67l-1 -34v-6h280q156 0 216 -13
q126 -28 205 -117q72 -82 72 -220q0 -196 -175 -276q-69 -31 -160 -40q-48 -5 -160 -5h-278zM582 512h167q156 0 219 28q48 22 68 58q23 41 23 112q0 70 -32 106q-42 49 -129 67q-42 9 -142 9h-174v-380z" />
    <glyph glyph-name="thorn" unicode="&#xfe;" horiz-adv-x="1244" 
d="M469 1365v-583q61 91 114 127q85 57 195 57q181 0 297 -136q108 -127 108 -333q0 -245 -125 -397q-49 -60 -122.5 -94.5t-152.5 -34.5q-120 0 -216 73q-41 32 -98 110v-302q1 -66 2 -91q2 -37 25.5 -54.5t71.5 -17.5h102v-137h-636v137h103q67 2 85 34q13 23 13 63
q0 12 1 66v1214q-1 72 -2 90q-2 38 -25.5 55.5t-71.5 17.5h-103v136h435zM698 816q-48 0 -93.5 -25t-73.5 -67q-69 -102 -69 -257q0 -143 64 -237q65 -94 178 -94q112 0 167 105q46 89 46 235q0 150 -45 235q-55 105 -174 105z" />
    <glyph glyph-name="minus" unicode="&#x2212;" horiz-adv-x="1283" 
d="M198 801h887v-218h-887v218z" />
    <glyph glyph-name="multiply" unicode="&#xd7;" horiz-adv-x="1284" 
d="M204 409l284 284l-284 283l154 154l284 -283l283 283l154 -154l-283 -283l283 -284l-154 -154l-283 284l-284 -284z" />
    <glyph glyph-name="onesuperior" unicode="&#xb9;" horiz-adv-x="843" 
d="M521 1279v-518q1 -69 3 -79q5 -20 17 -26q13 -6 45 -6h83v-104h-477v104h89q44 0 55 15q9 14 9 40q0 12 1 56v310h-154v95l7 1q97 0 140 29q31 22 53 83h129z" />
    <glyph glyph-name="twosuperior" unicode="&#xb2;" horiz-adv-x="843" 
d="M671 813h95q-2 -116 -23 -169q-47 -115 -191 -115q-63 0 -138 27q-35 13 -105 45q-48 21 -71 21q-51 0 -51 -54q0 -10 1 -22h-104q-1 20 -1 32q0 116 63 192q45 54 156 104q124 56 152 76q70 48 70 118q0 50 -34 84q-43 44 -132 44q-124 0 -152 -79l7 2q13 5 30 5
q44 0 71 -30q23 -25 23 -62q0 -50 -34 -78q-30 -24 -76 -24q-64 0 -101 43q-32 38 -32 94q0 96 85 163q84 67 229 67t235 -69q87 -67 87 -175q0 -138 -130 -194q-61 -26 -255 -76q-86 -23 -134 -96l6 2q75 24 94 24q27 0 169 -22q38 -6 75 -6q75 0 102 48q13 25 14 80z" />
    <glyph glyph-name="threesuperior" unicode="&#xb3;" horiz-adv-x="843" 
d="M344 883v98h42q153 -2 153 107q0 53 -42 82q-47 33 -124 33q-63 0 -103 -28q75 -16 75 -83q0 -31 -18 -55q-29 -41 -91 -41q-45 0 -76 24q-41 31 -41 85q0 76 63 125q85 66 233 66q159 0 255 -72q70 -53 70 -135q0 -89 -76 -132q-26 -14 -84 -29q111 -39 145 -89
q29 -43 29 -94q0 -75 -64 -134q-88 -82 -257 -82q-147 0 -246 58q-94 54 -94 143q0 52 34 88q35 38 91 38q52 0 82 -32q25 -27 25 -63q0 -76 -97 -84q5 -18 32 -32q55 -26 127 -26q77 0 122 40q38 34 38 98q0 127 -157 127l-39 -1h-7z" />
    <glyph glyph-name="onehalf" unicode="&#xbd;" horiz-adv-x="1907" 
d="M521 1279v-518q1 -69 3 -79q5 -20 17 -26q13 -6 45 -6h83v-104h-477v104h89q44 0 55 15q9 14 9 40q0 12 1 56v310h-154v95l7 1q97 0 140 29q31 22 53 83h129zM1222 1218h143l-706 -1218h-144zM1736 267h94q-2 -116 -23 -169q-46 -115 -191 -115q-85 0 -243 72
q-48 21 -71 21q-51 0 -51 -54q0 -6 1 -22h-104q-1 23 -1 33q0 115 63 191q45 54 156 104q124 55 152 75q70 48 70 118q0 50 -34 84q-43 44 -132 44q-124 0 -152 -78l7 2q14 5 31 5q43 0 70 -30q23 -25 23 -62q0 -50 -35 -78q-29 -24 -75 -24q-64 0 -101 43q-32 37 -32 94
q0 95 85 162q84 67 229 67t235 -69q87 -67 87 -174q0 -138 -129 -194q-62 -26 -256 -76q-86 -23 -134 -96l6 2q75 24 95 24q26 0 168 -22q38 -6 76 -6q74 0 101 48q13 25 15 80z" />
    <glyph glyph-name="onequarter" unicode="&#xbc;" horiz-adv-x="1907" 
d="M521 1279v-518q1 -69 3 -79q5 -20 17 -26q13 -6 45 -6h83v-104h-477v104h89q44 0 55 15q9 14 9 40q0 12 1 56v310h-154v95l7 1q97 0 140 29q31 22 53 83h129zM1222 1218h143l-706 -1218h-144zM1685 732v-427h140v-104h-140q1 -18 1 -24q-1 -50 13 -63q11 -10 51 -10h75
v-104h-460v104h78q43 0 54 15q9 16 10 82h-370v90l393 441h155zM1507 305v241l-216 -241h216z" />
    <glyph glyph-name="threequarters" unicode="&#xbe;" horiz-adv-x="1907" 
d="M1221 1218h143l-706 -1218h-143zM1685 732v-427h139v-104h-139q1 -18 1 -24q-1 -49 13 -63q10 -10 50 -10h75v-104h-459v104h78q43 0 54 15q9 16 10 82h-371v90l394 441h155zM1507 305v241l-217 -241h217zM344 883v98h42q153 -2 153 107q0 53 -42 82q-47 33 -124 33
q-63 0 -103 -28q75 -16 75 -83q0 -31 -18 -55q-29 -41 -91 -41q-45 0 -76 24q-41 31 -41 85q0 76 63 125q85 66 233 66q159 0 255 -72q70 -53 70 -135q0 -89 -76 -132q-26 -14 -84 -29q111 -39 145 -89q29 -43 29 -94q0 -75 -64 -134q-88 -82 -257 -82q-147 0 -246 58
q-94 54 -94 143q0 52 34 88q35 38 91 38q52 0 82 -32q25 -27 25 -63q0 -76 -97 -84q5 -18 32 -32q55 -26 127 -26q77 0 122 40q38 34 38 98q0 127 -157 127l-39 -1h-7z" />
    <glyph glyph-name="franc" unicode="&#x20a3;" horiz-adv-x="1978" 
d="M532 649v-294q2 -113 3 -129t11 -35q14 -28 49 -35q14 -3 50 -3h88v-153h-672v153h101q51 0 71 10q36 15 40 73q0 19 2 119v661q-2 114 -3 129.5t-11 35.5q-14 28 -49 34q-14 4 -50 4h-101v152l1174 1v-516h-128q-3 168 -66 266q-51 80 -145 98q-30 6 -132 6h-232v-434
h45q115 -2 159 65q21 33 26 105q1 20 2 92h128v-717h-128q-1 151 -25 217q-37 98 -163 95h-44zM1107 655v137h426v-137q84 166 239 166q101 0 163 -69q60 -67 60 -156q0 -88 -58 -143q-46 -44 -112 -44q-59 0 -98 37q-44 42 -44 102q0 109 134 138q-35 14 -58 14
q-56 0 -107.5 -33.5t-80.5 -88.5q-30 -58 -36 -125q-2 -18 -2 -108v-46q1 -65 2 -90q2 -37 25.5 -54.5t71.5 -17.5h81v-137h-606v137h81q67 2 85 34q12 23 13 63l1 65v193q-1 47 -2 91q-2 37 -25.5 54.5t-71.5 17.5h-81z" />
    <glyph glyph-name="Gbreve" unicode="&#x11e;" horiz-adv-x="1553" 
d="M426 1778h138q18 -55 70 -84.5t129 -29.5q157 0 208 114h139q-19 -107 -93 -180q-48 -48 -120 -75q-68 -24 -135 -24q-152 0 -260 113q-57 60 -76 166zM1284 1390v-548h-152q-28 126 -66 185q-68 108 -185 156q-70 29 -146 29q-160 0 -253 -119q-54 -69 -78 -165
t-24 -245q0 -135 22.5 -227t71.5 -159q48 -66 122.5 -102.5t160.5 -36.5q97 0 174 44q80 45 99 111q10 32 10 81v61v3q-2 94 -15 108q-17 24 -100 25h-129v146h746v-146h-94q-60 0 -84 -6q-38 -8 -46 -60q-4 -20 -4 -70v-455h-150l-63 126q-85 -72 -157 -104
q-115 -51 -255 -51q-243 0 -404 147q-101 92 -160 238q-64 157 -64 328q0 254 128 450q171 262 500 262q137 0 243 -46q62 -26 142 -104l58 144h152z" />
    <glyph glyph-name="gbreve" unicode="&#x11f;" horiz-adv-x="1262" 
d="M296 1354h116q40 -110 196 -110q146 0 189 110h118q-16 -106 -78 -180q-42 -48 -108 -75q-63 -24 -129 -24q-149 0 -240 114q-48 61 -64 165zM954 800q67 -79 67 -185q0 -159 -123 -260q-118 -97 -307 -97q-107 0 -232 44q-64 -30 -64 -76q0 -59 93 -73q35 -6 174 -6h45
q145 2 192 2q180 0 259 -86q72 -78 72 -179q0 -184 -185 -271q-118 -55 -346 -55q-534 0 -534 241q0 85 82 134q35 20 111 35q-72 24 -104 51q-61 51 -61 131q0 86 72 140q37 27 123 47q-65 50 -93 89q-61 83 -61 186q0 154 123 256q118 98 315 98q137 0 237 -48
q39 -19 95 -63q46 58 83 80q51 31 111 31q96 0 152 -73q49 -63 49 -143q0 -70 -40 -113q-31 -32 -89 -32q-54 0 -87 31q-36 34 -36 87t32 83q25 24 57 24q6 0 17 -2q-33 40 -76 40q-61 0 -123 -68zM570 846q-171 0 -171 -260q0 -122 55 -172q49 -45 123 -45q91 0 135 62
q38 54 38 184q0 136 -57 189q-45 42 -123 42zM542 -66q-129 0 -182 -11q-46 -10 -76 -46q-23 -27 -23 -63q0 -75 102 -113q98 -36 225 -36q151 0 234 32q39 15 62.5 47.5t23.5 71.5q0 56 -44 84q-40 27 -186 32q-69 2 -136 2z" />
    <glyph glyph-name="Idot" unicode="&#x130;" horiz-adv-x="868" 
d="M436 1761q59 0 100 -45q35 -39 35 -92q0 -61 -45 -102q-39 -35 -92 -35q-61 0 -102 45q-35 39 -35 93q0 59 45 101q39 35 94 35zM303 349v668q-2 113 -3 128.5t-11 35.5q-14 28 -49 35q-14 3 -50 3h-129v146h746v-146h-115q-52 0 -71 -10q-36 -16 -40 -73q0 -19 -2 -119
v-668q2 -99 2 -119q4 -58 40 -74q20 -9 71 -9h115v-147h-746v147h129q51 0 71 9q36 16 40 74q0 18 2 119z" />
    <glyph glyph-name="Scedilla" unicode="&#x15e;" horiz-adv-x="1320" 
d="M693 -26l-64 -95q44 9 73 9q77 0 121 -39q44 -38 44 -97q0 -78 -75 -130q-56 -39 -153 -39q-101 0 -211 44l35 73q85 -33 153 -33q37 0 61 13q39 21 39 63q0 36 -32 57q-24 16 -56 16q-33 0 -79 -17l-38 37l101 148q-81 13 -144 43q-74 36 -158 120l-50 -147h-142v582
h142q23 -147 67 -217q73 -116 204 -175q100 -45 218 -45q80 0 144 23.5t96 64.5q33 43 33 106q0 99 -98 149q-80 41 -448 116q-118 23 -184 51.5t-107 71.5q-93 99 -93 249q0 176 114 290q130 129 379 129q150 0 258 -54q56 -28 138 -99l61 123h123v-520h-139
q-22 145 -95 233q-124 150 -343 150q-148 0 -210 -75q-41 -50 -41 -110q0 -87 79 -125q58 -28 219 -58q211 -39 293 -69q320 -117 320 -395q0 -241 -198 -354q-122 -70 -279 -70q-30 0 -78 2z" />
    <glyph glyph-name="scedilla" unicode="&#x15f;" horiz-adv-x="1047" 
d="M540 -24l-61 -97q43 9 73 9q76 0 121 -39q44 -39 44 -97q0 -78 -75 -130q-56 -39 -152 -39q-103 0 -212 44l34 73q86 -33 153 -33q37 0 62 13q39 21 39 62q0 36 -32 57q-25 16 -57 16t-78 -16l-38 37l105 154q-49 13 -81 29q-30 15 -96 66l-30 -85h-147v381h147
q13 -84 43 -127q57 -84 143 -125q60 -28 131 -28q102 0 141 58q20 28 20 66q0 49 -38 78q-29 23 -62 33q-37 10 -119 28q-191 41 -286 99q-58 35 -92 103q-27 54 -27 117q0 115 89 194q103 89 266 89q111 0 197 -45q38 -20 88 -64l30 80h140v-359h-140q-7 84 -64 157
q-39 49 -102 76q-58 25 -118 25q-67 0 -106 -39q-33 -34 -33 -77q0 -64 75 -92q17 -6 163 -39q373 -83 373 -322q0 -145 -110 -224q-103 -74 -238 -74q-27 0 -83 7z" />
    <glyph glyph-name="Cacute" unicode="&#x106;" horiz-adv-x="1421" 
d="M568 1499l261 253h176q63 0 75 -9q18 -13 18 -30q0 -42 -62 -68l-344 -146h-124zM1276 1365v-535h-155q-19 125 -50 185q-62 120 -174 170q-65 29 -144 29q-213 0 -299 -162q-74 -138 -74 -386q0 -528 361 -528q224 0 314 181q39 79 58 204h163q-11 -159 -45 -241
q-76 -181 -244 -259q-113 -52 -272 -52q-244 0 -407 132q-111 88 -170 221q-77 169 -77 362q0 337 208 544q164 165 414 165q148 0 250 -66q50 -32 128 -110l52 146h163z" />
    <glyph glyph-name="cacute" unicode="&#x107;" horiz-adv-x="1043" 
d="M461 1068l97 319h177q62 0 74 -9q18 -13 18 -29q0 -24 -21 -43l-27 -26l-221 -212h-97zM815 392h161q-4 -157 -69 -253q-61 -90 -166 -132q-90 -36 -191 -36q-181 0 -313 105q-176 142 -176 389q0 179 102 314q141 187 407 187q201 0 315 -101q95 -84 95 -197
q0 -80 -44 -124q-42 -41 -117 -41q-60 0 -101 35q-43 37 -43 100q0 106 122 125q-59 73 -176 73q-135 0 -211 -100q-72 -95 -72 -257q0 -166 72 -254q75 -91 189 -91q63 0 113.5 31.5t73.5 85.5q22 52 29 141z" />
    <glyph glyph-name="Ccaron" unicode="&#x10c;" horiz-adv-x="1421" 
d="M869 1502h-248l-254 240h278l117 -116l169 116h173zM1276 1365v-535h-155q-19 125 -50 185q-62 120 -174 170q-65 29 -144 29q-213 0 -299 -162q-74 -138 -74 -386q0 -528 361 -528q224 0 314 181q39 79 58 204h163q-11 -159 -45 -241q-76 -181 -244 -259
q-113 -52 -272 -52q-244 0 -407 132q-111 88 -170 221q-77 169 -77 362q0 337 208 544q164 165 414 165q148 0 250 -66q50 -32 128 -110l52 146h163z" />
    <glyph glyph-name="ccaron" unicode="&#x10d;" horiz-adv-x="1043" 
d="M685 1071h-248l-192 309h244l103 -171l155 171h132zM815 392h161q-4 -157 -69 -253q-61 -90 -166 -132q-90 -36 -191 -36q-181 0 -313 105q-176 142 -176 389q0 179 102 314q141 187 407 187q201 0 315 -101q95 -84 95 -197q0 -80 -44 -124q-42 -41 -117 -41
q-60 0 -101 35q-43 37 -43 100q0 106 122 125q-59 73 -176 73q-135 0 -211 -100q-72 -95 -72 -257q0 -166 72 -254q75 -91 189 -91q63 0 113.5 31.5t73.5 85.5q22 52 29 141z" />
    <glyph glyph-name="dmacron" unicode="&#x111;" horiz-adv-x="1238" 
d="M1017 1365v-228h164v-123h-164v-715q1 -65 2 -90q2 -37 25.5 -54.5t71.5 -17.5h102v-137h-440v154q-86 -183 -285 -183q-178 0 -292 107q-66 61 -103 158t-37 208q0 197 106 332q110 142 313 142q105 0 184 -56q52 -38 114 -126v278h-287v123h287q-3 52 -28 74
q-18 16 -71 17h-106v137h444zM542 758q-111 0 -167 -100q-49 -90 -49 -220q0 -154 76 -233q57 -60 142 -60q103 0 168 88q68 90 68 213q0 136 -79 231q-68 81 -159 81z" />
    <glyph glyph-name="nbspace" unicode="&#xa0;" horiz-adv-x="512" 
 />
    <glyph glyph-name="sfthyphen" unicode="&#xad;" horiz-adv-x="511" 
d="M0 597h511v-197h-511v197z" />
    <glyph glyph-name="overscore" unicode="&#xaf;" 
d="M0 1813h1024v-212h-1024v212z" />
    <glyph glyph-name="middot" unicode="&#xb7;" horiz-adv-x="545" 
d="M274 628q62 0 105 -48q38 -42 38 -98q0 -65 -48 -108q-42 -38 -98 -38q-65 0 -108 48q-38 42 -38 99q0 63 48 107q41 38 101 38z" />
    <glyph glyph-name="glyph262" 
d="M342 1756q56 0 96 -44q34 -38 34 -88q0 -58 -44 -98q-37 -34 -88 -34q-59 0 -98 44q-34 37 -34 89q0 57 44 97q37 34 90 34zM687 1756q57 0 96 -44q34 -37 34 -88q0 -59 -44 -98q-37 -34 -88 -34q-59 0 -98 44q-34 37 -34 89q0 57 44 97q37 34 90 34z" />
    <glyph glyph-name="glyph263" 
d="M170 1778h138q18 -55 70 -84.5t129 -29.5q157 0 208 114h139q-19 -107 -93 -180q-48 -48 -120 -75q-68 -24 -135 -24q-152 0 -260 113q-57 60 -76 166z" />
    <glyph glyph-name="glyph264" 
d="M514 1761q59 0 100 -45q35 -39 35 -92q0 -61 -45 -102q-39 -35 -92 -35q-61 0 -102 45q-35 39 -35 93q0 59 45 101q39 35 94 35z" />
    <glyph glyph-name="glyph265" 
d="M516 1834q85 0 145 -66q51 -57 51 -134q0 -89 -66 -149q-57 -51 -134 -51q-89 0 -149 66q-51 57 -51 136q0 86 66 147q57 51 138 51zM511 1717q-36 0 -61 -27q-21 -24 -21 -56q0 -37 27 -62q24 -21 56 -21q37 0 62 27q21 24 21 57q0 35 -28 61q-23 21 -56 21z" />
    <glyph glyph-name="glyph266" 
d="M586 1499h-124l-344 146q-62 26 -62 67q0 23 24 35q10 5 68 5h177z" />
    <glyph glyph-name="glyph267" 
d="M411 1499l261 253h176q63 0 75 -9q18 -13 18 -30q0 -42 -62 -68l-344 -146h-124z" />
    <glyph glyph-name="glyph268" 
d="M368 1742h248l254 -240h-279l-116 116l-169 -116h-173z" />
    <glyph glyph-name="glyph269" 
d="M656 1502h-248l-254 240h278l117 -116l169 116h173z" />
    <glyph glyph-name="glyph270" 
d="M347 1365q58 0 99 -45q35 -39 35 -91q0 -61 -45 -102q-39 -35 -91 -35q-61 0 -102 45q-35 39 -35 93q0 59 45 100q39 35 94 35zM683 1365q58 0 99 -45q35 -39 35 -91q0 -61 -45 -102q-39 -35 -91 -35q-61 0 -102 45q-35 39 -35 93q0 59 45 100q39 35 94 35z" />
    <glyph glyph-name="glyph271" 
d="M755 1759h117q-5 -69 -40 -126q-29 -48 -76 -75q-51 -30 -106 -30t-175 37q-80 24 -116 24q-34 0 -60 -14q-21 -11 -34 -54h-114q20 87 41 125q25 48 69 76t95 28q52 0 161 -29q116 -30 167 -30q54 0 71 68z" />
    <glyph glyph-name="glyph272" horiz-adv-x="512" 
 />
    </font>
</defs>
</svg>
