<?xml version="1.0" standalone="no"?>
<!DOCTYPE svg PUBLIC "-//W3C//DTD SVG 1.1//EN" "http://www.w3.org/Graphics/SVG/1.1/DTD/svg11.dtd" >
<svg xmlns="http://www.w3.org/2000/svg" xmlns:xlink="http://www.w3.org/1999/xlink" version="1.1">
<metadata>
Created by FontForge 20190801 at Tue Dec  9 17:55:57 2003
 By Jimmy Wärting
Copyright 1990-2003 Bitstream Inc. All rights reserved.
</metadata>
<defs>
<font id="ClarendonBT-Roman" horiz-adv-x="1024" >
  <font-face 
    font-family="Clarendon BT"
    font-weight="400"
    font-stretch="normal"
    units-per-em="2048"
    panose-1="2 4 7 4 4 5 5 2 2 4"
    ascent="1556"
    descent="-492"
    x-height="967"
    cap-height="1374"
    bbox="-342 -483 2808 1972"
    underline-thickness="172"
    underline-position="-305"
    unicode-range="U+0020-F002"
  />
<missing-glyph horiz-adv-x="1229" 
d="M102 -362v1806h1024v-1806h-1024zM217 -248h795v1577h-795v-1577z" />
    <glyph glyph-name=".notdef" horiz-adv-x="1229" 
d="M102 -362v1806h1024v-1806h-1024zM217 -248h795v1577h-795v-1577z" />
    <glyph glyph-name=".null" horiz-adv-x="0" 
 />
    <glyph glyph-name="nonmarkingreturn" horiz-adv-x="639" 
 />
    <glyph glyph-name="space" unicode=" " horiz-adv-x="639" 
 />
    <glyph glyph-name="exclam" unicode="!" horiz-adv-x="639" 
d="M256 391q-18 253 -51 535.5t-33 318.5q0 89 36.5 129.5t115.5 40.5t115 -40.5t36 -129.5q0 -35 -35.5 -317.5t-56.5 -536.5h-127zM166 117q0 63 44.5 107t108.5 44q65 0 108.5 -43.5t43.5 -107.5q0 -65 -43.5 -108.5t-108.5 -43.5q-64 0 -108.5 44t-44.5 108z" />
    <glyph glyph-name="quotedbl" unicode="&#x22;" horiz-adv-x="694" 
d="M496 856l-74 458q-1 8 -1.5 16.5t-0.5 23.5q0 51 25.5 79.5t70.5 28.5t70.5 -28t25.5 -78q0 -13 -3 -36q-1 -4 -1 -5l-73 -459h-39zM160 856l-74 459q-1 7 -1.5 15.5t-0.5 23.5q0 52 24.5 80t69.5 28q47 0 71.5 -27.5t24.5 -80.5q0 -16 -0.5 -24.5t-1.5 -15.5l-73 -458
h-39z" />
    <glyph glyph-name="numbersign" unicode="#" horiz-adv-x="1575" 
d="M977 858h-275l-94 -264h275zM920 1460l-156 -436h268l156 436h182l-156 -436h291l-59 -166h-291l-92 -262h307l-59 -168h-307l-154 -434h-184l155 434h-268l-154 -434h-184l156 434h-301l59 168h301l92 262h-319l61 166h318l155 436h183z" />
    <glyph glyph-name="dollar" unicode="$" horiz-adv-x="1280" 
d="M553 -215v215q-216 14 -333.5 98.5t-117.5 225.5q0 71 44.5 116t115.5 45q62 0 103 -36.5t41 -92.5t-34.5 -88t-95.5 -32h-14q52 -52 123 -77.5t168 -26.5v380q-227 54 -326.5 140t-99.5 225q0 149 113.5 248.5t312.5 121.5v156h139v-156q181 -8 298.5 -93t117.5 -198
q0 -68 -41.5 -111.5t-105.5 -43.5q-62 0 -103 34.5t-41 86.5q0 49 35.5 79t97.5 33q-48 44 -112 65t-146 21v-368q248 -44 361.5 -134.5t113.5 -242.5q0 -166 -123.5 -264t-351.5 -113v-213h-139zM553 1116q-98 -12 -148.5 -55.5t-50.5 -116.5q0 -66 48 -105.5t151 -58.5
v336zM693 135q121 5 183 49t62 125q0 72 -56.5 113t-189.5 63z" />
    <glyph glyph-name="percent" unicode="%" horiz-adv-x="1972" 
d="M1356 358q0 -135 39 -199.5t123 -64.5t122.5 63t38.5 201t-39 201.5t-122 63.5t-122.5 -65t-39.5 -200zM1126 358q0 176 109 286t283 110q173 0 283 -110.5t110 -285.5q0 -174 -109.5 -283.5t-283.5 -109.5t-283 109t-109 284zM1452 1282l-768 -1317h-166l770 1317h164z
M293 887q0 -136 39 -199t123 -63q85 0 124 62.5t39 199.5t-39.5 201.5t-123.5 64.5q-82 0 -122 -65.5t-40 -200.5zM63 887q0 175 109 285t283 110q173 0 283 -110t110 -285t-109.5 -284t-283.5 -109t-283 109t-109 284z" />
    <glyph glyph-name="ampersand" unicode="&#x26;" horiz-adv-x="1731" 
d="M668 932q87 43 131.5 95t44.5 112q0 52 -34 85t-89 33q-58 0 -93.5 -36.5t-35.5 -96.5q0 -43 19.5 -92.5t56.5 -99.5zM512 651q-75 -42 -111 -94t-36 -117q0 -123 74 -201.5t192 -78.5q39 0 81 12t91 37q-80 94 -150.5 201.5t-140.5 240.5zM1489 473h158v-39
q0 -230 -101 -352.5t-289 -122.5q-77 0 -156 29t-165 88q-100 -59 -196.5 -88t-194.5 -29q-202 0 -336.5 120.5t-134.5 297.5q0 144 85 251t269 195q-28 63 -41.5 122t-13.5 118q0 152 99 252t251 100q141 0 222 -70.5t81 -193.5q0 -111 -65 -204.5t-199 -174.5
q60 -103 125.5 -198.5t136.5 -184.5q73 72 114.5 142.5t41.5 121.5q0 26 -27.5 36.5t-97.5 10.5h-62v156h654v-156h-72q-77 0 -120 -22t-79 -82q-5 -8 -19 -35q-93 -171 -216 -313q36 -37 74 -54.5t79 -17.5q94 0 140.5 71t54.5 226z" />
    <glyph glyph-name="quotesingle" unicode="'" horiz-adv-x="358" 
d="M160 856l-74 459q-1 7 -1.5 15.5t-0.5 23.5q0 52 24.5 80t69.5 28q47 0 71.5 -27.5t24.5 -80.5q0 -16 -0.5 -24.5t-1.5 -15.5l-73 -458h-39z" />
    <glyph glyph-name="parenleft" unicode="(" horiz-adv-x="793" 
d="M723 -268v-129q-315 81 -479 313.5t-164 597.5q0 357 165.5 589t477.5 312v-129q-178 -72 -266 -263.5t-88 -508.5q0 -327 86.5 -518.5t267.5 -263.5z" />
    <glyph glyph-name="parenright" unicode=")" horiz-adv-x="793" 
d="M68 -268q181 72 268.5 264t87.5 518q0 316 -88.5 508t-267.5 264v129q311 -80 477 -312t166 -589q0 -365 -164 -597.5t-479 -313.5v129z" />
    <glyph glyph-name="asterisk" unicode="*" 
d="M495 1010q-4 86 -49 181.5t-45 121.5q0 45 30.5 73.5t80.5 28.5t80.5 -28.5t30.5 -75.5q0 -21 -44.5 -117t-52.5 -184q40 22 74 56t68 85q3 5 11 17q61 89 122 89q41 0 72.5 -37t31.5 -83q0 -51 -29.5 -74t-120.5 -31q-80 -7 -126 -18t-84 -31q38 -22 86.5 -34.5
t127.5 -18.5q83 -6 114.5 -30.5t31.5 -78.5q0 -47 -33 -81.5t-77 -34.5q-56 0 -119 94q-5 7 -9 13q-36 53 -68.5 86.5t-67.5 53.5q3 -87 48.5 -183t45.5 -120q0 -44 -31 -72t-82 -28t-80 27.5t-29 74.5q0 23 45.5 120t50.5 181q-39 -23 -74.5 -59t-68.5 -84q-4 -6 -11 -18
q-56 -86 -122 -86q-40 0 -72 37.5t-32 82.5q0 43 30.5 70.5t84.5 32.5q10 1 29 2q143 9 216 49q-88 47 -253 55v0q-49 3 -78 30.5t-29 70.5q0 50 33 86t79 36q55 0 112 -86l14 -21q37 -52 69.5 -84.5t68.5 -55.5z" />
    <glyph glyph-name="plus" unicode="+" horiz-adv-x="1706" 
d="M938 1221v-527h514v-166h-514v-528h-170v528h-514v166h514v527h170z" />
    <glyph glyph-name="comma" unicode="," horiz-adv-x="639" 
d="M160 -295v90q95 25 143.5 83.5t50.5 149.5q-25 -16 -47 -24t-43 -8q-53 0 -87 36t-34 93q0 65 42 104t112 39q85 0 138.5 -59.5t53.5 -155.5q0 -137 -88 -230.5t-241 -117.5z" />
    <glyph glyph-name="hyphen" unicode="-" horiz-adv-x="707" 
d="M76 381v217h555v-217h-555z" />
    <glyph glyph-name="period" unicode="." horiz-adv-x="639" 
d="M166 117q0 63 44.5 107t108.5 44q65 0 108.5 -43.5t43.5 -107.5q0 -65 -43.5 -108.5t-108.5 -43.5q-64 0 -108.5 44t-44.5 108z" />
    <glyph glyph-name="slash" unicode="/" horiz-adv-x="606" 
d="M102 -190h-151l504 1605h151z" />
    <glyph glyph-name="zero" unicode="0" horiz-adv-x="1280" 
d="M381 623q0 -258 62 -378t196 -120t197 120.5t63 377.5t-63 378t-197 121q-133 0 -195.5 -121.5t-62.5 -377.5zM63 623q0 293 160.5 476t415.5 183t416.5 -183.5t161.5 -475.5q0 -293 -161.5 -475.5t-416.5 -182.5t-415.5 182.5t-160.5 475.5z" />
    <glyph glyph-name="one" unicode="1" horiz-adv-x="1280" 
d="M289 0v147h92q105 0 132.5 22.5t27.5 98.5v656h-252v145q148 6 230 50.5t126 140.5h166v-996q0 -76 23 -96.5t120 -20.5h105v-147h-770z" />
    <glyph glyph-name="two" unicode="2" horiz-adv-x="1280" 
d="M92 -8q-1 10 -1.5 21t-0.5 34q0 161 70 276t221 201q63 37 162 83.5t129 62.5q63 34 99 95.5t36 137.5q0 103 -79 169.5t-202 66.5q-90 0 -156 -40.5t-102 -117.5q16 5 33 7.5t37 2.5q64 0 102.5 -36.5t38.5 -98.5q0 -72 -45.5 -117t-118.5 -45q-85 0 -140.5 60.5
t-55.5 154.5q0 154 138.5 263.5t340.5 109.5q236 0 377 -111t141 -294q0 -154 -87 -240.5t-311 -143.5l-6 -1q-361 -90 -446 -265q41 27 84.5 40.5t93.5 13.5q82 0 223 -33t195 -33q84 0 123 52.5t47 178.5h117v-28q0 -215 -83.5 -334t-234.5 -119q-55 0 -125.5 20
t-156.5 60q-18 9 -52 27q-112 59 -171 59q-52 0 -79.5 -33.5t-35.5 -105.5h-119z" />
    <glyph glyph-name="three" unicode="3" horiz-adv-x="1280" 
d="M274 205q53 -50 120.5 -74.5t152.5 -24.5q137 0 217 66t80 178q0 121 -74.5 180.5t-226.5 59.5h-39v149h20q155 0 228 49t73 152q0 95 -68 153t-182 58q-66 0 -122 -18.5t-107 -57.5q59 -6 92 -41.5t33 -93.5q0 -63 -45 -104t-117 -41q-73 0 -120.5 47t-47.5 121
q0 134 140 226.5t356 92.5q218 0 350.5 -88t132.5 -229q0 -118 -75.5 -190t-231.5 -103q167 -29 254.5 -112t87.5 -212q0 -174 -153 -278.5t-412 -104.5q-217 0 -355.5 98.5t-138.5 247.5q0 89 52.5 144t136.5 55q71 0 115 -43t44 -113q0 -67 -42.5 -108t-112.5 -41h-15z
" />
    <glyph glyph-name="four" unicode="4" horiz-adv-x="1280" 
d="M696 522l6 449l-405 -449h399zM469 0v147h74q102 0 127.5 19t25.5 92v88h-622v156l682 758h198v-738h240v-176h-240v-88q0 -65 27 -88t98 -23h115v-147h-725z" />
    <glyph glyph-name="five" unicode="5" horiz-adv-x="1280" 
d="M281 193q55 -44 120 -65.5t140 -21.5q146 0 227.5 82t81.5 230q0 152 -78.5 236.5t-218.5 84.5q-77 0 -140.5 -32t-119.5 -99l-139 6l63 664q101 -33 206.5 -49.5t221.5 -16.5q120 0 230.5 16t211.5 48q-41 -149 -168 -221t-346 -72q-40 0 -92.5 4.5t-132.5 15.5
l-16 -188q80 37 158.5 55.5t156.5 18.5q220 0 362 -125.5t142 -317.5q0 -223 -143.5 -352t-393.5 -129q-230 0 -373 96.5t-143 247.5q0 79 53 132t132 53q75 0 122.5 -41t47.5 -107q0 -71 -46.5 -112t-125.5 -41z" />
    <glyph glyph-name="six" unicode="6" horiz-adv-x="1280" 
d="M432 367q0 -123 58 -188.5t165 -65.5q102 0 159.5 65t57.5 180q0 130 -56.5 196.5t-168.5 66.5q-102 0 -158.5 -66.5t-56.5 -187.5zM897 1106q-39 26 -78 38.5t-78 12.5q-155 0 -231 -112t-86 -356q75 54 152.5 81t162.5 27q193 0 318 -116.5t125 -295.5
q0 -190 -143.5 -307t-379.5 -117q-262 0 -405 164t-143 465q0 320 159.5 506t436.5 186q182 0 298.5 -77.5t116.5 -192.5q0 -70 -47 -115t-121 -45q-68 0 -110.5 37.5t-42.5 97.5q0 44 24 73.5t72 45.5z" />
    <glyph glyph-name="seven" unicode="7" horiz-adv-x="1280" 
d="M508 -8q0 14 -1 42.5t-1 41.5q0 143 17.5 245t56.5 181q63 133 286 375q83 90 125 139q-47 -22 -93 -32.5t-89 -10.5q-61 0 -159.5 20.5t-135.5 20.5q-106 0 -152.5 -73.5t-46.5 -246.5v-12h-141v569h150v-145q58 83 122.5 119.5t153.5 36.5q85 0 217.5 -50.5
t175.5 -50.5q42 0 71 21t46 65h131q-9 -133 -178 -378q-79 -115 -117 -179q-83 -141 -121.5 -284.5t-38.5 -317.5q0 -39 0.5 -58.5t1.5 -37.5h-280z" />
    <glyph glyph-name="eight" unicode="8" horiz-adv-x="1280" 
d="M770 756q71 34 107 85.5t36 119.5q0 83 -72.5 131.5t-197.5 48.5q-123 0 -192.5 -43.5t-69.5 -118.5q0 -56 40 -97.5t116 -62.5zM492 539q-89 -34 -135 -89t-46 -126q0 -92 83 -144.5t231 -52.5q153 0 228 41t75 125q0 56 -37.5 93t-122.5 65zM340 600
q-106 65 -157.5 143t-51.5 172q0 162 139 264.5t363 102.5q225 0 363.5 -86.5t138.5 -224.5q0 -89 -54 -155t-168 -116q137 -57 204 -141t67 -199q0 -183 -146.5 -289t-402.5 -106q-253 0 -404 94.5t-151 249.5q0 100 64.5 172.5t195.5 118.5z" />
    <glyph glyph-name="nine" unicode="9" horiz-adv-x="1280" 
d="M393 133q38 -24 76 -35.5t82 -11.5q152 0 225.5 116.5t75.5 360.5q-77 -59 -157 -88t-171 -29q-187 0 -311.5 114.5t-124.5 283.5q0 198 143 318t381 120q263 0 407 -167.5t144 -471.5q0 -318 -160 -500t-440 -182q-174 0 -286.5 76t-112.5 188q0 70 48 114t124 44
q66 0 107.5 -37.5t41.5 -95.5q0 -42 -22.5 -71t-69.5 -46zM836 868q0 127 -57.5 194.5t-164.5 67.5q-106 0 -162.5 -64.5t-56.5 -186.5q0 -125 60 -190.5t174 -65.5q95 0 151 66t56 179z" />
    <glyph glyph-name="colon" unicode=":" horiz-adv-x="639" 
d="M166 770q0 63 44.5 107.5t108.5 44.5q65 0 108.5 -43.5t43.5 -108.5q0 -64 -43.5 -108t-108.5 -44q-64 0 -108.5 44.5t-44.5 107.5zM166 117q0 63 44.5 107t108.5 44q65 0 108.5 -43.5t43.5 -107.5q0 -65 -43.5 -108.5t-108.5 -43.5q-64 0 -108.5 44t-44.5 108z" />
    <glyph glyph-name="semicolon" unicode=";" horiz-adv-x="639" 
d="M160 -295v90q94 24 142 82.5t50 150.5q-26 -17 -46.5 -24.5t-41.5 -7.5q-54 0 -88.5 36t-34.5 93q0 65 43 104t113 39q85 0 138.5 -59.5t53.5 -155.5q0 -137 -88 -230.5t-241 -117.5zM166 770q0 63 44.5 107.5t108.5 44.5q65 0 108.5 -43.5t43.5 -108.5q0 -64 -43.5 -108
t-108.5 -44q-64 0 -108.5 44.5t-44.5 107.5z" />
    <glyph glyph-name="less" unicode="&#x3c;" horiz-adv-x="1706" 
d="M1442 991l-934 -381l934 -381v-182l-1178 483v160l1178 486v-185z" />
    <glyph glyph-name="equal" unicode="=" horiz-adv-x="1706" 
d="M1452 487v-165h-1198v165h1198zM1452 901v-168h-1198v168h1198z" />
    <glyph glyph-name="greater" unicode="&#x3e;" horiz-adv-x="1706" 
d="M1442 690v-160l-1178 -483v182l934 381l-934 381v185z" />
    <glyph glyph-name="question" unicode="?" horiz-adv-x="1026" 
d="M393 389q0 4 -1 11q-3 42 -3 61q0 80 26 143.5t91 136.5q18 22 55 61q127 136 127 234q0 102 -71 165t-185 63q-110 0 -180.5 -66t-73.5 -171q30 24 58 36t57 12q56 0 93.5 -38.5t37.5 -96.5q0 -66 -50 -112t-122 -46q-89 0 -149 71.5t-60 180.5q0 165 129 273t328 108
q212 0 346.5 -104t134.5 -262q0 -101 -50.5 -177t-201.5 -184q-131 -95 -168 -153t-37 -136v-10h-131zM301 117q0 63 44.5 107t109.5 44q64 0 107.5 -43.5t43.5 -107.5q0 -65 -43.5 -108.5t-107.5 -43.5q-65 0 -109.5 44t-44.5 108z" />
    <glyph glyph-name="at" unicode="@" horiz-adv-x="2019" 
d="M1305 823l51 170h172l-172 -616l-2 -6q-15 -59 -15 -90q0 -49 22 -76t60 -27q34 0 84 22t92 56q110 88 169 222t59 296q0 279 -191 450t-504 171q-173 0 -328.5 -65t-273.5 -185q-122 -125 -183.5 -286t-61.5 -357q0 -172 59.5 -306.5t179.5 -234.5q106 -88 247 -135
t302 -47q166 0 321 51.5t304 157.5l37 -47q-148 -111 -315 -167.5t-347 -56.5q-188 0 -347 46.5t-275 134.5q-151 113 -230.5 277t-79.5 362q0 203 86 381t250 313q135 111 297.5 168t345.5 57q348 0 557 -188.5t209 -501.5q0 -159 -59 -297.5t-168 -237.5q-62 -54 -129 -82
t-133 -28q-98 0 -152.5 52.5t-60.5 152.5q-64 -105 -137.5 -154t-165.5 -49q-134 0 -212.5 92t-78.5 248q0 112 49 219t141 195q68 65 147.5 99t161.5 34q90 0 145.5 -47.5t72.5 -139.5zM1249 772q0 83 -37.5 132.5t-99.5 49.5q-64 0 -117 -45t-106 -147
q-57 -107 -87 -209.5t-30 -185.5t36.5 -133t94.5 -50q62 0 115.5 41.5t107.5 132.5q56 96 89.5 210t33.5 204z" />
    <glyph glyph-name="A" unicode="A" horiz-adv-x="1475" 
d="M866 600l-178 475l-162 -475h340zM-29 0v156h43q78 0 116.5 27.5t66.5 105.5l383 1085h288l410 -1085q35 -95 64.5 -114t101.5 -19h41v-156h-711v156h111q67 0 90.5 11.5t23.5 41.5q0 11 -3.5 25t-14.5 42l-59 162h-453l-59 -173q-2 -7 -7 -21q-10 -29 -10 -41
q0 -27 19.5 -37t91.5 -10h106v-156h-639z" />
    <glyph glyph-name="B" unicode="B" horiz-adv-x="1495" 
d="M551 791h197q167 0 239 49.5t72 163.5t-66 163.5t-223 49.5h-219v-426zM551 154h227q176 0 251 56t75 185t-77.5 183.5t-266.5 54.5h-209v-479zM47 0v156h80q91 0 113 21.5t22 105.5v809q0 84 -22 105.5t-113 21.5h-80v155h793q258 0 383 -84t125 -258
q0 -120 -67.5 -193.5t-209.5 -109.5q167 -34 249.5 -122t82.5 -234q0 -201 -137 -287t-465 -86h-754z" />
    <glyph glyph-name="C" unicode="C" horiz-adv-x="1450" 
d="M1174 532h176q-20 -274 -168.5 -423.5t-401.5 -149.5q-151 0 -273 47t-218 144q-106 105 -160.5 242.5t-54.5 295.5q0 159 53 291.5t160 239.5q97 97 217 146.5t258 49.5q110 0 207.5 -34.5t191.5 -106.5l41 123h148v-563h-158q-24 197 -126.5 305t-264.5 108
q-189 0 -296.5 -151t-107.5 -418q0 -254 107 -392.5t301 -138.5q151 0 245 98.5t124 286.5z" />
    <glyph glyph-name="D" unicode="D" horiz-adv-x="1661" 
d="M47 0v156h80q91 0 113 21.5t22 105.5v809q0 84 -22 105.5t-113 21.5h-80v155h780q360 0 544.5 -174t184.5 -512t-185 -513t-544 -175h-780zM551 156h180q161 0 241 25t138 85t91.5 172t33.5 250t-33.5 249t-91.5 171t-138 85.5t-241 25.5h-180v-1063z" />
    <glyph glyph-name="E" unicode="E" horiz-adv-x="1546" 
d="M47 0v156h80q91 0 113 21.5t22 105.5v809q0 84 -22 105.5t-113 21.5h-80v155h1352v-547h-156q-6 235 -76.5 313.5t-285.5 78.5h-330v-422h78q129 0 169 44.5t50 204.5l156 1v-689l-156 1q-9 177 -49 228.5t-168 51.5h-80v-483h360q180 0 247 83.5t85 342.5h156v-582
h-1352z" />
    <glyph glyph-name="F" unicode="F" horiz-adv-x="1421" 
d="M47 0v156h80q91 0 113 21.5t22 105.5v809q0 84 -22 105.5t-113 21.5h-80v155h1278v-569h-158q0 107 -14 182.5t-43 128.5q-30 55 -98 79t-205 24h-256v-422h35q129 0 169 44.5t50 204.5l156 1v-689l-156 1q-9 177 -49.5 228.5t-167.5 51.5h-37v-356q0 -83 22.5 -105
t114.5 -22h96v-156h-737z" />
    <glyph glyph-name="G" unicode="G" horiz-adv-x="1616" 
d="M1251 -8l-73 114q-94 -75 -196 -111t-222 -36q-141 0 -262.5 50t-216.5 147q-102 103 -154.5 238t-52.5 294t54.5 295.5t158.5 239.5q97 95 217.5 143.5t261.5 48.5q118 0 215 -37t182 -114l58 118h145v-536h-158q-40 190 -149 295.5t-262 105.5q-183 0 -291.5 -151
t-108.5 -408q0 -261 108.5 -404t305.5 -143q142 0 223.5 66.5t81.5 181.5v78q0 72 -22 92.5t-133 20.5h-87v155h728v-155h-89q-71 0 -91.5 -23t-20.5 -106v-459h-150z" />
    <glyph glyph-name="H" unicode="H" horiz-adv-x="1698" 
d="M47 0v156h80q91 0 113 21.5t22 105.5v809q0 84 -22 105.5t-113 21.5h-80v155h737v-155h-96q-92 0 -114.5 -22t-22.5 -105v-304h594v304q0 84 -22 105.5t-113 21.5h-97v155h738v-155h-80q-92 0 -114.5 -22t-22.5 -105v-809q0 -83 22.5 -105t114.5 -22h80v-156h-738v156h97
q91 0 113 21.5t22 105.5v340h-594v-340q0 -83 22.5 -105t114.5 -22h96v-156h-737z" />
    <glyph glyph-name="I" unicode="I" horiz-adv-x="844" 
d="M51 0v156h88q91 0 113 21.5t22 105.5v809q0 84 -22 105.5t-113 21.5h-88v155h742v-155h-88q-92 0 -114 -21.5t-22 -105.5v-809q0 -84 22 -105.5t114 -21.5h88v-156h-742z" />
    <glyph glyph-name="J" unicode="J" horiz-adv-x="1184" 
d="M645 1092q0 84 -22 105.5t-113 21.5h-96v155h723v-155h-62q-91 0 -113 -21.5t-22 -105.5v-654q0 -148 -24 -224t-80 -134t-148 -89.5t-203 -31.5q-192 0 -314 96.5t-122 245.5q0 96 51.5 150.5t141.5 54.5q72 0 118 -45t46 -115q0 -68 -34.5 -109.5t-103.5 -58.5
q39 -32 77.5 -46.5t84.5 -14.5q119 0 167 60.5t48 221.5v693z" />
    <glyph glyph-name="K" unicode="K" horiz-adv-x="1591" 
d="M545 471v-188q0 -84 22 -105.5t113 -21.5h55v-156h-688v156h80q91 0 113 21.5t22 105.5v809q0 84 -22 105.5t-113 21.5h-80v155h698v-155h-65q-91 0 -113 -21.5t-22 -105.5v-387l463 434q18 19 26 31t8 22q0 14 -19.5 20.5t-61.5 6.5h-91v155h693v-155h-47
q-81 0 -159.5 -40.5t-189.5 -142.5l-200 -184l417 -592q45 -63 82 -83.5t115 -20.5h70v-156h-764v156h110q54 0 70 8t16 29q0 13 -6 28t-24 41l-283 406z" />
    <glyph glyph-name="L" unicode="L" horiz-adv-x="1421" 
d="M47 1374h737v-155h-96q-92 0 -114.5 -22t-22.5 -105v-936h256q137 0 205 23.5t98 78.5q29 53 43 129t14 182v25h158v-594h-1278v156h80q91 0 113 21.5t22 105.5v809q0 84 -22 105.5t-113 21.5h-80v155z" />
    <glyph glyph-name="M" unicode="M" horiz-adv-x="1995" 
d="M1239 0v156h92q91 0 113 21.5t22 105.5v888l-442 -1171h-135l-416 1194v-911q0 -84 22 -105.5t113 -21.5h82v-156h-643v156h74q91 0 113 21.5t22 105.5v809q0 84 -22 105.5t-113 21.5h-74v155h641l305 -891l340 891h613v-155h-78q-92 0 -114.5 -22t-22.5 -105v-809
q0 -83 22.5 -105t114.5 -22h78v-156h-707z" />
    <glyph glyph-name="N" unicode="N" horiz-adv-x="1683" 
d="M1444 0h-289l-682 1120v-837q0 -84 22 -105.5t113 -21.5h94v-156h-677v156h96q91 0 113 21.5t22 105.5v809q0 84 -22 105.5t-113 21.5h-88v155h588l608 -997v715q0 84 -22 105.5t-113 21.5h-97v155h650v-155h-66q-92 0 -114.5 -22t-22.5 -105v-1092z" />
    <glyph glyph-name="O" unicode="O" horiz-adv-x="1661" 
d="M397 688q0 -266 115 -414.5t319 -148.5t318.5 148t114.5 415q0 266 -114 413.5t-319 147.5q-204 0 -319 -147.5t-115 -413.5zM74 688q0 326 208.5 525.5t548.5 199.5q341 0 548.5 -199.5t207.5 -525.5q0 -327 -208 -527t-548 -200t-548.5 200.5t-208.5 526.5z" />
    <glyph glyph-name="P" unicode="P" horiz-adv-x="1403" 
d="M551 776h137q189 0 265.5 50.5t76.5 170.5q0 123 -73.5 172.5t-284.5 49.5h-121v-443zM551 283q0 -83 22.5 -105t114.5 -22h96v-156h-737v156h80q91 0 113 21.5t22 105.5v809q0 84 -22 105.5t-113 21.5h-80v155h723q278 0 419.5 -95t141.5 -282q0 -102 -38.5 -178
t-116.5 -129q-56 -37 -156 -53t-279 -16h-190v-338z" />
    <glyph glyph-name="Q" unicode="Q" horiz-adv-x="1712" 
d="M1212 350q34 66 51 146.5t17 175.5q0 272 -116 424.5t-322 152.5q-212 0 -330.5 -148t-118.5 -413q0 -158 40 -269t116 -167q-1 8 -1.5 18.5t-0.5 30.5q0 122 68.5 190t191.5 68q103 0 201 -50.5t204 -158.5zM1024 178q-52 100 -112 149.5t-128 49.5q-55 0 -88.5 -34.5
t-33.5 -90.5q0 -61 43.5 -99t115.5 -38q58 0 110.5 16.5t92.5 46.5zM1368 164q32 -41 62.5 -61.5t60.5 -20.5q44 0 63.5 39t24.5 147h133v-30q0 -187 -72 -283t-213 -96q-72 0 -137.5 35.5t-146.5 119.5q-76 -26 -154 -39.5t-160 -13.5q-339 0 -547 200.5t-208 526.5
t208.5 525.5t548.5 199.5q339 0 547.5 -199.5t208.5 -523.5q0 -160 -56 -295t-163 -231z" />
    <glyph glyph-name="R" unicode="R" horiz-adv-x="1583" 
d="M551 805h242q146 0 214 49.5t68 157.5q0 111 -65 159t-224 48h-235v-414zM551 283q0 -83 22.5 -105t114.5 -22h96v-156h-737v156h80q91 0 113 21.5t22 105.5v809q0 84 -22 105.5t-113 21.5h-80v155h821q258 0 383 -81t125 -249q0 -148 -99.5 -236.5t-293.5 -111.5
q147 -22 205.5 -83.5t68.5 -213.5l9 -123q5 -72 18 -94t43 -22q60 0 64 225v6h130q2 -13 2.5 -27.5t0.5 -41.5q0 -189 -68.5 -276t-216.5 -87q-122 0 -191 67t-73 186l-6 161q-6 161 -71.5 218.5t-248.5 57.5h-98v-366z" />
    <glyph glyph-name="S" unicode="S" horiz-adv-x="1319" 
d="M90 0v567h160q33 -205 152 -313.5t309 -108.5q137 0 209.5 46t72.5 133q0 78 -55.5 127t-177.5 77l-223 52q-240 56 -345.5 151.5t-105.5 255.5q0 194 135 311t361 117q112 0 209.5 -34.5t189.5 -106.5l72 100h123v-520h-156q-35 187 -147.5 290t-282.5 103
q-124 0 -192 -46.5t-68 -129.5q0 -70 48 -112t154 -66l277 -64q220 -50 329 -156.5t109 -271.5q0 -195 -143 -318.5t-371 -123.5q-115 0 -228 42t-229 128l-45 -129h-141z" />
    <glyph glyph-name="T" unicode="T" horiz-adv-x="1389" 
d="M549 1223h-27q-165 0 -240 -98.5t-78 -319.5h-157v569h1294v-569h-157q-2 218 -77 318t-239 100h-30v-940q0 -83 22.5 -105t114.5 -22h117v-156h-797v156h119q91 0 113 21.5t22 105.5v940z" />
    <glyph glyph-name="U" unicode="U" horiz-adv-x="1565" 
d="M244 1092q0 84 -22 105.5t-113 21.5h-66v155h715v-155h-88q-93 0 -115.5 -22t-22.5 -105v-658q0 -144 67 -208t216 -64q141 0 213 68.5t72 203.5v658q0 84 -22 105.5t-113 21.5h-80v155h637v-155h-64q-91 0 -113 -21.5t-22 -105.5v-658q0 -232 -139 -353.5t-404 -121.5
q-263 0 -399.5 121t-136.5 354v658z" />
    <glyph glyph-name="V" unicode="V" horiz-adv-x="1460" 
d="M578 0l-385 1087q-27 76 -61.5 104t-96.5 28h-60v155h719v-155h-106q-58 0 -83.5 -14.5t-25.5 -45.5q0 -18 6.5 -44t18.5 -60l254 -713l272 729q10 24 15.5 48.5t5.5 41.5q0 33 -25.5 45.5t-103.5 12.5h-91v155h654v-155h-41q-73 0 -109 -25.5t-67 -110.5l-406 -1083
h-284z" />
    <glyph glyph-name="W" unicode="W" horiz-adv-x="2007" 
d="M502 0l-291 1034q-33 118 -66 151.5t-94 33.5h-33v155h586v-155h-65q-44 0 -64 -15.5t-20 -48.5q0 -13 1.5 -23t4.5 -20l215 -776l246 708q-18 94 -54 134.5t-102 40.5h-51v155h602v-155h-76q-53 0 -74.5 -12.5t-21.5 -43.5q0 -14 9 -46q2 -7 3 -11l232 -750l204 699
q9 29 14 55.5t5 46.5q0 32 -28 47t-87 15h-67v155h563v-155h-45q-52 0 -84.5 -32.5t-55.5 -107.5l-313 -1079h-270l-215 735l-248 -735h-260z" />
    <glyph glyph-name="X" unicode="X" horiz-adv-x="1620" 
d="M588 313q-31 -35 -47.5 -63t-16.5 -45q0 -27 20 -38t77 -11h96v-156h-715v156h68q60 0 96.5 18t91.5 82l393 446l-323 406q-52 65 -96 88t-107 23h-70v155h727v-155h-94q-29 0 -44 -10.5t-15 -30.5q0 -14 7.5 -28.5t25.5 -35.5l180 -219l219 229q15 15 24 31t9 27
q0 18 -22.5 27.5t-67.5 9.5h-80v155h645v-155h-74q-79 0 -215 -150l-2 -2l-303 -332l348 -434q82 -102 124.5 -123.5t121.5 -21.5h61v-156h-788v156h94q50 0 73 8.5t23 28.5q0 15 -6 31.5t-18 31.5l-224 283z" />
    <glyph glyph-name="Y" unicode="Y" horiz-adv-x="1501" 
d="M895 283q0 -83 22.5 -105t114.5 -22h119v-156h-799v156h119q91 0 113 21.5t22 105.5v292l-340 502q-54 80 -98 111t-100 31h-68v155h727v-155h-100q-47 0 -68.5 -10.5t-21.5 -32.5q0 -14 7 -30.5t21 -37.5l232 -322l245 334q15 21 21 34.5t6 27.5q0 18 -19 27.5t-55 9.5
h-121v155h637v-155h-47q-54 0 -87.5 -18.5t-71.5 -72.5l-410 -553v-292z" />
    <glyph glyph-name="Z" unicode="Z" horiz-adv-x="1350" 
d="M86 0v166l821 1053h-233q-155 0 -220.5 -24t-103.5 -83q-31 -51 -46.5 -126t-16.5 -187h-158v575h1118v-176l-813 -1042h219q161 0 242.5 26t116.5 86q32 57 50.5 142.5t27.5 212.5h157v-623h-1161z" />
    <glyph glyph-name="bracketleft" unicode="[" horiz-adv-x="793" 
d="M188 -356v1730h512v-137h-245v-1454h245v-139h-512z" />
    <glyph glyph-name="backslash" unicode="\" horiz-adv-x="606" 
d="M455 -190l-504 1605h151l504 -1605h-151z" />
    <glyph glyph-name="bracketright" unicode="]" horiz-adv-x="793" 
d="M602 -356h-512v139h248v1454h-248v137h512v-1730z" />
    <glyph glyph-name="asciicircum" unicode="^" horiz-adv-x="2048" 
d="M1130 1462l502 -565h-104l-506 397l-506 -397h-104l503 565h215z" />
    <glyph glyph-name="underscore" unicode="_" 
d="M1024 -311v-172h-1024v172h1024z" />
    <glyph glyph-name="grave" unicode="`" 
d="M725 1114h-115l-325 162q-56 28 -80.5 56.5t-24.5 64.5q0 45 32 76.5t79 31.5q35 0 70.5 -21.5t84.5 -74.5z" />
    <glyph glyph-name="a" unicode="a" horiz-adv-x="1165" 
d="M676 506q-42 -20 -116 -51q-228 -99 -228 -203q0 -56 33 -86.5t94 -30.5q100 0 158.5 67.5t58.5 186.5v117zM680 117q-61 -79 -142 -116.5t-190 -37.5q-129 0 -211 74t-82 190q0 111 70 180t240 121q40 13 130 35t119 41q37 24 52.5 54.5t15.5 76.5q0 75 -54.5 115.5
t-156.5 40.5q-66 0 -112.5 -14.5t-82.5 -45.5h7q60 0 94.5 -29.5t34.5 -82.5q0 -59 -39.5 -95t-104.5 -36q-72 0 -118 44.5t-46 115.5q0 114 108.5 185t289.5 71q103 0 182.5 -18t130.5 -52q59 -39 83 -99t24 -200v-430q0 -36 11.5 -53t35.5 -17q37 0 50 39t13 186h125v-43
q0 -188 -59.5 -271t-194.5 -83q-91 0 -145.5 37.5t-77.5 116.5z" />
    <glyph glyph-name="b" unicode="b" horiz-adv-x="1223" 
d="M874 481q0 174 -57.5 259t-175.5 85q-109 0 -171 -91t-62 -253t62.5 -254t170.5 -92q118 0 175.5 86t57.5 260zM377 125l-82 -135h-135v1124q0 79 -23 101t-94 22h-43v137h408v-559q57 98 137.5 143.5t195.5 45.5q190 0 301 -138.5t111 -378.5t-113 -381t-305 -141
q-110 0 -198 39t-160 121z" />
    <glyph glyph-name="c" unicode="c" horiz-adv-x="1053" 
d="M827 401h158q-11 -217 -119 -326.5t-313 -109.5q-229 0 -362.5 140t-133.5 378q0 231 148.5 376t386.5 145q177 0 290 -85t113 -214q0 -80 -44.5 -127.5t-119.5 -47.5q-67 0 -107 38.5t-40 103.5q0 48 33 82.5t86 40.5q-46 38 -94 55.5t-107 17.5q-125 0 -195.5 -101
t-70.5 -282q0 -168 64 -251.5t192 -83.5q104 0 162 61.5t73 189.5z" />
    <glyph glyph-name="d" unicode="d" horiz-adv-x="1276" 
d="M348 481q0 -174 58 -260t176 -86q108 0 170.5 92t62.5 254t-62.5 253t-170.5 91q-119 0 -176.5 -85t-57.5 -259zM815 1114q0 79 -23.5 101t-93.5 22h-86v137h451v-1114q0 -79 23.5 -101t93.5 -22h59v-137h-424v168q-50 -101 -130.5 -149t-199.5 -48q-196 0 -305.5 135.5
t-109.5 380.5t109.5 381t305.5 136q118 0 198.5 -48.5t131.5 -150.5v309z" />
    <glyph glyph-name="e" unicode="e" horiz-adv-x="1092" 
d="M755 608q-9 134 -54.5 196t-133.5 62q-90 0 -146.5 -65.5t-74.5 -192.5h409zM848 346h172q-22 -178 -142.5 -280.5t-308.5 -102.5q-234 0 -373 141.5t-139 378.5q0 234 140.5 377.5t371.5 143.5q223 0 340 -138.5t117 -402.5h-690q6 -164 69.5 -250t178.5 -86
q118 0 178.5 50.5t85.5 168.5z" />
    <glyph glyph-name="f" unicode="f" horiz-adv-x="766" 
d="M231 821h-184v144h184v30q0 208 88 312t263 104q134 0 216.5 -59.5t82.5 -155.5q0 -70 -38 -111t-102 -41q-56 0 -92.5 33.5t-36.5 85.5q0 43 23.5 72.5t64.5 40.5q-17 14 -38.5 21.5t-47.5 7.5q-74 0 -104.5 -45t-30.5 -158v-137h209v-144h-209v-561q0 -79 23.5 -101
t93.5 -22h92v-137h-641v137h59q77 0 101 22t24 101v561z" />
    <glyph glyph-name="g" unicode="g" horiz-adv-x="1358" 
d="M584 -51q-190 0 -261 -30t-71 -103q0 -71 78.5 -105.5t238.5 -34.5q172 0 256 38t84 114q0 68 -65 94.5t-260 26.5zM412 645q0 -127 42.5 -184.5t137.5 -57.5q94 0 138 56.5t44 177.5q0 127 -44 186.5t-138 59.5q-93 0 -136.5 -58t-43.5 -180zM281 360q-72 62 -106 130
t-34 147q0 167 126 267t339 100q94 0 177 -24t153 -71q45 48 93.5 71.5t105.5 23.5q106 0 166.5 -55t60.5 -150q0 -64 -38 -105t-97 -41q-58 0 -95.5 35t-37.5 88q0 43 25 71.5t73 41.5q-18 14 -35 21.5t-35 7.5q-35 0 -68.5 -22t-64.5 -65q28 -50 41.5 -100t13.5 -104
q0 -162 -121.5 -258.5t-328.5 -96.5q-54 0 -110.5 9.5t-114.5 27.5q-25 -17 -38.5 -35t-13.5 -34q0 -39 30 -55.5t104 -16.5h280q234 0 341.5 -67.5t107.5 -213.5q0 -159 -149.5 -243t-430.5 -84q-255 0 -390.5 62t-135.5 177q0 63 46.5 105.5t143.5 68.5q-80 20 -123 68
t-43 117t46 119.5t137 82.5z" />
    <glyph glyph-name="h" unicode="h" horiz-adv-x="1327" 
d="M219 1114q0 78 -24 100.5t-95 22.5h-53v137h418v-577q79 99 164.5 149.5t173.5 50.5q166 0 238.5 -82t72.5 -274v-381q0 -78 24 -100.5t95 -22.5h57v-137h-581v137h41q71 0 94.5 22.5t23.5 100.5v381q0 107 -35.5 153t-115.5 46q-118 0 -185 -89.5t-67 -248.5v-242
q0 -78 24 -100.5t95 -22.5h41v-137h-578v137h53q71 0 95 22.5t24 100.5v854z" />
    <glyph glyph-name="i" unicode="i" horiz-adv-x="721" 
d="M51 0v137h76q70 0 93.5 22t23.5 101v447q0 79 -23.5 100.5t-93.5 21.5h-76v138h443v-707q0 -78 23.5 -100.5t94.5 -22.5h62v-137h-623zM199 1239q0 64 43.5 108t107.5 44q65 0 109.5 -44t44.5 -108t-44.5 -109t-109.5 -45q-63 0 -107 45t-44 109z" />
    <glyph glyph-name="j" unicode="j" horiz-adv-x="653" 
d="M186 1239q0 64 44 108t108 44q65 0 109.5 -44t44.5 -108t-45 -109t-109 -45t-108 45t-44 109zM231 707q0 79 -23 100.5t-93 21.5h-82v138h448v-1020q0 -204 -80 -295.5t-256 -91.5q-124 0 -202 59t-78 152q0 61 41 101t104 40q55 0 89 -32.5t34 -84.5q0 -49 -26 -76
t-82 -34q27 -12 48.5 -17.5t37.5 -5.5q65 0 92.5 48.5t27.5 170.5v826z" />
    <glyph glyph-name="k" unicode="k" horiz-adv-x="1311" 
d="M465 498l311 254q21 17 29 28t8 21q0 15 -15.5 21.5t-58.5 6.5h-110v138h612v-138h-41q-85 0 -177 -77h-1l-191 -156l242 -342q43 -60 89 -88.5t102 -28.5h47v-137h-594v137h69q27 0 43.5 9t16.5 22q0 8 -7 23.5t-18 31.5l-162 238l-194 -154v-47q0 -78 24 -100.5
t95 -22.5h24v-137h-561v137h53q71 0 95 22.5t24 100.5v854q0 78 -24 100.5t-95 22.5h-53v137h418v-876z" />
    <glyph glyph-name="l" unicode="l" horiz-adv-x="696" 
d="M223 1114q0 78 -23.5 100.5t-95.5 22.5h-61v137h430v-1114q0 -78 24 -100.5t95 -22.5h61v-137h-610v137h61q72 0 95.5 22.5t23.5 100.5v854z" />
    <glyph glyph-name="m" unicode="m" horiz-adv-x="1907" 
d="M1075 801q92 104 172 150t168 46q66 0 122 -20.5t91 -56.5q37 -40 52.5 -94.5t15.5 -184.5v-381q0 -79 23 -101t93 -22h58v-137h-559v137h22q71 0 95 22.5t24 100.5v381q0 118 -30.5 158.5t-108.5 40.5q-94 0 -161 -77t-67 -192v-311q0 -79 23.5 -101t93.5 -22h25v-137
h-527v137h23q71 0 95 22.5t24 100.5v381q0 118 -31 158.5t-109 40.5q-94 0 -160.5 -77t-66.5 -192v-311q0 -79 23.5 -101t93.5 -22h24v-137h-569v137h68q70 0 93 22t23 101v447q0 79 -23 100.5t-93 21.5h-68v138h428v-164q79 102 158.5 148t175.5 46q99 0 165.5 -49
t100.5 -147z" />
    <glyph glyph-name="n" unicode="n" horiz-adv-x="1341" 
d="M47 0v137h68q70 0 93 22t23 101v447q0 79 -23 100.5t-93 21.5h-68v138h432v-170q80 100 164.5 150t171.5 50q167 0 240 -82t73 -274v-381q0 -79 23.5 -101t93.5 -22h60v-137h-582v137h41q70 0 93.5 22t23.5 101v381q0 107 -35.5 153t-116.5 46q-116 0 -183 -88t-67 -242
v-250q0 -79 23.5 -101t93.5 -22h41v-137h-590z" />
    <glyph glyph-name="o" unicode="o" horiz-adv-x="1206" 
d="M336 483q0 -187 66 -279.5t200 -92.5t201 93t67 279q0 188 -67 281.5t-201 93.5q-133 0 -199.5 -93.5t-66.5 -281.5zM57 483q0 236 149 378.5t396 142.5q248 0 397.5 -143t149.5 -378q0 -234 -149.5 -376t-397.5 -142q-247 0 -396 142t-149 376z" />
    <glyph glyph-name="p" unicode="p" horiz-adv-x="1284" 
d="M918 485q0 175 -58 260.5t-176 85.5q-109 0 -172 -92t-63 -254q0 -160 63 -252t172 -92q118 0 176 85.5t58 258.5zM203 -180v887q0 78 -24 100t-95 22h-51v138h416v-168q50 101 130 148.5t199 47.5q198 0 308 -135.5t110 -380.5q0 -244 -110 -379t-308 -135
q-119 0 -199 48t-130 149v-342q0 -78 23.5 -100.5t94.5 -22.5h92v-137h-634v137h59q71 0 95 22.5t24 100.5z" />
    <glyph glyph-name="q" unicode="q" horiz-adv-x="1294" 
d="M1081 -180q0 -78 24 -100.5t95 -22.5h64v-137h-639v137h92q71 0 95 22.5t24 100.5v342q-51 -101 -131 -149t-199 -48q-198 0 -308 135t-110 379q0 245 110 380.5t308 135.5q119 0 199 -47.5t131 -148.5v168h415v-138h-51q-71 0 -95 -22t-24 -100v-887zM367 485
q0 -173 58.5 -258.5t176.5 -85.5q109 0 171.5 91.5t62.5 252.5q0 162 -63 254t-171 92q-118 0 -176.5 -86t-58.5 -260z" />
    <glyph glyph-name="r" unicode="r" horiz-adv-x="1018" 
d="M479 260q0 -79 23.5 -101t93.5 -22h102v-137h-651v137h68q70 0 93 22t23 101v447q0 79 -23 100.5t-93 21.5h-68v138h432v-146q48 86 112 129t144 43q110 0 179 -61.5t69 -159.5q0 -77 -46 -125.5t-120 -48.5q-63 0 -102 35.5t-39 91.5q0 51 32 86.5t93 52.5
q-23 10 -44.5 15.5t-39.5 5.5q-102 0 -170 -102.5t-68 -262.5v-260z" />
    <glyph glyph-name="s" unicode="s" horiz-adv-x="1018" 
d="M63 -12v395h150q29 -132 113.5 -202t212.5 -70q78 0 125 34.5t47 92.5q0 46 -38 74.5t-134 52.5l-152 36q-159 39 -236 112.5t-77 186.5q0 136 103 220t272 84q80 0 152 -24.5t140 -74.5l45 76h117v-358h-139q-31 111 -110 173t-189 62q-73 0 -114.5 -30.5t-41.5 -84.5
q0 -39 28 -64.5t87 -39.5l186 -43q180 -43 262 -119t82 -198q0 -146 -104 -230t-287 -84q-91 0 -168 25.5t-159 83.5l-37 -86h-136z" />
    <glyph glyph-name="t" unicode="t" horiz-adv-x="829" 
d="M195 303v522h-160v133q137 23 202.5 112.5t77.5 277.5h131v-381h267v-142h-271v-551q0 -71 16 -95.5t58 -24.5q52 0 72 49t20 200v54h133q1 -16 1.5 -35t0.5 -53q0 -213 -69.5 -308.5t-224.5 -95.5q-133 0 -193.5 81t-60.5 257z" />
    <glyph glyph-name="u" unicode="u" horiz-adv-x="1327" 
d="M213 326v381q0 78 -24 100t-95 22h-47v138h412v-641q0 -107 35.5 -153t115.5 -46q116 0 184 88t68 242v250q0 78 -23.5 100t-95.5 22h-94v138h459v-707q0 -78 24 -100.5t95 -22.5h53v-137h-418v170q-79 -99 -164.5 -150t-173.5 -51q-166 0 -238.5 82t-72.5 275z" />
    <glyph glyph-name="v" unicode="v" horiz-adv-x="1133" 
d="M434 0l-250 725q-20 56 -46 80t-64 24h-60v138h533v-138h-33q-40 0 -60 -12.5t-20 -38.5q0 -14 4.5 -36t14.5 -52l151 -446l164 465q7 18 10.5 34.5t3.5 30.5q0 29 -22 42t-70 13h-49v138h477v-138h-51q-42 0 -72.5 -30t-52.5 -94l-248 -705h-260z" />
    <glyph glyph-name="w" unicode="w" horiz-adv-x="1694" 
d="M420 0l-232 711q-24 74 -49 96t-71 22h-43v138h507v-138h-49q-36 0 -51.5 -11.5t-15.5 -37.5q0 -11 4.5 -31t13.5 -50l139 -476l172 481q7 18 11 35.5t4 30.5q0 33 -20 46t-72 13h-39v138h495v-138h-61q-33 0 -48.5 -11t-15.5 -36q0 -14 3.5 -30t9.5 -33l164 -506
l151 465q10 29 15.5 55.5t5.5 44.5q0 23 -18.5 37t-47.5 14h-51v138h426v-138h-45q-39 0 -64.5 -29t-50.5 -104l-231 -696h-242l-174 541l-184 -541h-246z" />
    <glyph glyph-name="x" unicode="x" horiz-adv-x="1321" 
d="M10 0v137h49q39 0 84.5 22t89.5 62l285 254l-242 256q-50 55 -92 76.5t-92 21.5h-41v138h592v-138h-45q-26 0 -41.5 -7.5t-15.5 -20.5q0 -14 22 -38q6 -7 9 -10l116 -128l125 114q25 24 35 37t10 23q0 15 -17 22.5t-50 7.5h-43v138h518v-138h-43q-44 0 -87.5 -22
t-109.5 -82l-225 -207l262 -272q54 -57 99 -83t91 -26h43v-137h-608v137h43q36 0 57 8t21 21q0 10 -7.5 22.5t-21.5 26.5l-147 152l-170 -154q-22 -20 -29.5 -30t-7.5 -17q0 -12 16 -20.5t41 -8.5h80v-137h-553z" />
    <glyph glyph-name="y" unicode="y" horiz-adv-x="1196" 
d="M524 0l-315 705q-30 68 -65.5 96t-88.5 28h-61v138h594v-138h-72q-35 0 -52.5 -12t-17.5 -37q1 -12 3.5 -23t7.5 -22l190 -446l168 428q8 21 11 34.5t3 24.5q0 30 -19.5 41.5t-70.5 11.5h-55v138h494v-138h-45q-49 0 -85.5 -35t-66.5 -110l-227 -569
q-136 -339 -235.5 -447t-242.5 -108q-124 0 -205 73.5t-81 184.5q0 80 46.5 131t121.5 51q62 0 101.5 -38t39.5 -97q0 -58 -36 -90.5t-101 -32.5h-12q20 -25 45 -37t57 -12q82 0 145 70.5t127 236.5z" />
    <glyph glyph-name="z" unicode="z" horiz-adv-x="1032" 
d="M41 0v150l623 679h-215q-130 0 -175 -58t-47 -232h-145v428h864v-154l-612 -676h178q180 0 231.5 59.5t59.5 264.5h143v-461h-905z" />
    <glyph glyph-name="braceleft" unicode="{" 
d="M850 1459q-128 -2 -175.5 -55t-47.5 -210v-137q0 -225 -56.5 -307.5t-208.5 -114.5q152 -32 208.5 -114.5t56.5 -307.5v-137q0 -157 47 -209t176 -54v-57h-10q-222 0 -305.5 74t-83.5 272v201q0 161 -58 223.5t-215 75.5v68q159 15 216 76t57 223v200q0 200 84.5 273.5
t314.5 73.5v-57z" />
    <glyph glyph-name="bar" unicode="|" 
d="M602 1565v-2048h-178v2048h178z" />
    <glyph glyph-name="braceright" unicode="}" 
d="M575 1169v-200q0 -162 57 -223t216 -76v-68q-157 -13 -215 -74.5t-58 -224.5v-201q0 -197 -84 -271.5t-307 -74.5h-10v57q129 2 176 54t47 209v137q0 227 56.5 308.5t208.5 113.5q-151 32 -208 113.5t-57 308.5v137q0 157 -47.5 210t-175.5 55v57h10q223 0 307 -74.5
t84 -272.5z" />
    <glyph glyph-name="asciitilde" unicode="~" horiz-adv-x="1706" 
d="M1530 600q-103 -71 -197.5 -106t-183.5 -35q-44 0 -92.5 8.5t-98.5 26.5q-25 8 -76 26q-212 74 -319 74q-82 0 -174 -38t-211 -122v187q106 72 202 107.5t185 35.5q62 0 125.5 -12t168.5 -48q13 -4 42 -15q164 -58 250 -58q85 0 177 37t202 116v-184z" />
    <glyph glyph-name="Adieresis" unicode="&#xc4;" horiz-adv-x="1475" 
d="M866 600l-178 475l-162 -475h340zM-29 0v156h43q78 0 116.5 27.5t66.5 105.5l383 1085h288l410 -1085q35 -95 64.5 -114t101.5 -19h41v-156h-711v156h111q67 0 90.5 11.5t23.5 41.5q0 11 -3.5 25t-14.5 42l-59 162h-453l-59 -173q-2 -7 -7 -21q-10 -29 -10 -41
q0 -27 19.5 -37t91.5 -10h106v-156h-639zM788 1710q0 58 43 101t101 43q59 0 101 -42.5t42 -101.5q0 -62 -40.5 -102.5t-102.5 -40.5q-61 0 -102.5 41.5t-41.5 101.5zM397 1710q0 58 43.5 101t101.5 43q59 0 100.5 -42t41.5 -102q0 -62 -40 -102.5t-102 -40.5
q-60 0 -102.5 41.5t-42.5 101.5z" />
    <glyph glyph-name="Aring" unicode="&#xc5;" horiz-adv-x="1475" 
d="M590 1706q0 -57 38 -96t95 -39t96 39t39 96t-39 96t-96 39q-56 0 -94.5 -39t-38.5 -96zM459 1706q0 112 76.5 189t187.5 77t188.5 -77.5t77.5 -188.5q0 -112 -77 -189t-189 -77t-188 76.5t-76 189.5zM866 600l-178 475l-162 -475h340zM-29 0v156h43q78 0 116.5 27.5
t66.5 105.5l383 1085h288l410 -1085q35 -95 64.5 -114t101.5 -19h41v-156h-711v156h111q67 0 90.5 11.5t23.5 41.5q0 11 -3.5 25t-14.5 42l-59 162h-453l-59 -173q-2 -7 -7 -21q-10 -29 -10 -41q0 -27 19.5 -37t91.5 -10h106v-156h-639z" />
    <glyph glyph-name="Ccedilla" unicode="&#xc7;" horiz-adv-x="1450" 
d="M1174 532h176q-20 -274 -168.5 -423.5t-401.5 -149.5q-151 0 -273 47t-218 144q-106 105 -160.5 242.5t-54.5 295.5q0 159 53 291.5t160 239.5q97 97 217 146.5t258 49.5q110 0 207.5 -34.5t191.5 -106.5l41 123h148v-563h-158q-24 197 -126.5 305t-264.5 108
q-189 0 -296.5 -151t-107.5 -418q0 -254 107 -392.5t301 -138.5q151 0 245 98.5t124 286.5zM432 -379l47 103q67 -39 128 -58.5t116 -19.5q35 0 57.5 21t22.5 54q0 40 -24 61t-69 21q-14 0 -29.5 -2t-31.5 -6v203h88v-114q18 2 35 3.5t33 1.5q86 0 135 -45t49 -125
q0 -84 -59 -136t-156 -52q-68 0 -144 19.5t-198 70.5z" />
    <glyph glyph-name="Eacute" unicode="&#xc9;" horiz-adv-x="1546" 
d="M47 0v156h80q91 0 113 21.5t22 105.5v809q0 84 -22 105.5t-113 21.5h-80v155h1352v-547h-156q-6 235 -76.5 313.5t-285.5 78.5h-330v-422h78q129 0 169 44.5t50 204.5l156 1v-689l-156 1q-9 177 -49 228.5t-168 51.5h-80v-483h360q180 0 247 83.5t85 342.5h156v-582
h-1352zM551 1526l279 295q49 53 84.5 74.5t70.5 21.5q47 0 79 -31.5t32 -76.5q0 -36 -24.5 -64.5t-80.5 -56.5l-325 -162h-115z" />
    <glyph glyph-name="Ntilde" unicode="&#xd1;" horiz-adv-x="1683" 
d="M1444 0h-289l-682 1120v-837q0 -84 22 -105.5t113 -21.5h94v-156h-677v156h96q91 0 113 21.5t22 105.5v809q0 84 -22 105.5t-113 21.5h-88v155h588l608 -997v715q0 84 -22 105.5t-113 21.5h-97v155h650v-155h-66q-92 0 -114.5 -22t-22.5 -105v-1092zM598 1557h-84
q27 134 83.5 199t148.5 65q22 0 40.5 -2.5t36.5 -7.5l121 -31q5 -1 11 -2q25 -6 34 -6q38 0 60 21.5t37 70.5h82q-26 -130 -84 -198t-144 -68q-15 0 -31.5 2.5t-37.5 7.5l-117 33q-24 6 -36.5 8t-20.5 2q-40 0 -64.5 -23.5t-34.5 -70.5z" />
    <glyph glyph-name="Odieresis" unicode="&#xd6;" horiz-adv-x="1661" 
d="M397 688q0 -266 115 -414.5t319 -148.5t318.5 148t114.5 415q0 266 -114 413.5t-319 147.5q-204 0 -319 -147.5t-115 -413.5zM74 688q0 326 208.5 525.5t548.5 199.5q341 0 548.5 -199.5t207.5 -525.5q0 -327 -208 -527t-548 -200t-548.5 200.5t-208.5 526.5zM882 1710
q0 58 43 101t101 43q59 0 101 -42.5t42 -101.5q0 -62 -40.5 -102.5t-102.5 -40.5q-61 0 -102.5 41.5t-41.5 101.5zM491 1710q0 58 43.5 101t101.5 43q59 0 100.5 -42t41.5 -102q0 -62 -40 -102.5t-102 -40.5q-60 0 -102.5 41.5t-42.5 101.5z" />
    <glyph glyph-name="Udieresis" unicode="&#xdc;" horiz-adv-x="1565" 
d="M244 1092q0 84 -22 105.5t-113 21.5h-66v155h715v-155h-88q-93 0 -115.5 -22t-22.5 -105v-658q0 -144 67 -208t216 -64q141 0 213 68.5t72 203.5v658q0 84 -22 105.5t-113 21.5h-80v155h637v-155h-64q-91 0 -113 -21.5t-22 -105.5v-658q0 -232 -139 -353.5t-404 -121.5
q-263 0 -399.5 121t-136.5 354v658zM885 1710q0 58 43 101t101 43q59 0 101 -42.5t42 -101.5q0 -62 -40.5 -102.5t-102.5 -40.5q-61 0 -102.5 41.5t-41.5 101.5zM494 1710q0 58 43.5 101t101.5 43q59 0 100.5 -42t41.5 -102q0 -62 -40 -102.5t-102 -40.5q-60 0 -102.5 41.5
t-42.5 101.5z" />
    <glyph glyph-name="aacute" unicode="&#xe1;" horiz-adv-x="1165" 
d="M676 506q-42 -20 -116 -51q-228 -99 -228 -203q0 -56 33 -86.5t94 -30.5q100 0 158.5 67.5t58.5 186.5v117zM680 117q-61 -79 -142 -116.5t-190 -37.5q-129 0 -211 74t-82 190q0 111 70 180t240 121q40 13 130 35t119 41q37 24 52.5 54.5t15.5 76.5q0 75 -54.5 115.5
t-156.5 40.5q-66 0 -112.5 -14.5t-82.5 -45.5h7q60 0 94.5 -29.5t34.5 -82.5q0 -59 -39.5 -95t-104.5 -36q-72 0 -118 44.5t-46 115.5q0 114 108.5 185t289.5 71q103 0 182.5 -18t130.5 -52q59 -39 83 -99t24 -200v-430q0 -36 11.5 -53t35.5 -17q37 0 50 39t13 186h125v-43
q0 -188 -59.5 -271t-194.5 -83q-91 0 -145.5 37.5t-77.5 116.5zM319 1114l279 295q49 53 84.5 74.5t70.5 21.5q47 0 79 -31.5t32 -76.5q0 -36 -24.5 -64.5t-80.5 -56.5l-325 -162h-115z" />
    <glyph glyph-name="agrave" unicode="&#xe0;" horiz-adv-x="1165" 
d="M676 506q-42 -20 -116 -51q-228 -99 -228 -203q0 -56 33 -86.5t94 -30.5q100 0 158.5 67.5t58.5 186.5v117zM680 117q-61 -79 -142 -116.5t-190 -37.5q-129 0 -211 74t-82 190q0 111 70 180t240 121q40 13 130 35t119 41q37 24 52.5 54.5t15.5 76.5q0 75 -54.5 115.5
t-156.5 40.5q-66 0 -112.5 -14.5t-82.5 -45.5h7q60 0 94.5 -29.5t34.5 -82.5q0 -59 -39.5 -95t-104.5 -36q-72 0 -118 44.5t-46 115.5q0 114 108.5 185t289.5 71q103 0 182.5 -18t130.5 -52q59 -39 83 -99t24 -200v-430q0 -36 11.5 -53t35.5 -17q37 0 50 39t13 186h125v-43
q0 -188 -59.5 -271t-194.5 -83q-91 0 -145.5 37.5t-77.5 116.5zM745 1114h-115l-325 162q-56 28 -80.5 56.5t-24.5 64.5q0 45 32 76.5t79 31.5q35 0 70.5 -21.5t84.5 -74.5z" />
    <glyph glyph-name="acircumflex" unicode="&#xe2;" horiz-adv-x="1165" 
d="M676 506q-42 -20 -116 -51q-228 -99 -228 -203q0 -56 33 -86.5t94 -30.5q100 0 158.5 67.5t58.5 186.5v117zM680 117q-61 -79 -142 -116.5t-190 -37.5q-129 0 -211 74t-82 190q0 111 70 180t240 121q40 13 130 35t119 41q37 24 52.5 54.5t15.5 76.5q0 75 -54.5 115.5
t-156.5 40.5q-66 0 -112.5 -14.5t-82.5 -45.5h7q60 0 94.5 -29.5t34.5 -82.5q0 -59 -39.5 -95t-104.5 -36q-72 0 -118 44.5t-46 115.5q0 114 108.5 185t289.5 71q103 0 182.5 -18t130.5 -52q59 -39 83 -99t24 -200v-430q0 -36 11.5 -53t35.5 -17q37 0 50 39t13 186h125v-43
q0 -188 -59.5 -271t-194.5 -83q-91 0 -145.5 37.5t-77.5 116.5zM210 1114l230 371h184l230 -371h-101l-221 170l-221 -170h-101z" />
    <glyph glyph-name="adieresis" unicode="&#xe4;" horiz-adv-x="1165" 
d="M676 506q-42 -20 -116 -51q-228 -99 -228 -203q0 -56 33 -86.5t94 -30.5q100 0 158.5 67.5t58.5 186.5v117zM680 117q-61 -79 -142 -116.5t-190 -37.5q-129 0 -211 74t-82 190q0 111 70 180t240 121q40 13 130 35t119 41q37 24 52.5 54.5t15.5 76.5q0 75 -54.5 115.5
t-156.5 40.5q-66 0 -112.5 -14.5t-82.5 -45.5h7q60 0 94.5 -29.5t34.5 -82.5q0 -59 -39.5 -95t-104.5 -36q-72 0 -118 44.5t-46 115.5q0 114 108.5 185t289.5 71q103 0 182.5 -18t130.5 -52q59 -39 83 -99t24 -200v-430q0 -36 11.5 -53t35.5 -17q37 0 50 39t13 186h125v-43
q0 -188 -59.5 -271t-194.5 -83q-91 0 -145.5 37.5t-77.5 116.5zM583 1298q0 58 43 101t101 43q59 0 101 -42.5t42 -101.5q0 -62 -40.5 -102.5t-102.5 -40.5q-61 0 -102.5 41.5t-41.5 101.5zM192 1298q0 58 43.5 101t101.5 43q59 0 100.5 -42t41.5 -102q0 -62 -40 -102.5
t-102 -40.5q-60 0 -102.5 41.5t-42.5 101.5z" />
    <glyph glyph-name="atilde" unicode="&#xe3;" horiz-adv-x="1165" 
d="M676 506q-42 -20 -116 -51q-228 -99 -228 -203q0 -56 33 -86.5t94 -30.5q100 0 158.5 67.5t58.5 186.5v117zM680 117q-61 -79 -142 -116.5t-190 -37.5q-129 0 -211 74t-82 190q0 111 70 180t240 121q40 13 130 35t119 41q37 24 52.5 54.5t15.5 76.5q0 75 -54.5 115.5
t-156.5 40.5q-66 0 -112.5 -14.5t-82.5 -45.5h7q60 0 94.5 -29.5t34.5 -82.5q0 -59 -39.5 -95t-104.5 -36q-72 0 -118 44.5t-46 115.5q0 114 108.5 185t289.5 71q103 0 182.5 -18t130.5 -52q59 -39 83 -99t24 -200v-430q0 -36 11.5 -53t35.5 -17q37 0 50 39t13 186h125v-43
q0 -188 -59.5 -271t-194.5 -83q-91 0 -145.5 37.5t-77.5 116.5zM288 1145h-84q27 134 83.5 199t148.5 65q22 0 40.5 -2.5t36.5 -7.5l121 -31q5 -1 11 -2q25 -6 34 -6q38 0 60 21.5t37 70.5h82q-26 -130 -84 -198t-144 -68q-15 0 -31.5 2.5t-37.5 7.5l-117 33q-24 6 -36.5 8
t-20.5 2q-40 0 -64.5 -23.5t-34.5 -70.5z" />
    <glyph glyph-name="aring" unicode="&#xe5;" horiz-adv-x="1165" 
d="M389 1337q0 -56 39 -95.5t96 -39.5t96 39.5t39 95.5q0 57 -39 96.5t-96 39.5q-56 0 -95.5 -39.5t-39.5 -96.5zM258 1337q0 112 77.5 189.5t188.5 77.5q112 0 189.5 -77.5t77.5 -189.5t-77.5 -189t-189.5 -77t-189 77t-77 189zM676 506q-42 -20 -116 -51
q-228 -99 -228 -203q0 -56 33 -86.5t94 -30.5q100 0 158.5 67.5t58.5 186.5v117zM680 117q-61 -79 -142 -116.5t-190 -37.5q-129 0 -211 74t-82 190q0 111 70 180t240 121q40 13 130 35t119 41q37 24 52.5 54.5t15.5 76.5q0 75 -54.5 115.5t-156.5 40.5q-66 0 -112.5 -14.5
t-82.5 -45.5h7q60 0 94.5 -29.5t34.5 -82.5q0 -59 -39.5 -95t-104.5 -36q-72 0 -118 44.5t-46 115.5q0 114 108.5 185t289.5 71q103 0 182.5 -18t130.5 -52q59 -39 83 -99t24 -200v-430q0 -38 10.5 -54t36.5 -16q36 0 49.5 39.5t13.5 185.5h125v-43q0 -188 -59.5 -271
t-194.5 -83q-91 0 -145.5 37.5t-77.5 116.5z" />
    <glyph glyph-name="ccedilla" unicode="&#xe7;" horiz-adv-x="1053" 
d="M827 401h158q-11 -217 -119 -326.5t-313 -109.5q-229 0 -362.5 140t-133.5 378q0 231 148.5 376t386.5 145q177 0 290 -85t113 -214q0 -80 -44.5 -127.5t-119.5 -47.5q-67 0 -107 38.5t-40 103.5q0 48 33 82.5t86 40.5q-46 38 -94 55.5t-107 17.5q-125 0 -195.5 -101
t-70.5 -282q0 -168 64 -251.5t192 -83.5q104 0 162 61.5t73 189.5zM223 -379l47 103q67 -39 128 -58.5t116 -19.5q35 0 57.5 21t22.5 54q0 40 -24 61t-69 21q-14 0 -29.5 -2t-31.5 -6v203h88v-114q18 2 35 3.5t33 1.5q86 0 135 -45t49 -125q0 -84 -59 -136t-156 -52
q-68 0 -144 19.5t-198 70.5z" />
    <glyph glyph-name="eacute" unicode="&#xe9;" horiz-adv-x="1092" 
d="M755 608q-9 134 -54.5 196t-133.5 62q-90 0 -146.5 -65.5t-74.5 -192.5h409zM848 346h172q-22 -178 -142.5 -280.5t-308.5 -102.5q-234 0 -373 141.5t-139 378.5q0 234 140.5 377.5t371.5 143.5q223 0 340 -138.5t117 -402.5h-690q6 -164 69.5 -250t178.5 -86
q118 0 178.5 50.5t85.5 168.5zM334 1114l279 295q49 53 84.5 74.5t70.5 21.5q47 0 79 -31.5t32 -76.5q0 -36 -24.5 -64.5t-80.5 -56.5l-325 -162h-115z" />
    <glyph glyph-name="egrave" unicode="&#xe8;" horiz-adv-x="1092" 
d="M755 608q-9 134 -54.5 196t-133.5 62q-90 0 -146.5 -65.5t-74.5 -192.5h409zM848 346h172q-22 -178 -142.5 -280.5t-308.5 -102.5q-234 0 -373 141.5t-139 378.5q0 234 140.5 377.5t371.5 143.5q223 0 340 -138.5t117 -402.5h-690q6 -164 69.5 -250t178.5 -86
q118 0 178.5 50.5t85.5 168.5zM760 1114h-115l-325 162q-56 28 -80.5 56.5t-24.5 64.5q0 45 32 76.5t79 31.5q35 0 70.5 -21.5t84.5 -74.5z" />
    <glyph glyph-name="ecircumflex" unicode="&#xea;" horiz-adv-x="1092" 
d="M755 608q-9 134 -54.5 196t-133.5 62q-90 0 -146.5 -65.5t-74.5 -192.5h409zM848 346h172q-22 -178 -142.5 -280.5t-308.5 -102.5q-234 0 -373 141.5t-139 378.5q0 234 140.5 377.5t371.5 143.5q223 0 340 -138.5t117 -402.5h-690q6 -164 69.5 -250t178.5 -86
q118 0 178.5 50.5t85.5 168.5zM225 1114l230 371h184l230 -371h-101l-221 170l-221 -170h-101z" />
    <glyph glyph-name="edieresis" unicode="&#xeb;" horiz-adv-x="1092" 
d="M755 608q-9 134 -54.5 196t-133.5 62q-90 0 -146.5 -65.5t-74.5 -192.5h409zM848 346h172q-22 -178 -142.5 -280.5t-308.5 -102.5q-234 0 -373 141.5t-139 378.5q0 234 140.5 377.5t371.5 143.5q223 0 340 -138.5t117 -402.5h-690q6 -164 69.5 -250t178.5 -86
q118 0 178.5 50.5t85.5 168.5zM598 1298q0 58 43 101t101 43q59 0 101 -42.5t42 -101.5q0 -62 -40.5 -102.5t-102.5 -40.5q-61 0 -102.5 41.5t-41.5 101.5zM207 1298q0 58 43.5 101t101.5 43q59 0 100.5 -42t41.5 -102q0 -62 -40 -102.5t-102 -40.5q-60 0 -102.5 41.5
t-42.5 101.5z" />
    <glyph glyph-name="iacute" unicode="&#xed;" horiz-adv-x="721" 
d="M51 0v137h76q70 0 93.5 22t23.5 101v447q0 79 -23.5 100.5t-93.5 21.5h-76v138h443v-707q0 -78 23.5 -100.5t94.5 -22.5h62v-137h-623zM133 1114l279 295q49 53 84.5 74.5t70.5 21.5q47 0 79 -31.5t32 -76.5q0 -36 -24.5 -64.5t-80.5 -56.5l-325 -162h-115z" />
    <glyph glyph-name="igrave" unicode="&#xec;" horiz-adv-x="721" 
d="M51 0v137h76q70 0 93.5 22t23.5 101v447q0 79 -23.5 100.5t-93.5 21.5h-76v138h443v-707q0 -78 23.5 -100.5t94.5 -22.5h62v-137h-623zM559 1114h-115l-325 162q-56 28 -80.5 56.5t-24.5 64.5q0 45 32 76.5t79 31.5q35 0 70.5 -21.5t84.5 -74.5z" />
    <glyph glyph-name="icircumflex" unicode="&#xee;" horiz-adv-x="721" 
d="M51 0v137h76q70 0 93.5 22t23.5 101v447q0 79 -23.5 100.5t-93.5 21.5h-76v138h443v-707q0 -78 23.5 -100.5t94.5 -22.5h62v-137h-623zM24 1114l230 371h184l230 -371h-101l-221 170l-221 -170h-101z" />
    <glyph glyph-name="idieresis" unicode="&#xef;" horiz-adv-x="721" 
d="M51 0v137h76q70 0 93.5 22t23.5 101v447q0 79 -23.5 100.5t-93.5 21.5h-76v138h443v-707q0 -78 23.5 -100.5t94.5 -22.5h62v-137h-623zM397 1298q0 58 43 101t101 43q59 0 101 -42.5t42 -101.5q0 -62 -40.5 -102.5t-102.5 -40.5q-61 0 -102.5 41.5t-41.5 101.5zM6 1298
q0 58 43.5 101t101.5 43q59 0 100.5 -42t41.5 -102q0 -62 -40 -102.5t-102 -40.5q-60 0 -102.5 41.5t-42.5 101.5z" />
    <glyph glyph-name="ntilde" unicode="&#xf1;" horiz-adv-x="1341" 
d="M47 0v137h68q70 0 93 22t23 101v447q0 79 -23 100.5t-93 21.5h-68v138h432v-170q80 100 164.5 150t171.5 50q167 0 240 -82t73 -274v-381q0 -79 23.5 -101t93.5 -22h60v-137h-582v137h41q70 0 93.5 22t23.5 101v381q0 107 -35.5 153t-116.5 46q-116 0 -183 -88t-67 -242
v-250q0 -79 23.5 -101t93.5 -22h41v-137h-590zM428 1145h-84q27 134 83.5 199t148.5 65q22 0 40.5 -2.5t36.5 -7.5l121 -31q5 -1 11 -2q25 -6 34 -6q38 0 60 21.5t37 70.5h82q-26 -130 -84 -198t-144 -68q-15 0 -31.5 2.5t-37.5 7.5l-117 33q-24 6 -36.5 8t-20.5 2
q-40 0 -64.5 -23.5t-34.5 -70.5z" />
    <glyph glyph-name="oacute" unicode="&#xf3;" horiz-adv-x="1206" 
d="M336 483q0 -187 66 -279.5t200 -92.5t201 93t67 279q0 188 -67 281.5t-201 93.5q-133 0 -199.5 -93.5t-66.5 -281.5zM57 483q0 236 149 378.5t396 142.5q248 0 397.5 -143t149.5 -378q0 -234 -149.5 -376t-397.5 -142q-247 0 -396 142t-149 376zM391 1114l279 295
q49 53 84.5 74.5t70.5 21.5q47 0 79 -31.5t32 -76.5q0 -36 -24.5 -64.5t-80.5 -56.5l-325 -162h-115z" />
    <glyph glyph-name="ograve" unicode="&#xf2;" horiz-adv-x="1206" 
d="M336 483q0 -187 66 -279.5t200 -92.5t201 93t67 279q0 188 -67 281.5t-201 93.5q-133 0 -199.5 -93.5t-66.5 -281.5zM57 483q0 236 149 378.5t396 142.5q248 0 397.5 -143t149.5 -378q0 -234 -149.5 -376t-397.5 -142q-247 0 -396 142t-149 376zM817 1114h-115l-325 162
q-56 28 -80.5 56.5t-24.5 64.5q0 45 32 76.5t79 31.5q35 0 70.5 -21.5t84.5 -74.5z" />
    <glyph glyph-name="ocircumflex" unicode="&#xf4;" horiz-adv-x="1206" 
d="M336 483q0 -187 66 -279.5t200 -92.5t201 93t67 279q0 188 -67 281.5t-201 93.5q-133 0 -199.5 -93.5t-66.5 -281.5zM57 483q0 236 149 378.5t396 142.5q248 0 397.5 -143t149.5 -378q0 -234 -149.5 -376t-397.5 -142q-247 0 -396 142t-149 376zM282 1114l230 371h184
l230 -371h-101l-221 170l-221 -170h-101z" />
    <glyph glyph-name="odieresis" unicode="&#xf6;" horiz-adv-x="1206" 
d="M336 483q0 -187 66 -279.5t200 -92.5t201 93t67 279q0 188 -67 281.5t-201 93.5q-133 0 -199.5 -93.5t-66.5 -281.5zM57 483q0 236 149 378.5t396 142.5q248 0 397.5 -143t149.5 -378q0 -234 -149.5 -376t-397.5 -142q-247 0 -396 142t-149 376zM655 1298q0 58 43 101
t101 43q59 0 101 -42.5t42 -101.5q0 -62 -40.5 -102.5t-102.5 -40.5q-61 0 -102.5 41.5t-41.5 101.5zM264 1298q0 58 43.5 101t101.5 43q59 0 100.5 -42t41.5 -102q0 -62 -40 -102.5t-102 -40.5q-60 0 -102.5 41.5t-42.5 101.5z" />
    <glyph glyph-name="otilde" unicode="&#xf5;" horiz-adv-x="1206" 
d="M336 483q0 -187 66 -279.5t200 -92.5t201 93t67 279q0 188 -67 281.5t-201 93.5q-133 0 -199.5 -93.5t-66.5 -281.5zM57 483q0 236 149 378.5t396 142.5q248 0 397.5 -143t149.5 -378q0 -234 -149.5 -376t-397.5 -142q-247 0 -396 142t-149 376zM360 1145h-84
q27 134 83.5 199t148.5 65q22 0 40.5 -2.5t36.5 -7.5l121 -31q5 -1 11 -2q25 -6 34 -6q38 0 60 21.5t37 70.5h82q-26 -130 -84 -198t-144 -68q-15 0 -31.5 2.5t-37.5 7.5l-117 33q-24 6 -36.5 8t-20.5 2q-40 0 -64.5 -23.5t-34.5 -70.5z" />
    <glyph glyph-name="uacute" unicode="&#xfa;" horiz-adv-x="1327" 
d="M213 326v381q0 78 -24 100t-95 22h-47v138h412v-641q0 -107 35.5 -153t115.5 -46q116 0 184 88t68 242v250q0 78 -23.5 100t-95.5 22h-94v138h459v-707q0 -78 24 -100.5t95 -22.5h53v-137h-418v170q-79 -99 -164.5 -150t-173.5 -51q-166 0 -238.5 82t-72.5 275zM405 1114
l279 295q49 53 84.5 74.5t70.5 21.5q47 0 79 -31.5t32 -76.5q0 -36 -24.5 -64.5t-80.5 -56.5l-325 -162h-115z" />
    <glyph glyph-name="ugrave" unicode="&#xf9;" horiz-adv-x="1327" 
d="M213 326v381q0 78 -24 100t-95 22h-47v138h412v-641q0 -107 35.5 -153t115.5 -46q116 0 184 88t68 242v250q0 78 -23.5 100t-95.5 22h-94v138h459v-707q0 -78 24 -100.5t95 -22.5h53v-137h-418v170q-79 -99 -164.5 -150t-173.5 -51q-166 0 -238.5 82t-72.5 275zM831 1114
h-115l-325 162q-56 28 -80.5 56.5t-24.5 64.5q0 45 32 76.5t79 31.5q35 0 70.5 -21.5t84.5 -74.5z" />
    <glyph glyph-name="ucircumflex" unicode="&#xfb;" horiz-adv-x="1327" 
d="M213 326v381q0 78 -24 100t-95 22h-47v138h412v-641q0 -107 35.5 -153t115.5 -46q116 0 184 88t68 242v250q0 78 -23.5 100t-95.5 22h-94v138h459v-707q0 -78 24 -100.5t95 -22.5h53v-137h-418v170q-79 -99 -164.5 -150t-173.5 -51q-166 0 -238.5 82t-72.5 275zM296 1114
l230 371h184l230 -371h-101l-221 170l-221 -170h-101z" />
    <glyph glyph-name="udieresis" unicode="&#xfc;" horiz-adv-x="1327" 
d="M213 326v381q0 78 -24 100t-95 22h-47v138h412v-641q0 -107 35.5 -153t115.5 -46q116 0 184 88t68 242v250q0 78 -23.5 100t-95.5 22h-94v138h459v-707q0 -78 24 -100.5t95 -22.5h53v-137h-418v170q-79 -99 -164.5 -150t-173.5 -51q-166 0 -238.5 82t-72.5 275zM669 1298
q0 58 43 101t101 43q59 0 101 -42.5t42 -101.5q0 -62 -40.5 -102.5t-102.5 -40.5q-61 0 -102.5 41.5t-41.5 101.5zM278 1298q0 58 43.5 101t101.5 43q59 0 100.5 -42t41.5 -102q0 -62 -40 -102.5t-102 -40.5q-60 0 -102.5 41.5t-42.5 101.5z" />
    <glyph glyph-name="dagger" unicode="&#x2020;" horiz-adv-x="1214" 
d="M664 832q58 6 167 36.5t162 30.5q57 0 89 -28t32 -78q0 -51 -32 -79t-89 -28q-52 0 -161 31t-168 37v-47q0 -311 32.5 -640t32.5 -348q0 -79 -31.5 -120t-93.5 -41q-61 0 -93 41t-32 120q0 12 33.5 355t38.5 679q-59 -6 -167.5 -36.5t-162.5 -30.5q-57 0 -89 28t-32 79
q0 50 32 78t89 28q54 0 162.5 -30.5t167.5 -36.5q-4 138 -37 289t-33 167q0 61 32.5 94t92.5 33t92.5 -33t32.5 -94q0 -16 -32 -167.5t-35 -288.5z" />
    <glyph glyph-name="degree" unicode="&#xb0;" horiz-adv-x="674" 
d="M522 1165q0 77 -53.5 131t-130.5 54t-131.5 -54t-54.5 -131q0 -76 54.5 -131t131.5 -55t130.5 54.5t53.5 131.5zM338 1460q123 0 209 -87t86 -210q0 -121 -87 -208t-210 -87t-208 85.5t-85 209.5q0 125 86 211t209 86z" />
    <glyph glyph-name="cent" unicode="&#xa2;" horiz-adv-x="1280" 
d="M297 -205l127 250q-136 69 -203 187t-67 286q0 233 148.5 377.5t389.5 144.5q59 0 114 -12t107 -37l93 180h120l-122 -237q46 -49 67 -94t21 -95q0 -82 -45.5 -132t-120.5 -50q-25 0 -48.5 8.5t-48.5 26.5l-208 -407q19 -4 36 -5.5t33 -1.5q102 0 160 63t74 191h161
q-12 -213 -122.5 -325.5t-307.5 -112.5q-32 0 -63 2.5t-63 7.5l-111 -215h-121zM524 240l277 532q18 24 42.5 38.5t55.5 18.5q-46 39 -94 56.5t-107 17.5q-125 0 -195.5 -100t-70.5 -281q0 -104 22.5 -172.5t69.5 -109.5z" />
    <glyph glyph-name="sterling" unicode="&#xa3;" horiz-adv-x="1280" 
d="M168 -29l-78 166q112 76 162.5 165.5t50.5 209.5q0 20 -0.5 30.5t-1.5 18.5h-203v115h168q-44 87 -64 147.5t-20 108.5q0 158 137 254t365 96q206 0 342.5 -89t136.5 -218q0 -79 -48.5 -128.5t-125.5 -49.5q-66 0 -109.5 38.5t-43.5 96.5q0 47 26 79t80 52
q-49 46 -103 68t-118 22q-106 0 -172 -55.5t-66 -143.5q0 -60 87 -270l4 -8h257v-115h-243q-5 -93 -50 -167.5t-128 -127.5l8 -16q59 28 104 41.5t78 13.5q84 0 203 -52t155 -52q58 0 87 49t32 151h111q0 -8 1 -24t1 -23q0 -186 -76.5 -288.5t-216.5 -102.5q-77 0 -208 57
q-22 10 -34 15q-5 2 -14 6q-136 55 -213 55q-69 0 -133 -30.5t-127 -94.5z" />
    <glyph glyph-name="section" unicode="&#xa7;" horiz-adv-x="1214" 
d="M723 287q98 17 149.5 61.5t51.5 112.5q0 65 -39.5 108.5t-126.5 75.5l-260 96q-99 -10 -153 -56.5t-54 -119.5q0 -58 31.5 -94.5t107.5 -67.5zM352 -268q53 -30 103 -44t102 -14q134 0 211.5 59t77.5 161q0 70 -43.5 113.5t-157.5 82.5l-166 60q-226 78 -304.5 157
t-78.5 209q0 97 67.5 175.5t190.5 125.5q-90 60 -132 124t-42 140q0 150 125.5 242t333.5 92q170 0 276.5 -67t106.5 -170q0 -66 -39.5 -109t-99.5 -43q-59 0 -99.5 37.5t-40.5 89.5q0 34 17.5 63t52.5 54q-48 18 -92.5 27.5t-87.5 9.5q-117 0 -186.5 -49.5t-69.5 -131.5
q0 -61 38.5 -99t157.5 -83l254 -94q142 -53 217.5 -138t75.5 -190q0 -98 -63 -175t-191 -134q97 -55 142 -120.5t45 -151.5q0 -170 -132 -276.5t-343 -106.5q-183 0 -304.5 79t-121.5 191q0 67 44.5 113.5t108.5 46.5q61 0 101 -36.5t40 -90.5q0 -49 -21 -78t-73 -51z" />
    <glyph glyph-name="bullet" unicode="&#x2022;" horiz-adv-x="1208" 
d="M307 762q0 123 87 209t210 86q122 0 208.5 -86.5t86.5 -208.5t-87.5 -209.5t-209.5 -87.5q-123 0 -209 87t-86 210z" />
    <glyph glyph-name="paragraph" unicode="&#xb6;" 
d="M969 1380h-117v-1380h-129v1380h-168v-1380h-131v784q-168 6 -268.5 101t-100.5 245q0 158 107 253.5t284 95.5h523v-99z" />
    <glyph glyph-name="germandbls" unicode="&#xdf;" horiz-adv-x="1290" 
d="M43 0v137h53q70 0 93.5 22t23.5 101v709q0 218 113 330t331 112q208 0 331.5 -84t123.5 -221q0 -90 -61.5 -153t-190.5 -103q160 -38 241 -143t81 -273q0 -217 -97 -343t-264 -126q-136 0 -198 78.5t-62 251.5q0 9 1 27.5t1 27.5h151q3 -136 21 -181.5t64 -45.5
q57 0 79.5 59t22.5 221q0 211 -63 283t-236 72h-24v147h10q134 0 195 44.5t61 142.5q0 80 -48 127t-130 47q-108 0 -156.5 -64t-48.5 -205v-997h-418z" />
    <glyph glyph-name="registered" unicode="&#xae;" horiz-adv-x="1683" 
d="M748 981v-258q14 -1 27 -1.5t26 -0.5q100 0 154.5 44t54.5 126q0 70 -46.5 114t-121.5 44q-47 0 -70.5 -17.5t-23.5 -50.5zM866 1096q145 0 232.5 -55t87.5 -142q0 -84 -65.5 -133t-217.5 -76q96 -25 147.5 -73t69.5 -127q6 -24 10 -67q9 -91 54 -91q29 0 44 34t15 99h49
v-23q0 -85 -43 -129.5t-127 -44.5q-46 0 -80 14.5t-53 43.5q-24 39 -27 111.5t-8 93.5q-16 74 -60.5 109.5t-121.5 35.5h-24v-246q0 -49 22.5 -69.5t85.5 -26.5v-47h-389v46q64 4 88.5 24.5t24.5 72.5v520q0 52 -23.5 72t-89.5 25v49h399zM1464 678q0 122 -48.5 240
t-135.5 206q-86 86 -200 133.5t-236 47.5q-126 0 -241 -48t-202 -137q-89 -90 -135.5 -203t-46.5 -239t47.5 -239.5t136.5 -202.5q91 -91 201.5 -137t237.5 -46q126 0 238.5 47t199.5 136q89 90 136.5 204.5t47.5 237.5zM844 1401q144 0 279 -57t235 -160
q98 -102 151.5 -235.5t53.5 -278.5q0 -138 -59.5 -272.5t-166.5 -239.5q-101 -100 -228 -149.5t-282 -49.5q-135 0 -264 54.5t-229 154.5q-105 104 -159 234t-54 276q0 143 54.5 275t156.5 235q102 102 235 157.5t277 55.5z" />
    <glyph glyph-name="copyright" unicode="&#xa9;" horiz-adv-x="1683" 
d="M1165 1100l2 -320h-47q-32 134 -102 203.5t-172 69.5q-116 0 -176 -94t-60 -275q0 -184 65 -281.5t189 -97.5q82 0 151 43.5t126 130.5l43 -26q-63 -108 -150 -160.5t-200 -52.5q-177 0 -297.5 124t-120.5 306q0 184 119.5 309t295.5 125q80 0 154 -33t78 -33
q28 0 41.5 14t19.5 48h41zM1464 678q0 124 -48 241.5t-136 204.5q-86 86 -200 133.5t-236 47.5q-126 0 -241 -48t-202 -137q-88 -90 -135 -203.5t-47 -238.5q0 -126 47.5 -239.5t136.5 -202.5q91 -91 201.5 -137t237.5 -46q126 0 238.5 47t199.5 136q88 89 136 204.5
t48 237.5zM844 1401q140 0 272.5 -55.5t233.5 -155.5q101 -102 157 -235.5t56 -276.5q0 -142 -55.5 -274t-157.5 -236q-101 -102 -231 -155.5t-277 -53.5q-145 0 -274.5 53t-233.5 156q-104 104 -158.5 234.5t-54.5 275.5q0 143 54 274.5t157 235.5q102 102 235 157.5
t277 55.5z" />
    <glyph glyph-name="trademark" unicode="&#x2122;" horiz-adv-x="1683" 
d="M969 1448l135 -381l137 381h189v-27l-28 -2q-19 -3 -29.5 -16.5t-10.5 -36.5v-375q0 -23 10.5 -36.5t30.5 -16.5l27 -4v-29h-246v29l30 4q20 2 29.5 15.5t9.5 37.5v375l-163 -463h-27l-170 469v-381q0 -24 10 -38t29 -15l35 -4v-29h-197v29l33 4q20 2 30.5 15t10.5 36
v373q0 23 -11 37t-30 16l-33 2v31h199zM692 1448l10 -188h-30q-8 80 -40 116.5t-93 36.5h-11v-422q0 -23 10.5 -37t28.5 -16l31 -4v-29h-260v29l32 4q19 2 28.5 15.5t9.5 37.5v422h-15q-59 0 -91 -37.5t-40 -115.5h-29l11 188h448z" />
    <glyph glyph-name="acute" unicode="&#xb4;" 
d="M299 1114l279 295q49 53 84.5 74.5t70.5 21.5q47 0 79 -31.5t32 -76.5q0 -36 -24.5 -64.5t-80.5 -56.5l-325 -162h-115z" />
    <glyph glyph-name="dieresis" unicode="&#xa8;" 
d="M563 1298q0 58 43 101t101 43q59 0 101 -42.5t42 -101.5q0 -62 -40.5 -102.5t-102.5 -40.5q-61 0 -102.5 41.5t-41.5 101.5zM172 1298q0 58 43.5 101t101.5 43q59 0 100.5 -42t41.5 -102q0 -62 -40 -102.5t-102 -40.5q-60 0 -102.5 41.5t-42.5 101.5z" />
    <glyph glyph-name="notequal" unicode="&#x2260;" horiz-adv-x="1706" 
d="M1327 1112l-170 -215h295v-162h-403l-197 -250h600v-161h-707l-249 -314l-123 99l170 215h-289v161h393l199 250h-592v162h700l250 315z" />
    <glyph glyph-name="AE" unicode="&#xc6;" horiz-adv-x="2263" 
d="M971 639v580h-41l-301 -580h342zM547 483l-101 -193l-14 -28q-29 -55 -29 -69q0 -19 23 -28t68 -9h96v-156h-625v156h33q63 0 116.5 34.5t88.5 98.5l434 803q1 2 4 7q27 46 27 70q0 28 -24.5 39t-98.5 11h-96v155h1652v-547h-157q-6 236 -76.5 314t-284.5 78h-330v-422
h78q128 0 168 44t49 206h158v-689l-158 1q-9 178 -48.5 229t-166.5 51h-80v-483h359q179 0 246.5 83.5t85.5 342.5h157v-582h-1362v156h97q91 0 113 21.5t22 105.5v200h-424z" />
    <glyph glyph-name="Oslash" unicode="&#xd8;" horiz-adv-x="1661" 
d="M1133 1120q-69 67 -142 98t-160 31q-200 0 -317 -144.5t-117 -393.5q0 -79 12.5 -160t36.5 -166zM524 262q61 -68 138 -102.5t169 -34.5q203 0 318 146.5t115 406.5q0 94 -13 173t-41 150zM219 -66l-98 99l143 153q-94 119 -142 250t-48 271q0 152 56.5 284t166.5 234
q101 93 235.5 140.5t298.5 47.5q131 0 240 -31.5t213 -99.5l150 162l98 -98l-139 -150q99 -113 146.5 -237.5t47.5 -270.5q0 -327 -208 -527t-548 -200q-137 0 -248.5 33t-211.5 102z" />
    <glyph glyph-name="infinity" unicode="&#x221e;" horiz-adv-x="1706" 
d="M928 559q45 -81 109.5 -122.5t146.5 -41.5q97 0 159 61.5t62 157.5q0 95 -57 158.5t-142 63.5q-78 0 -142 -63.5t-136 -213.5zM780 662q-46 81 -111 123t-145 42q-98 0 -159.5 -62t-61.5 -159q0 -94 56.5 -156.5t140.5 -62.5q80 0 144.5 62.5t135.5 212.5zM844 750
q71 139 149.5 200.5t184.5 61.5q127 0 222 -116t95 -284q0 -178 -84.5 -288.5t-220.5 -110.5q-92 0 -166.5 57.5t-161.5 200.5q-71 -135 -148.5 -197.5t-172.5 -62.5q-137 0 -232.5 114.5t-95.5 284.5q0 179 85 289.5t220 110.5q93 0 168.5 -60t157.5 -200z" />
    <glyph glyph-name="plusminus" unicode="&#xb1;" horiz-adv-x="1706" 
d="M1452 182v-168h-1198v168h1198zM938 1206v-334h514v-165h-514v-334h-170v334h-514v165h514v334h170z" />
    <glyph glyph-name="lessequal" unicode="&#x2264;" horiz-adv-x="1706" 
d="M1446 178v-166h-1186v166h1186zM1446 1047l-889 -287l889 -287v-176l-1186 389v145l1186 392v-176z" />
    <glyph glyph-name="greaterequal" unicode="&#x2265;" horiz-adv-x="1706" 
d="M1448 178v-166h-1188v166h1188zM1446 831v-145l-1186 -389v176l891 287l-891 287v176z" />
    <glyph glyph-name="yen" unicode="&#xa5;" horiz-adv-x="1372" 
d="M813 256q0 -74 21.5 -94.5t105.5 -20.5h113v-141h-750v141h111q86 0 107.5 20t21.5 95v211h-494v119h449l-109 151h-340v119h254l-80 115q-50 71 -92 99t-94 28h-64v141h674v-141h-94q-46 0 -65 -8.5t-19 -28.5q0 -11 6.5 -26t20.5 -36l213 -309l241 319q13 19 18 31.5
t5 24.5q0 17 -16 25t-50 8h-114v141h598v-141h-43q-50 0 -82 -16.5t-70 -65.5l-123 -160h250v-119h-342l-119 -151h461v-119h-510v-211z" />
    <glyph glyph-name="mu" unicode="&#xb5;" horiz-adv-x="1184" 
d="M68 373l108 512h207l-100 -467q-10 -46 -15.5 -82t-5.5 -57q0 -64 37 -101t102 -37q87 0 139 53.5t76 167.5l111 523h209l-113 -533l-3 -15q-15 -70 -15 -110q0 -42 22.5 -66t63.5 -24q40 0 71 21.5t58 68.5q9 17 23 49q25 60 51 60q11 0 16.5 -7.5t5.5 -23.5
q0 -28 -17 -85.5t-40 -100.5q-41 -72 -95.5 -108t-123.5 -36q-84 0 -129.5 55t-47.5 156q-42 -104 -109.5 -157.5t-156.5 -53.5q-99 0 -156.5 58t-68.5 168q-23 -124 -48 -315q-39 -306 -134 -306q-47 0 -73 26.5t-26 74.5q0 52 69 282.5t108 409.5z" />
    <glyph glyph-name="partialdiff" unicode="&#x2202;" horiz-adv-x="1075" 
d="M758 639q17 103 26 186.5t9 147.5q0 120 -29 174.5t-92 54.5q-62 0 -147 -58.5t-122 -58.5t-64.5 26t-27.5 60q0 66 79 115t200 49q176 0 287.5 -159t111.5 -422q0 -338 -150 -558.5t-376 -220.5q-161 0 -266 112t-105 286q0 193 113 322.5t278 129.5q101 0 167.5 -45
t107.5 -141zM705 504q0 116 -41 178.5t-117 62.5q-105 0 -174.5 -131.5t-69.5 -337.5q0 -116 40.5 -177.5t117.5 -61.5q105 0 174.5 132.5t69.5 334.5z" />
    <glyph glyph-name="summation" unicode="&#x2211;" horiz-adv-x="1499" 
d="M18 1473h1199l120 -394h-82l-81 238q-15 43 -50.5 60.5t-130.5 17.5h-628l745 -809v-41l-784 -709h893q47 0 64.5 13.5t29.5 50.5l69 229h84l-159 -522h-1289v55l875 787l-875 964v60z" />
    <glyph glyph-name="product" unicode="&#x220f;" horiz-adv-x="1673" 
d="M51 1473h1569v-78h-190v-1710h190v-78h-643v78h184v1710h-653v-1710h186v-78h-643v78h189v1710h-189v78z" />
    <glyph glyph-name="pi" unicode="&#x3c0;" horiz-adv-x="1427" 
d="M1352 653h-342q-12 -73 -17.5 -147t-5.5 -152v-147q0 -129 -33 -189.5t-102 -60.5q-49 0 -74.5 30t-25.5 87q0 64 74.5 253.5t107.5 325.5h-381q-12 -68 -18.5 -141t-6.5 -152q0 -4 1 -21q1 -67 1 -130q0 -129 -33.5 -190.5t-103.5 -61.5q-48 0 -73 29t-25 86
q0 65 75 254.5t107 326.5h-139q-5 0 -15.5 -1t-15.5 -1q-106 0 -153 -36.5t-68 -135.5h-59q41 227 128.5 316.5t266.5 89.5h981z" />
    <glyph glyph-name="integral" unicode="&#x222b;" horiz-adv-x="1120" 
d="M324 -258q106 0 122 692q2 81 3 123q13 538 113 766.5t312 228.5q87 0 143 -45.5t56 -111.5q0 -61 -34 -95t-95 -34q-45 0 -74.5 22.5t-40.5 65.5q-4 17 -6 45q-3 40 -26 41q-101 0 -119 -615q-5 -161 -8 -249q-10 -280 -30.5 -427t-59.5 -245q-55 -136 -139.5 -205.5
t-194.5 -69.5q-87 0 -142 44t-55 112q0 63 35.5 97t99.5 34q39 0 66 -18t41 -54q6 -16 9 -59t24 -43z" />
    <glyph glyph-name="ordfeminine" unicode="&#xaa;" horiz-adv-x="874" 
d="M508 1053q-30 -13 -82 -34q-176 -71 -176 -145q0 -39 24.5 -60t69.5 -21q75 0 119.5 47.5t44.5 130.5v82zM510 780q-46 -55 -107 -81.5t-141 -26.5q-98 0 -159.5 52t-61.5 134q0 77 53 125.5t180 85.5q31 9 98 24t89 29q28 17 39.5 37.5t11.5 52.5q0 54 -41 82.5
t-117 28.5q-49 0 -85 -10.5t-62 -32.5h6q46 0 71 -20.5t25 -57.5q0 -41 -29.5 -66.5t-78.5 -25.5q-55 0 -89 31.5t-34 81.5q0 80 81.5 129t217.5 49q79 0 138 -12.5t97 -36.5q44 -27 62 -69t18 -140v-301q0 -25 8.5 -37t26.5 -12q27 0 37 26.5t10 130.5h94v-28
q0 -133 -45 -191.5t-145 -58.5q-68 0 -109.5 26.5t-58.5 81.5z" />
    <glyph glyph-name="ordmasculine" unicode="&#xba;" horiz-adv-x="905" 
d="M252 1036q0 -131 50 -195.5t151 -64.5q100 0 150 65t50 195q0 131 -50 196.5t-150 65.5q-102 0 -151.5 -65t-49.5 -197zM43 1036q0 166 112 265.5t298 99.5q185 0 297 -100t112 -265q0 -163 -112 -262.5t-297 -99.5q-186 0 -298 99t-112 263z" />
    <glyph glyph-name="Omega" unicode="&#x3a9;" horiz-adv-x="1569" 
d="M1122 221h301l54 168h67l-117 -389h-516q111 218 167.5 434.5t56.5 423.5q0 278 -87.5 417.5t-261.5 139.5t-262 -139t-88 -416q0 -205 57 -421.5t169 -438.5h-519l-116 389h67l53 -168h302v23q-158 127 -240 283.5t-82 330.5q0 277 188 458t471 181q284 0 471 -180.5
t187 -458.5q0 -176 -82 -332t-240 -282v-23z" />
    <glyph glyph-name="ae" unicode="&#xe6;" horiz-adv-x="1741" 
d="M1376 608q-11 140 -56.5 199t-141.5 59q-95 0 -147 -63.5t-64 -194.5h409zM719 389v117q-59 -26 -159 -64q-230 -90 -230 -188q0 -59 37.5 -93t101.5 -34q119 0 184.5 68.5t65.5 193.5zM788 182q-74 -109 -177 -164t-234 -55q-147 0 -234.5 71.5t-87.5 190.5
q0 116 74.5 185t268.5 123q41 11 114 28q215 48 215 162q0 82 -60.5 126t-172.5 44q-56 0 -110.5 -15t-111.5 -47h7q61 0 96 -30t35 -82q0 -58 -40.5 -94.5t-105.5 -36.5q-72 0 -117 44.5t-45 115.5q0 115 110.5 185.5t295.5 70.5q111 0 205.5 -30.5t173.5 -90.5
q75 61 150.5 91t154.5 30q223 0 340 -138.5t117 -402.5h-691q0 -168 65 -252t196 -84q105 0 166.5 53.5t84.5 165.5h172q-26 -183 -139.5 -283t-296.5 -100q-135 0 -235.5 53t-182.5 166z" />
    <glyph glyph-name="oslash" unicode="&#xf8;" horiz-adv-x="1206" 
d="M801 770q-46 44 -95.5 66t-103.5 22q-135 0 -200.5 -92.5t-65.5 -282.5q0 -38 4 -78t12 -83zM403 199q47 -45 95.5 -66.5t103.5 -21.5q135 0 201.5 94t66.5 284q0 41 -4.5 81t-13.5 79zM49 16l125 127q-60 78 -88.5 161.5t-28.5 178.5q0 236 149 378.5t396 142.5
q90 0 173 -23.5t163 -71.5l129 131l90 -86l-129 -127q62 -74 91.5 -157.5t29.5 -186.5q0 -234 -149.5 -376t-397.5 -142q-99 0 -181.5 23t-156.5 71l-131 -133z" />
    <glyph glyph-name="questiondown" unicode="&#xbf;" horiz-adv-x="1026" 
d="M633 989q2 -30 3 -44.5t1 -24.5q0 -80 -26.5 -144t-92.5 -139q-18 -21 -54 -60q-126 -135 -126 -233q0 -101 71 -165t185 -64q110 0 180 66t74 173q-30 -25 -58 -37t-57 -12q-56 0 -93.5 38t-37.5 95q0 67 50 113.5t122 46.5q89 0 149 -72.5t60 -181.5
q0 -164 -128.5 -271.5t-328.5 -107.5q-212 0 -346.5 104t-134.5 263q0 100 50.5 176.5t201.5 183.5q131 95 168 152.5t37 134.5v10h131zM725 1264q0 -64 -45 -109t-109 -45t-107.5 44.5t-43.5 109.5q0 64 43.5 107.5t107.5 43.5q65 0 109.5 -44t44.5 -107z" />
    <glyph glyph-name="exclamdown" unicode="&#xa1;" horiz-adv-x="639" 
d="M385 987q18 -253 51 -535t33 -319q0 -88 -36.5 -129t-115.5 -41q-78 0 -114.5 41.5t-36.5 130.5q0 36 35.5 317.5t56.5 534.5h127zM475 1264q0 -64 -45 -109t-108 -45q-65 0 -108.5 44.5t-43.5 109.5q0 64 43.5 107.5t108.5 43.5q64 0 108.5 -44t44.5 -107z" />
    <glyph glyph-name="logicalnot" unicode="&#xac;" horiz-adv-x="1706" 
d="M1452 862v-502h-166v336h-1032v166h1198z" />
    <glyph glyph-name="radical" unicode="&#x221a;" horiz-adv-x="1323" 
d="M1325 1675v-110h-108l-594 -1606h-82l-316 872l-131 -49l-28 95l305 108l247 -688l510 1378h197z" />
    <glyph glyph-name="florin" unicode="&#x192;" horiz-adv-x="1280" 
d="M504 621h-266v129h286q29 263 134.5 397.5t283.5 134.5q109 0 176.5 -53t67.5 -137q0 -66 -38 -107t-97 -41q-57 0 -92 32.5t-35 86.5q0 35 13.5 61.5t41.5 46.5q-13 5 -25.5 7t-25.5 2q-63 0 -99 -61.5t-51 -194.5l-18 -174h280v-129h-292l-41 -359
q-46 -405 -143 -554.5t-294 -149.5q-110 0 -178.5 53.5t-68.5 138.5q0 63 40.5 104.5t102.5 41.5q54 0 88.5 -33.5t34.5 -85.5q0 -33 -18 -59.5t-53 -46.5q17 -8 32 -11.5t29 -3.5q59 0 93 59.5t50 196.5z" />
    <glyph glyph-name="approxequal" unicode="&#x2248;" horiz-adv-x="1706" 
d="M1530 406q-107 -73 -200 -106.5t-189 -33.5q-89 0 -279.5 66.5t-298.5 66.5q-84 0 -173.5 -36t-211.5 -121v184q112 75 206.5 110t180.5 35q118 0 309 -67.5t277 -67.5q83 0 172 36.5t207 119.5v-186zM1530 795q-109 -75 -201.5 -108.5t-187.5 -33.5q-88 0 -278.5 67.5
t-299.5 67.5q-82 0 -170 -35t-215 -122v184q109 73 205 109.5t182 36.5q120 0 310 -68t268 -68q92 0 181 35t206 119v-184z" />
    <glyph glyph-name="Delta" unicode="&#x2206;" horiz-adv-x="1350" 
d="M958 250l-380 899l-385 -899h765zM705 1497l641 -1497h-1340l651 1497h48z" />
    <glyph glyph-name="guillemotleft" unicode="&#xab;" horiz-adv-x="995" 
d="M719 147l-82 119q-53 77 -81 134t-28 89q0 33 28.5 91.5t80.5 134.5l82 116h147l-57 -139q-28 -65 -43.5 -120.5t-15.5 -82.5t15.5 -82t43.5 -120l57 -140h-147zM317 147l-81 119q-53 77 -81 134t-28 89q0 33 28 91.5t81 134.5l81 116h148l-59 -139q-28 -65 -44 -120.5
t-16 -82.5t16 -82t44 -120l59 -140h-148z" />
    <glyph glyph-name="guillemotright" unicode="&#xbb;" horiz-adv-x="995" 
d="M676 147h-148l58 140q28 68 44.5 122.5t16.5 79.5q0 26 -16.5 80.5t-44.5 122.5l-58 139h148l82 -116q52 -76 80 -134.5t28 -91.5q0 -32 -27.5 -89t-80.5 -134zM274 147h-147l57 140q28 65 44 120t16 82t-16 82.5t-44 120.5l-57 139h147l80 -116q54 -78 82.5 -136
t28.5 -90q0 -31 -28 -87.5t-83 -135.5z" />
    <glyph glyph-name="ellipsis" unicode="&#x2026;" horiz-adv-x="2048" 
d="M189 117q0 63 44.5 107t108.5 44q65 0 108.5 -43.5t43.5 -107.5q0 -65 -43.5 -108.5t-108.5 -43.5q-64 0 -108.5 44t-44.5 108zM871 117q0 63 44.5 107t108.5 44q65 0 108.5 -43.5t43.5 -107.5q0 -65 -43.5 -108.5t-108.5 -43.5q-64 0 -108.5 44t-44.5 108zM1555 117
q0 63 44.5 107t108.5 44q65 0 108.5 -43.5t43.5 -107.5q0 -65 -43.5 -108.5t-108.5 -43.5q-64 0 -108.5 44t-44.5 108z" />
    <glyph glyph-name="nonbreakingspace" unicode="&#xa0;" horiz-adv-x="1280" 
 />
    <glyph glyph-name="Agrave" unicode="&#xc0;" horiz-adv-x="1475" 
d="M866 600l-178 475l-162 -475h340zM-29 0v156h43q78 0 116.5 27.5t66.5 105.5l383 1085h288l410 -1085q35 -95 64.5 -114t101.5 -19h41v-156h-711v156h111q67 0 90.5 11.5t23.5 41.5q0 11 -3.5 25t-14.5 42l-59 162h-453l-59 -173q-2 -7 -7 -21q-10 -29 -10 -41
q0 -27 19.5 -37t91.5 -10h106v-156h-639zM950 1526h-115l-325 162q-56 28 -80.5 56.5t-24.5 64.5q0 45 32 76.5t79 31.5q35 0 70.5 -21.5t84.5 -74.5z" />
    <glyph glyph-name="Atilde" unicode="&#xc3;" horiz-adv-x="1475" 
d="M866 600l-178 475l-162 -475h340zM-29 0v156h43q78 0 116.5 27.5t66.5 105.5l383 1085h288l410 -1085q35 -95 64.5 -114t101.5 -19h41v-156h-711v156h111q67 0 90.5 11.5t23.5 41.5q0 11 -3.5 25t-14.5 42l-59 162h-453l-59 -173q-2 -7 -7 -21q-10 -29 -10 -41
q0 -27 19.5 -37t91.5 -10h106v-156h-639zM493 1557h-84q27 134 83.5 199t148.5 65q22 0 40.5 -2.5t36.5 -7.5l121 -31q5 -1 11 -2q25 -6 34 -6q38 0 60 21.5t37 70.5h82q-26 -130 -84 -198t-144 -68q-15 0 -31.5 2.5t-37.5 7.5l-117 33q-24 6 -36.5 8t-20.5 2
q-40 0 -64.5 -23.5t-34.5 -70.5z" />
    <glyph glyph-name="Otilde" unicode="&#xd5;" horiz-adv-x="1661" 
d="M397 688q0 -266 115 -414.5t319 -148.5t318.5 148t114.5 415q0 266 -114 413.5t-319 147.5q-204 0 -319 -147.5t-115 -413.5zM74 688q0 326 208.5 525.5t548.5 199.5q341 0 548.5 -199.5t207.5 -525.5q0 -327 -208 -527t-548 -200t-548.5 200.5t-208.5 526.5zM587 1557
h-84q27 134 83.5 199t148.5 65q22 0 40.5 -2.5t36.5 -7.5l121 -31q5 -1 11 -2q25 -6 34 -6q38 0 60 21.5t37 70.5h82q-26 -130 -84 -198t-144 -68q-15 0 -31.5 2.5t-37.5 7.5l-117 33q-24 6 -36.5 8t-20.5 2q-40 0 -64.5 -23.5t-34.5 -70.5z" />
    <glyph glyph-name="OE" unicode="&#x152;" horiz-adv-x="2548" 
d="M1264 283v809q0 48 -5 70t-16 34q-21 23 -112 42t-203 19q-269 0 -400 -140t-131 -429t131 -430t400 -141q91 0 172.5 14t126.5 35q20 10 28.5 33.5t8.5 83.5zM1491 0q-97 0 -310 -19.5t-329 -19.5q-353 0 -565.5 199t-212.5 528t212.5 527t565.5 198q116 0 329 -19.5
t310 -19.5h909v-547h-155q-6 235 -77 313.5t-286 78.5h-328v-422h76q129 0 169.5 45t49.5 204l156 1v-689l-156 1q-9 177 -49 228.5t-168 51.5h-78v-483h359q179 0 246.5 83.5t85.5 342.5h155v-582h-909z" />
    <glyph glyph-name="oe" unicode="&#x153;" horiz-adv-x="1882" 
d="M1548 608q-11 140 -56.5 199t-141.5 59q-97 0 -147 -61t-64 -197h409zM336 483q0 -187 66.5 -280.5t199.5 -93.5q134 0 201 93.5t67 280.5q0 188 -67 281.5t-201 93.5q-133 0 -199.5 -93.5t-66.5 -281.5zM997 137q-72 -86 -173 -129t-230 -43q-240 0 -388.5 143.5
t-148.5 374.5t148.5 376t384.5 145q113 0 213.5 -37t193.5 -111q81 76 171.5 112t203.5 36q215 0 331 -140.5t116 -400.5h-691v-6q0 -159 67.5 -245.5t188.5 -86.5q108 0 171.5 55t84.5 166h172q-26 -183 -138.5 -282t-295.5 -99q-119 0 -215.5 43.5t-165.5 128.5z" />
    <glyph glyph-name="endash" unicode="&#x2013;" 
d="M0 403v172h1024v-172h-1024z" />
    <glyph glyph-name="emdash" unicode="&#x2014;" horiz-adv-x="2048" 
d="M0 403v172h2048v-172h-2048z" />
    <glyph glyph-name="quotedblleft" unicode="&#x201c;" horiz-adv-x="979" 
d="M430 1415v-90q-95 -24 -144 -83.5t-50 -149.5q23 15 45 22.5t45 7.5q53 0 86.5 -35t33.5 -92q0 -65 -41.5 -104t-111.5 -39q-85 0 -139 59.5t-54 155.5q0 137 88.5 230.5t241.5 117.5zM915 1415v-90q-94 -24 -143 -83t-51 -150q23 15 45 22.5t45 7.5q54 0 87.5 -35
t33.5 -92q0 -65 -42 -104t-112 -39q-85 0 -138.5 59.5t-53.5 155.5q0 137 88 230.5t241 117.5z" />
    <glyph glyph-name="quotedblright" unicode="&#x201d;" horiz-adv-x="979" 
d="M70 852v90q95 25 143.5 82.5t50.5 148.5q-23 -15 -45 -22.5t-45 -7.5q-54 0 -87.5 35t-33.5 92q0 65 42 105t112 40q85 0 138.5 -60.5t53.5 -156.5q0 -136 -88 -229t-241 -117zM555 852v90q95 25 144 83t50 148q-23 -15 -45 -22.5t-45 -7.5q-53 0 -86.5 35t-33.5 92
q0 65 42 105t111 40q85 0 139 -60.5t54 -156.5q0 -136 -88 -229t-242 -117z" />
    <glyph glyph-name="quoteleft" unicode="&#x2018;" horiz-adv-x="494" 
d="M430 1415v-90q-95 -24 -144 -83.5t-50 -149.5q23 15 45 22.5t45 7.5q53 0 86.5 -35t33.5 -92q0 -65 -41.5 -104t-111.5 -39q-85 0 -139 59.5t-54 155.5q0 137 88.5 230.5t241.5 117.5z" />
    <glyph glyph-name="quoteright" unicode="&#x2019;" horiz-adv-x="494" 
d="M70 852v90q95 25 143.5 82.5t50.5 148.5q-23 -15 -45 -22.5t-45 -7.5q-54 0 -87.5 35t-33.5 92q0 65 42 105t112 40q85 0 138.5 -60.5t53.5 -156.5q0 -136 -88 -229t-241 -117z" />
    <glyph glyph-name="divide" unicode="&#xf7;" horiz-adv-x="1706" 
d="M854 367q57 0 97 -40.5t40 -97.5q0 -56 -39.5 -95.5t-97.5 -39.5t-97.5 39t-39.5 96t40.5 97.5t96.5 40.5zM1452 694v-166h-1198v166h1198zM854 1128q57 0 97 -41t40 -98q0 -56 -39.5 -95.5t-97.5 -39.5t-97.5 39t-39.5 96t40.5 98t96.5 41z" />
    <glyph glyph-name="lozenge" unicode="&#x25ca;" horiz-adv-x="1012" 
d="M506 1409l-385 -817l385 -825l385 825zM506 1653l500 -1061l-500 -1069l-500 1069z" />
    <glyph glyph-name="ydieresis" unicode="&#xff;" horiz-adv-x="1196" 
d="M524 0l-315 705q-30 68 -65.5 96t-88.5 28h-61v138h594v-138h-72q-35 0 -52.5 -12t-17.5 -37q1 -12 3.5 -23t7.5 -22l190 -446l168 428q8 21 11 34.5t3 24.5q0 30 -19.5 41.5t-70.5 11.5h-55v138h494v-138h-45q-49 0 -85.5 -35t-66.5 -110l-227 -569
q-136 -339 -235.5 -447t-242.5 -108q-124 0 -205 73.5t-81 184.5q0 80 46.5 131t121.5 51q62 0 101.5 -38t39.5 -97q0 -58 -36 -90.5t-101 -32.5h-12q20 -25 45 -37t57 -12q82 0 145 70.5t127 236.5zM649 1298q0 58 43 101t101 43q59 0 101 -42.5t42 -101.5
q0 -62 -40.5 -102.5t-102.5 -40.5q-61 0 -102.5 41.5t-41.5 101.5zM258 1298q0 58 43.5 101t101.5 43q59 0 100.5 -42t41.5 -102q0 -62 -40 -102.5t-102 -40.5q-60 0 -102.5 41.5t-42.5 101.5z" />
    <glyph glyph-name="Ydieresis" unicode="&#x178;" horiz-adv-x="1501" 
d="M895 283q0 -83 22.5 -105t114.5 -22h119v-156h-799v156h119q91 0 113 21.5t22 105.5v292l-340 502q-54 80 -98 111t-100 31h-68v155h727v-155h-100q-47 0 -68.5 -10.5t-21.5 -32.5q0 -14 7 -30.5t21 -37.5l232 -322l245 334q15 21 21 34.5t6 27.5q0 18 -19 27.5t-55 9.5
h-121v155h637v-155h-47q-54 0 -87.5 -18.5t-71.5 -72.5l-410 -553v-292zM803 1710q0 58 43 101t101 43q59 0 101 -42.5t42 -101.5q0 -62 -40.5 -102.5t-102.5 -40.5q-61 0 -102.5 41.5t-41.5 101.5zM412 1710q0 58 43.5 101t101.5 43q59 0 100.5 -42t41.5 -102
q0 -62 -40 -102.5t-102 -40.5q-60 0 -102.5 41.5t-42.5 101.5z" />
    <glyph glyph-name="fraction" unicode="&#x2215;" horiz-adv-x="342" 
d="M-342 -35l862 1317h162l-868 -1317h-156z" />
    <glyph glyph-name="currency" unicode="&#xa4;" horiz-adv-x="1280" 
d="M1233 453q-12 -230 -145 -359t-365 -129q-204 0 -350.5 127.5t-192.5 345.5h-184l35 119h132q0 12 -0.5 25t-0.5 41t4 81v5h-170l35 118h153q49 210 193.5 332.5t343.5 122.5q101 0 187 -34.5t141 -96.5l41 96h131v-424h-144q-28 144 -115 221.5t-214 77.5
q-111 0 -181 -73.5t-98 -221.5h471l-35 -118h-450l-1 -5q-3 -53 -3 -81v-40.5t2 -25.5h405l-35 -119h-358q27 -153 101.5 -233t189.5 -80q142 0 224 83.5t99 244.5h154z" />
    <glyph glyph-name="guilsinglleft" unicode="&#x2039;" horiz-adv-x="592" 
d="M317 147l-81 119q-53 77 -81 134t-28 89q0 33 28 91.5t81 134.5l81 116h148l-57 -139q-29 -68 -45.5 -122.5t-16.5 -80.5q0 -25 16.5 -79.5t45.5 -122.5l57 -140h-148z" />
    <glyph glyph-name="guilsinglright" unicode="&#x203a;" horiz-adv-x="592" 
d="M274 147h-147l57 140q28 65 44 120t16 82t-16 82.5t-44 120.5l-57 139h147l82 -116q53 -76 81 -134.5t28 -91.5q0 -32 -28 -89t-81 -134z" />
    <glyph glyph-name="fi" unicode="&#xf001;" horiz-adv-x="1341" 
d="M479 965h649v-705q0 -79 23.5 -101t93.5 -22h82v-137h-604v137h41q70 0 93.5 22t23.5 101v438q0 80 -23.5 101.5t-93.5 21.5h-285v-561q0 -79 23.5 -101t93.5 -22h41v-137h-604v137h82q70 0 93 22t23 101v561h-198v144h198v32q0 222 112 318t368 96q188 0 295.5 -61
t107.5 -166q0 -65 -37.5 -101t-103.5 -36t-106 31.5t-40 82.5q0 28 9.5 50t29.5 42q-33 17 -68.5 25t-74.5 8q-130 0 -187 -62t-57 -204v-55z" />
    <glyph glyph-name="fi" unicode="&#xfb01;" horiz-adv-x="1341" 
d="M479 965h649v-705q0 -79 23.5 -101t93.5 -22h82v-137h-604v137h41q70 0 93.5 22t23.5 101v438q0 80 -23.5 101.5t-93.5 21.5h-285v-561q0 -79 23.5 -101t93.5 -22h41v-137h-604v137h82q70 0 93 22t23 101v561h-198v144h198v32q0 222 112 318t368 96q188 0 295.5 -61
t107.5 -166q0 -65 -37.5 -101t-103.5 -36t-106 31.5t-40 82.5q0 28 9.5 50t29.5 42q-33 17 -68.5 25t-74.5 8q-130 0 -187 -62t-57 -204v-55z" />
    <glyph glyph-name="fl" unicode="&#xf002;" horiz-adv-x="1341" 
d="M47 0v137h68q70 0 93 22t23 101v561h-184v144h184v32q0 218 110 316t353 98q68 0 138.5 -9t146.5 -28h149v-1114q0 -79 23.5 -101t93.5 -22h58v-137h-580v137h41q70 0 93.5 22t23.5 101v809q-28 20 -41 42t-13 50t9.5 50t29.5 42q-29 16 -65.5 23.5t-81.5 7.5
q-128 0 -184 -61t-56 -203v-55h277v-144h-277v-561q0 -79 23.5 -101t93.5 -22h41v-137h-590z" />
    <glyph glyph-name="fl" unicode="&#xfb02;" horiz-adv-x="1341" 
d="M47 0v137h68q70 0 93 22t23 101v561h-184v144h184v32q0 218 110 316t353 98q68 0 138.5 -9t146.5 -28h149v-1114q0 -79 23.5 -101t93.5 -22h58v-137h-580v137h41q70 0 93.5 22t23.5 101v809q-28 20 -41 42t-13 50t9.5 50t29.5 42q-29 16 -65.5 23.5t-81.5 7.5
q-128 0 -184 -61t-56 -203v-55h277v-144h-277v-561q0 -79 23.5 -101t93.5 -22h41v-137h-590z" />
    <glyph glyph-name="daggerdbl" unicode="&#x2021;" horiz-adv-x="1214" 
d="M477 487q38 89 56 168.5t18 153.5v12q-60 -7 -168 -38t-162 -31q-57 0 -89 28.5t-32 79.5q0 50 32 78.5t89 28.5q54 0 162 -30.5t168 -36.5q-4 103 -37 231t-33 157q0 61 32.5 94t92.5 33t92.5 -33t32.5 -94q0 -29 -32 -157.5t-35 -231.5q59 7 167.5 37.5t161.5 30.5
q57 0 89 -28.5t32 -78.5q0 -51 -32 -79.5t-89 -28.5q-53 0 -162 31.5t-167 37.5q1 -84 19 -166.5t54 -167.5q-37 -87 -55 -167.5t-18 -153.5v-12q58 6 167 36.5t162 30.5q57 0 89 -28t32 -78q0 -51 -32 -79t-89 -28q-53 0 -161.5 30.5t-167.5 37.5q3 -103 35 -231.5
t32 -157.5q0 -62 -32.5 -95.5t-92.5 -33.5q-59 0 -92 33.5t-33 95.5q0 29 33 157t37 231q-59 -6 -167.5 -36.5t-162.5 -30.5q-57 0 -89 28t-32 79q0 50 32 78t89 28q54 0 162.5 -30.5t167.5 -36.5q0 78 -18.5 161t-55.5 172z" />
    <glyph glyph-name="periodcentered" unicode="&#xb7;" horiz-adv-x="639" 
d="M166 725q0 63 44.5 107.5t108.5 44.5q65 0 108.5 -43.5t43.5 -108.5t-43.5 -109.5t-108.5 -44.5q-63 0 -108 45t-45 109z" />
    <glyph glyph-name="quotesinglbase" unicode="&#x201a;" horiz-adv-x="494" 
d="M70 -295v90q94 25 143 83.5t51 149.5q-25 -16 -47 -24t-43 -8q-53 0 -87 36t-34 93q0 65 42 104t112 39q85 0 138.5 -59.5t53.5 -155.5q0 -137 -88 -230.5t-241 -117.5z" />
    <glyph glyph-name="quotedblbase" unicode="&#x201e;" horiz-adv-x="979" 
d="M70 -295v90q94 25 143 83.5t51 149.5q-26 -17 -46.5 -24.5t-41.5 -7.5q-54 0 -88.5 36t-34.5 93q0 65 43 104t113 39q85 0 138.5 -59.5t53.5 -155.5q0 -136 -89 -230t-242 -118zM555 -295v90q95 25 144 84t50 149q-25 -16 -46.5 -24t-43.5 -8q-53 0 -86.5 36t-33.5 93
q0 65 41.5 104t111.5 39q85 0 139 -59.5t54 -155.5q0 -137 -88.5 -230.5t-241.5 -117.5z" />
    <glyph glyph-name="perthousand" unicode="&#x2030;" horiz-adv-x="2871" 
d="M2023 358q0 175 110 285.5t284 110.5q173 0 282 -110t109 -286q0 -175 -109 -284t-282 -109q-175 0 -284.5 109.5t-109.5 283.5zM2253 358q0 -135 39 -199.5t123 -64.5q85 0 124 63.5t39 200.5t-39.5 201t-123.5 64q-83 0 -122.5 -65t-39.5 -200zM1356 358
q0 -135 39 -199.5t123 -64.5t122.5 63t38.5 201t-39 201.5t-122 63.5t-122.5 -65t-39.5 -200zM1126 358q0 176 109 286t283 110q173 0 283 -110.5t110 -285.5q0 -174 -109.5 -283.5t-283.5 -109.5t-283 109t-109 284zM1452 1282l-768 -1317h-166l770 1317h164zM293 887
q0 -136 39 -199t123 -63q85 0 124 62.5t39 199.5t-39.5 201.5t-123.5 64.5q-82 0 -122 -65.5t-40 -200.5zM63 887q0 175 109 285t283 110q173 0 283 -110t110 -285t-109.5 -284t-283.5 -109t-283 109t-109 284z" />
    <glyph glyph-name="Acircumflex" unicode="&#xc2;" horiz-adv-x="1475" 
d="M866 600l-178 475l-162 -475h340zM-29 0v156h43q78 0 116.5 27.5t66.5 105.5l383 1085h288l410 -1085q35 -95 64.5 -114t101.5 -19h41v-156h-711v156h111q67 0 90.5 11.5t23.5 41.5q0 11 -3.5 25t-14.5 42l-59 162h-453l-59 -173q-2 -7 -7 -21q-10 -29 -10 -41
q0 -27 19.5 -37t91.5 -10h106v-156h-639zM415 1526l230 371h184l230 -371h-101l-221 170l-221 -170h-101z" />
    <glyph glyph-name="Ecircumflex" unicode="&#xca;" horiz-adv-x="1546" 
d="M47 0v156h80q91 0 113 21.5t22 105.5v809q0 84 -22 105.5t-113 21.5h-80v155h1352v-547h-156q-6 235 -76.5 313.5t-285.5 78.5h-330v-422h78q129 0 169 44.5t50 204.5l156 1v-689l-156 1q-9 177 -49 228.5t-168 51.5h-80v-483h360q180 0 247 83.5t85 342.5h156v-582
h-1352zM442 1526l230 371h184l230 -371h-101l-221 170l-221 -170h-101z" />
    <glyph glyph-name="Aacute" unicode="&#xc1;" horiz-adv-x="1475" 
d="M866 600l-178 475l-162 -475h340zM-29 0v156h43q78 0 116.5 27.5t66.5 105.5l383 1085h288l410 -1085q35 -95 64.5 -114t101.5 -19h41v-156h-711v156h111q67 0 90.5 11.5t23.5 41.5q0 11 -3.5 25t-14.5 42l-59 162h-453l-59 -173q-2 -7 -7 -21q-10 -29 -10 -41
q0 -27 19.5 -37t91.5 -10h106v-156h-639zM524 1526l279 295q49 53 84.5 74.5t70.5 21.5q47 0 79 -31.5t32 -76.5q0 -36 -24.5 -64.5t-80.5 -56.5l-325 -162h-115z" />
    <glyph glyph-name="Edieresis" unicode="&#xcb;" horiz-adv-x="1546" 
d="M47 0v156h80q91 0 113 21.5t22 105.5v809q0 84 -22 105.5t-113 21.5h-80v155h1352v-547h-156q-6 235 -76.5 313.5t-285.5 78.5h-330v-422h78q129 0 169 44.5t50 204.5l156 1v-689l-156 1q-9 177 -49 228.5t-168 51.5h-80v-483h360q180 0 247 83.5t85 342.5h156v-582
h-1352zM815 1710q0 58 43 101t101 43q59 0 101 -42.5t42 -101.5q0 -62 -40.5 -102.5t-102.5 -40.5q-61 0 -102.5 41.5t-41.5 101.5zM424 1710q0 58 43.5 101t101.5 43q59 0 100.5 -42t41.5 -102q0 -62 -40 -102.5t-102 -40.5q-60 0 -102.5 41.5t-42.5 101.5z" />
    <glyph glyph-name="Egrave" unicode="&#xc8;" horiz-adv-x="1546" 
d="M47 0v156h80q91 0 113 21.5t22 105.5v809q0 84 -22 105.5t-113 21.5h-80v155h1352v-547h-156q-6 235 -76.5 313.5t-285.5 78.5h-330v-422h78q129 0 169 44.5t50 204.5l156 1v-689l-156 1q-9 177 -49 228.5t-168 51.5h-80v-483h360q180 0 247 83.5t85 342.5h156v-582
h-1352zM977 1526h-115l-325 162q-56 28 -80.5 56.5t-24.5 64.5q0 45 32 76.5t79 31.5q35 0 70.5 -21.5t84.5 -74.5z" />
    <glyph glyph-name="Iacute" unicode="&#xcd;" horiz-adv-x="844" 
d="M51 0v156h88q91 0 113 21.5t22 105.5v809q0 84 -22 105.5t-113 21.5h-88v155h742v-155h-88q-92 0 -114 -21.5t-22 -105.5v-809q0 -84 22 -105.5t114 -21.5h88v-156h-742zM209 1526l279 295q49 53 84.5 74.5t70.5 21.5q47 0 79 -31.5t32 -76.5q0 -36 -24.5 -64.5
t-80.5 -56.5l-325 -162h-115z" />
    <glyph glyph-name="Icircumflex" unicode="&#xce;" horiz-adv-x="844" 
d="M51 0v156h88q91 0 113 21.5t22 105.5v809q0 84 -22 105.5t-113 21.5h-88v155h742v-155h-88q-92 0 -114 -21.5t-22 -105.5v-809q0 -84 22 -105.5t114 -21.5h88v-156h-742zM100 1526l230 371h184l230 -371h-101l-221 170l-221 -170h-101z" />
    <glyph glyph-name="Idieresis" unicode="&#xcf;" horiz-adv-x="844" 
d="M51 0v156h88q91 0 113 21.5t22 105.5v809q0 84 -22 105.5t-113 21.5h-88v155h742v-155h-88q-92 0 -114 -21.5t-22 -105.5v-809q0 -84 22 -105.5t114 -21.5h88v-156h-742zM473 1710q0 58 43 101t101 43q59 0 101 -42.5t42 -101.5q0 -62 -40.5 -102.5t-102.5 -40.5
q-61 0 -102.5 41.5t-41.5 101.5zM82 1710q0 58 43.5 101t101.5 43q59 0 100.5 -42t41.5 -102q0 -62 -40 -102.5t-102 -40.5q-60 0 -102.5 41.5t-42.5 101.5z" />
    <glyph glyph-name="Igrave" unicode="&#xcc;" horiz-adv-x="844" 
d="M51 0v156h88q91 0 113 21.5t22 105.5v809q0 84 -22 105.5t-113 21.5h-88v155h742v-155h-88q-92 0 -114 -21.5t-22 -105.5v-809q0 -84 22 -105.5t114 -21.5h88v-156h-742zM635 1526h-115l-325 162q-56 28 -80.5 56.5t-24.5 64.5q0 45 32 76.5t79 31.5q35 0 70.5 -21.5
t84.5 -74.5z" />
    <glyph glyph-name="Oacute" unicode="&#xd3;" horiz-adv-x="1661" 
d="M397 688q0 -266 115 -414.5t319 -148.5t318.5 148t114.5 415q0 266 -114 413.5t-319 147.5q-204 0 -319 -147.5t-115 -413.5zM74 688q0 326 208.5 525.5t548.5 199.5q341 0 548.5 -199.5t207.5 -525.5q0 -327 -208 -527t-548 -200t-548.5 200.5t-208.5 526.5zM618 1526
l279 295q49 53 84.5 74.5t70.5 21.5q47 0 79 -31.5t32 -76.5q0 -36 -24.5 -64.5t-80.5 -56.5l-325 -162h-115z" />
    <glyph glyph-name="Ocircumflex" unicode="&#xd4;" horiz-adv-x="1661" 
d="M397 688q0 -266 115 -414.5t319 -148.5t318.5 148t114.5 415q0 266 -114 413.5t-319 147.5q-204 0 -319 -147.5t-115 -413.5zM74 688q0 326 208.5 525.5t548.5 199.5q341 0 548.5 -199.5t207.5 -525.5q0 -327 -208 -527t-548 -200t-548.5 200.5t-208.5 526.5zM509 1526
l230 371h184l230 -371h-101l-221 170l-221 -170h-101z" />
    <glyph glyph-name="apple" unicode="&#xf000;" horiz-adv-x="1618" 
d="M836 1216q-1 6 -1.5 14t-0.5 23q0 124 95 229.5t236 131.5q1 -10 1.5 -23t0.5 -39q0 -131 -103.5 -234.5t-203.5 -103.5h-8q-3 0 -7.5 1t-8.5 1zM1505 403q-114 -247 -205 -342.5t-204 -95.5q-50 0 -131.5 33t-122.5 33q-45 0 -131 -33t-127 -33q-64 0 -128.5 44
t-129.5 132q-102 140 -157.5 295.5t-55.5 300.5q0 219 125 356.5t323 137.5q68 0 155 -34t124 -34q34 0 121.5 35t152.5 35q110 0 198 -40t161 -124q-102 -65 -151.5 -145.5t-49.5 -182.5q0 -113 60 -200t173 -138z" />
    <glyph glyph-name="Ograve" unicode="&#xd2;" horiz-adv-x="1661" 
d="M397 688q0 -266 115 -414.5t319 -148.5t318.5 148t114.5 415q0 266 -114 413.5t-319 147.5q-204 0 -319 -147.5t-115 -413.5zM74 688q0 326 208.5 525.5t548.5 199.5q341 0 548.5 -199.5t207.5 -525.5q0 -327 -208 -527t-548 -200t-548.5 200.5t-208.5 526.5zM1044 1526
h-115l-325 162q-56 28 -80.5 56.5t-24.5 64.5q0 45 32 76.5t79 31.5q35 0 70.5 -21.5t84.5 -74.5z" />
    <glyph glyph-name="Uacute" unicode="&#xda;" horiz-adv-x="1565" 
d="M244 1092q0 84 -22 105.5t-113 21.5h-66v155h715v-155h-88q-93 0 -115.5 -22t-22.5 -105v-658q0 -144 67 -208t216 -64q141 0 213 68.5t72 203.5v658q0 84 -22 105.5t-113 21.5h-80v155h637v-155h-64q-91 0 -113 -21.5t-22 -105.5v-658q0 -232 -139 -353.5t-404 -121.5
q-263 0 -399.5 121t-136.5 354v658zM621 1526l279 295q49 53 84.5 74.5t70.5 21.5q47 0 79 -31.5t32 -76.5q0 -36 -24.5 -64.5t-80.5 -56.5l-325 -162h-115z" />
    <glyph glyph-name="Ucircumflex" unicode="&#xdb;" horiz-adv-x="1565" 
d="M244 1092q0 84 -22 105.5t-113 21.5h-66v155h715v-155h-88q-93 0 -115.5 -22t-22.5 -105v-658q0 -144 67 -208t216 -64q141 0 213 68.5t72 203.5v658q0 84 -22 105.5t-113 21.5h-80v155h637v-155h-64q-91 0 -113 -21.5t-22 -105.5v-658q0 -232 -139 -353.5t-404 -121.5
q-263 0 -399.5 121t-136.5 354v658zM512 1526l230 371h184l230 -371h-101l-221 170l-221 -170h-101z" />
    <glyph glyph-name="Ugrave" unicode="&#xd9;" horiz-adv-x="1565" 
d="M244 1092q0 84 -22 105.5t-113 21.5h-66v155h715v-155h-88q-93 0 -115.5 -22t-22.5 -105v-658q0 -144 67 -208t216 -64q141 0 213 68.5t72 203.5v658q0 84 -22 105.5t-113 21.5h-80v155h637v-155h-64q-91 0 -113 -21.5t-22 -105.5v-658q0 -232 -139 -353.5t-404 -121.5
q-263 0 -399.5 121t-136.5 354v658zM1047 1526h-115l-325 162q-56 28 -80.5 56.5t-24.5 64.5q0 45 32 76.5t79 31.5q35 0 70.5 -21.5t84.5 -74.5z" />
    <glyph glyph-name="dotlessi" unicode="&#x131;" horiz-adv-x="721" 
d="M51 0v137h76q70 0 93.5 22t23.5 101v447q0 79 -23.5 100.5t-93.5 21.5h-76v138h443v-707q0 -78 23.5 -100.5t94.5 -22.5h62v-137h-623z" />
    <glyph glyph-name="circumflex" unicode="&#x2c6;" 
d="M190 1114l230 371h184l230 -371h-101l-221 170l-221 -170h-101z" />
    <glyph glyph-name="tilde" unicode="&#x2dc;" 
d="M268 1145h-84q27 134 83.5 199t148.5 65q22 0 40.5 -2.5t36.5 -7.5l121 -31q5 -1 11 -2q25 -6 34 -6q38 0 60 21.5t37 70.5h82q-26 -130 -84 -198t-144 -68q-15 0 -31.5 2.5t-37.5 7.5l-117 33q-24 6 -36.5 8t-20.5 2q-40 0 -64.5 -23.5t-34.5 -70.5z" />
    <glyph glyph-name="macron" unicode="&#xaf;" 
d="M205 1214v168h614v-168h-614z" />
    <glyph glyph-name="breve" unicode="&#x2d8;" 
d="M184 1452h95q19 -66 72.5 -94.5t160.5 -28.5q106 0 160 29t71 94h95q-22 -148 -106 -227.5t-220 -79.5t-220.5 79t-107.5 228z" />
    <glyph glyph-name="dotaccent" unicode="&#x2d9;" 
d="M365 1298q0 59 44.5 104.5t102.5 45.5q62 0 106 -44t44 -106q0 -64 -42.5 -106.5t-107.5 -42.5q-60 0 -103.5 44t-43.5 105z" />
    <glyph glyph-name="ring" unicode="&#x2da;" 
d="M379 1360q0 -57 38 -95t95 -38t96 38t39 95t-39 96t-96 39q-56 0 -94.5 -39.5t-38.5 -95.5zM248 1360q0 111 76.5 188.5t187.5 77.5q112 0 189 -77.5t77 -188.5q0 -112 -77 -189t-189 -77t-188 76.5t-76 189.5z" />
    <glyph glyph-name="cedilla" unicode="&#xb8;" 
d="M209 -379l47 103q67 -39 128 -58.5t116 -19.5q35 0 57.5 21t22.5 54q0 40 -24 61t-69 21q-14 0 -29.5 -2t-31.5 -6v203h88v-114q18 2 35 3.5t33 1.5q86 0 135 -45t49 -125q0 -84 -59 -136t-156 -52q-68 0 -144 19.5t-198 70.5z" />
    <glyph glyph-name="hungarumlaut" unicode="&#x2dd;" 
d="M553 1114l223 287q49 63 78 82.5t64 19.5q41 0 68.5 -27t27.5 -67q0 -28 -20.5 -55.5t-59.5 -53.5l-291 -186h-90zM281 1114l147 270q39 73 67.5 97t67.5 24q40 0 66 -25.5t26 -64.5q0 -25 -14.5 -50t-44.5 -52l-225 -199h-90z" />
    <glyph glyph-name="ogonek" unicode="&#x2db;" 
d="M676 31q-87 -71 -126.5 -135t-39.5 -132q0 -48 22.5 -75t63.5 -27q34 0 58.5 15.5t52.5 54.5l34 -21q-41 -89 -100.5 -133.5t-136.5 -44.5q-79 0 -125.5 41t-46.5 111q0 88 70 173t216 173h58z" />
    <glyph glyph-name="caron" unicode="&#x2c7;" 
d="M190 1483h101l221 -170l221 170h101l-230 -369h-184z" />
    <glyph glyph-name="Lslash" unicode="&#x141;" horiz-adv-x="1430" 
d="M57 1374h736v-155h-97q-91 0 -113 -21.5t-22 -105.5v-312l357 250v-168l-357 -248v-458h254q138 0 206.5 23.5t98.5 78.5q30 53 44 129t14 182v25h155v-594h-1276v156h80q91 0 113 21.5t22 105.5v204l-262 -184v166l262 184v439q0 84 -22 105.5t-113 21.5h-80v155z" />
    <glyph glyph-name="lslash" unicode="&#x142;" horiz-adv-x="717" 
d="M233 582l-223 -150v131l223 150v401q0 78 -23.5 100.5t-94.5 22.5h-64v137h432v-553l236 160v-131l-236 -160v-430q0 -78 24 -100.5t95 -22.5h62v-137h-613v137h64q71 0 94.5 22.5t23.5 100.5v322z" />
    <glyph glyph-name="Scaron" unicode="&#x160;" horiz-adv-x="1319" 
d="M90 0v567h160q33 -205 152 -313.5t309 -108.5q137 0 209.5 46t72.5 133q0 78 -55.5 127t-177.5 77l-223 52q-240 56 -345.5 151.5t-105.5 255.5q0 194 135 311t361 117q112 0 209.5 -34.5t189.5 -106.5l72 100h123v-520h-156q-35 187 -147.5 290t-282.5 103
q-124 0 -192 -46.5t-68 -129.5q0 -70 48 -112t154 -66l277 -64q220 -50 329 -156.5t109 -271.5q0 -195 -143 -318.5t-371 -123.5q-115 0 -228 42t-229 128l-45 -129h-141zM337 1895h101l221 -170l221 170h101l-230 -369h-184z" />
    <glyph glyph-name="scaron" unicode="&#x161;" horiz-adv-x="1018" 
d="M63 -12v395h150q29 -132 113.5 -202t212.5 -70q78 0 125 34.5t47 92.5q0 46 -38 74.5t-134 52.5l-152 36q-159 39 -236 112.5t-77 186.5q0 136 103 220t272 84q80 0 152 -24.5t140 -74.5l45 76h117v-358h-139q-31 111 -110 173t-189 62q-73 0 -114.5 -30.5t-41.5 -84.5
q0 -39 28 -64.5t87 -39.5l186 -43q180 -43 262 -119t82 -198q0 -146 -104 -230t-287 -84q-91 0 -168 25.5t-159 83.5l-37 -86h-136zM188 1483h101l221 -170l221 170h101l-230 -369h-184z" />
    <glyph glyph-name="Zcaron" unicode="&#x17d;" horiz-adv-x="1350" 
d="M86 0v166l821 1053h-233q-155 0 -220.5 -24t-103.5 -83q-31 -51 -46.5 -126t-16.5 -187h-158v575h1118v-176l-813 -1042h219q161 0 242.5 26t116.5 86q32 57 50.5 142.5t27.5 212.5h157v-623h-1161zM354 1895h101l221 -170l221 170h101l-230 -369h-184z" />
    <glyph glyph-name="zcaron" unicode="&#x17e;" horiz-adv-x="1032" 
d="M41 0v150l623 679h-215q-130 0 -175 -58t-47 -232h-145v428h864v-154l-612 -676h178q180 0 231.5 59.5t59.5 264.5h143v-461h-905zM194 1483h101l221 -170l221 170h101l-230 -369h-184z" />
    <glyph glyph-name="brokenbar" unicode="&#xa6;" 
d="M602 408v-758h-178v758h178zM602 1432v-758h-178v758h178z" />
    <glyph glyph-name="Eth" unicode="&#xd0;" horiz-adv-x="1671" 
d="M57 0v156h80q91 0 113 21.5t22 105.5v352h-270v141h270v316q0 84 -22 105.5t-113 21.5h-80v155h781q359 0 544 -174t185 -512t-185 -513t-544 -175h-781zM561 156h178q162 0 243 25t138 85q58 59 90.5 171t32.5 251t-32.5 250t-90.5 170q-57 60 -138 85.5t-243 25.5h-178
v-443h346v-141h-346v-479z" />
    <glyph glyph-name="eth" unicode="&#xf0;" horiz-adv-x="1206" 
d="M602 819q-135 0 -200.5 -88.5t-65.5 -269.5t66 -271t200 -90t201 90.5t67 270.5t-66.5 269t-201.5 89zM461 1434q86 -57 129.5 -87.5t75.5 -54.5l315 150l47 -99l-270 -129q199 -174 295 -354t96 -379q0 -242 -145 -379t-402 -137q-248 0 -396.5 133t-148.5 355
q0 115 40 204.5t122 159.5q67 58 159.5 91.5t184.5 33.5q55 0 103.5 -8t95.5 -25q-29 55 -69 111.5t-93 120.5l-313 -150l-47 101l282 131q-44 44 -78.5 76t-66.5 59z" />
    <glyph glyph-name="Yacute" unicode="&#xdd;" horiz-adv-x="1501" 
d="M895 283q0 -83 22.5 -105t114.5 -22h119v-156h-799v156h119q91 0 113 21.5t22 105.5v292l-340 502q-54 80 -98 111t-100 31h-68v155h727v-155h-100q-47 0 -68.5 -10.5t-21.5 -32.5q0 -14 7 -30.5t21 -37.5l232 -322l245 334q15 21 21 34.5t6 27.5q0 18 -19 27.5t-55 9.5
h-121v155h637v-155h-47q-54 0 -87.5 -18.5t-71.5 -72.5l-410 -553v-292zM539 1526l279 295q49 53 84.5 74.5t70.5 21.5q47 0 79 -31.5t32 -76.5q0 -36 -24.5 -64.5t-80.5 -56.5l-325 -162h-115z" />
    <glyph glyph-name="yacute" unicode="&#xfd;" horiz-adv-x="1196" 
d="M524 0l-315 705q-30 68 -65.5 96t-88.5 28h-61v138h594v-138h-72q-35 0 -52.5 -12t-17.5 -37q1 -12 3.5 -23t7.5 -22l190 -446l168 428q8 21 11 34.5t3 24.5q0 30 -19.5 41.5t-70.5 11.5h-55v138h494v-138h-45q-49 0 -85.5 -35t-66.5 -110l-227 -569
q-136 -339 -235.5 -447t-242.5 -108q-124 0 -205 73.5t-81 184.5q0 80 46.5 131t121.5 51q62 0 101.5 -38t39.5 -97q0 -58 -36 -90.5t-101 -32.5h-12q20 -25 45 -37t57 -12q82 0 145 70.5t127 236.5zM385 1114l279 295q49 53 84.5 74.5t70.5 21.5q47 0 79 -31.5t32 -76.5
q0 -36 -24.5 -64.5t-80.5 -56.5l-325 -162h-115z" />
    <glyph glyph-name="Thorn" unicode="&#xde;" horiz-adv-x="1403" 
d="M551 467h137q189 0 265.5 50.5t76.5 170.5q0 122 -72.5 170.5t-285.5 48.5h-121v-440zM262 1092q0 82 -23 104.5t-112 22.5h-80v155h721v-155h-80q-91 0 -114 -22.5t-23 -104.5v-27h219q153 0 256.5 -18.5t157.5 -55.5q68 -46 107.5 -127.5t39.5 -175.5
q0 -103 -38.5 -180t-116.5 -127q-58 -38 -159.5 -55t-275.5 -17h-190v-26q0 -83 22.5 -105t114.5 -22h80v-156h-721v156h80q91 0 113 22t22 105v809z" />
    <glyph glyph-name="thorn" unicode="&#xfe;" horiz-adv-x="1284" 
d="M918 485q0 175 -58 260.5t-176 85.5q-109 0 -172 -92t-63 -254q0 -165 63.5 -254.5t179.5 -89.5q111 0 168.5 88t57.5 256zM203 -180v1294q0 78 -24 100.5t-95 22.5h-61v137h426v-575q50 101 130 148.5t199 47.5q198 0 308 -135.5t110 -380.5q0 -244 -110 -379t-308 -135
q-119 0 -199 48t-130 149v-342q0 -78 23.5 -100.5t94.5 -22.5h92v-137h-634v137h59q71 0 95 22.5t24 100.5z" />
    <glyph glyph-name="minus" unicode="&#x2212;" horiz-adv-x="1706" 
d="M1452 696v-170h-1198v170h1198z" />
    <glyph glyph-name="multiply" unicode="&#xd7;" horiz-adv-x="1706" 
d="M862 729l461 459l117 -117l-459 -461l459 -458l-117 -119l-461 461l-459 -461l-116 119l458 458l-458 461l116 117z" />
    <glyph glyph-name="onesuperior" unicode="&#xb9;" horiz-adv-x="844" 
d="M190 500v88h62q68 0 86 13.5t18 60.5v393h-166l1 86q99 5 152.5 31t82.5 83h109v-598q0 -44 15 -56.5t79 -12.5h69v-88h-508z" />
    <glyph glyph-name="twosuperior" unicode="&#xb2;" horiz-adv-x="846" 
d="M61 496q-1 6 -1.5 12t-0.5 20q0 97 46.5 166t146.5 121q42 22 106.5 49.5t83.5 36.5q43 20 66.5 57.5t23.5 83.5q0 61 -52 101.5t-132 40.5q-59 0 -103 -25t-68 -71q8 3 18 4.5t28 1.5q43 0 67.5 -21.5t24.5 -58.5q0 -44 -29.5 -71.5t-76.5 -27.5q-57 0 -94 36.5
t-37 92.5q0 93 92 159.5t225 66.5q156 0 249 -66.5t93 -177.5q0 -93 -58 -145t-204 -84l-3 -1q-239 -55 -296 -159q29 16 57 23.5t60 7.5q54 0 147.5 -19.5t128.5 -19.5q55 0 81 31.5t32 107.5h76v-18q0 -129 -55.5 -200t-153.5 -71q-36 0 -81.5 11.5t-104.5 35.5
q-9 4 -28 13q-79 39 -120 39q-35 0 -53 -20t-23 -62h-78z" />
    <glyph glyph-name="threesuperior" unicode="&#xb3;" horiz-adv-x="846" 
d="M180 623q37 -31 81 -45.5t99 -14.5q92 0 144.5 39.5t52.5 108.5q0 72 -49.5 107.5t-149.5 35.5h-26v90h14q101 0 150 29t49 90q0 58 -45 92.5t-121 34.5q-45 0 -81.5 -11t-67.5 -34q37 -3 59 -25t22 -57q0 -38 -29.5 -62t-76.5 -24q-49 0 -80 28t-31 72q0 81 92.5 137
t233.5 56q144 0 231.5 -53t87.5 -138q0 -71 -49.5 -114t-152.5 -62q111 -18 168 -67.5t57 -126.5q0 -105 -101 -167.5t-272 -62.5q-143 0 -234.5 59t-91.5 148q0 53 34.5 86t90.5 33q47 0 76 -25.5t29 -66.5t-28 -65.5t-75 -24.5h-10z" />
    <glyph glyph-name="onequarter" unicode="&#xbc;" horiz-adv-x="1954" 
d="M1585 293l4 250l-256 -250h252zM1442 0v82h47q63 0 79.5 10.5t16.5 52.5v50h-391v86l428 424h127v-412h149v-98h-149v-50q0 -37 17 -50t61 -13h71v-82h-456zM463 -35l862 1317h162l-869 -1317h-155zM182 549v82h58q65 0 82.5 12t17.5 55v369h-158l1 80q94 5 145 29.5
t78 76.5h104v-557q0 -42 15 -53.5t77 -11.5h66v-82h-486z" />
    <glyph glyph-name="onehalf" unicode="&#xbd;" horiz-adv-x="1954" 
d="M1204 -4v31q0 91 44 155t138 111q41 21 103.5 47t81.5 35q39 19 61.5 54t22.5 77q0 57 -49.5 94t-126.5 37q-58 0 -99.5 -22.5t-62.5 -65.5q10 3 21.5 4.5t21.5 1.5q39 0 63.5 -21t24.5 -55q0 -40 -28.5 -65t-73.5 -25q-55 0 -89 34t-34 87q0 86 86.5 147.5t214.5 61.5
q148 0 236.5 -62t88.5 -165q0 -88 -55 -136.5t-195 -79.5l-10 -2q-222 -51 -274 -147q26 15 54 23t58 8q51 0 140 -18.5t123 -18.5q52 0 77 29t31 100h72v-17q0 -120 -52.5 -186.5t-146.5 -66.5q-33 0 -77 11t-102 34q-11 5 -31 15q-73 34 -109 34q-33 0 -50 -19t-22 -59
h-76zM463 -35l862 1317h162l-869 -1317h-155zM182 549v82h58q65 0 82.5 12t17.5 55v369h-158l1 80q94 5 145 29.5t78 76.5h104v-557q0 -42 15 -53.5t77 -11.5h66v-82h-486z" />
    <glyph glyph-name="threequarters" unicode="&#xbe;" horiz-adv-x="1956" 
d="M1587 293l4 250l-256 -250h252zM1444 0v82h47q63 0 79.5 10.5t16.5 52.5v50h-391v86l428 424h127v-412h150v-98h-150v-50q0 -37 17 -50t61 -13h72v-82h-457zM465 -35l862 1317h162l-868 -1317h-156zM172 664q34 -29 76.5 -42.5t95.5 -13.5q88 0 138 37t50 100
q0 68 -47 101t-143 33h-25v84h13q98 0 144 27t46 85q0 53 -43.5 86t-114.5 33q-42 0 -77.5 -10.5t-66.5 -32.5q37 -3 58 -23t21 -53q0 -35 -29 -58.5t-73 -23.5q-47 0 -77 26.5t-30 67.5q0 76 88.5 128.5t224.5 52.5q137 0 221.5 -50t84.5 -128q0 -66 -48.5 -106.5
t-146.5 -57.5q106 -17 160.5 -63.5t54.5 -119.5q0 -97 -96 -156t-260 -59q-136 0 -223 56t-87 139q0 50 33 80.5t86 30.5q46 0 73.5 -24t27.5 -62t-27.5 -61t-71.5 -23h-10z" />
    <glyph glyph-name="franc" unicode="&#x20a3;" horiz-adv-x="2439" 
d="M47 0v156h80q91 0 113 21.5t22 105.5v809q0 84 -22 105.5t-113 21.5h-80v155h1278v-569h-158q0 107 -14 182.5t-43 128.5q-30 55 -98 79t-205 24h-256v-422h35q129 0 169 44.5t50 204.5l156 1v-689l-156 1q-9 177 -49.5 228.5t-167.5 51.5h-37v-356q0 -83 22.5 -105
t114.5 -22h96v-156h-737zM1900 260q0 -79 23.5 -101t93.5 -22h102v-137h-651v137h68q70 0 93 22t23 101v447q0 79 -23 100.5t-93 21.5h-68v138h432v-146q48 86 112 129t144 43q110 0 179 -61.5t69 -159.5q0 -77 -46 -125.5t-120 -48.5q-63 0 -102 35.5t-39 91.5
q0 51 32 86.5t93 52.5q-23 10 -44.5 15.5t-39.5 5.5q-102 0 -170 -102.5t-68 -262.5v-260z" />
    <glyph glyph-name="Gbreve" unicode="&#x11e;" horiz-adv-x="1616" 
d="M1251 -8l-73 114q-94 -75 -196 -111t-222 -36q-141 0 -262.5 50t-216.5 147q-102 103 -154.5 238t-52.5 294t54.5 295.5t158.5 239.5q97 95 217.5 143.5t261.5 48.5q118 0 215 -37t182 -114l58 118h145v-536h-158q-40 190 -149 295.5t-262 105.5q-183 0 -291.5 -151
t-108.5 -408q0 -261 108.5 -404t305.5 -143q142 0 223.5 66.5t81.5 181.5v78q0 72 -22 92.5t-133 20.5h-87v155h728v-155h-89q-71 0 -91.5 -23t-20.5 -106v-459h-150zM481 1864h95q19 -66 72.5 -94.5t160.5 -28.5q106 0 160 29t71 94h95q-22 -148 -106 -227.5t-220 -79.5
t-220.5 79t-107.5 228z" />
    <glyph glyph-name="gbreve" unicode="&#x11f;" horiz-adv-x="1358" 
d="M584 -51q-190 0 -261 -30t-71 -103q0 -71 78.5 -105.5t238.5 -34.5q172 0 256 38t84 114q0 68 -65 94.5t-260 26.5zM412 645q0 -127 42.5 -184.5t137.5 -57.5q94 0 138 56.5t44 177.5q0 127 -44 186.5t-138 59.5q-93 0 -136.5 -58t-43.5 -180zM281 360q-72 62 -106 130
t-34 147q0 167 126 267t339 100q94 0 177 -24t153 -71q45 48 93.5 71.5t105.5 23.5q106 0 166.5 -55t60.5 -150q0 -64 -38 -105t-97 -41q-58 0 -95.5 35t-37.5 88q0 43 25 71.5t73 41.5q-18 14 -35 21.5t-35 7.5q-35 0 -68.5 -22t-64.5 -65q28 -50 41.5 -100t13.5 -104
q0 -162 -121.5 -258.5t-328.5 -96.5q-54 0 -110.5 9.5t-114.5 27.5q-25 -17 -38.5 -35t-13.5 -34q0 -39 30 -55.5t104 -16.5h280q234 0 341.5 -67.5t107.5 -213.5q0 -159 -149.5 -243t-430.5 -84q-255 0 -390.5 62t-135.5 177q0 63 46.5 105.5t143.5 68.5q-80 20 -123 68
t-43 117t46 119.5t137 82.5zM352 1452h95q19 -66 72.5 -94.5t160.5 -28.5q106 0 160 29t71 94h95q-22 -148 -106 -227.5t-220 -79.5t-220.5 79t-107.5 228z" />
    <glyph glyph-name="Idotaccent" unicode="&#x130;" horiz-adv-x="844" 
d="M51 0v156h88q91 0 113 21.5t22 105.5v809q0 84 -22 105.5t-113 21.5h-88v155h742v-155h-88q-92 0 -114 -21.5t-22 -105.5v-809q0 -84 22 -105.5t114 -21.5h88v-156h-742zM275 1710q0 59 44.5 104.5t102.5 45.5q62 0 106 -44t44 -106q0 -64 -42.5 -106.5t-107.5 -42.5
q-60 0 -103.5 44t-43.5 105z" />
    <glyph glyph-name="Scedilla" unicode="&#x15e;" horiz-adv-x="1319" 
d="M90 0v567h160q33 -205 152 -313.5t309 -108.5q137 0 209.5 46t72.5 133q0 78 -55.5 127t-177.5 77l-223 52q-240 56 -345.5 151.5t-105.5 255.5q0 194 135 311t361 117q112 0 209.5 -34.5t189.5 -106.5l72 100h123v-520h-156q-35 187 -147.5 290t-282.5 103
q-124 0 -192 -46.5t-68 -129.5q0 -70 48 -112t154 -66l277 -64q220 -50 329 -156.5t109 -271.5q0 -195 -143 -318.5t-371 -123.5q-115 0 -228 42t-229 128l-45 -129h-141zM356 -379l47 103q67 -39 128 -58.5t116 -19.5q35 0 57.5 21t22.5 54q0 40 -24 61t-69 21
q-14 0 -29.5 -2t-31.5 -6v203h88v-114q18 2 35 3.5t33 1.5q86 0 135 -45t49 -125q0 -84 -59 -136t-156 -52q-68 0 -144 19.5t-198 70.5z" />
    <glyph glyph-name="scedilla" unicode="&#x15f;" horiz-adv-x="1018" 
d="M63 -12v395h150q29 -132 113.5 -202t212.5 -70q78 0 125 34.5t47 92.5q0 46 -38 74.5t-134 52.5l-152 36q-159 39 -236 112.5t-77 186.5q0 136 103 220t272 84q80 0 152 -24.5t140 -74.5l45 76h117v-358h-139q-31 111 -110 173t-189 62q-73 0 -114.5 -30.5t-41.5 -84.5
q0 -39 28 -64.5t87 -39.5l186 -43q180 -43 262 -119t82 -198q0 -146 -104 -230t-287 -84q-91 0 -168 25.5t-159 83.5l-37 -86h-136zM207 -379l47 103q67 -39 128 -58.5t116 -19.5q35 0 57.5 21t22.5 54q0 40 -24 61t-69 21q-14 0 -29.5 -2t-31.5 -6v203h88v-114q18 2 35 3.5
t33 1.5q86 0 135 -45t49 -125q0 -84 -59 -136t-156 -52q-68 0 -144 19.5t-198 70.5z" />
    <glyph glyph-name="Cacute" unicode="&#x106;" horiz-adv-x="1450" 
d="M1174 532h176q-20 -274 -168.5 -423.5t-401.5 -149.5q-151 0 -273 47t-218 144q-106 105 -160.5 242.5t-54.5 295.5q0 159 53 291.5t160 239.5q97 97 217 146.5t258 49.5q110 0 207.5 -34.5t191.5 -106.5l41 123h148v-563h-158q-24 197 -126.5 305t-264.5 108
q-189 0 -296.5 -151t-107.5 -418q0 -254 107 -392.5t301 -138.5q151 0 245 98.5t124 286.5zM535 1526l279 295q49 53 84.5 74.5t70.5 21.5q47 0 79 -31.5t32 -76.5q0 -36 -24.5 -64.5t-80.5 -56.5l-325 -162h-115z" />
    <glyph glyph-name="cacute" unicode="&#x107;" horiz-adv-x="1053" 
d="M827 401h158q-11 -217 -119 -326.5t-313 -109.5q-229 0 -362.5 140t-133.5 378q0 231 148.5 376t386.5 145q177 0 290 -85t113 -214q0 -80 -44.5 -127.5t-119.5 -47.5q-67 0 -107 38.5t-40 103.5q0 48 33 82.5t86 40.5q-46 38 -94 55.5t-107 17.5q-125 0 -195.5 -101
t-70.5 -282q0 -168 64 -251.5t192 -83.5q104 0 162 61.5t73 189.5zM365 1114l279 295q49 53 84.5 74.5t70.5 21.5q47 0 79 -31.5t32 -76.5q0 -36 -24.5 -64.5t-80.5 -56.5l-325 -162h-115z" />
    <glyph glyph-name="Ccaron" unicode="&#x10c;" horiz-adv-x="1450" 
d="M1174 532h176q-20 -274 -168.5 -423.5t-401.5 -149.5q-151 0 -273 47t-218 144q-106 105 -160.5 242.5t-54.5 295.5q0 159 53 291.5t160 239.5q97 97 217 146.5t258 49.5q110 0 207.5 -34.5t191.5 -106.5l41 123h148v-563h-158q-24 197 -126.5 305t-264.5 108
q-189 0 -296.5 -151t-107.5 -418q0 -254 107 -392.5t301 -138.5q151 0 245 98.5t124 286.5zM426 1895h101l221 -170l221 170h101l-230 -369h-184z" />
    <glyph glyph-name="ccaron" unicode="&#x10d;" horiz-adv-x="1053" 
d="M827 401h158q-11 -217 -119 -326.5t-313 -109.5q-229 0 -362.5 140t-133.5 378q0 231 148.5 376t386.5 145q177 0 290 -85t113 -214q0 -80 -44.5 -127.5t-119.5 -47.5q-67 0 -107 38.5t-40 103.5q0 48 33 82.5t86 40.5q-46 38 -94 55.5t-107 17.5q-125 0 -195.5 -101
t-70.5 -282q0 -168 64 -251.5t192 -83.5q104 0 162 61.5t73 189.5zM256 1483h101l221 -170l221 170h101l-230 -369h-184z" />
    <glyph glyph-name="dcroat" unicode="&#x111;" horiz-adv-x="1280" 
d="M815 766v283h-317v108l317 1q-2 57 -26 76t-91 19h-86v121h451v-217h223v-108h-223v-789q0 -80 23.5 -101.5t93.5 -21.5h59v-137h-424v168q-52 -103 -130.5 -150t-199.5 -47q-192 0 -304.5 133.5t-112.5 362.5t112.5 362.5t304.5 133.5q121 0 199.5 -47t130.5 -150z
M348 461q0 -158 60 -242t174 -84q103 0 168 89.5t65 236.5t-64.5 236t-168.5 89q-114 0 -174 -83t-60 -242z" />
    <glyph glyph-name="sfthyphen" unicode="&#xad;" horiz-adv-x="707" 
d="M76 381v217h555v-217h-555z" />
    <glyph glyph-name="periodcentered" unicode="&#x2219;" horiz-adv-x="639" 
d="M166 725q0 63 44.5 107.5t108.5 44.5q65 0 108.5 -43.5t43.5 -108.5t-43.5 -109.5t-108.5 -44.5q-63 0 -108 45t-45 109z" />
    <glyph glyph-name="Euro" horiz-adv-x="1280" 
d="M1233 453q-12 -230 -145 -359t-365 -129q-204 0 -350.5 127.5t-192.5 345.5h-184l35 119h132q0 12 -0.5 25t-0.5 41t4 81v5h-170l35 118h153q49 210 193.5 332.5t343.5 122.5q101 0 187 -34.5t141 -96.5l41 96h131v-424h-144q-28 144 -115 221.5t-214 77.5
q-111 0 -181 -73.5t-98 -221.5h471l-35 -118h-450l-1 -5q-3 -53 -3 -81v-40.5t2 -25.5h405l-35 -119h-358q27 -153 101.5 -233t189.5 -80q142 0 224 83.5t99 244.5h154z" />
    <glyph glyph-name="Euro" unicode="&#x20ac;" horiz-adv-x="1280" 
d="M1233 453q-12 -230 -145 -359t-365 -129q-204 0 -350.5 127.5t-192.5 345.5h-184l35 119h132q0 12 -0.5 25t-0.5 41t4 81v5h-170l35 118h153q49 210 193.5 332.5t343.5 122.5q101 0 187 -34.5t141 -96.5l41 96h131v-424h-144q-28 144 -115 221.5t-214 77.5
q-111 0 -181 -73.5t-98 -221.5h471l-35 -118h-450l-1 -5q-3 -53 -3 -81v-40.5t2 -25.5h405l-35 -119h-358q27 -153 101.5 -233t189.5 -80q142 0 224 83.5t99 244.5h154z" />
    </font>
</defs>
</svg>
