<?xml version="1.0" standalone="no"?>
<!DOCTYPE svg PUBLIC "-//W3C//DTD SVG 1.1//EN" "http://www.w3.org/Graphics/SVG/1.1/DTD/svg11.dtd" >
<svg xmlns="http://www.w3.org/2000/svg" xmlns:xlink="http://www.w3.org/1999/xlink" version="1.1">
<metadata>
Created by FontForge 20190801 at Tue Dec  9 17:55:51 2003
 By Jimmy Wärting
Copyright 1990-2003 Bitstream Inc. All rights reserved.
</metadata>
<defs>
<font id="ClarendonBT-Light" horiz-adv-x="1024" >
  <font-face 
    font-family="Clarendon Lt BT"
    font-weight="400"
    font-stretch="normal"
    units-per-em="2048"
    panose-1="2 4 6 4 4 5 5 2 2 4"
    ascent="1556"
    descent="-492"
    x-height="967"
    cap-height="1374"
    bbox="-342 -483 2798 1937"
    underline-thickness="119"
    underline-position="-278"
    unicode-range="U+0020-F002"
  />
<missing-glyph horiz-adv-x="1229" 
d="M102 -362v1806h1024v-1806h-1024zM217 -248h795v1577h-795v-1577z" />
    <glyph glyph-name=".notdef" horiz-adv-x="1229" 
d="M102 -362v1806h1024v-1806h-1024zM217 -248h795v1577h-795v-1577z" />
    <glyph glyph-name=".null" horiz-adv-x="0" 
 />
    <glyph glyph-name="nonmarkingreturn" horiz-adv-x="627" 
 />
    <glyph glyph-name="space" unicode=" " horiz-adv-x="627" 
 />
    <glyph glyph-name="exclam" unicode="!" horiz-adv-x="627" 
d="M268 373q-6 282 -37.5 575t-31.5 309q0 78 29 118t85 40q57 0 87 -40.5t30 -117.5q0 -16 -33 -309t-39 -575h-90zM199 80q0 48 33 82.5t81 34.5t82.5 -35t34.5 -82t-34.5 -81t-82.5 -34t-81 33.5t-33 81.5z" />
    <glyph glyph-name="quotedbl" unicode="&#x22;" horiz-adv-x="678" 
d="M518 864h-31l-65 457q0 2 -1 6q-3 22 -3 33q0 49 22.5 75.5t63.5 26.5q40 0 62 -26t22 -74q0 -14 -0.5 -23t-1.5 -18zM190 864h-32l-64 457q-2 17 -3 26t-1 15q0 48 22 74t62 26q41 0 63.5 -26t22.5 -74q0 -9 -3 -34q-1 -5 -1 -7z" />
    <glyph glyph-name="numbersign" unicode="#" horiz-adv-x="1575" 
d="M700 868l-100 -286h289l102 286h-291zM778 1456h133l-168 -471h287l168 471h131l-166 -471h307l-40 -117h-310l-100 -286h332l-43 -115h-330l-166 -469h-133l166 469h-287l-166 -469h-131l166 469h-324l43 115h322l100 286h-348l43 117h348z" />
    <glyph glyph-name="dollar" unicode="$" horiz-adv-x="1255" 
d="M662 98q162 14 243.5 70t81.5 154q0 88 -78 141t-247 80v-445zM557 1155q-132 -15 -203 -68.5t-71 -138.5q0 -84 64 -132.5t210 -72.5v412zM557 -213v211q-224 16 -348.5 98t-124.5 211q0 70 39 113t102 43q55 0 90 -30.5t35 -78.5q0 -54 -33 -83.5t-97 -32.5
q31 -60 110 -92.5t227 -45.5v461q-220 42 -330 128t-110 216q0 141 115.5 231t324.5 111v156h105v-156q198 -8 320 -88.5t122 -197.5q0 -61 -36.5 -96.5t-98.5 -35.5q-53 0 -83 28.5t-30 78.5q0 48 24 73t74 31q-29 54 -102 82t-190 31v-434q261 -46 378 -133t117 -234
q0 -152 -129 -245t-366 -109v-211h-105z" />
    <glyph glyph-name="percent" unicode="%" horiz-adv-x="1970" 
d="M1309 358q0 -131 57.5 -209.5t151.5 -78.5q95 0 150.5 77t55.5 211q0 136 -55 214.5t-151 78.5q-95 0 -152 -79.5t-57 -213.5zM1133 360q0 176 107 286t278 110q170 0 276.5 -110t106.5 -286q0 -175 -106.5 -285t-276.5 -110q-169 0 -277 111t-108 284zM666 -35h-129
l768 1317h129zM246 887q0 -132 57 -211.5t152 -79.5t151 78t56 213t-55.5 213t-151.5 78t-152.5 -79t-56.5 -212zM70 887q0 175 107 285t278 110q170 0 276.5 -110t106.5 -285q0 -176 -106.5 -285.5t-276.5 -109.5q-169 0 -277 110.5t-108 284.5z" />
    <glyph glyph-name="ampersand" unicode="&#x26;" horiz-adv-x="1692" 
d="M956 88q-90 -63 -192 -96t-209 -33q-202 0 -335.5 118.5t-133.5 297.5q0 136 90.5 245.5t272.5 194.5q-41 96 -59.5 162t-18.5 117q0 139 94.5 230t241.5 91q121 0 202.5 -73.5t81.5 -184.5q0 -112 -77 -211.5t-224 -177.5q101 -166 177 -272t149 -185q94 105 144 189
t50 137q0 47 -36 67.5t-117 20.5h-56v111h603v-111h-52q-72 0 -116 -27.5t-101 -130.5l-11 -20q-119 -218 -226 -326q55 -56 106.5 -83t104.5 -27q88 0 135 75t53 228h109v-8q0 -221 -85.5 -333t-252.5 -112q-87 0 -164.5 31.5t-147.5 95.5zM623 889q118 66 166.5 127
t48.5 141q0 65 -38.5 105.5t-101.5 40.5q-67 0 -107 -50.5t-40 -136.5q0 -52 17.5 -108t54.5 -119zM864 184q-83 90 -167 210.5t-183 293.5q-118 -58 -170.5 -125.5t-52.5 -159.5q0 -130 89.5 -217.5t221.5 -87.5q57 0 123 21.5t139 64.5z" />
    <glyph glyph-name="quotesingle" unicode="'" horiz-adv-x="348" 
d="M190 864h-32l-66 457q-1 8 -1.5 16t-0.5 23q0 50 21.5 76t62.5 26t63.5 -26t22.5 -74q0 -9 -3 -34q-1 -5 -1 -7z" />
    <glyph glyph-name="parenleft" unicode="(" horiz-adv-x="735" 
d="M690 -317v-78q-274 102 -430 342t-156 563t156 563t430 342v-78q-204 -99 -312 -311.5t-108 -515.5t108 -515.5t312 -311.5z" />
    <glyph glyph-name="parenright" unicode=")" horiz-adv-x="735" 
d="M45 -319q204 99 312 311.5t108 515.5t-108 515t-312 312v78q275 -102 430.5 -342t155.5 -563t-155.5 -563.5t-430.5 -341.5v78z" />
    <glyph glyph-name="asterisk" unicode="*" 
d="M526 967v-6q0 -83 41 -176.5t41 -118.5q0 -43 -26 -69t-70 -26q-46 0 -72 25.5t-26 69.5q0 26 41 117t41 171l-1 14q-6 -4 -21 -15q-72 -51 -114 -109l-4 -7q-75 -108 -135 -108q-33 0 -62.5 34.5t-29.5 74.5q0 38 31.5 65.5t77.5 30.5q10 1 29 2q138 10 212 59
q-85 51 -214 59q-12 0 -20 1q-53 5 -84.5 31t-31.5 65q0 41 29.5 75t64.5 34q57 0 120 -92q10 -15 15 -23q28 -39 60 -68t80 -57v6q0 82 -41 177t-41 120q0 42 26 67t70 25q46 0 72 -24.5t26 -67.5q0 -27 -41 -118.5t-41 -172.5v-14l21 15q73 52 114 109q4 6 10 14
q72 101 130 101q34 0 63 -33t29 -73q0 -37 -32 -65t-76 -31q-9 -1 -24 -2q-144 -10 -218 -62q83 -50 206 -56q16 -1 23 -1q57 -5 89 -31t32 -67q0 -40 -29.5 -73.5t-64.5 -33.5q-57 0 -120 92q-10 15 -15 23q-26 37 -57.5 65.5t-82.5 57.5z" />
    <glyph glyph-name="plus" unicode="+" horiz-adv-x="1706" 
d="M795 1221h118v-551h539v-117h-539v-553h-118v553h-541v117h541v551z" />
    <glyph glyph-name="comma" unicode="," horiz-adv-x="627" 
d="M168 -301v72q91 13 141.5 68.5t50.5 142.5v24q-19 -14 -40 -21.5t-39 -7.5q-46 0 -74.5 28.5t-28.5 74.5q0 53 32.5 85t88.5 32q71 0 114.5 -52t43.5 -139q0 -121 -78.5 -205t-210.5 -102z" />
    <glyph glyph-name="hyphen" unicode="-" horiz-adv-x="682" 
d="M76 414v151h532v-151h-532z" />
    <glyph glyph-name="period" unicode="." horiz-adv-x="627" 
d="M199 80q0 48 33 82.5t81 34.5t82.5 -35t34.5 -82t-34.5 -81t-82.5 -34t-81 33.5t-33 81.5z" />
    <glyph glyph-name="slash" unicode="/" horiz-adv-x="569" 
d="M68 -190h-113l500 1605h114z" />
    <glyph glyph-name="zero" unicode="0" horiz-adv-x="1255" 
d="M281 623q0 -258 92.5 -403.5t253.5 -145.5q163 0 255.5 145t92.5 404q0 260 -92.5 405.5t-255.5 145.5t-254.5 -145.5t-91.5 -405.5zM70 623q0 293 155 476t402 183t403 -183.5t156 -475.5q0 -293 -156 -475.5t-403 -182.5q-245 0 -401 183.5t-156 474.5z" />
    <glyph glyph-name="one" unicode="1" horiz-adv-x="1255" 
d="M262 0v104h100q136 0 168.5 22.5t32.5 121.5v721h-293v100q168 7 252.5 56t118.5 157h107v-1036q0 -93 31 -117.5t157 -24.5h94v-104h-768z" />
    <glyph glyph-name="two" unicode="2" horiz-adv-x="1255" 
d="M106 0v35q0 166 71.5 280.5t225.5 198.5q87 47 202 97.5t134 60.5q73 35 110.5 93.5t37.5 137.5q0 124 -85.5 196t-232.5 72q-111 0 -187 -43t-124 -135q5 0 14 1t13 1q58 0 90.5 -29.5t32.5 -82.5q0 -58 -36.5 -94.5t-92.5 -36.5q-62 0 -104 49t-42 123q0 152 135 256
t342 104q219 0 351.5 -107t132.5 -282q0 -73 -22.5 -134.5t-67.5 -113.5q-65 -73 -287 -148q-38 -13 -58 -20t-57 -19q-272 -90 -346 -241q31 18 65 26.5t74 8.5q53 0 131 -24q16 -5 23 -7l139 -41q43 -14 85 -21t77 -7q96 0 136.5 57.5t43.5 201.5l94 1q0 -221 -79.5 -337
t-229.5 -116q-43 0 -89 13.5t-105 43.5l-105 56q-4 2 -15 8q-102 55 -169 55q-66 0 -96 -32.5t-32 -104.5h-98z" />
    <glyph glyph-name="three" unicode="3" horiz-adv-x="1255" 
d="M230 219q53 -73 130.5 -106t196.5 -33q171 0 264.5 70t93.5 198q0 141 -94.5 204.5t-306.5 63.5h-33v111h41q200 0 284.5 51t84.5 168q0 105 -80.5 167.5t-216.5 62.5q-82 0 -155.5 -25.5t-138.5 -75.5q51 -9 75 -37.5t24 -81.5q0 -49 -33.5 -79.5t-89.5 -30.5
q-59 0 -97 38.5t-38 98.5q0 119 140.5 209t343.5 90q211 0 341 -91t130 -237q0 -106 -72 -178t-209 -102q151 -30 234.5 -115t83.5 -209q0 -171 -153.5 -278t-404.5 -107q-206 0 -347.5 97.5t-141.5 232.5q0 70 42.5 114t111.5 44q55 0 88.5 -32.5t33.5 -84.5
q0 -55 -33.5 -84.5t-98.5 -32.5z" />
    <glyph glyph-name="four" unicode="4" horiz-adv-x="1255" 
d="M729 489v562l-504 -562h504zM455 0v104h127q94 0 120.5 22t26.5 91v154h-670v104l729 807h121v-793h265v-118h-265v-144q0 -77 28.5 -100t121.5 -23h115v-104h-719z" />
    <glyph glyph-name="five" unicode="5" horiz-adv-x="1255" 
d="M238 211q55 -68 132.5 -100.5t184.5 -32.5q166 0 264.5 94t98.5 252q0 152 -95 240t-258 88q-81 0 -156.5 -30.5t-148.5 -92.5h-100l53 653q97 -31 198.5 -46t211.5 -15q112 0 224 15t226 46q-59 -126 -175 -179.5t-339 -53.5q-41 0 -98 5t-142 17l-24 -283q84 42 165 62
t163 20q238 0 371.5 -119.5t133.5 -334.5q0 -202 -151.5 -326.5t-398.5 -124.5q-209 0 -345.5 94.5t-136.5 233.5q0 69 40.5 113.5t103.5 44.5q58 0 95.5 -35t37.5 -88q0 -54 -33.5 -83t-101.5 -34z" />
    <glyph glyph-name="six" unicode="6" horiz-adv-x="1255" 
d="M346 395q0 -148 79.5 -232.5t217.5 -84.5q141 0 222 81t81 222q0 147 -77.5 229t-217.5 82q-139 0 -222 -80.5t-83 -216.5zM936 1110q-51 34 -106.5 51t-116.5 17q-181 0 -279 -134t-102 -386q84 79 174.5 118t191.5 39q199 0 330 -117.5t131 -296.5q0 -199 -139 -317.5
t-375 -118.5q-243 0 -386.5 169t-143.5 454q0 312 160 503t419 191q181 0 297.5 -74t116.5 -184q0 -61 -35.5 -98t-93.5 -37q-56 0 -92.5 33t-36.5 84q0 33 23 61t63 43z" />
    <glyph glyph-name="seven" unicode="7" horiz-adv-x="1255" 
d="M527 -10q-2 15 -2.5 32t-0.5 50q0 176 35.5 309.5t112.5 251.5q25 40 143.5 176.5t192.5 249.5q-40 -18 -81 -26.5t-85 -8.5q-72 0 -183 29.5t-153 29.5q-124 0 -181 -77.5t-57 -247.5v-31h-110v520h118v-147q64 85 134.5 123.5t162.5 38.5q85 0 220.5 -51.5t187.5 -51.5
q45 0 75 23t40 65h108q0 -102 -171 -351q-50 -73 -77 -114l-8 -12q-155 -234 -188 -369q-13 -48 -19 -130t-6 -214v-67h-208z" />
    <glyph glyph-name="eight" unicode="8" horiz-adv-x="1255" 
d="M698 729q123 32 183.5 93.5t60.5 154.5q0 92 -83.5 145.5t-229.5 53.5q-139 0 -224.5 -56.5t-85.5 -144.5q0 -72 45.5 -118t145.5 -75zM543 580q-140 -28 -213.5 -94t-73.5 -164q0 -109 99 -175.5t261 -66.5q167 0 263 59t96 160q0 83 -58 135.5t-200 93.5zM379 633
q-121 49 -180.5 122t-59.5 173q0 155 136 254.5t354 99.5q212 0 347.5 -89t135.5 -224q0 -97 -64 -167t-198 -118q162 -61 238.5 -145t76.5 -201q0 -161 -152.5 -267t-391.5 -106q-243 0 -390 95t-147 247q0 114 72 193.5t223 132.5z" />
    <glyph glyph-name="nine" unicode="9" horiz-adv-x="1255" 
d="M909 852q0 148 -79.5 232.5t-217.5 84.5q-141 0 -223 -81.5t-82 -221.5q0 -147 78.5 -230t218.5 -83q139 0 222 81.5t83 217.5zM319 135q53 -33 108.5 -49t115.5 -16q180 0 277 133.5t101 385.5q-84 -79 -174.5 -118t-191.5 -39q-198 0 -329.5 118t-131.5 296
q0 199 140 317.5t376 118.5q243 0 387 -168.5t144 -454.5q0 -310 -161 -502t-421 -192q-180 0 -296 73.5t-116 184.5q0 62 35 98.5t92 36.5q56 0 92.5 -33t36.5 -83q0 -35 -22 -63.5t-62 -43.5z" />
    <glyph glyph-name="colon" unicode=":" horiz-adv-x="627" 
d="M199 801q0 48 33 81t81 33t82.5 -33.5t34.5 -80.5q0 -48 -34.5 -82.5t-82.5 -34.5t-81 34t-33 83zM199 80q0 48 33 82.5t81 34.5t82.5 -35t34.5 -82t-34.5 -81t-82.5 -34t-81 33.5t-33 81.5z" />
    <glyph glyph-name="semicolon" unicode=";" horiz-adv-x="627" 
d="M168 -301v72q91 13 141.5 68.5t50.5 142.5v24q-19 -14 -40 -21.5t-39 -7.5q-46 0 -74.5 28.5t-28.5 74.5q0 53 32.5 85t88.5 32q71 0 114.5 -52t43.5 -139q0 -121 -78.5 -205t-210.5 -102zM199 801q0 48 33 81t81 33t82.5 -33.5t34.5 -80.5q0 -48 -34.5 -82.5
t-82.5 -34.5t-81 34t-33 83z" />
    <glyph glyph-name="less" unicode="&#x3c;" horiz-adv-x="1706" 
d="M1442 1145v-127l-1000 -408l1000 -405v-129l-1178 483v103z" />
    <glyph glyph-name="equal" unicode="=" horiz-adv-x="1706" 
d="M254 477h1198v-117h-1198v117zM254 860h1198v-117h-1198v117z" />
    <glyph glyph-name="greater" unicode="&#x3e;" horiz-adv-x="1706" 
d="M264 1145l1178 -483v-103l-1178 -483v129l1000 405l-1000 408v127z" />
    <glyph glyph-name="question" unicode="?" horiz-adv-x="1028" 
d="M410 371v26q0 109 28.5 186t93.5 142q19 18 54 51q178 166 178 295q0 105 -76.5 169.5t-202.5 64.5q-139 0 -227 -71.5t-88 -182.5v-6q21 13 42.5 19.5t43.5 6.5q49 0 77.5 -28t28.5 -76q0 -55 -34.5 -87t-94.5 -32q-76 0 -124 60.5t-48 158.5q0 149 127.5 249.5
t323.5 100.5q202 0 325.5 -98t123.5 -256q0 -98 -49.5 -175.5t-223.5 -209.5l-6 -5q-168 -126 -168 -294v-8h-104zM350 80q0 48 33.5 82.5t81.5 34.5t82.5 -35t34.5 -82t-34.5 -81t-82.5 -34q-49 0 -82 33.5t-33 81.5z" />
    <glyph glyph-name="at" unicode="@" horiz-adv-x="2019" 
d="M1190 336q-62 -106 -139 -158.5t-170 -52.5q-125 0 -201 92t-76 244q0 108 49 216t138 193q65 64 144 100t155 36q87 0 143 -49.5t78 -145.5l53 180h143l-170 -610q0 -2 -1 -5q-17 -59 -17 -104q0 -47 25.5 -74.5t68.5 -27.5q34 0 79 17.5t85 48.5q122 90 187 231t65 315
q0 140 -50 252t-153 203q-90 79 -216 122.5t-267 43.5q-187 0 -341.5 -58.5t-275.5 -175.5q-130 -126 -197 -293.5t-67 -369.5q0 -175 57 -304.5t181 -234.5q114 -97 261 -146.5t320 -49.5q163 0 317.5 52t295.5 154l30 -36q-148 -110 -313 -166t-342 -56q-187 0 -342 46.5
t-274 138.5q-151 113 -229.5 274.5t-78.5 358.5q0 204 86 381t250 313q131 110 291 165.5t344 55.5q347 0 553.5 -187t206.5 -499q0 -157 -58 -297t-163 -236q-57 -52 -123.5 -80t-134.5 -28q-97 0 -149 52.5t-58 158.5zM1098 965q-54 0 -99 -31t-92 -100
q-72 -108 -114.5 -234t-42.5 -225q0 -93 40.5 -147t108.5 -54q66 0 126 44.5t116 133.5q57 94 91 202.5t34 197.5q0 93 -47.5 153t-120.5 60z" />
    <glyph glyph-name="A" unicode="A" horiz-adv-x="1442" 
d="M467 569h438l-223 588zM-39 0v109h68q69 0 103 24t61 94l442 1147h172l438 -1138q29 -78 64.5 -102.5t105.5 -24.5h58v-109h-652v109h111q74 0 96.5 12t22.5 49q0 7 -4 21.5t-11 33.5l-86 236h-524l-76 -193q-17 -44 -22.5 -66.5t-5.5 -37.5q0 -32 24 -43.5t107 -11.5
h102v-109h-594z" />
    <glyph glyph-name="B" unicode="B" horiz-adv-x="1479" 
d="M485 772h285q169 0 258.5 66t89.5 190q0 116 -84 177t-246 61h-303v-494zM485 109h285q192 0 291.5 71t99.5 207q0 140 -96.5 208.5t-294.5 68.5h-285v-555zM57 0v109h84q89 0 117.5 24t28.5 127v856q0 102 -28 126t-118 24h-84v108h748q251 0 384.5 -85.5t133.5 -246.5
q0 -126 -81.5 -204.5t-248.5 -112.5q184 -23 279.5 -112t95.5 -236q0 -186 -151 -281.5t-447 -95.5h-713z" />
    <glyph glyph-name="C" unicode="C" horiz-adv-x="1450" 
d="M1225 500h123q-20 -266 -167.5 -403.5t-410.5 -137.5q-308 0 -499 203t-191 530q0 152 53.5 288.5t151.5 236.5q96 96 219 147t258 51q113 0 218 -40.5t210 -125.5l51 125h94v-534h-104q-20 206 -146 332t-311 126q-204 0 -337.5 -171t-133.5 -435q0 -280 132.5 -444
t359.5 -164q184 0 294 106.5t136 309.5z" />
    <glyph glyph-name="D" unicode="D" horiz-adv-x="1622" 
d="M485 1266v-1157h236q313 0 455.5 142t142.5 456q0 286 -145 422.5t-451 136.5h-238zM57 0v109h84q89 0 117.5 24t28.5 127v856q0 102 -28 126t-118 24h-84v108h668q251 0 375 -32t215 -107q111 -91 169 -230.5t58 -316.5q0 -162 -54 -300.5t-151 -225.5
q-97 -88 -225.5 -125t-390.5 -37h-664z" />
    <glyph glyph-name="E" unicode="E" horiz-adv-x="1526" 
d="M57 0v109h84q89 0 117.5 24t28.5 127v856q0 102 -28 126t-118 24h-84v108h1303v-516h-107q0 240 -79.5 324t-315.5 84h-373v-490h142q145 0 183 49t38 215h104v-673h-104q-4 193 -47 247t-176 54h-140v-559h400q217 0 291 88.5t78 361.5h106v-559h-1303z" />
    <glyph glyph-name="F" unicode="F" horiz-adv-x="1399" 
d="M57 0v109h84q89 0 117.5 24t28.5 127v856q0 102 -28 126t-118 24h-84v108h1258v-547h-107v25q0 244 -80 329t-315 85h-328v-490h111q144 0 181.5 48.5t37.5 215.5h105v-673h-105q-3 193 -46 247t-175 54h-109v-408q0 -103 28.5 -127t117.5 -24h102v-109h-676z" />
    <glyph glyph-name="G" unicode="G" horiz-adv-x="1593" 
d="M1372 -14h-110l-74 129q-109 -78 -218.5 -117t-219.5 -39q-307 0 -488.5 197.5t-181.5 531.5q0 157 53 298t150 241q89 92 208 140t259 48q121 0 224.5 -42.5t199.5 -131.5l69 133h96v-506h-108q-47 204 -171.5 318t-297.5 114q-209 0 -334 -165.5t-125 -446.5
q0 -287 126 -446.5t349 -159.5q177 0 286.5 85.5t109.5 225.5v86q0 70 -28 93.5t-130 23.5h-111v109h692v-109h-79q-99 0 -122.5 -21.5t-23.5 -95.5v-493z" />
    <glyph glyph-name="H" unicode="H" horiz-adv-x="1706" 
d="M57 0v109h84q89 0 117.5 24t28.5 127v856q0 102 -28 126t-118 24h-84v108h676v-108h-102q-90 0 -118 -24t-28 -126v-366h736v366q0 102 -28 126t-118 24h-100v108h676v-108h-86q-90 0 -118 -24t-28 -126v-856q0 -103 28.5 -127t117.5 -24h86v-109h-676v109h100
q89 0 117.5 24t28.5 127v381h-736v-381q0 -103 28.5 -127t117.5 -24h102v-109h-676z" />
    <glyph glyph-name="I" unicode="I" horiz-adv-x="801" 
d="M61 0v109h93q89 0 117 24t28 127v856q0 102 -28 126t-117 24h-93v108h678v-108h-92q-90 0 -117.5 -24t-27.5 -126v-856q0 -103 28 -127t117 -24h92v-109h-678z" />
    <glyph glyph-name="J" unicode="J" horiz-adv-x="1116" 
d="M649 1116q0 102 -27.5 126t-117.5 24h-96v108h655v-108h-70q-90 0 -117.5 -24t-27.5 -126v-684q0 -256 -98.5 -364.5t-327.5 -108.5q-173 0 -285 87t-112 214q0 81 43.5 128.5t115.5 47.5q60 0 95.5 -36t35.5 -95q0 -62 -37 -97.5t-102 -35.5q36 -50 90.5 -75t126.5 -25
q129 0 192.5 73.5t63.5 223.5v747z" />
    <glyph glyph-name="K" unicode="K" horiz-adv-x="1573" 
d="M485 260q0 -103 28.5 -127t117.5 -24h102v-109h-676v109h84q89 0 117.5 24t28.5 127v856q0 102 -28 126t-118 24h-84v108h676v-108h-102q-90 0 -118 -24t-28 -126v-461l574 510q18 17 26.5 31t8.5 29q0 21 -25 31t-78 10h-102v108h688v-108h-84q-72 0 -147.5 -39
t-167.5 -123l-347 -311l517 -564q67 -74 118 -97t121 -23h62v-109h-746v109h158q40 0 60 10.5t20 32.5q0 21 -50 74q-14 15 -22 24l-383 416l-201 -179v-227z" />
    <glyph glyph-name="L" unicode="L" horiz-adv-x="1399" 
d="M57 1374h676v-108h-102q-90 0 -118 -24t-28 -126v-1007h328q149 0 230 28.5t114 91.5q27 51 39 125t12 187v30h107v-571h-1258v109h84q89 0 117.5 24t28.5 127v856q0 102 -28 126t-118 24h-84v108z" />
    <glyph glyph-name="M" unicode="M" horiz-adv-x="1946" 
d="M283 1114q0 103 -28.5 127.5t-117.5 24.5h-80v108h502l418 -1077l432 1077h479v-108h-84q-89 0 -117 -24.5t-28 -127.5v-854q0 -103 28 -127t117 -24h84v-109h-665v109h96q89 0 117 24t28 127v948l-483 -1208h-78l-483 1237v-977q0 -103 28 -127t117 -24h92v-109h-600
v109h80q89 0 117.5 24t28.5 127v854z" />
    <glyph glyph-name="N" unicode="N" horiz-adv-x="1704" 
d="M1436 -6h-174l-842 1194v-928q0 -103 28 -127t117 -24h103v-109h-611v109h80q89 0 117.5 24t28.5 127v854q0 103 -28.5 127.5t-117.5 24.5h-80v108h461l780 -1104v844q0 103 -28 127.5t-117 24.5h-109v108h605v-108h-68q-89 0 -117 -24.5t-28 -127.5v-1120z" />
    <glyph glyph-name="O" unicode="O" horiz-adv-x="1636" 
d="M303 688q0 -280 140.5 -447t373.5 -167t373.5 167t140.5 447t-140 446t-374 166q-233 0 -373.5 -166t-140.5 -446zM80 688q0 160 58 297.5t169 241.5q97 90 229.5 139t280.5 49t280.5 -49t229.5 -139q112 -105 169.5 -241.5t57.5 -297.5q0 -162 -57.5 -299t-169.5 -242
q-97 -90 -229.5 -139t-280.5 -49t-280.5 49t-229.5 139q-111 104 -169 242t-58 299z" />
    <glyph glyph-name="P" unicode="P" horiz-adv-x="1399" 
d="M485 731h228q203 0 301 65.5t98 200.5q0 146 -92 207.5t-320 61.5h-215v-535zM485 260q0 -103 28.5 -127t117.5 -24h102v-109h-676v109h84q89 0 117.5 24t28.5 127v856q0 102 -28 126t-118 24h-84v108h639q339 0 482 -86t143 -284q0 -105 -41.5 -183t-124.5 -129
q-61 -37 -161 -53t-281 -16h-228v-363z" />
    <glyph glyph-name="Q" unicode="Q" horiz-adv-x="1694" 
d="M1034 117q-82 134 -146 191t-130 57t-104 -35.5t-38 -96.5q0 -73 57 -117t152 -44q41 0 92.5 11t116.5 34zM1171 219q80 81 120 199t40 270q0 280 -140 446t-374 166q-233 0 -373.5 -166t-140.5 -446q0 -184 56.5 -316t170.5 -214q-10 27 -15 55t-5 55q0 103 70 165.5
t184 62.5q112 0 210 -66.5t197 -210.5zM1268 106q39 -45 75.5 -66.5t75.5 -21.5q71 0 111.5 52.5t54.5 162.5h103q-14 -175 -95 -274.5t-211 -99.5q-82 0 -149.5 37t-126.5 114q-69 -24 -138.5 -36.5t-140.5 -12.5q-116 0 -218 26t-189 79q-161 96 -250.5 259.5t-89.5 362.5
q0 161 57.5 297.5t169.5 241.5q97 90 229.5 139t280.5 49t280.5 -49t229.5 -139q112 -105 169.5 -241.5t57.5 -297.5q0 -177 -71 -322t-215 -260z" />
    <glyph glyph-name="R" unicode="R" horiz-adv-x="1587" 
d="M485 770h265q212 0 310.5 64.5t98.5 201.5q0 120 -93 175t-298 55h-283v-496zM485 260q0 -103 28.5 -127t117.5 -24h102v-109h-676v109h84q89 0 117.5 24t28.5 127v856q0 102 -28 126t-118 24h-84v108h711q320 0 460 -80.5t140 -261.5q0 -139 -94 -222t-277 -105
q139 -28 205.5 -104t75.5 -214q3 -47 4 -123q4 -172 72 -172q38 0 54 44.5t22 199.5h98v-23q0 -186 -55 -270t-175 -84q-104 0 -158 57.5t-59 172.5l-8 169q-6 157 -83.5 229t-239.5 72h-265v-399z" />
    <glyph glyph-name="S" unicode="S" horiz-adv-x="1290" 
d="M88 0v569h113q32 -224 168 -352.5t342 -128.5q149 0 239 71t90 187q0 99 -68 154.5t-249 95.5l-170 37q-276 62 -368.5 148t-92.5 253q0 174 134 277.5t362 103.5q113 0 213.5 -37.5t195.5 -115.5l60 124h96v-520h-111q-26 208 -142.5 319t-309.5 111q-152 0 -237 -61.5
t-85 -171.5q0 -86 67.5 -139.5t211.5 -81.5l198 -41q264 -53 373 -147t109 -265q0 -191 -141.5 -310.5t-368.5 -119.5q-132 0 -243.5 47t-213.5 146l-67 -152h-105z" />
    <glyph glyph-name="T" unicode="T" horiz-adv-x="1374" 
d="M57 836v538h1262v-538h-107q-4 246 -82 338t-280 92h-64v-1006q0 -103 28.5 -127t117.5 -24h129v-109h-748v109h129q89 0 117.5 24t28.5 127v1006h-64q-202 0 -279.5 -91.5t-82.5 -338.5h-105z" />
    <glyph glyph-name="U" unicode="U" horiz-adv-x="1569" 
d="M268 1116q0 102 -27.5 126t-117.5 24h-66v108h658v-108h-103q-89 0 -117 -24t-28 -126v-686q0 -172 83.5 -253t260.5 -81q189 0 272.5 94.5t83.5 311.5v614q0 102 -27.5 126t-117.5 24h-100v108h589v-108h-61q-90 0 -117.5 -24t-27.5 -126v-614q0 -274 -130 -408.5
t-393 -134.5q-250 0 -382 120.5t-132 350.5v686z" />
    <glyph glyph-name="V" unicode="V" horiz-adv-x="1407" 
d="M618 0l-415 1137q-30 78 -66 103.5t-112 25.5h-64v108h666v-108h-127q-58 0 -81.5 -14t-23.5 -48q0 -18 3.5 -37.5t11.5 -40.5l323 -882l330 880q10 24 15 44t5 32q0 37 -23 51.5t-89 14.5h-119v108h602v-108h-70q-78 0 -113.5 -25t-70.5 -115l-424 -1126h-158z" />
    <glyph glyph-name="W" unicode="W" horiz-adv-x="1972" 
d="M528 0l-301 1057l-1 5q-57 204 -163 204h-61v108h580v-108h-80q-63 0 -86 -14.5t-23 -53.5q0 -10 2.5 -24.5t7.5 -36.5l244 -881l285 852l-19 70q-13 48 -43 68t-96 20h-69v108h600v-108h-93q-69 0 -90.5 -12.5t-21.5 -47.5q0 -12 2.5 -27.5t7.5 -33.5l270 -891l246 831
q11 36 17 68.5t6 52.5q0 33 -22.5 46.5t-78.5 13.5h-98v108h520v-108h-55q-59 0 -89.5 -30.5t-64.5 -141.5l-329 -1094h-160l-281 901l-303 -901h-160z" />
    <glyph glyph-name="X" unicode="X" horiz-adv-x="1518" 
d="M0 0v109h51q64 0 132 44.5t139 131.5l317 395l-320 426q-68 90 -120.5 125t-114.5 35h-55v108h651v-108h-78q-50 0 -75 -12t-25 -35q0 -14 7 -30.5t21 -35.5l238 -313l246 291l6 7q47 56 47 91q0 17 -24 27t-66 10h-96v108h589v-108h-69q-64 0 -120 -34.5t-118 -113.5
l-311 -391l338 -459q58 -78 128 -118.5t144 -40.5h56v-109h-709v109h72q62 0 97.5 11.5t35.5 31.5q0 14 -5.5 28t-17.5 31l-272 356l-279 -344q-19 -23 -24.5 -35t-5.5 -24q0 -29 24.5 -42t77.5 -13h90v-109h-602z" />
    <glyph glyph-name="Y" unicode="Y" horiz-adv-x="1305" 
d="M551 543l-363 590q-40 67 -84 100t-94 33h-59v108h631v-108h-133q-36 0 -54 -10.5t-18 -30.5q0 -18 7.5 -39t21.5 -43l278 -461l299 481q12 20 18.5 36.5t6.5 29.5q0 16 -20 26.5t-52 10.5h-139v108h559v-108h-49q-62 0 -107.5 -34.5t-107.5 -135.5l-342 -553v-283
q0 -103 28 -127t117 -24h129v-109h-748v109h130q89 0 117 24t28 127v283z" />
    <glyph glyph-name="Z" unicode="Z" horiz-adv-x="1270" 
d="M55 0v113l883 1153h-391q-199 0 -267.5 -85.5t-76.5 -349.5h-107v543h1080v-114l-879 -1151h393q126 0 207 32t111 95q23 48 36 127t21 228l111 1v-592h-1121z" />
    <glyph glyph-name="bracketleft" unicode="[" horiz-adv-x="735" 
d="M217 -356v1730h455v-90h-301v-1550h301v-90h-455z" />
    <glyph glyph-name="backslash" unicode="\" horiz-adv-x="569" 
d="M-45 1415h113l501 -1605h-114z" />
    <glyph glyph-name="bracketright" unicode="]" horiz-adv-x="735" 
d="M63 -356v90h299v1550h-299v90h453v-1730h-453z" />
    <glyph glyph-name="asciicircum" unicode="^" horiz-adv-x="2048" 
d="M934 1462h178l520 -565h-92l-518 436l-520 -436h-90z" />
    <glyph glyph-name="underscore" unicode="_" 
d="M0 -365h1024v-118h-1024v118z" />
    <glyph glyph-name="grave" unicode="`" 
d="M688 1114h-74l-301 182q-49 32 -66.5 53t-17.5 48q0 32 22.5 55t53.5 23q25 0 53 -15.5t54 -44.5z" />
    <glyph glyph-name="a" unicode="a" horiz-adv-x="1135" 
d="M713 520q-52 -25 -97.5 -43.5t-87.5 -32.5l-79 -26q-102 -33 -147.5 -77t-45.5 -110t43.5 -105.5t116.5 -39.5q141 0 219 84.5t78 239.5v110zM725 125q-81 -81 -171 -121.5t-189 -40.5q-137 0 -220.5 72t-83.5 190q0 108 74.5 174.5t259.5 118.5l162 45q93 26 124.5 60.5
t31.5 105.5q0 83 -62 132.5t-166 49.5q-67 0 -123 -21.5t-103 -66.5q44 -9 68.5 -36t24.5 -68q0 -44 -32 -72.5t-80 -28.5q-54 0 -89.5 35.5t-35.5 89.5q0 110 111 185.5t280 75.5q86 0 161 -20t119 -54q56 -42 78.5 -93t22.5 -163v-477q0 -67 14.5 -94t48.5 -27
q49 0 69 53.5t22 198.5h96v-23q0 -180 -51.5 -261t-165.5 -81q-79 0 -127 40t-68 122z" />
    <glyph glyph-name="b" unicode="b" horiz-adv-x="1210" 
d="M348 489q0 -184 84 -291.5t227 -107.5q132 0 204.5 103t72.5 290q0 189 -73 293.5t-206 104.5q-140 0 -224.5 -106.5t-84.5 -285.5zM262 -12h-90v1171q0 73 -25.5 95t-105.5 22h-41v98h348v-569q64 101 147.5 148.5t196.5 47.5q198 0 320.5 -143t122.5 -375
q0 -230 -121.5 -372t-317.5 -142q-112 0 -198.5 49.5t-149.5 149.5z" />
    <glyph glyph-name="c" unicode="c" horiz-adv-x="1051" 
d="M874 360h119q-29 -196 -140 -296.5t-300 -100.5q-222 0 -356 140t-134 374q0 231 145.5 379t371.5 148q181 0 302.5 -89t121.5 -217q0 -67 -37 -108t-97 -41q-54 0 -86 29t-32 77q0 50 26.5 76.5t85.5 36.5q-34 68 -101.5 101.5t-168.5 33.5q-155 0 -243.5 -113
t-88.5 -313q0 -183 82.5 -288t226.5 -105q122 0 199 70t104 206z" />
    <glyph glyph-name="d" unicode="d" horiz-adv-x="1262" 
d="M862 489q0 178 -85 285t-226 107q-132 0 -204.5 -103.5t-72.5 -294.5q0 -187 73 -290t204 -103q143 0 227 107.5t84 291.5zM862 1159q0 72 -26 94.5t-107 22.5h-65v98h372v-1157q0 -72 26 -94.5t107 -22.5h52v-100h-359v168q-63 -100 -149.5 -149.5t-198.5 -49.5
q-196 0 -317 142t-121 372q0 232 122.5 375t319.5 143q113 0 197 -47.5t147 -148.5v354z" />
    <glyph glyph-name="e" unicode="e" horiz-adv-x="1083" 
d="M819 576q-3 165 -70 245t-202 80q-126 0 -197.5 -84t-81.5 -241h551zM870 317h121q-35 -177 -145 -265.5t-295 -88.5q-219 0 -353.5 143t-134.5 377q0 235 134 378t354 143q228 0 348.5 -137.5t122.5 -399.5h-760v-14q0 -182 77 -277.5t224 -95.5q118 0 195.5 60
t111.5 177z" />
    <glyph glyph-name="f" unicode="f" horiz-adv-x="705" 
d="M242 866h-191v101h191v82q0 182 76.5 272t232.5 90q139 0 222 -59t83 -156q0 -55 -30.5 -88t-82.5 -33q-45 0 -75.5 29t-30.5 70q0 35 21.5 59.5t57.5 32.5q-30 28 -62.5 40.5t-73.5 12.5q-89 0 -125.5 -59t-36.5 -218v-75h229v-101h-229v-649q0 -72 26 -94.5t107 -22.5
h92v-100h-592v100h60q80 0 105.5 22t25.5 95v649z" />
    <glyph glyph-name="g" unicode="g" horiz-adv-x="1333" 
d="M537 -41q-159 0 -237.5 -35.5t-78.5 -107.5q0 -75 80 -114.5t231 -39.5q227 0 337 40t110 122q0 73 -70 103t-252 30zM336 645q0 -139 59.5 -206.5t182.5 -67.5t187 67t64 197t-64 200t-183 70q-115 0 -180.5 -69t-65.5 -191zM262 -10q-77 22 -116.5 65.5t-39.5 106.5
q0 59 39.5 106t130.5 94q-66 56 -98.5 124t-32.5 151q0 165 117 266t309 101q99 0 185 -28.5t159 -84.5q54 58 106.5 84t115.5 26q86 0 138 -49t52 -131q0 -61 -33 -100t-86 -39q-44 0 -74 28.5t-30 71.5q0 42 26.5 67t73.5 30q-14 20 -31 29.5t-40 9.5q-48 0 -88.5 -24.5
t-77.5 -76.5q27 -42 40 -87t13 -97q0 -171 -117 -270t-319 -99q-74 0 -146.5 19.5t-75.5 19.5q-38 0 -71 -31t-33 -69q0 -43 40.5 -61.5t135.5 -18.5h318q187 0 286 -68t99 -196q0 -152 -140.5 -225.5t-429.5 -73.5q-240 0 -372 64t-132 179q0 67 53.5 117t145.5 70z" />
    <glyph glyph-name="h" unicode="h" horiz-adv-x="1329" 
d="M240 1159q0 73 -25.5 95t-105.5 22h-48v98h355v-573q59 96 149.5 145t206.5 49q92 0 160 -30.5t112 -92.5q33 -44 46.5 -109.5t13.5 -209.5v-336q0 -72 26 -94.5t107 -22.5h45v-100h-551v100h66q81 0 107 22.5t26 94.5v363q0 167 -47 236t-158 69q-139 0 -224 -90.5
t-85 -241.5v-336q0 -73 25.5 -95t105.5 -22h67v-100h-553v100h48q80 0 105.5 22t25.5 95v942z" />
    <glyph glyph-name="i" unicode="i" horiz-adv-x="680" 
d="M66 0v100h65q81 0 107 22.5t26 94.5v533q0 73 -26.5 95.5t-106.5 22.5h-65v99h376v-750q0 -72 26 -94.5t107 -22.5h52v-100h-561zM211 1274q0 48 33 82.5t82 34.5q47 0 81.5 -35t34.5 -82t-34 -81t-82 -34q-49 0 -82 33.5t-33 81.5z" />
    <glyph glyph-name="j" unicode="j" horiz-adv-x="653" 
d="M215 1274q0 48 33.5 82.5t81.5 34.5q47 0 81.5 -35t34.5 -82t-34 -81t-82 -34q-49 0 -82 33.5t-33 81.5zM270 -141v882q0 93 -21.5 110t-105.5 17h-63v99h366v-1059q0 -174 -78 -261t-235 -87q-122 0 -198 58.5t-76 150.5q0 57 34 93t89 36q48 0 79 -30t31 -77
q0 -38 -24 -62t-70 -32q25 -21 53 -31t62 -10q84 0 120.5 46t36.5 157z" />
    <glyph glyph-name="k" unicode="k" horiz-adv-x="1307" 
d="M408 471l356 283q33 26 47 45t14 37q0 16 -23.5 23t-84.5 7h-94v101h604v-101h-31q-69 0 -120.5 -19.5t-112.5 -68.5l-258 -209l342 -376q43 -47 93.5 -70t108.5 -23h31v-100h-586v100h54q56 0 86 10t30 29q0 11 -6 22t-18 23l-262 285l-170 -129v-123q0 -72 26 -94.5
t107 -22.5h45v-100h-533v100h56q80 0 105.5 22t25.5 95v942q0 73 -25.5 95t-105.5 22h-56v98h355v-903z" />
    <glyph glyph-name="l" unicode="l" horiz-adv-x="653" 
d="M238 1159q0 72 -26 94.5t-108 22.5h-57v98h369v-1157q0 -73 25.5 -95t105.5 -22h61v-100h-561v100h57q82 0 108 22.5t26 94.5v942z" />
    <glyph glyph-name="m" unicode="m" horiz-adv-x="1909" 
d="M61 0v100h58q81 0 107 22.5t26 94.5v533q0 73 -26.5 95.5t-106.5 22.5h-58v99h363v-148q66 88 145.5 132t171.5 44q116 0 189.5 -48t103.5 -144q80 99 162.5 145.5t175.5 46.5q90 0 153.5 -28.5t104.5 -87.5q29 -42 41 -106t12 -220v-336q0 -72 26 -94.5t108 -22.5h49
v-100h-525v100h39q81 0 106 22t25 95v363q0 177 -40.5 241t-143.5 64q-124 0 -198 -89.5t-74 -242.5v-336q0 -73 25.5 -95t105.5 -22h39v-100h-514v100h39q81 0 107 22.5t26 94.5v363q0 176 -41.5 240.5t-145.5 64.5q-123 0 -197.5 -89.5t-74.5 -242.5v-336q0 -72 26 -94.5
t107 -22.5h37v-100h-533z" />
    <glyph glyph-name="n" unicode="n" horiz-adv-x="1341" 
d="M61 0v100h58q81 0 107 22.5t26 94.5v533q0 73 -26.5 95.5t-106.5 22.5h-58v99h367v-166q59 96 149.5 145t206.5 49q92 0 160 -30.5t113 -92.5q32 -44 45.5 -109.5t13.5 -209.5v-336q0 -72 26 -94.5t107 -22.5h45v-100h-553v100h68q80 0 105.5 22t25.5 95v363
q0 168 -46.5 236.5t-156.5 68.5q-139 0 -224 -90.5t-85 -241.5v-336q0 -73 25.5 -95t105.5 -22h68v-100h-566z" />
    <glyph glyph-name="o" unicode="o" horiz-adv-x="1188" 
d="M262 483q0 -199 86 -306t246 -107t246 107t86 306q0 200 -86.5 308t-245.5 108q-160 0 -246 -108t-86 -308zM63 483q0 230 149 375.5t382 145.5t381.5 -145.5t148.5 -375.5q0 -229 -148.5 -373.5t-381.5 -144.5q-234 0 -382.5 144.5t-148.5 373.5z" />
    <glyph glyph-name="p" unicode="p" horiz-adv-x="1247" 
d="M373 477q0 -178 84 -284.5t225 -106.5q133 0 206 104t73 293q0 188 -73 292t-204 104q-143 0 -227 -108.5t-84 -293.5zM199 -223v973q0 73 -26.5 95.5t-106.5 22.5h-46v99h353v-166q62 99 148.5 147.5t199.5 48.5q196 0 317 -141.5t121 -372.5q0 -232 -122.5 -375
t-319.5 -143q-113 0 -197 48t-147 149v-385q0 -73 26.5 -96t106.5 -23h65v-98h-551v98h46q80 0 106.5 23t26.5 96z" />
    <glyph glyph-name="q" unicode="q" horiz-adv-x="1262" 
d="M862 477q0 185 -84 293.5t-227 108.5q-131 0 -204 -104t-73 -292q0 -190 72.5 -293.5t204.5 -103.5q141 0 226 106.5t85 284.5zM1036 -223q0 -73 26.5 -96t106.5 -23h48v-98h-553v98h65q80 0 106.5 23t26.5 96v385q-63 -101 -147 -149t-197 -48q-197 0 -319.5 143
t-122.5 375q0 231 121 372.5t317 141.5q113 0 199.5 -48.5t148.5 -147.5v166h355v-99h-48q-80 0 -106.5 -22.5t-26.5 -95.5v-973z" />
    <glyph glyph-name="r" unicode="r" horiz-adv-x="985" 
d="M428 217q0 -73 25.5 -95t105.5 -22h100v-100h-598v100h58q81 0 107 22.5t26 94.5v533q0 73 -26.5 95.5t-106.5 22.5h-58v99h367v-201q54 117 127.5 174t167.5 57q102 0 167.5 -62t65.5 -155q0 -63 -35 -104t-90 -41q-48 0 -81 30.5t-33 73.5q0 46 27.5 74.5t72.5 28.5h12
q-23 31 -50.5 45t-63.5 14q-122 0 -204.5 -128t-82.5 -327v-229z" />
    <glyph glyph-name="s" unicode="s" horiz-adv-x="1022" 
d="M82 -8v405h106q26 -145 127 -232t242 -87q104 0 164.5 42.5t60.5 115.5q0 57 -45 93.5t-137 53.5l-184 35q-157 30 -239.5 108t-82.5 195q0 124 99 201t264 77q81 0 160.5 -27.5t150.5 -80.5l41 88h92v-377h-104q-26 141 -112.5 216t-223.5 75q-88 0 -142.5 -39.5
t-54.5 -101.5q0 -60 43 -97t129 -53l193 -37q156 -29 238.5 -102.5t82.5 -183.5q0 -146 -104 -229t-289 -83q-94 0 -175 32t-153 97l-43 -104h-104z" />
    <glyph glyph-name="t" unicode="t" horiz-adv-x="827" 
d="M207 197v669h-172v101q115 6 176.5 99t75.5 284h96v-383h295v-101h-295v-669q0 -58 24 -85.5t74 -27.5q84 0 117 65t33 246h94v-22q0 -216 -65.5 -312t-210.5 -96q-111 0 -176.5 63t-65.5 169z" />
    <glyph glyph-name="u" unicode="u" horiz-adv-x="1329" 
d="M225 414v336q0 73 -26.5 95.5t-106.5 22.5h-45v99h352v-580q0 -167 47 -236t158 -69q139 0 224 91.5t85 242.5v334q0 73 -25.5 95.5t-105.5 22.5h-80v99h388v-750q0 -72 25.5 -94.5t107.5 -22.5h57v-100h-367v168q-59 -96 -149.5 -145.5t-206.5 -49.5q-93 0 -160.5 30
t-111.5 91q-32 44 -46 109.5t-14 210.5z" />
    <glyph glyph-name="v" unicode="v" horiz-adv-x="1149" 
d="M158 774q-27 62 -50 77t-69 15h-45v101h504v-101h-74q-53 0 -70.5 -9.5t-17.5 -35.5q0 -11 3.5 -24.5t14.5 -40.5l238 -535l225 520q14 33 19.5 51t5.5 33q0 23 -20.5 32t-78.5 9h-90v101h467v-101h-39q-49 0 -75 -18.5t-62 -99.5l-334 -758h-108z" />
    <glyph glyph-name="w" unicode="w" horiz-adv-x="1688" 
d="M489 -10l-305 772q-24 65 -50 85.5t-75 20.5h-36v99h469v-99h-68q-40 0 -59 -12t-19 -37q0 -15 13 -48l1 -2l213 -548l211 524l-14 37q-18 50 -43 68t-70 18h-45v99h482v-99h-60q-62 0 -80 -10t-18 -37q0 -13 3 -26t9 -27l211 -547l213 527q9 23 14 44t5 35
q0 23 -20.5 32t-74.5 9h-63v99h428v-99h-27q-51 0 -81 -24.5t-58 -93.5l-301 -760h-117l-235 598l-236 -598h-117z" />
    <glyph glyph-name="x" unicode="x" horiz-adv-x="1241" 
d="M705 518l286 -325q37 -43 86.5 -68t98.5 -25h30v-100h-561v100h92q36 0 58 10t22 25q0 11 -5 20.5t-21 28.5l-195 222l-213 -228l-3 -3q-22 -25 -22 -40q0 -17 24.5 -26t70.5 -9h75v-100h-499v100h28q45 0 97.5 27.5t97.5 75.5l272 291l-235 258q-60 65 -109.5 90.5
t-109.5 25.5h-31v99h526v-99h-65q-32 0 -48 -7.5t-16 -22.5q0 -16 31 -53l2 -3l162 -184l192 203q8 8 12.5 18t4.5 21q0 16 -17.5 22t-70.5 6h-60v99h484v-99h-39q-59 0 -107 -24.5t-102 -83.5z" />
    <glyph glyph-name="y" unicode="y" horiz-adv-x="1169" 
d="M522 -6l-334 778q-24 56 -53 76t-82 20h-53v99h524v-99h-90q-36 0 -52.5 -9.5t-16.5 -31.5q0 -12 4.5 -30.5t13.5 -38.5l231 -547l236 557q6 15 9 26t3 19q0 32 -20 43.5t-80 11.5h-84v99h491v-99h-61q-46 0 -74 -23.5t-63 -105.5l-287 -659l-10 -24q-215 -496 -451 -496
q-102 0 -169.5 65.5t-67.5 161.5q0 66 39.5 109t99.5 43q48 0 79.5 -31.5t31.5 -79.5q0 -49 -30.5 -74t-90.5 -27q23 -33 51.5 -49t66.5 -16q81 0 146 73t143 259z" />
    <glyph glyph-name="z" unicode="z" horiz-adv-x="1022" 
d="M49 0v102l658 764h-244q-127 0 -169.5 -15.5t-66.5 -53.5q-19 -33 -30 -86t-17 -150h-98v406h842v-101l-654 -764h262q131 0 189.5 19.5t81.5 64.5q16 33 25 84t16 168h100v-438h-895z" />
    <glyph glyph-name="braceleft" unicode="{" 
d="M846 1516v-51q-142 -2 -194 -55.5t-52 -209.5v-143q0 -226 -61 -308.5t-226 -113.5q165 -31 226 -113.5t61 -308.5v-143q0 -156 51.5 -208.5t194.5 -54.5v-51h-10q-217 0 -298 73.5t-81 272.5v213q0 158 -59 218t-222 73v60q165 15 223 74t58 216v213q0 200 81 273.5
t298 73.5h10z" />
    <glyph glyph-name="bar" unicode="|" 
d="M449 1565h126v-2048h-126v2048z" />
    <glyph glyph-name="braceright" unicode="}" 
d="M178 1516h10q216 0 297.5 -74t81.5 -273v-213q0 -157 58 -216t223 -74v-60q-163 -13 -222 -73t-59 -218v-213q0 -198 -81.5 -272t-297.5 -74h-10v51q143 2 194.5 54.5t51.5 208.5v143q0 226 61 308.5t226 113.5q-165 31 -226 113.5t-61 308.5v143q0 156 -52 209.5
t-194 55.5v51z" />
    <glyph glyph-name="asciitilde" unicode="~" horiz-adv-x="1706" 
d="M1530 758v-131q-101 -72 -197.5 -108t-189.5 -36q-43 0 -90.5 9t-100.5 26q-30 10 -87 31q-202 72 -302 72q-83 0 -173.5 -37.5t-211.5 -122.5v133q105 73 202 109t185 36q56 0 116.5 -12.5t174.5 -52.5q12 -4 35 -13q164 -59 254 -59q85 0 176 36.5t209 119.5z" />
    <glyph glyph-name="Adieresis" unicode="&#xc4;" horiz-adv-x="1442" 
d="M467 569h438l-223 588zM-39 0v109h68q69 0 103 24t61 94l442 1147h172l438 -1138q29 -78 64.5 -102.5t105.5 -24.5h58v-109h-652v109h111q74 0 96.5 12t22.5 49q0 7 -4 21.5t-11 33.5l-86 236h-524l-76 -193q-17 -44 -22.5 -66.5t-5.5 -37.5q0 -32 24 -43.5t107 -11.5
h102v-109h-594zM815 1690q0 44 34 77.5t81 33.5q46 0 78 -32.5t32 -78.5q0 -50 -31 -82.5t-79 -32.5q-49 0 -82 33t-33 82zM432 1690q0 45 33.5 78t78.5 33q47 0 80 -32.5t33 -78.5q0 -50 -32 -82.5t-81 -32.5q-48 0 -80 32.5t-32 82.5z" />
    <glyph glyph-name="Aring" unicode="&#xc5;" horiz-adv-x="1442" 
d="M473 1690q0 104 71.5 175.5t176.5 71.5q104 0 176 -71.5t72 -175.5q0 -105 -72 -176.5t-176 -71.5q-105 0 -176.5 71.5t-71.5 176.5zM580 1690q0 -60 41.5 -102t101.5 -42t100.5 41.5t40.5 102.5q0 60 -40.5 100.5t-100.5 40.5t-101.5 -41t-41.5 -100zM467 569h438
l-223 588zM-39 0v109h68q69 0 103 24t61 94l442 1147h172l438 -1138q29 -78 64.5 -102.5t105.5 -24.5h58v-109h-652v109h111q74 0 96.5 12t22.5 49q0 7 -4 21.5t-11 33.5l-86 236h-524l-76 -193q-17 -44 -22.5 -66.5t-5.5 -37.5q0 -32 24 -43.5t107 -11.5h102v-109h-594z
" />
    <glyph glyph-name="Ccedilla" unicode="&#xc7;" horiz-adv-x="1450" 
d="M1225 500h123q-20 -266 -167.5 -403.5t-410.5 -137.5q-308 0 -499 203t-191 530q0 152 53.5 288.5t151.5 236.5q96 96 219 147t258 51q113 0 218 -40.5t210 -125.5l51 125h94v-534h-104q-20 206 -146 332t-311 126q-204 0 -337.5 -171t-133.5 -435q0 -280 132.5 -444
t359.5 -164q184 0 294 106.5t136 309.5zM461 -379l36 90q60 -38 120 -58t112 -20q57 0 84.5 22.5t27.5 68.5q0 43 -27.5 64.5t-82.5 21.5q-13 0 -29 -2t-33 -4v196h66v-115q11 2 23.5 3t37.5 1q88 0 137.5 -43.5t49.5 -121.5q0 -84 -59.5 -131.5t-165.5 -47.5
q-59 0 -131 18.5t-166 57.5z" />
    <glyph glyph-name="Eacute" unicode="&#xc9;" horiz-adv-x="1526" 
d="M57 0v109h84q89 0 117.5 24t28.5 127v856q0 102 -28 126t-118 24h-84v108h1303v-516h-107q0 240 -79.5 324t-315.5 84h-373v-490h142q145 0 183 49t38 215h104v-673h-104q-4 193 -47 247t-176 54h-140v-559h400q217 0 291 88.5t78 361.5h106v-559h-1303zM580 1526
l276 301q26 29 54 44.5t53 15.5q31 0 53.5 -23t22.5 -55q0 -27 -17.5 -48t-66.5 -53l-301 -182h-74z" />
    <glyph glyph-name="Ntilde" unicode="&#xd1;" horiz-adv-x="1704" 
d="M1436 -6h-174l-842 1194v-928q0 -103 28 -127t117 -24h103v-109h-611v109h80q89 0 117.5 24t28.5 127v854q0 103 -28.5 127.5t-117.5 24.5h-80v108h461l780 -1104v844q0 103 -28 127.5t-117 24.5h-109v108h605v-108h-68q-89 0 -117 -24.5t-28 -127.5v-1120zM1114 1844
q-22 -113 -71.5 -171.5t-123.5 -58.5q-11 0 -23.5 1.5t-27.5 4.5l-107 27q-3 1 -8 2q-36 8 -45 8q-42 0 -65 -20.5t-37 -71.5h-58q24 117 72 174t125 57q16 0 32.5 -2t30.5 -6l109 -26q12 -3 24.5 -4.5t26.5 -2.5q34 0 56 22t32 67h58z" />
    <glyph glyph-name="Odieresis" unicode="&#xd6;" horiz-adv-x="1636" 
d="M303 688q0 -280 140.5 -447t373.5 -167t373.5 167t140.5 447t-140 446t-374 166q-233 0 -373.5 -166t-140.5 -446zM80 688q0 160 58 297.5t169 241.5q97 90 229.5 139t280.5 49t280.5 -49t229.5 -139q112 -105 169.5 -241.5t57.5 -297.5q0 -162 -57.5 -299t-169.5 -242
q-97 -90 -229.5 -139t-280.5 -49t-280.5 49t-229.5 139q-111 104 -169 242t-58 299zM897 1690q0 44 34 77.5t81 33.5q46 0 78 -32.5t32 -78.5q0 -50 -31 -82.5t-79 -32.5q-49 0 -82 33t-33 82zM514 1690q0 45 33.5 78t78.5 33q47 0 80 -32.5t33 -78.5q0 -50 -32 -82.5
t-81 -32.5q-48 0 -80 32.5t-32 82.5z" />
    <glyph glyph-name="Udieresis" unicode="&#xdc;" horiz-adv-x="1569" 
d="M268 1116q0 102 -27.5 126t-117.5 24h-66v108h658v-108h-103q-89 0 -117 -24t-28 -126v-686q0 -172 83.5 -253t260.5 -81q189 0 272.5 94.5t83.5 311.5v614q0 102 -27.5 126t-117.5 24h-100v108h589v-108h-61q-90 0 -117.5 -24t-27.5 -126v-614q0 -274 -130 -408.5
t-393 -134.5q-250 0 -382 120.5t-132 350.5v686zM903 1690q0 44 34 77.5t81 33.5q46 0 78 -32.5t32 -78.5q0 -50 -31 -82.5t-79 -32.5q-49 0 -82 33t-33 82zM520 1690q0 45 33.5 78t78.5 33q47 0 80 -32.5t33 -78.5q0 -50 -32 -82.5t-81 -32.5q-48 0 -80 32.5t-32 82.5z" />
    <glyph glyph-name="aacute" unicode="&#xe1;" horiz-adv-x="1135" 
d="M713 520q-52 -25 -97.5 -43.5t-87.5 -32.5l-79 -26q-102 -33 -147.5 -77t-45.5 -110t43.5 -105.5t116.5 -39.5q141 0 219 84.5t78 239.5v110zM725 125q-81 -81 -171 -121.5t-189 -40.5q-137 0 -220.5 72t-83.5 190q0 108 74.5 174.5t259.5 118.5l162 45q93 26 124.5 60.5
t31.5 105.5q0 83 -62 132.5t-166 49.5q-67 0 -123 -21.5t-103 -66.5q44 -9 68.5 -36t24.5 -68q0 -44 -32 -72.5t-80 -28.5q-54 0 -89.5 35.5t-35.5 89.5q0 110 111 185.5t280 75.5q86 0 161 -20t119 -54q56 -42 78.5 -93t22.5 -163v-477q0 -67 14.5 -94t48.5 -27
q49 0 69 53.5t22 198.5h96v-23q0 -180 -51.5 -261t-165.5 -81q-79 0 -127 40t-68 122zM348 1114l276 301q26 29 54 44.5t53 15.5q31 0 53.5 -23t22.5 -55q0 -27 -17.5 -48t-66.5 -53l-301 -182h-74z" />
    <glyph glyph-name="agrave" unicode="&#xe0;" horiz-adv-x="1135" 
d="M713 520q-52 -25 -97.5 -43.5t-87.5 -32.5l-79 -26q-102 -33 -147.5 -77t-45.5 -110t43.5 -105.5t116.5 -39.5q141 0 219 84.5t78 239.5v110zM725 125q-81 -81 -171 -121.5t-189 -40.5q-137 0 -220.5 72t-83.5 190q0 108 74.5 174.5t259.5 118.5l162 45q93 26 124.5 60.5
t31.5 105.5q0 83 -62 132.5t-166 49.5q-67 0 -123 -21.5t-103 -66.5q44 -9 68.5 -36t24.5 -68q0 -44 -32 -72.5t-80 -28.5q-54 0 -89.5 35.5t-35.5 89.5q0 110 111 185.5t280 75.5q86 0 161 -20t119 -54q56 -42 78.5 -93t22.5 -163v-477q0 -67 14.5 -94t48.5 -27
q49 0 69 53.5t22 198.5h96v-23q0 -180 -51.5 -261t-165.5 -81q-79 0 -127 40t-68 122zM700 1114h-74l-301 182q-49 32 -66.5 53t-17.5 48q0 32 22.5 55t53.5 23q25 0 53 -15.5t54 -44.5z" />
    <glyph glyph-name="acircumflex" unicode="&#xe2;" horiz-adv-x="1135" 
d="M713 520q-52 -25 -97.5 -43.5t-87.5 -32.5l-79 -26q-102 -33 -147.5 -77t-45.5 -110t43.5 -105.5t116.5 -39.5q141 0 219 84.5t78 239.5v110zM725 125q-81 -81 -171 -121.5t-189 -40.5q-137 0 -220.5 72t-83.5 190q0 108 74.5 174.5t259.5 118.5l162 45q93 26 124.5 60.5
t31.5 105.5q0 83 -62 132.5t-166 49.5q-67 0 -123 -21.5t-103 -66.5q44 -9 68.5 -36t24.5 -68q0 -44 -32 -72.5t-80 -28.5q-54 0 -89.5 35.5t-35.5 89.5q0 110 111 185.5t280 75.5q86 0 161 -20t119 -54q56 -42 78.5 -93t22.5 -163v-477q0 -67 14.5 -94t48.5 -27
q49 0 69 53.5t22 198.5h96v-23q0 -180 -51.5 -261t-165.5 -81q-79 0 -127 40t-68 122zM229 1114l227 348h134l229 -348h-74l-221 195l-221 -195h-74z" />
    <glyph glyph-name="adieresis" unicode="&#xe4;" horiz-adv-x="1135" 
d="M713 520q-52 -25 -97.5 -43.5t-87.5 -32.5l-79 -26q-102 -33 -147.5 -77t-45.5 -110t43.5 -105.5t116.5 -39.5q141 0 219 84.5t78 239.5v110zM725 125q-81 -81 -171 -121.5t-189 -40.5q-137 0 -220.5 72t-83.5 190q0 108 74.5 174.5t259.5 118.5l162 45q93 26 124.5 60.5
t31.5 105.5q0 83 -62 132.5t-166 49.5q-67 0 -123 -21.5t-103 -66.5q44 -9 68.5 -36t24.5 -68q0 -44 -32 -72.5t-80 -28.5q-54 0 -89.5 35.5t-35.5 89.5q0 110 111 185.5t280 75.5q86 0 161 -20t119 -54q56 -42 78.5 -93t22.5 -163v-477q0 -67 14.5 -94t48.5 -27
q49 0 69 53.5t22 198.5h96v-23q0 -180 -51.5 -261t-165.5 -81q-79 0 -127 40t-68 122zM602 1278q0 44 34 77.5t81 33.5q46 0 78 -32.5t32 -78.5q0 -50 -31 -82.5t-79 -32.5q-49 0 -82 33t-33 82zM219 1278q0 45 33.5 78t78.5 33q47 0 80 -32.5t33 -78.5q0 -50 -32 -82.5
t-81 -32.5q-48 0 -80 32.5t-32 82.5z" />
    <glyph glyph-name="atilde" unicode="&#xe3;" horiz-adv-x="1135" 
d="M713 520q-52 -25 -97.5 -43.5t-87.5 -32.5l-79 -26q-102 -33 -147.5 -77t-45.5 -110t43.5 -105.5t116.5 -39.5q141 0 219 84.5t78 239.5v110zM725 125q-81 -81 -171 -121.5t-189 -40.5q-137 0 -220.5 72t-83.5 190q0 108 74.5 174.5t259.5 118.5l162 45q93 26 124.5 60.5
t31.5 105.5q0 83 -62 132.5t-166 49.5q-67 0 -123 -21.5t-103 -66.5q44 -9 68.5 -36t24.5 -68q0 -44 -32 -72.5t-80 -28.5q-54 0 -89.5 35.5t-35.5 89.5q0 110 111 185.5t280 75.5q86 0 161 -20t119 -54q56 -42 78.5 -93t22.5 -163v-477q0 -67 14.5 -94t48.5 -27
q49 0 69 53.5t22 198.5h96v-23q0 -180 -51.5 -261t-165.5 -81q-79 0 -127 40t-68 122zM807 1432q-22 -113 -71.5 -171.5t-123.5 -58.5q-11 0 -23.5 1.5t-27.5 4.5l-107 27q-3 1 -8 2q-36 8 -45 8q-42 0 -65 -20.5t-37 -71.5h-58q24 117 72 174t125 57q16 0 32.5 -2t30.5 -6
l109 -26q12 -3 24.5 -4.5t26.5 -2.5q34 0 56 22t32 67h58z" />
    <glyph glyph-name="aring" unicode="&#xe5;" horiz-adv-x="1135" 
d="M375 1317q0 -60 40.5 -100.5t100.5 -40.5t100.5 40.5t40.5 100.5t-40.5 101.5t-100.5 41.5q-59 0 -100 -41.5t-41 -101.5zM268 1319q0 104 71.5 175t176.5 71t176.5 -71t71.5 -175q0 -105 -72 -177.5t-176 -72.5t-176 72.5t-72 177.5zM713 520q-52 -25 -97.5 -43.5
t-87.5 -32.5l-79 -26q-102 -33 -147.5 -77t-45.5 -110t43.5 -105.5t116.5 -39.5q141 0 219 84.5t78 239.5v110zM725 125q-81 -81 -171 -121.5t-189 -40.5q-137 0 -220.5 72t-83.5 190q0 108 74.5 174.5t259.5 118.5l162 45q98 28 131 63t33 103q0 81 -65 131.5t-171 50.5
q-67 0 -123.5 -21.5t-105.5 -66.5q46 -9 71 -36t25 -68q0 -44 -32 -72.5t-80 -28.5q-54 0 -89.5 35.5t-35.5 89.5q0 110 111 185.5t280 75.5q86 0 161 -20t119 -54q56 -42 78.5 -93t22.5 -163v-477q0 -67 14.5 -94t48.5 -27q49 0 69 53.5t22 198.5h96v-23q0 -180 -51.5 -261
t-165.5 -81q-79 0 -127 40t-68 122z" />
    <glyph glyph-name="ccedilla" unicode="&#xe7;" horiz-adv-x="1051" 
d="M874 360h119q-29 -196 -140 -296.5t-300 -100.5q-222 0 -356 140t-134 374q0 231 145.5 379t371.5 148q181 0 302.5 -89t121.5 -217q0 -67 -37 -108t-97 -41q-54 0 -86 29t-32 77q0 50 26.5 76.5t85.5 36.5q-34 68 -101.5 101.5t-168.5 33.5q-155 0 -243.5 -113
t-88.5 -313q0 -183 82.5 -288t226.5 -105q122 0 199 70t104 206zM252 -379l36 90q60 -38 120 -58t112 -20q57 0 84.5 22.5t27.5 68.5q0 43 -27.5 64.5t-82.5 21.5q-13 0 -29 -2t-33 -4v196h66v-115q11 2 23.5 3t37.5 1q88 0 137.5 -43.5t49.5 -121.5q0 -84 -59.5 -131.5
t-165.5 -47.5q-59 0 -131 18.5t-166 57.5z" />
    <glyph glyph-name="eacute" unicode="&#xe9;" horiz-adv-x="1083" 
d="M819 576q-3 165 -70 245t-202 80q-126 0 -197.5 -84t-81.5 -241h551zM870 317h121q-35 -177 -145 -265.5t-295 -88.5q-219 0 -353.5 143t-134.5 377q0 235 134 378t354 143q228 0 348.5 -137.5t122.5 -399.5h-760v-14q0 -182 77 -277.5t224 -95.5q118 0 195.5 60
t111.5 177zM369 1114l276 301q26 29 54 44.5t53 15.5q31 0 53.5 -23t22.5 -55q0 -27 -17.5 -48t-66.5 -53l-301 -182h-74z" />
    <glyph glyph-name="egrave" unicode="&#xe8;" horiz-adv-x="1083" 
d="M819 576q-3 165 -70 245t-202 80q-126 0 -197.5 -84t-81.5 -241h551zM870 317h121q-35 -177 -145 -265.5t-295 -88.5q-219 0 -353.5 143t-134.5 377q0 235 134 378t354 143q228 0 348.5 -137.5t122.5 -399.5h-760v-14q0 -182 77 -277.5t224 -95.5q118 0 195.5 60
t111.5 177zM721 1114h-74l-301 182q-49 32 -66.5 53t-17.5 48q0 32 22.5 55t53.5 23q25 0 53 -15.5t54 -44.5z" />
    <glyph glyph-name="ecircumflex" unicode="&#xea;" horiz-adv-x="1083" 
d="M819 576q-3 165 -70 245t-202 80q-126 0 -197.5 -84t-81.5 -241h551zM870 317h121q-35 -177 -145 -265.5t-295 -88.5q-219 0 -353.5 143t-134.5 377q0 235 134 378t354 143q228 0 348.5 -137.5t122.5 -399.5h-760v-14q0 -182 77 -277.5t224 -95.5q118 0 195.5 60
t111.5 177zM250 1114l227 348h134l229 -348h-74l-221 195l-221 -195h-74z" />
    <glyph glyph-name="edieresis" unicode="&#xeb;" horiz-adv-x="1083" 
d="M819 576q-3 165 -70 245t-202 80q-126 0 -197.5 -84t-81.5 -241h551zM870 317h121q-35 -177 -145 -265.5t-295 -88.5q-219 0 -353.5 143t-134.5 377q0 235 134 378t354 143q228 0 348.5 -137.5t122.5 -399.5h-760v-14q0 -182 77 -277.5t224 -95.5q118 0 195.5 60
t111.5 177zM623 1278q0 44 34 77.5t81 33.5q46 0 78 -32.5t32 -78.5q0 -50 -31 -82.5t-79 -32.5q-49 0 -82 33t-33 82zM240 1278q0 45 33.5 78t78.5 33q47 0 80 -32.5t33 -78.5q0 -50 -32 -82.5t-81 -32.5q-48 0 -80 32.5t-32 82.5z" />
    <glyph glyph-name="iacute" unicode="&#xed;" horiz-adv-x="680" 
d="M66 0v100h65q81 0 107 22.5t26 94.5v533q0 73 -26.5 95.5t-106.5 22.5h-65v99h376v-750q0 -72 26 -94.5t107 -22.5h52v-100h-561zM160 1114l276 301q26 29 54 44.5t53 15.5q31 0 53.5 -23t22.5 -55q0 -27 -17.5 -48t-66.5 -53l-301 -182h-74z" />
    <glyph glyph-name="igrave" unicode="&#xec;" horiz-adv-x="680" 
d="M66 0v100h65q81 0 107 22.5t26 94.5v533q0 73 -26.5 95.5t-106.5 22.5h-65v99h376v-750q0 -72 26 -94.5t107 -22.5h52v-100h-561zM512 1114h-74l-301 182q-49 32 -66.5 53t-17.5 48q0 32 22.5 55t53.5 23q25 0 53 -15.5t54 -44.5z" />
    <glyph glyph-name="icircumflex" unicode="&#xee;" horiz-adv-x="680" 
d="M66 0v100h65q81 0 107 22.5t26 94.5v533q0 73 -26.5 95.5t-106.5 22.5h-65v99h376v-750q0 -72 26 -94.5t107 -22.5h52v-100h-561zM41 1114l227 348h134l229 -348h-74l-221 195l-221 -195h-74z" />
    <glyph glyph-name="idieresis" unicode="&#xef;" horiz-adv-x="680" 
d="M66 0v100h65q81 0 107 22.5t26 94.5v533q0 73 -26.5 95.5t-106.5 22.5h-65v99h376v-750q0 -72 26 -94.5t107 -22.5h52v-100h-561zM414 1278q0 44 34 77.5t81 33.5q46 0 78 -32.5t32 -78.5q0 -50 -31 -82.5t-79 -32.5q-49 0 -82 33t-33 82zM31 1278q0 45 33.5 78t78.5 33
q47 0 80 -32.5t33 -78.5q0 -50 -32 -82.5t-81 -32.5q-48 0 -80 32.5t-32 82.5z" />
    <glyph glyph-name="ntilde" unicode="&#xf1;" horiz-adv-x="1341" 
d="M61 0v100h58q81 0 107 22.5t26 94.5v533q0 73 -26.5 95.5t-106.5 22.5h-58v99h367v-166q59 96 149.5 145t206.5 49q92 0 160 -30.5t113 -92.5q32 -44 45.5 -109.5t13.5 -209.5v-336q0 -72 26 -94.5t107 -22.5h45v-100h-553v100h68q80 0 105.5 22t25.5 95v363
q0 168 -46.5 236.5t-156.5 68.5q-139 0 -224 -90.5t-85 -241.5v-336q0 -73 25.5 -95t105.5 -22h68v-100h-566zM955 1432q-22 -113 -71.5 -171.5t-123.5 -58.5q-11 0 -23.5 1.5t-27.5 4.5l-107 27q-3 1 -8 2q-36 8 -45 8q-42 0 -65 -20.5t-37 -71.5h-58q24 117 72 174t125 57
q16 0 32.5 -2t30.5 -6l109 -26q12 -3 24.5 -4.5t26.5 -2.5q34 0 56 22t32 67h58z" />
    <glyph glyph-name="oacute" unicode="&#xf3;" horiz-adv-x="1188" 
d="M262 483q0 -199 86 -306t246 -107t246 107t86 306q0 200 -86.5 308t-245.5 108q-160 0 -246 -108t-86 -308zM63 483q0 230 149 375.5t382 145.5t381.5 -145.5t148.5 -375.5q0 -229 -148.5 -373.5t-381.5 -144.5q-234 0 -382.5 144.5t-148.5 373.5zM418 1114l276 301
q26 29 54 44.5t53 15.5q31 0 53.5 -23t22.5 -55q0 -27 -17.5 -48t-66.5 -53l-301 -182h-74z" />
    <glyph glyph-name="ograve" unicode="&#xf2;" horiz-adv-x="1188" 
d="M262 483q0 -199 86 -306t246 -107t246 107t86 306q0 200 -86.5 308t-245.5 108q-160 0 -246 -108t-86 -308zM63 483q0 230 149 375.5t382 145.5t381.5 -145.5t148.5 -375.5q0 -229 -148.5 -373.5t-381.5 -144.5q-234 0 -382.5 144.5t-148.5 373.5zM770 1114h-74l-301 182
q-49 32 -66.5 53t-17.5 48q0 32 22.5 55t53.5 23q25 0 53 -15.5t54 -44.5z" />
    <glyph glyph-name="ocircumflex" unicode="&#xf4;" horiz-adv-x="1188" 
d="M262 483q0 -199 86 -306t246 -107t246 107t86 306q0 200 -86.5 308t-245.5 108q-160 0 -246 -108t-86 -308zM63 483q0 230 149 375.5t382 145.5t381.5 -145.5t148.5 -375.5q0 -229 -148.5 -373.5t-381.5 -144.5q-234 0 -382.5 144.5t-148.5 373.5zM299 1114l227 348h134
l229 -348h-74l-221 195l-221 -195h-74z" />
    <glyph glyph-name="odieresis" unicode="&#xf6;" horiz-adv-x="1188" 
d="M262 483q0 -199 86 -306t246 -107t246 107t86 306q0 200 -86.5 308t-245.5 108q-160 0 -246 -108t-86 -308zM63 483q0 230 149 375.5t382 145.5t381.5 -145.5t148.5 -375.5q0 -229 -148.5 -373.5t-381.5 -144.5q-234 0 -382.5 144.5t-148.5 373.5zM672 1278q0 44 34 77.5
t81 33.5q46 0 78 -32.5t32 -78.5q0 -50 -31 -82.5t-79 -32.5q-49 0 -82 33t-33 82zM289 1278q0 45 33.5 78t78.5 33q47 0 80 -32.5t33 -78.5q0 -50 -32 -82.5t-81 -32.5q-48 0 -80 32.5t-32 82.5z" />
    <glyph glyph-name="otilde" unicode="&#xf5;" horiz-adv-x="1188" 
d="M262 483q0 -199 86 -306t246 -107t246 107t86 306q0 200 -86.5 308t-245.5 108q-160 0 -246 -108t-86 -308zM63 483q0 230 149 375.5t382 145.5t381.5 -145.5t148.5 -375.5q0 -229 -148.5 -373.5t-381.5 -144.5q-234 0 -382.5 144.5t-148.5 373.5zM877 1432
q-22 -113 -71.5 -171.5t-123.5 -58.5q-11 0 -23.5 1.5t-27.5 4.5l-107 27q-3 1 -8 2q-36 8 -45 8q-42 0 -65 -20.5t-37 -71.5h-58q24 117 72 174t125 57q16 0 32.5 -2t30.5 -6l109 -26q12 -3 24.5 -4.5t26.5 -2.5q34 0 56 22t32 67h58z" />
    <glyph glyph-name="uacute" unicode="&#xfa;" horiz-adv-x="1329" 
d="M225 414v336q0 73 -26.5 95.5t-106.5 22.5h-45v99h352v-580q0 -167 47 -236t158 -69q139 0 224 91.5t85 242.5v334q0 73 -25.5 95.5t-105.5 22.5h-80v99h388v-750q0 -72 25.5 -94.5t107.5 -22.5h57v-100h-367v168q-59 -96 -149.5 -145.5t-206.5 -49.5q-93 0 -160.5 30
t-111.5 91q-32 44 -46 109.5t-14 210.5zM428 1114l276 301q26 29 54 44.5t53 15.5q31 0 53.5 -23t22.5 -55q0 -27 -17.5 -48t-66.5 -53l-301 -182h-74z" />
    <glyph glyph-name="ugrave" unicode="&#xf9;" horiz-adv-x="1329" 
d="M225 414v336q0 73 -26.5 95.5t-106.5 22.5h-45v99h352v-580q0 -167 47 -236t158 -69q139 0 224 91.5t85 242.5v334q0 73 -25.5 95.5t-105.5 22.5h-80v99h388v-750q0 -72 25.5 -94.5t107.5 -22.5h57v-100h-367v168q-59 -96 -149.5 -145.5t-206.5 -49.5q-93 0 -160.5 30
t-111.5 91q-32 44 -46 109.5t-14 210.5zM780 1114h-74l-301 182q-49 32 -66.5 53t-17.5 48q0 32 22.5 55t53.5 23q25 0 53 -15.5t54 -44.5z" />
    <glyph glyph-name="ucircumflex" unicode="&#xfb;" horiz-adv-x="1329" 
d="M225 414v336q0 73 -26.5 95.5t-106.5 22.5h-45v99h352v-580q0 -167 47 -236t158 -69q139 0 224 91.5t85 242.5v334q0 73 -25.5 95.5t-105.5 22.5h-80v99h388v-750q0 -72 25.5 -94.5t107.5 -22.5h57v-100h-367v168q-59 -96 -149.5 -145.5t-206.5 -49.5q-93 0 -160.5 30
t-111.5 91q-32 44 -46 109.5t-14 210.5zM309 1114l227 348h134l229 -348h-74l-221 195l-221 -195h-74z" />
    <glyph glyph-name="udieresis" unicode="&#xfc;" horiz-adv-x="1329" 
d="M225 414v336q0 73 -26.5 95.5t-106.5 22.5h-45v99h352v-580q0 -167 47 -236t158 -69q139 0 224 91.5t85 242.5v334q0 73 -25.5 95.5t-105.5 22.5h-80v99h388v-750q0 -72 25.5 -94.5t107.5 -22.5h57v-100h-367v168q-59 -96 -149.5 -145.5t-206.5 -49.5q-93 0 -160.5 30
t-111.5 91q-32 44 -46 109.5t-14 210.5zM682 1278q0 44 34 77.5t81 33.5q46 0 78 -32.5t32 -78.5q0 -50 -31 -82.5t-79 -32.5q-49 0 -82 33t-33 82zM299 1278q0 45 33.5 78t78.5 33q47 0 80 -32.5t33 -78.5q0 -50 -32 -82.5t-81 -32.5q-48 0 -80 32.5t-32 82.5z" />
    <glyph glyph-name="dagger" unicode="&#x2020;" horiz-adv-x="1214" 
d="M561 754q-84 0 -200.5 -22.5t-151.5 -22.5q-45 0 -69.5 21t-24.5 61q0 39 24.5 60t69.5 21q35 0 151.5 -22.5t200.5 -21.5q-2 143 -26.5 294.5t-24.5 161.5q0 63 25 97t71 34q47 0 73 -34.5t26 -96.5q0 -10 -25.5 -161t-28.5 -295q86 -1 202 21.5t151 22.5
q45 0 70.5 -21.5t25.5 -59.5q0 -39 -25.5 -60.5t-70.5 -21.5q-35 0 -151 22.5t-200 22.5v-68q0 -479 45 -915q7 -60 7 -70q0 -68 -26 -105.5t-73 -37.5q-46 0 -71 37t-25 106q0 10 6 70q45 436 45 917v66z" />
    <glyph glyph-name="degree" unicode="&#xb0;" horiz-adv-x="674" 
d="M338 1372q-84 0 -143.5 -58.5t-59.5 -142.5t59.5 -143t143.5 -59t142.5 59t58.5 143t-58.5 142.5t-142.5 58.5zM338 1454q117 0 200 -83t83 -200q0 -116 -83.5 -199t-201.5 -83t-199.5 82t-81.5 200q0 119 82.5 201t200.5 82z" />
    <glyph glyph-name="cent" unicode="&#xa2;" horiz-adv-x="1255" 
d="M193 -178l139 272q-93 66 -140 170t-47 242q0 237 141 383.5t369 146.5q34 0 71 -4t81 -12l94 180h107l-109 -215q86 -39 136 -106t50 -144q0 -68 -36 -109.5t-95 -41.5q-55 0 -87.5 29t-32.5 77q0 49 27.5 76t86.5 37q-17 33 -40.5 56t-55.5 38l-373 -725
q43 -26 86.5 -38.5t89.5 -12.5q123 0 198.5 68.5t102.5 205.5h119q-29 -198 -142 -297.5t-306 -99.5q-54 0 -106.5 11.5t-106.5 35.5l-115 -223h-106zM764 930q-19 4 -40 6t-44 2q-160 0 -248 -111.5t-88 -314.5q0 -71 16.5 -136.5t51.5 -127.5z" />
    <glyph glyph-name="sterling" unicode="&#xa3;" horiz-adv-x="1255" 
d="M152 -29l-56 115q119 90 178.5 191.5t59.5 214.5q0 18 -1.5 37t-4.5 40h-226v90h199q-63 91 -91 155t-28 118q0 154 136 252t356 98q192 0 326.5 -91t134.5 -212q0 -66 -38.5 -105.5t-101.5 -39.5q-48 0 -78 30.5t-30 79.5q0 36 16 62.5t58 56.5q-32 57 -105 89t-172 32
q-127 0 -213 -67.5t-86 -162.5q0 -62 57.5 -158.5t73.5 -136.5h279v-90h-268q0 -6 0.5 -13.5t0.5 -20.5q0 -88 -43 -167t-139 -163l8 -12q43 29 85 43t85 14q34 0 68 -8t65 -23l97 -45q42 -19 83.5 -30t71.5 -11q80 0 117.5 61.5t42.5 200.5h90v-16q0 -204 -72 -311
t-208 -107q-29 0 -59 7.5t-72 25.5l-123 51q-73 31 -121 43t-92 12q-72 0 -135.5 -31.5t-124.5 -97.5z" />
    <glyph glyph-name="section" unicode="&#xa7;" horiz-adv-x="1214" 
d="M754 270q110 43 160.5 95.5t50.5 121.5q0 53 -38 90t-130 72l-344 129q-101 -34 -151 -85.5t-50 -121.5q0 -63 42 -106.5t136 -77.5zM346 -276q54 -28 106 -41t105 -13q151 0 235.5 62.5t84.5 173.5q0 85 -62 144.5t-203 107.5l-227 78q-139 48 -207.5 126t-68.5 189
q0 90 57.5 162t169.5 121q-66 40 -101.5 103t-35.5 140q0 149 119.5 243.5t314.5 94.5q172 0 274.5 -70t102.5 -186q0 -66 -37.5 -103.5t-102.5 -37.5q-58 0 -94.5 31.5t-36.5 80.5q0 46 24 76t71 43q-48 33 -98.5 48.5t-108.5 15.5q-129 0 -203 -53.5t-74 -145.5
q0 -69 40 -110.5t192 -100.5l229 -88q179 -69 237 -135.5t58 -175.5q0 -95 -58 -166t-176 -121q86 -46 128 -114t42 -158q0 -173 -129.5 -276t-349.5 -103q-188 0 -295.5 71t-107.5 193q0 70 40 113t105 43q59 0 97 -39t38 -99q0 -42 -23 -73t-71 -51z" />
    <glyph glyph-name="bullet" unicode="&#x2022;" horiz-adv-x="1208" 
d="M307 762q0 123 87 209t210 86q122 0 208.5 -86.5t86.5 -208.5t-87.5 -209.5t-209.5 -87.5q-123 0 -209 87t-86 210z" />
    <glyph glyph-name="paragraph" unicode="&#xb6;" 
d="M948 1479v-78h-125v-1401h-94v1401h-182v-1401h-96v782q-173 8 -274 102.5t-101 245.5q0 157 107.5 253t285.5 96h479z" />
    <glyph glyph-name="germandbls" unicode="&#xdf;" horiz-adv-x="1286" 
d="M35 0l6 100h47q81 0 107 22.5t26 94.5v692q0 244 114 373t331 129q181 0 293 -84t112 -219q0 -99 -61.5 -165t-184.5 -97q174 -39 261.5 -143t87.5 -273q0 -207 -106.5 -336t-276.5 -129q-137 0 -201 87.5t-64 275.5v18h113q2 -141 38 -205.5t114 -64.5q89 0 137.5 83.5
t48.5 237.5q0 200 -96 292.5t-303 92.5h-37v103h18q159 0 239.5 52.5t80.5 156.5q0 98 -60.5 155.5t-165.5 57.5q-137 0 -196.5 -90.5t-59.5 -307.5v-909h-362z" />
    <glyph glyph-name="registered" unicode="&#xae;" horiz-adv-x="1683" 
d="M729 719q16 -1 32 -1.5t34 -0.5q112 0 173.5 45.5t61.5 128.5q0 73 -53 117.5t-143 44.5q-52 0 -78.5 -18.5t-26.5 -53.5v-262zM469 1092h393q147 0 232.5 -54.5t85.5 -146.5q0 -76 -69.5 -124t-217.5 -75q93 -29 142 -77.5t71 -133.5q6 -22 11 -63q13 -88 59 -88
q32 0 49.5 34t17.5 99h43v-12q0 -88 -40.5 -133.5t-119.5 -45.5q-46 0 -78.5 17t-48.5 49q-18 40 -21 113.5t-9 95.5q-20 68 -70.5 100.5t-136.5 32.5h-33v-248q0 -54 26.5 -75.5t98.5 -25.5v-40h-385v40q72 3 99.5 24.5t27.5 76.5v516q0 55 -26 76t-101 25v43zM844 1303
q-122 0 -236 -48t-202 -137t-134.5 -202.5t-46.5 -237.5q0 -127 46.5 -239t136.5 -201q88 -89 198.5 -135t235.5 -46q126 0 236.5 46t197.5 135q88 90 135 203t47 237t-47.5 241.5t-132.5 200.5q-86 87 -200.5 135t-233.5 48zM844 1382q138 0 268.5 -54t228.5 -152
q97 -97 150 -228t53 -272q0 -137 -55.5 -267.5t-157.5 -232.5q-99 -99 -224.5 -150t-270.5 -51q-137 0 -263 52.5t-227 152.5t-154 227t-53 271q0 140 53 268.5t152 229.5q98 99 228 152.5t272 53.5z" />
    <glyph glyph-name="copyright" unicode="&#xa9;" horiz-adv-x="1683" 
d="M1120 1096h35l2 -314h-41q-34 137 -104 206t-176 69q-123 0 -185.5 -94.5t-62.5 -278.5q0 -189 67 -285t199 -96q86 0 156 43t127 131l34 -24q-58 -105 -143 -157t-199 -52q-167 0 -285 123t-118 297q0 186 116 312t285 126q74 0 148 -34t82 -34q27 0 42 14.5t21 47.5z
M844 1303q-123 0 -237.5 -48.5t-200.5 -136.5q-88 -89 -134.5 -202.5t-46.5 -237.5q0 -125 47 -238.5t136 -201.5q88 -89 198.5 -135t235.5 -46q126 0 236.5 46t197.5 135q88 90 135 203t47 237t-47.5 240.5t-132.5 201.5q-86 87 -200.5 135t-233.5 48zM844 1382
q137 0 266.5 -53.5t226.5 -150.5q98 -97 152.5 -228.5t54.5 -271.5t-53 -268t-154 -230q-98 -100 -225 -152.5t-270 -52.5t-269 52.5t-227 152.5t-154 227t-53 271q0 140 53 268.5t152 229.5q98 99 228 152.5t272 53.5z" />
    <glyph glyph-name="trademark" unicode="&#x2122;" horiz-adv-x="1683" 
d="M788 1438h183l141 -400l148 400h174v-25l-30 -2q-22 -2 -34 -15.5t-12 -37.5v-373q0 -24 12 -37.5t34 -15.5l30 -2v-27h-236v27l31 2q21 2 33 16t12 37v395l-178 -479h-15l-174 479v-395q0 -23 12.5 -37t34.5 -16l31 -2v-27h-197v27l34 2q21 2 32.5 16t11.5 37v371
q0 23 -12.5 37t-34.5 16l-31 2v27zM256 1438h440l11 -178h-25q-8 79 -40.5 115t-96.5 36h-21v-426q0 -23 12 -37t33 -16l31 -2v-27h-248v27l31 2q21 1 33 15.5t12 37.5v426h-20q-64 0 -97 -36t-41 -115h-26z" />
    <glyph glyph-name="acute" unicode="&#xb4;" 
d="M336 1114l276 301q26 29 54 44.5t53 15.5q31 0 53.5 -23t22.5 -55q0 -27 -17.5 -48t-66.5 -53l-301 -182h-74z" />
    <glyph glyph-name="dieresis" unicode="&#xa8;" 
d="M590 1278q0 44 34 77.5t81 33.5q46 0 78 -32.5t32 -78.5q0 -50 -31 -82.5t-79 -32.5q-49 0 -82 33t-33 82zM207 1278q0 45 33.5 78t78.5 33q47 0 80 -32.5t33 -78.5q0 -50 -32 -82.5t-81 -32.5q-48 0 -80 32.5t-32 82.5z" />
    <glyph glyph-name="notequal" unicode="&#x2260;" horiz-adv-x="1706" 
d="M1210 1180l88 -70l-196 -250h350v-115h-424l-211 -270h635v-115h-709l-251 -319l-89 70l197 249h-346v115h420l211 270h-631v115h704z" />
    <glyph glyph-name="AE" unicode="&#xc6;" horiz-adv-x="2263" 
d="M526 557l-209 -289q-33 -44 -44 -68t-11 -46q0 -25 29.5 -35t99.5 -10h51v-109h-557v109h41q59 0 102.5 26.5t90.5 91.5l647 889q22 31 30.5 49t8.5 31q0 39 -30 54.5t-113 15.5h-101v108h1534v-516h-104q0 240 -80.5 324t-317.5 84h-370v-490h141q144 0 181.5 48.5
t37.5 215.5h105v-673h-105q-3 193 -46 247t-176 56h-138v-561h397q218 0 292.5 89t78.5 361h104v-559h-1300v109h100q89 0 117 24t28 127v297h-514zM604 668h436v598h-26z" />
    <glyph glyph-name="Oslash" unicode="&#xd8;" horiz-adv-x="1636" 
d="M1178 1147q-83 76 -173.5 114.5t-187.5 38.5q-231 0 -374.5 -169t-143.5 -443q0 -110 24.5 -206t71.5 -173zM457 227q83 -78 171 -115.5t189 -37.5q238 0 377 170.5t139 464.5q0 103 -23.5 189t-74.5 169zM121 14l153 166q-99 116 -146.5 239t-47.5 269q0 160 57.5 296.5
t169.5 242.5q98 93 226.5 140.5t283.5 47.5q130 0 247.5 -39t217.5 -116l156 170l69 -70l-151 -164q103 -115 150.5 -237.5t47.5 -270.5q0 -161 -58 -299t-169 -242q-99 -92 -228 -140t-282 -48q-137 0 -249.5 37.5t-217.5 118.5l-157 -172z" />
    <glyph glyph-name="infinity" unicode="&#x221e;" horiz-adv-x="1706" 
d="M905 559q51 -95 119 -141.5t156 -46.5q102 0 168.5 71t66.5 181q0 108 -61 179.5t-152 71.5q-85 0 -153.5 -72.5t-143.5 -242.5zM803 666q-51 95 -119 142.5t-154 47.5q-105 0 -171 -71t-66 -183q0 -108 61 -179t152 -71q85 0 152 69t145 245zM866 494
q-71 -138 -148 -201.5t-173 -63.5q-134 0 -226 109t-92 272q0 172 82.5 277.5t214.5 105.5q97 0 172 -63t144 -203q67 138 146 204t175 66q134 0 226 -108.5t92 -272.5q0 -171 -82 -277t-213 -106q-96 0 -169 60t-149 201z" />
    <glyph glyph-name="plusminus" unicode="&#xb1;" horiz-adv-x="1706" 
d="M254 158h1198v-117h-1198v117zM795 1180h118v-344h539v-117h-539v-344h-118v344h-541v117h541v344z" />
    <glyph glyph-name="lessequal" unicode="&#x2264;" horiz-adv-x="1706" 
d="M262 150h1182v-117h-1182v117zM1444 1192v-125l-977 -324l977 -323v-125l-1182 399v101z" />
    <glyph glyph-name="greaterequal" unicode="&#x2265;" horiz-adv-x="1706" 
d="M262 150h1182v-117h-1182v117zM262 1192l1182 -397v-101l-1182 -399v125l979 323l-979 324v125z" />
    <glyph glyph-name="yen" unicode="&#xa5;" horiz-adv-x="1305" 
d="M557 483h-518v97h461l-107 174h-354v96h291l-111 174q-39 62 -79 90.5t-87 28.5h-53v98h586v-98h-123q-33 0 -50.5 -9.5t-17.5 -27.5q0 -14 7 -33.5t20 -40.5l258 -416l278 435q11 16 17 31.5t6 27.5q0 16 -17 24.5t-49 8.5h-129v98h519v-98h-45q-58 0 -101 -32
t-100 -122l-88 -139h295v-96h-357l-110 -174h467v-97h-525v-247q0 -94 26.5 -116t109.5 -22h118v-98h-694v98h121q83 0 109 22t26 116v247z" />
    <glyph glyph-name="mu" unicode="&#xb5;" horiz-adv-x="1120" 
d="M164 193q-27 -136 -52 -339q-34 -272 -112 -272q-37 0 -58.5 23.5t-21.5 64.5q0 40 64.5 273.5t105.5 427.5l109 514h147l-104 -492q-6 -30 -9.5 -58.5t-3.5 -53.5q0 -83 42 -129t118 -46q98 0 163.5 68.5t94.5 200.5l111 510h149l-114 -531q-13 -59 -17 -87.5t-4 -49.5
q0 -48 26 -78t66 -30q35 0 65.5 18t51.5 51t41 93.5t39 60.5q12 0 19 -10t7 -27q0 -25 -11 -66.5t-29 -83.5q-38 -82 -95 -122.5t-135 -40.5q-68 0 -108.5 51t-40.5 139v23q-46 -110 -116 -164t-165 -54q-96 0 -152.5 54.5t-70.5 161.5z" />
    <glyph glyph-name="partialdiff" unicode="&#x2202;" horiz-adv-x="1044" 
d="M754 604q13 81 19.5 161.5t6.5 158.5q0 140 -39.5 216.5t-111.5 76.5q-53 0 -117 -63.5t-109 -63.5q-29 0 -51 21.5t-22 51.5q0 59 68 105.5t163 46.5q171 0 273 -152.5t102 -412.5q0 -335 -139 -555t-344 -220q-147 0 -241.5 106.5t-94.5 272.5q0 189 108.5 316
t266.5 127q99 0 162.5 -47t99.5 -146zM709 483q0 117 -45 180.5t-127 63.5q-113 0 -184.5 -127.5t-71.5 -333.5q0 -117 44 -178t128 -61q111 0 183.5 128t72.5 328z" />
    <glyph glyph-name="summation" unicode="&#x2211;" horiz-adv-x="1434" 
d="M12 1473h1135l98 -340h-74l-67 219q-8 27 -32 39t-73 12h-741l864 -850v-37l-858 -756h893q60 0 77.5 13t29.5 51l71 229h74l-135 -446h-1260v28l959 838l-961 950v50z" />
    <glyph glyph-name="product" unicode="&#x220f;" horiz-adv-x="1595" 
d="M57 1473h1479v-70h-186v-1727h186v-69h-555v69h197v1727h-762v-1727h196v-69h-555v69h187v1727h-187v70z" />
    <glyph glyph-name="pi" unicode="&#x3c0;" horiz-adv-x="1354" 
d="M1329 885l-35 -162h-329q-34 -179 -54 -452q-23 -314 -120 -314q-38 0 -58 24.5t-20 69.5q0 58 77 280.5t117 391.5h-375q-33 -177 -53 -448q-25 -318 -123 -318q-37 0 -57 25t-20 71q0 56 77.5 277t118.5 393h-133q-136 0 -180 -43.5t-72 -171.5h-59q37 207 117.5 292
t238.5 85h942z" />
    <glyph glyph-name="integral" unicode="&#x222b;" horiz-adv-x="1020" 
d="M301 -268q103 0 116 664q3 141 5 216q12 503 102 719.5t281 216.5q76 0 122 -39t46 -104q0 -48 -31 -77.5t-82 -29.5q-53 0 -85 35t-32 92q0 8 -6 15.5t-14 7.5q-105 0 -119 -634q-3 -157 -6 -245q-10 -308 -31.5 -461t-62.5 -247q-49 -114 -123 -173t-168 -59
q-73 0 -119.5 38t-46.5 97q0 53 31.5 84t83.5 31q47 0 79.5 -29t32.5 -67q0 -24 7.5 -37.5t19.5 -13.5z" />
    <glyph glyph-name="ordfeminine" unicode="&#xaa;" horiz-adv-x="852" 
d="M535 1063q-40 -18 -73.5 -31t-63.5 -22l-62 -19q-76 -23 -109.5 -53.5t-33.5 -77.5t32 -74.5t86 -27.5q107 0 165.5 59t58.5 168v78zM545 786q-62 -57 -129.5 -85.5t-141.5 -28.5q-102 0 -164.5 50.5t-62.5 133.5q0 75 55.5 121.5t194.5 83.5l121 33q70 18 93.5 41.5
t23.5 72.5q0 59 -46.5 94t-123.5 35q-51 0 -93 -15.5t-77 -47.5q33 -7 51 -25.5t18 -46.5q0 -31 -23.5 -51.5t-60.5 -20.5q-40 0 -67 25.5t-27 63.5q0 77 83 129.5t210 52.5q66 0 122.5 -14t88.5 -37q42 -30 59 -66t17 -115v-333q0 -47 10.5 -65.5t36.5 -18.5
q36 0 50.5 36.5t17.5 139.5h71v-17q0 -126 -38.5 -182.5t-123.5 -56.5q-58 0 -94.5 29t-50.5 85z" />
    <glyph glyph-name="ordmasculine" unicode="&#xba;" horiz-adv-x="891" 
d="M197 1036q0 -139 64.5 -213.5t184.5 -74.5t184 75t64 213q0 140 -64 215.5t-184 75.5t-184.5 -75t-64.5 -216zM47 1036q0 161 112 263t287 102t286.5 -102t111.5 -263q0 -159 -112 -260.5t-286 -101.5q-175 0 -287 101.5t-112 260.5z" />
    <glyph glyph-name="Omega" unicode="&#x3a9;" horiz-adv-x="1567" 
d="M1100 188v-26h313l66 203h61l-108 -365h-500q134 233 202 451t68 413q0 271 -107.5 416t-308.5 145t-309 -145t-108 -416q0 -195 68 -411t204 -453h-500l-110 365h61l68 -203h311v26q-165 203 -234 361.5t-69 327.5q0 272 174.5 446t443.5 174t443 -174.5t174 -445.5
q0 -169 -69 -327.5t-234 -361.5z" />
    <glyph glyph-name="ae" unicode="&#xe6;" horiz-adv-x="1724" 
d="M1454 576q-3 164 -70.5 244.5t-203.5 80.5q-125 0 -196 -83.5t-81 -241.5h551zM731 520q-40 -22 -88.5 -40.5t-103.5 -33.5l-95 -24q-104 -28 -155 -75t-51 -116q0 -70 47.5 -109.5t132.5 -39.5q150 0 231.5 85t81.5 243v110zM782 182q-81 -110 -186.5 -165.5
t-235.5 -55.5q-147 0 -232 71t-85 193q0 113 87 185t276 114l131 29q117 25 158.5 63t41.5 113q0 85 -69 134.5t-189 49.5q-74 0 -133.5 -22t-109.5 -68q46 -9 71 -36t25 -68q0 -44 -32 -72.5t-81 -28.5q-53 0 -88 35.5t-35 89.5q0 113 114.5 187t295.5 74q122 0 207.5 -32
t142.5 -98q75 66 156 98t174 32q227 0 347 -137.5t121 -399.5h-759v-14q0 -182 78 -277.5t225 -95.5q118 0 195.5 60t111.5 177h121q-35 -176 -146 -265t-296 -89q-132 0 -234.5 56t-167.5 163z" />
    <glyph glyph-name="oslash" unicode="&#xf8;" horiz-adv-x="1188" 
d="M844 786q-47 56 -112 84.5t-146 28.5q-157 0 -240.5 -110.5t-83.5 -317.5q0 -59 8.5 -110t26.5 -97zM342 180q51 -57 113 -84.5t137 -27.5q158 0 246 106.5t88 298.5q0 76 -9 131.5t-28 100.5zM33 10l145 140q-60 88 -87.5 171t-27.5 181q0 214 151.5 358t379.5 144
q98 0 184 -30t164 -91l150 143l63 -65l-145 -142q59 -77 86.5 -161t27.5 -189q0 -217 -150.5 -360.5t-379.5 -143.5q-100 0 -187.5 30t-164.5 91l-144 -141z" />
    <glyph glyph-name="questiondown" unicode="&#xbf;" horiz-adv-x="1028" 
d="M618 1010v-27q0 -110 -28.5 -187t-93.5 -143q-19 -18 -54 -50q-178 -166 -178 -296q0 -105 76.5 -169t202.5 -64q139 0 227 71.5t88 184.5v5q-20 -12 -42 -19t-44 -7q-49 0 -77.5 28.5t-28.5 76.5q0 54 34.5 85t94.5 31q77 0 124.5 -59.5t47.5 -157.5
q0 -149 -126.5 -249.5t-322.5 -100.5q-202 0 -326 98.5t-124 255.5q0 97 48.5 174t226.5 212l2 2q169 126 169 296v9h104zM680 1298q0 -47 -34 -80.5t-83 -33.5q-48 0 -82.5 33.5t-34.5 80.5q0 48 35 82.5t82 34.5q49 0 83 -34t34 -83z" />
    <glyph glyph-name="exclamdown" unicode="&#xa1;" horiz-adv-x="627" 
d="M358 1006q6 -283 39 -576t33 -309q0 -76 -30 -116t-87 -40q-56 0 -85 39.5t-29 116.5q0 16 31.5 309t37.5 576h90zM430 1298q0 -47 -34 -80.5t-83 -33.5q-47 0 -80.5 33.5t-33.5 80.5q0 48 33.5 82.5t80.5 34.5q49 0 83 -34t34 -83z" />
    <glyph glyph-name="logicalnot" unicode="&#xac;" horiz-adv-x="1706" 
d="M254 858h1198v-502h-115v385h-1083v117z" />
    <glyph glyph-name="radical" unicode="&#x221a;" horiz-adv-x="1288" 
d="M1106 1647h182v-82h-119l-594 -1606h-53l-323 893l-119 -43l-23 68l262 92l265 -729z" />
    <glyph glyph-name="florin" unicode="&#x192;" horiz-adv-x="1255" 
d="M526 651h-274v99h291q29 261 131.5 396.5t271.5 135.5q108 0 178 -52.5t70 -131.5q0 -57 -35 -92t-92 -35q-48 0 -76 26.5t-28 71.5q0 32 14 55.5t43 38.5q-23 7 -44.5 11t-35.5 4q-85 0 -131 -69.5t-72 -248.5l-16 -110h301v-99h-311l-60 -471q-47 -368 -136.5 -495
t-278.5 -127q-103 0 -169.5 53.5t-66.5 134.5q0 56 32 88.5t87 32.5q47 0 76.5 -29.5t29.5 -77.5q0 -19 -8.5 -39t-25.5 -42q22 -8 42 -11.5t39 -3.5q79 0 120.5 73t62.5 255z" />
    <glyph glyph-name="approxequal" unicode="&#x2248;" horiz-adv-x="1706" 
d="M1530 584v-131q-107 -75 -202 -110.5t-187 -35.5q-98 0 -288 69.5t-290 69.5q-82 0 -169.5 -35.5t-215.5 -123.5v131q108 74 203.5 110.5t183.5 36.5q111 0 301.5 -69.5t276.5 -69.5q85 0 173.5 35.5t213.5 122.5zM1530 934v-131q-104 -73 -200 -108.5t-187 -35.5
q-100 0 -290 69t-290 69q-83 0 -171.5 -36t-213.5 -122v131q106 73 202 109t185 36q111 0 300.5 -68.5t277.5 -68.5q87 0 175 35t212 121z" />
    <glyph glyph-name="Delta" unicode="&#x2206;" horiz-adv-x="1208" 
d="M555 1212l-389 -1042h768zM596 1497h29l555 -1497h-1151z" />
    <glyph glyph-name="guillemotleft" unicode="&#xab;" horiz-adv-x="946" 
d="M344 147l-100 144q-6 8 -17 23q-84 117 -84 175q0 56 77 165q16 22 24 34l100 143h105l-111 -227q-20 -40 -28.5 -66.5t-8.5 -48.5q0 -21 8.5 -47.5t28.5 -66.5l111 -228h-105zM696 147l-100 144q-8 12 -24 34q-76 109 -76 164q0 56 76 165q16 22 24 34l100 143h105
l-111 -227q-18 -36 -26.5 -63.5t-8.5 -51.5q0 -23 8.5 -50.5t26.5 -63.5l111 -228h-105z" />
    <glyph glyph-name="guillemotright" unicode="&#xbb;" horiz-adv-x="946" 
d="M602 147h-106l112 228q18 36 26.5 63.5t8.5 50.5q0 24 -8.5 51.5t-26.5 63.5l-112 227h106l100 -142q7 -11 20 -29q79 -113 79 -171q0 -60 -87 -182l-12 -16zM250 147h-107l111 228q20 40 28.5 66.5t8.5 47.5q0 22 -8.5 48.5t-28.5 66.5l-111 227h107l98 -143
q8 -12 24 -34q77 -109 77 -165q0 -55 -77 -164q-16 -22 -24 -34z" />
    <glyph glyph-name="ellipsis" unicode="&#x2026;" horiz-adv-x="2048" 
d="M228 80q0 48 33 82.5t81 34.5t82.5 -35t34.5 -82t-34.5 -81t-82.5 -34t-81 33.5t-33 81.5zM910 80q0 48 33 82.5t81 34.5t82.5 -35t34.5 -82t-34.5 -81t-82.5 -34t-81 33.5t-33 81.5zM1594 80q0 48 33 82.5t81 34.5t82.5 -35t34.5 -82t-34.5 -81t-82.5 -34t-81 33.5
t-33 81.5z" />
    <glyph glyph-name="nonbreakingspace" unicode="&#xa0;" horiz-adv-x="1255" 
 />
    <glyph glyph-name="Agrave" unicode="&#xc0;" horiz-adv-x="1442" 
d="M467 569h438l-223 588zM-39 0v109h68q69 0 103 24t61 94l442 1147h172l438 -1138q29 -78 64.5 -102.5t105.5 -24.5h58v-109h-652v109h111q74 0 96.5 12t22.5 49q0 7 -4 21.5t-11 33.5l-86 236h-524l-76 -193q-17 -44 -22.5 -66.5t-5.5 -37.5q0 -32 24 -43.5t107 -11.5
h102v-109h-594zM913 1526h-74l-301 182q-49 32 -66.5 53t-17.5 48q0 32 22.5 55t53.5 23q25 0 53 -15.5t54 -44.5z" />
    <glyph glyph-name="Atilde" unicode="&#xc3;" horiz-adv-x="1442" 
d="M467 569h438l-223 588zM-39 0v109h68q69 0 103 24t61 94l442 1147h172l438 -1138q29 -78 64.5 -102.5t105.5 -24.5h58v-109h-652v109h111q74 0 96.5 12t22.5 49q0 7 -4 21.5t-11 33.5l-86 236h-524l-76 -193q-17 -44 -22.5 -66.5t-5.5 -37.5q0 -32 24 -43.5t107 -11.5
h102v-109h-594zM1020 1844q-22 -113 -71.5 -171.5t-123.5 -58.5q-11 0 -23.5 1.5t-27.5 4.5l-107 27q-3 1 -8 2q-36 8 -45 8q-42 0 -65 -20.5t-37 -71.5h-58q24 117 72 174t125 57q16 0 32.5 -2t30.5 -6l109 -26q12 -3 24.5 -4.5t26.5 -2.5q34 0 56 22t32 67h58z" />
    <glyph glyph-name="Otilde" unicode="&#xd5;" horiz-adv-x="1636" 
d="M303 688q0 -280 140.5 -447t373.5 -167t373.5 167t140.5 447t-140 446t-374 166q-233 0 -373.5 -166t-140.5 -446zM80 688q0 160 58 297.5t169 241.5q97 90 229.5 139t280.5 49t280.5 -49t229.5 -139q112 -105 169.5 -241.5t57.5 -297.5q0 -162 -57.5 -299t-169.5 -242
q-97 -90 -229.5 -139t-280.5 -49t-280.5 49t-229.5 139q-111 104 -169 242t-58 299zM1102 1844q-22 -113 -71.5 -171.5t-123.5 -58.5q-11 0 -23.5 1.5t-27.5 4.5l-107 27q-3 1 -8 2q-36 8 -45 8q-42 0 -65 -20.5t-37 -71.5h-58q24 117 72 174t125 57q16 0 32.5 -2t30.5 -6
l109 -26q12 -3 24.5 -4.5t26.5 -2.5q34 0 56 22t32 67h58z" />
    <glyph glyph-name="OE" unicode="&#x152;" horiz-adv-x="2497" 
d="M1255 260v856q0 63 -4 85t-14 34q-24 28 -113.5 50t-197.5 22q-296 0 -459.5 -162.5t-163.5 -456.5t163.5 -457t459.5 -163q89 0 169 15.5t126 41.5q19 12 26.5 36t7.5 99zM1423 1374h906v-516h-107q0 240 -79.5 324t-315.5 84h-371v-490h141q145 0 182.5 48.5
t37.5 215.5h104v-673h-104q-4 194 -46.5 247.5t-175.5 53.5h-139v-559h397q217 0 291.5 89t77.5 361h107v-559h-897q-84 0 -265.5 -19.5t-277.5 -19.5q-365 0 -587 200.5t-222 526.5q0 327 222.5 527t590.5 200q91 0 267.5 -20.5t262.5 -20.5z" />
    <glyph glyph-name="oe" unicode="&#x153;" horiz-adv-x="1923" 
d="M1659 576q-3 164 -70.5 244.5t-204.5 80.5q-124 0 -195 -83.5t-81 -241.5h551zM262 483q0 -199 86 -306t246 -107t246 107t86 306q0 200 -86.5 308t-245.5 108q-160 0 -246 -108t-86 -308zM1004 825q83 92 178.5 135.5t212.5 43.5q224 0 344.5 -139t120.5 -398h-760v-14
q0 -182 77 -277.5t224 -95.5q118 0 195.5 60t111.5 177h123q-34 -171 -144 -261.5t-286 -90.5q-130 0 -227.5 45.5t-167.5 139.5q-81 -92 -184.5 -138.5t-227.5 -46.5q-234 0 -382.5 144.5t-148.5 373.5q0 228 147.5 374.5t373.5 146.5q127 0 231.5 -44.5t188.5 -134.5z" />
    <glyph glyph-name="endash" unicode="&#x2013;" 
d="M0 430v119h1024v-119h-1024z" />
    <glyph glyph-name="emdash" unicode="&#x2014;" horiz-adv-x="2048" 
d="M0 430v119h2048v-119h-2048z" />
    <glyph glyph-name="quotedblleft" unicode="&#x201c;" horiz-adv-x="901" 
d="M399 1415v-72q-91 -13 -140.5 -68t-49.5 -142v-25q20 14 40.5 21.5t39.5 7.5q45 0 72.5 -28.5t27.5 -74.5q0 -53 -32.5 -84.5t-88.5 -31.5q-71 0 -114 51.5t-43 138.5q0 121 78.5 205t209.5 102zM827 1415v-72q-92 -13 -142 -68t-50 -142v-25q20 14 40.5 21.5t39.5 7.5
q45 0 73.5 -28.5t28.5 -74.5q0 -53 -32.5 -84.5t-88.5 -31.5q-71 0 -115 52t-44 138q0 121 79 205t211 102z" />
    <glyph glyph-name="quotedblright" unicode="&#x201d;" horiz-adv-x="901" 
d="M500 918v71q92 14 142 69t50 142v25q-20 -14 -40.5 -21.5t-39.5 -7.5q-45 0 -73.5 28.5t-28.5 73.5q0 54 32.5 85.5t88.5 31.5q71 0 114 -52t43 -138q0 -122 -78.5 -206t-209.5 -101zM74 918v71q92 14 141 68.5t49 142.5v25q-20 -14 -40 -21.5t-38 -7.5q-45 0 -73.5 28.5
t-28.5 73.5q0 54 32.5 85.5t88.5 31.5q71 0 114 -52t43 -138q0 -122 -78.5 -206t-209.5 -101z" />
    <glyph glyph-name="quoteleft" unicode="&#x2018;" horiz-adv-x="473" 
d="M399 1415v-61q-91 -14 -140.5 -68.5t-49.5 -142.5v-25q20 14 40.5 21.5t39.5 7.5q45 0 72.5 -28.5t27.5 -74.5q0 -53 -32.5 -84.5t-88.5 -31.5q-71 0 -114 51.5t-43 138.5q0 125 81.5 211t202.5 86h4z" />
    <glyph glyph-name="quoteright" unicode="&#x2019;" horiz-adv-x="473" 
d="M74 918v71q92 14 141 68.5t49 142.5v25q-20 -14 -40 -21.5t-38 -7.5q-45 0 -73.5 28.5t-28.5 73.5q0 54 32.5 85.5t88.5 31.5q71 0 114 -52t43 -138q0 -122 -78.5 -206t-209.5 -101z" />
    <glyph glyph-name="divide" unicode="&#xf7;" horiz-adv-x="1706" 
d="M854 365q47 0 81 -34t34 -81t-33.5 -81t-81.5 -34t-81.5 33.5t-33.5 81.5t34 81.5t81 33.5zM254 670h1198v-117h-1198v117zM854 1085q48 0 81.5 -33.5t33.5 -80.5q0 -48 -33.5 -81.5t-81.5 -33.5q-49 0 -82 33.5t-33 81.5q0 47 34 80.5t81 33.5z" />
    <glyph glyph-name="lozenge" unicode="&#x25ca;" horiz-adv-x="1012" 
d="M506 1409l-385 -817l385 -825l385 825zM506 1653l500 -1061l-500 -1069l-500 1069z" />
    <glyph glyph-name="ydieresis" unicode="&#xff;" horiz-adv-x="1169" 
d="M522 -6l-334 778q-24 56 -53 76t-82 20h-53v99h524v-99h-90q-36 0 -52.5 -9.5t-16.5 -31.5q0 -12 4.5 -30.5t13.5 -38.5l231 -547l236 557q6 15 9 26t3 19q0 32 -20 43.5t-80 11.5h-84v99h491v-99h-61q-46 0 -74 -23.5t-63 -105.5l-287 -659l-10 -24q-215 -496 -451 -496
q-102 0 -169.5 65.5t-67.5 161.5q0 66 39.5 109t99.5 43q48 0 79.5 -31.5t31.5 -79.5q0 -49 -30.5 -74t-90.5 -27q23 -33 51.5 -49t66.5 -16q81 0 146 73t143 259zM664 1278q0 44 34 77.5t81 33.5q46 0 78 -32.5t32 -78.5q0 -50 -31 -82.5t-79 -32.5q-49 0 -82 33t-33 82z
M281 1278q0 45 33.5 78t78.5 33q47 0 80 -32.5t33 -78.5q0 -50 -32 -82.5t-81 -32.5q-48 0 -80 32.5t-32 82.5z" />
    <glyph glyph-name="Ydieresis" unicode="&#x178;" horiz-adv-x="1305" 
d="M551 543l-363 590q-40 67 -84 100t-94 33h-59v108h631v-108h-133q-36 0 -54 -10.5t-18 -30.5q0 -18 7.5 -39t21.5 -43l278 -461l299 481q12 20 18.5 36.5t6.5 29.5q0 16 -20 26.5t-52 10.5h-139v108h559v-108h-49q-62 0 -107.5 -34.5t-107.5 -135.5l-342 -553v-283
q0 -103 28 -127t117 -24h129v-109h-748v109h130q89 0 117 24t28 127v283zM731 1690q0 44 34 77.5t81 33.5q46 0 78 -32.5t32 -78.5q0 -50 -31 -82.5t-79 -32.5q-49 0 -82 33t-33 82zM348 1690q0 45 33.5 78t78.5 33q47 0 80 -32.5t33 -78.5q0 -50 -32 -82.5t-81 -32.5
q-48 0 -80 32.5t-32 82.5z" />
    <glyph glyph-name="fraction" unicode="&#x2215;" horiz-adv-x="342" 
d="M-342 -35l897 1317h127l-897 -1317h-127z" />
    <glyph glyph-name="currency" unicode="&#xa4;" horiz-adv-x="1255" 
d="M1214 453q-18 -239 -148 -363.5t-361 -124.5q-194 0 -335.5 133t-183.5 355h-186l31 96h141q-1 13 -1.5 28t-0.5 46q0 25 1.5 50t4.5 49l-176 1l31 96h159q48 212 187 337.5t325 125.5q109 0 196 -36.5t151 -108.5l47 110h106v-403h-115q-31 152 -132 241t-242 89
q-119 0 -202 -93.5t-114 -261.5h549l-31 -96h-529q-3 -40 -4 -61t-1 -39q0 -31 0.5 -46.5t1.5 -27.5h481l-30 -96h-439q32 -170 121 -271.5t203 -101.5q166 0 261 92.5t120 280.5h114z" />
    <glyph glyph-name="guilsinglleft" unicode="&#x2039;" horiz-adv-x="592" 
d="M344 147l-100 144q-8 12 -24 34q-77 109 -77 164q0 56 77 165q16 22 24 34l100 143h105l-111 -227q-20 -40 -28.5 -66.5t-8.5 -48.5q0 -21 8.5 -47.5t28.5 -66.5l111 -228h-105z" />
    <glyph glyph-name="guilsinglright" unicode="&#x203a;" horiz-adv-x="592" 
d="M250 147h-107l111 228q20 40 28.5 66.5t8.5 47.5q0 22 -8.5 48.5t-28.5 66.5l-111 227h107l98 -143q8 -12 24 -34q77 -109 77 -165q0 -55 -77 -164q-16 -22 -24 -34z" />
    <glyph glyph-name="fi" unicode="&#xf001;" horiz-adv-x="1341" 
d="M61 0v100h58q81 0 107 22.5t26 94.5v647h-191v103h191v61q0 191 111.5 288t330.5 97q174 0 280.5 -63.5t106.5 -163.5q0 -55 -31.5 -89t-82.5 -34q-46 0 -76.5 28.5t-30.5 69.5q0 35 21.5 60t58.5 32q-37 37 -96.5 55.5t-141.5 18.5q-145 0 -209.5 -66t-64.5 -219v-75
h688v-750q0 -72 26 -94.5t107 -22.5h43v-100h-551v100h68q80 0 105.5 22t25.5 95v531q0 73 -25.5 94.5t-105.5 21.5h-381v-647q0 -73 25.5 -95t105.5 -22h66v-100h-564z" />
    <glyph glyph-name="fi" unicode="&#xfb01;" horiz-adv-x="1341" 
d="M61 0v100h58q81 0 107 22.5t26 94.5v647h-191v103h191v61q0 191 111.5 288t330.5 97q174 0 280.5 -63.5t106.5 -163.5q0 -55 -31.5 -89t-82.5 -34q-46 0 -76.5 28.5t-30.5 69.5q0 35 21.5 60t58.5 32q-37 37 -96.5 55.5t-141.5 18.5q-145 0 -209.5 -66t-64.5 -219v-75
h688v-750q0 -72 26 -94.5t107 -22.5h43v-100h-551v100h68q80 0 105.5 22t25.5 95v531q0 73 -25.5 94.5t-105.5 21.5h-381v-647q0 -73 25.5 -95t105.5 -22h66v-100h-564z" />
    <glyph glyph-name="fl" unicode="&#xf002;" horiz-adv-x="1348" 
d="M61 0v100h58q81 0 107 22.5t26 94.5v647h-191v103h191v61q0 191 112.5 288t333.5 97q69 0 129.5 -9.5t114.5 -29.5l174 4v-1161q0 -72 26 -94.5t107 -22.5h51v-100h-559v100h68q80 0 105.5 22t25.5 95v866q-30 9 -46.5 32.5t-16.5 55.5q0 30 14 54t41 39
q-35 30 -95.5 46.5t-136.5 16.5q-144 0 -208 -66.5t-64 -218.5v-75h229v-103h-229v-647q0 -73 25.5 -95t105.5 -22h66v-100h-564z" />
    <glyph glyph-name="fl" unicode="&#xfb02;" horiz-adv-x="1348" 
d="M61 0v100h58q81 0 107 22.5t26 94.5v647h-191v103h191v61q0 191 112.5 288t333.5 97q69 0 129.5 -9.5t114.5 -29.5l174 4v-1161q0 -72 26 -94.5t107 -22.5h51v-100h-559v100h68q80 0 105.5 22t25.5 95v866q-30 9 -46.5 32.5t-16.5 55.5q0 30 14 54t41 39
q-35 30 -95.5 46.5t-136.5 16.5q-144 0 -208 -66.5t-64 -218.5v-75h229v-103h-229v-647q0 -73 25.5 -95t105.5 -22h66v-100h-564z" />
    <glyph glyph-name="daggerdbl" unicode="&#x2021;" horiz-adv-x="1214" 
d="M510 487q25 54 38 122t13 149v47q-84 0 -200.5 -22.5t-151.5 -22.5q-45 0 -69.5 21.5t-24.5 60.5t24.5 60.5t69.5 21.5q35 0 151.5 -22.5t200.5 -22.5q-3 111 -27 245.5t-24 159.5q0 63 25 97t71 34t71 -34t25 -97q0 -25 -23.5 -159t-27.5 -246q86 0 202 22.5t151 22.5
q45 0 70.5 -22t25.5 -60q0 -39 -25.5 -60.5t-70.5 -21.5q-35 0 -151 22.5t-202 22.5v-47q0 -77 13 -145t38 -126q-25 -56 -38 -125.5t-13 -146.5v-47q86 0 202 22.5t151 22.5q46 0 71 -21t25 -59q0 -39 -25.5 -61.5t-70.5 -22.5q-35 0 -151 22.5t-201 22.5
q3 -111 26.5 -245.5t23.5 -159.5q0 -63 -25 -97t-71 -34t-71 34t-25 97q0 25 24 160t27 245q-84 0 -200.5 -22.5t-151.5 -22.5q-45 0 -69.5 22.5t-24.5 61.5t24 59.5t70 20.5q35 0 151.5 -22.5t200.5 -22.5v47q0 81 -13 150t-38 122z" />
    <glyph glyph-name="periodcentered" unicode="&#xb7;" horiz-adv-x="627" 
d="M199 629q0 48 33 82t81 34t82.5 -34.5t34.5 -81.5q0 -48 -34.5 -81.5t-82.5 -33.5t-81 33.5t-33 81.5z" />
    <glyph glyph-name="quotesinglbase" unicode="&#x201a;" horiz-adv-x="473" 
d="M74 -301v72q91 13 140.5 68t49.5 143v24q-20 -14 -40 -21.5t-38 -7.5q-45 0 -73.5 28.5t-28.5 74.5q0 53 32.5 85t88.5 32q71 0 114 -52t43 -139q0 -121 -78.5 -205t-209.5 -102z" />
    <glyph glyph-name="quotedblbase" unicode="&#x201e;" horiz-adv-x="901" 
d="M500 -301v72q91 13 141.5 68.5t50.5 142.5v24q-20 -14 -40.5 -21.5t-39.5 -7.5q-45 0 -73.5 28.5t-28.5 74.5q0 53 32.5 85t88.5 32q71 0 114 -52t43 -139q0 -121 -78.5 -205t-209.5 -102zM74 -301v72q91 13 140.5 68t49.5 143v24q-20 -14 -40 -21.5t-38 -7.5
q-45 0 -73.5 28.5t-28.5 74.5q0 53 32.5 85t88.5 32q71 0 114 -52t43 -139q0 -121 -78.5 -205t-209.5 -102z" />
    <glyph glyph-name="perthousand" unicode="&#x2030;" horiz-adv-x="2867" 
d="M2204 358q0 -131 57 -209.5t152 -78.5q96 0 152 77.5t56 210.5q0 136 -56 214.5t-152 78.5q-95 0 -152 -79.5t-57 -213.5zM2028 360q0 176 107 286t278 110q170 0 277.5 -110t107.5 -286q0 -175 -107.5 -285t-277.5 -110q-169 0 -277 111t-108 284zM1309 358
q0 -131 57.5 -209.5t151.5 -78.5q95 0 150.5 77t55.5 211q0 136 -55 214.5t-151 78.5q-95 0 -152 -79.5t-57 -213.5zM1133 360q0 176 107 286t278 110q170 0 276.5 -110t106.5 -286q0 -175 -106.5 -285t-276.5 -110q-169 0 -277 111t-108 284zM666 -35h-129l768 1317h129z
M246 887q0 -132 57 -211.5t152 -79.5t151 78t56 213t-55.5 213t-151.5 78t-152.5 -79t-56.5 -212zM70 887q0 175 107 285t278 110q170 0 276.5 -110t106.5 -285q0 -176 -106.5 -285.5t-276.5 -109.5q-169 0 -277 110.5t-108 284.5z" />
    <glyph glyph-name="Acircumflex" unicode="&#xc2;" horiz-adv-x="1442" 
d="M467 569h438l-223 588zM-39 0v109h68q69 0 103 24t61 94l442 1147h172l438 -1138q29 -78 64.5 -102.5t105.5 -24.5h58v-109h-652v109h111q74 0 96.5 12t22.5 49q0 7 -4 21.5t-11 33.5l-86 236h-524l-76 -193q-17 -44 -22.5 -66.5t-5.5 -37.5q0 -32 24 -43.5t107 -11.5
h102v-109h-594zM442 1526l227 348h134l229 -348h-74l-221 195l-221 -195h-74z" />
    <glyph glyph-name="Ecircumflex" unicode="&#xca;" horiz-adv-x="1526" 
d="M57 0v109h84q89 0 117.5 24t28.5 127v856q0 102 -28 126t-118 24h-84v108h1303v-516h-107q0 240 -79.5 324t-315.5 84h-373v-490h142q145 0 183 49t38 215h104v-673h-104q-4 193 -47 247t-176 54h-140v-559h400q217 0 291 88.5t78 361.5h106v-559h-1303zM461 1526
l227 348h134l229 -348h-74l-221 195l-221 -195h-74z" />
    <glyph glyph-name="Aacute" unicode="&#xc1;" horiz-adv-x="1442" 
d="M467 569h438l-223 588zM-39 0v109h68q69 0 103 24t61 94l442 1147h172l438 -1138q29 -78 64.5 -102.5t105.5 -24.5h58v-109h-652v109h111q74 0 96.5 12t22.5 49q0 7 -4 21.5t-11 33.5l-86 236h-524l-76 -193q-17 -44 -22.5 -66.5t-5.5 -37.5q0 -32 24 -43.5t107 -11.5
h102v-109h-594zM561 1526l276 301q26 29 54 44.5t53 15.5q31 0 53.5 -23t22.5 -55q0 -27 -17.5 -48t-66.5 -53l-301 -182h-74z" />
    <glyph glyph-name="Edieresis" unicode="&#xcb;" horiz-adv-x="1526" 
d="M57 0v109h84q89 0 117.5 24t28.5 127v856q0 102 -28 126t-118 24h-84v108h1303v-516h-107q0 240 -79.5 324t-315.5 84h-373v-490h142q145 0 183 49t38 215h104v-673h-104q-4 193 -47 247t-176 54h-140v-559h400q217 0 291 88.5t78 361.5h106v-559h-1303zM834 1690
q0 44 34 77.5t81 33.5q46 0 78 -32.5t32 -78.5q0 -50 -31 -82.5t-79 -32.5q-49 0 -82 33t-33 82zM451 1690q0 45 33.5 78t78.5 33q47 0 80 -32.5t33 -78.5q0 -50 -32 -82.5t-81 -32.5q-48 0 -80 32.5t-32 82.5z" />
    <glyph glyph-name="Egrave" unicode="&#xc8;" horiz-adv-x="1526" 
d="M57 0v109h84q89 0 117.5 24t28.5 127v856q0 102 -28 126t-118 24h-84v108h1303v-516h-107q0 240 -79.5 324t-315.5 84h-373v-490h142q145 0 183 49t38 215h104v-673h-104q-4 193 -47 247t-176 54h-140v-559h400q217 0 291 88.5t78 361.5h106v-559h-1303zM932 1526h-74
l-301 182q-49 32 -66.5 53t-17.5 48q0 32 22.5 55t53.5 23q25 0 53 -15.5t54 -44.5z" />
    <glyph glyph-name="Iacute" unicode="&#xcd;" horiz-adv-x="801" 
d="M61 0v109h93q89 0 117 24t28 127v856q0 102 -28 126t-117 24h-93v108h678v-108h-92q-90 0 -117.5 -24t-27.5 -126v-856q0 -103 28 -127t117 -24h92v-109h-678zM225 1526l276 301q26 29 54 44.5t53 15.5q31 0 53.5 -23t22.5 -55q0 -27 -17.5 -48t-66.5 -53l-301 -182h-74z
" />
    <glyph glyph-name="Icircumflex" unicode="&#xce;" horiz-adv-x="801" 
d="M61 0v109h93q89 0 117 24t28 127v856q0 102 -28 126t-117 24h-93v108h678v-108h-92q-90 0 -117.5 -24t-27.5 -126v-856q0 -103 28 -127t117 -24h92v-109h-678zM106 1526l227 348h134l229 -348h-74l-221 195l-221 -195h-74z" />
    <glyph glyph-name="Idieresis" unicode="&#xcf;" horiz-adv-x="801" 
d="M61 0v109h93q89 0 117 24t28 127v856q0 102 -28 126t-117 24h-93v108h678v-108h-92q-90 0 -117.5 -24t-27.5 -126v-856q0 -103 28 -127t117 -24h92v-109h-678zM479 1690q0 44 34 77.5t81 33.5q46 0 78 -32.5t32 -78.5q0 -50 -31 -82.5t-79 -32.5q-49 0 -82 33t-33 82z
M96 1690q0 45 33.5 78t78.5 33q47 0 80 -32.5t33 -78.5q0 -50 -32 -82.5t-81 -32.5q-48 0 -80 32.5t-32 82.5z" />
    <glyph glyph-name="Igrave" unicode="&#xcc;" horiz-adv-x="801" 
d="M61 0v109h93q89 0 117 24t28 127v856q0 102 -28 126t-117 24h-93v108h678v-108h-92q-90 0 -117.5 -24t-27.5 -126v-856q0 -103 28 -127t117 -24h92v-109h-678zM577 1526h-74l-301 182q-49 32 -66.5 53t-17.5 48q0 32 22.5 55t53.5 23q25 0 53 -15.5t54 -44.5z" />
    <glyph glyph-name="Oacute" unicode="&#xd3;" horiz-adv-x="1636" 
d="M303 688q0 -280 140.5 -447t373.5 -167t373.5 167t140.5 447t-140 446t-374 166q-233 0 -373.5 -166t-140.5 -446zM80 688q0 160 58 297.5t169 241.5q97 90 229.5 139t280.5 49t280.5 -49t229.5 -139q112 -105 169.5 -241.5t57.5 -297.5q0 -162 -57.5 -299t-169.5 -242
q-97 -90 -229.5 -139t-280.5 -49t-280.5 49t-229.5 139q-111 104 -169 242t-58 299zM643 1526l276 301q26 29 54 44.5t53 15.5q31 0 53.5 -23t22.5 -55q0 -27 -17.5 -48t-66.5 -53l-301 -182h-74z" />
    <glyph glyph-name="Ocircumflex" unicode="&#xd4;" horiz-adv-x="1636" 
d="M303 688q0 -280 140.5 -447t373.5 -167t373.5 167t140.5 447t-140 446t-374 166q-233 0 -373.5 -166t-140.5 -446zM80 688q0 160 58 297.5t169 241.5q97 90 229.5 139t280.5 49t280.5 -49t229.5 -139q112 -105 169.5 -241.5t57.5 -297.5q0 -162 -57.5 -299t-169.5 -242
q-97 -90 -229.5 -139t-280.5 -49t-280.5 49t-229.5 139q-111 104 -169 242t-58 299zM524 1526l227 348h134l229 -348h-74l-221 195l-221 -195h-74z" />
    <glyph glyph-name="apple" unicode="&#xf000;" horiz-adv-x="1618" 
d="M836 1216q-1 6 -1.5 14t-0.5 23q0 124 95 229.5t236 131.5q1 -10 1.5 -23t0.5 -39q0 -131 -103.5 -234.5t-203.5 -103.5h-8q-3 0 -7.5 1t-8.5 1zM1505 403q-114 -247 -205 -342.5t-204 -95.5q-50 0 -131.5 33t-122.5 33q-45 0 -131 -33t-127 -33q-64 0 -128.5 44
t-129.5 132q-102 140 -157.5 295.5t-55.5 300.5q0 219 125 356.5t323 137.5q68 0 155 -34t124 -34q34 0 121.5 35t152.5 35q110 0 198 -40t161 -124q-102 -65 -151.5 -145.5t-49.5 -182.5q0 -113 60 -200t173 -138z" />
    <glyph glyph-name="Ograve" unicode="&#xd2;" horiz-adv-x="1636" 
d="M303 688q0 -280 140.5 -447t373.5 -167t373.5 167t140.5 447t-140 446t-374 166q-233 0 -373.5 -166t-140.5 -446zM80 688q0 160 58 297.5t169 241.5q97 90 229.5 139t280.5 49t280.5 -49t229.5 -139q112 -105 169.5 -241.5t57.5 -297.5q0 -162 -57.5 -299t-169.5 -242
q-97 -90 -229.5 -139t-280.5 -49t-280.5 49t-229.5 139q-111 104 -169 242t-58 299zM995 1526h-74l-301 182q-49 32 -66.5 53t-17.5 48q0 32 22.5 55t53.5 23q25 0 53 -15.5t54 -44.5z" />
    <glyph glyph-name="Uacute" unicode="&#xda;" horiz-adv-x="1569" 
d="M268 1116q0 102 -27.5 126t-117.5 24h-66v108h658v-108h-103q-89 0 -117 -24t-28 -126v-686q0 -172 83.5 -253t260.5 -81q189 0 272.5 94.5t83.5 311.5v614q0 102 -27.5 126t-117.5 24h-100v108h589v-108h-61q-90 0 -117.5 -24t-27.5 -126v-614q0 -274 -130 -408.5
t-393 -134.5q-250 0 -382 120.5t-132 350.5v686zM649 1526l276 301q26 29 54 44.5t53 15.5q31 0 53.5 -23t22.5 -55q0 -27 -17.5 -48t-66.5 -53l-301 -182h-74z" />
    <glyph glyph-name="Ucircumflex" unicode="&#xdb;" horiz-adv-x="1569" 
d="M268 1116q0 102 -27.5 126t-117.5 24h-66v108h658v-108h-103q-89 0 -117 -24t-28 -126v-686q0 -172 83.5 -253t260.5 -81q189 0 272.5 94.5t83.5 311.5v614q0 102 -27.5 126t-117.5 24h-100v108h589v-108h-61q-90 0 -117.5 -24t-27.5 -126v-614q0 -274 -130 -408.5
t-393 -134.5q-250 0 -382 120.5t-132 350.5v686zM530 1526l227 348h134l229 -348h-74l-221 195l-221 -195h-74z" />
    <glyph glyph-name="Ugrave" unicode="&#xd9;" horiz-adv-x="1569" 
d="M268 1116q0 102 -27.5 126t-117.5 24h-66v108h658v-108h-103q-89 0 -117 -24t-28 -126v-686q0 -172 83.5 -253t260.5 -81q189 0 272.5 94.5t83.5 311.5v614q0 102 -27.5 126t-117.5 24h-100v108h589v-108h-61q-90 0 -117.5 -24t-27.5 -126v-614q0 -274 -130 -408.5
t-393 -134.5q-250 0 -382 120.5t-132 350.5v686zM1001 1526h-74l-301 182q-49 32 -66.5 53t-17.5 48q0 32 22.5 55t53.5 23q25 0 53 -15.5t54 -44.5z" />
    <glyph glyph-name="dotlessi" unicode="&#x131;" horiz-adv-x="680" 
d="M66 0v100h65q81 0 107 22.5t26 94.5v533q0 73 -26.5 95.5t-106.5 22.5h-65v99h376v-750q0 -72 26 -94.5t107 -22.5h52v-100h-561z" />
    <glyph glyph-name="circumflex" unicode="&#x2c6;" 
d="M217 1114l227 348h134l229 -348h-74l-221 195l-221 -195h-74z" />
    <glyph glyph-name="tilde" unicode="&#x2dc;" 
d="M795 1432q-22 -113 -71.5 -171.5t-123.5 -58.5q-11 0 -23.5 1.5t-27.5 4.5l-107 27q-3 1 -8 2q-36 8 -45 8q-42 0 -65 -20.5t-37 -71.5h-58q24 117 72 174t125 57q16 0 32.5 -2t30.5 -6l109 -26q12 -3 24.5 -4.5t26.5 -2.5q34 0 56 22t32 67h58z" />
    <glyph glyph-name="macron" unicode="&#xaf;" 
d="M242 1206v142h540v-142h-540z" />
    <glyph glyph-name="breve" unicode="&#x2d8;" 
d="M211 1427h65q18 -70 73.5 -101.5t162.5 -31.5t162 31.5t71 101.5h66q-22 -137 -97.5 -207.5t-201.5 -70.5q-127 0 -203.5 70.5t-97.5 207.5z" />
    <glyph glyph-name="dotaccent" unicode="&#x2d9;" 
d="M395 1278q0 48 35 83.5t82 35.5q48 0 83.5 -35.5t35.5 -83.5q0 -51 -34 -85t-85 -34q-50 0 -83.5 34t-33.5 85z" />
    <glyph glyph-name="ring" unicode="&#x2da;" 
d="M371 1341q0 -59 40.5 -100t100.5 -41t100.5 41t40.5 100q0 61 -40.5 102.5t-100.5 41.5t-100.5 -41.5t-40.5 -102.5zM264 1343q0 105 71.5 175.5t176.5 70.5t176.5 -70.5t71.5 -175.5q0 -104 -72 -176.5t-176 -72.5t-176 72.5t-72 176.5z" />
    <glyph glyph-name="cedilla" unicode="&#xb8;" 
d="M238 -379l36 90q60 -38 120 -58t112 -20q57 0 84.5 22.5t27.5 68.5q0 43 -27.5 64.5t-82.5 21.5q-13 0 -29 -2t-33 -4v196h66v-115q11 2 23.5 3t37.5 1q88 0 137.5 -43.5t49.5 -121.5q0 -84 -59.5 -131.5t-165.5 -47.5q-59 0 -131 18.5t-166 57.5z" />
    <glyph glyph-name="hungarumlaut" unicode="&#x2dd;" 
d="M567 1114l174 283q24 39 47.5 57.5t51.5 18.5q31 0 51 -20.5t20 -53.5q0 -22 -15.5 -45.5t-47.5 -50.5l-221 -189h-60zM322 1114l133 275q20 43 43.5 64.5t52.5 21.5q28 0 50 -22.5t22 -51.5q0 -19 -11 -38t-45 -54l-184 -195h-61z" />
    <glyph glyph-name="ogonek" unicode="&#x2db;" 
d="M631 35q-84 -65 -129 -131.5t-45 -124.5q0 -60 23.5 -92.5t66.5 -32.5q37 0 67 17.5t58 54.5l28 -17q-36 -75 -93 -116.5t-126 -41.5q-71 0 -114 42t-43 112q0 84 64 165t196 165h47z" />
    <glyph glyph-name="caron" unicode="&#x2c7;" 
d="M217 1462h74l221 -194l221 194h74l-229 -348h-134z" />
    <glyph glyph-name="Lslash" unicode="&#x141;" horiz-adv-x="1407" 
d="M297 551l-287 -201v115l287 201v450q0 102 -28 126t-117 24h-86v108h675v-108h-100q-90 0 -117.5 -24t-27.5 -126v-358l383 268v-117l-383 -268v-532h327q149 0 229 28.5t113 91.5q28 54 41 129.5t13 186.5v26h104v-571h-1257v109h86q89 0 117 24t28 127v291z" />
    <glyph glyph-name="lslash" unicode="&#x142;" horiz-adv-x="672" 
d="M246 618l-236 -165v110l236 166v430q0 73 -25.5 95t-105.5 22h-58v98h367v-567l248 174v-111l-248 -172v-481q0 -72 26 -94.5t107 -22.5h59v-100h-559v100h58q80 0 105.5 22t25.5 95v401z" />
    <glyph glyph-name="Scaron" unicode="&#x160;" horiz-adv-x="1290" 
d="M88 0v569h113q32 -224 168 -352.5t342 -128.5q149 0 239 71t90 187q0 99 -68 154.5t-249 95.5l-170 37q-276 62 -368.5 148t-92.5 253q0 174 134 277.5t362 103.5q113 0 213.5 -37.5t195.5 -115.5l60 124h96v-520h-111q-26 208 -142.5 319t-309.5 111q-152 0 -237 -61.5
t-85 -171.5q0 -86 67.5 -139.5t211.5 -81.5l198 -41q264 -53 373 -147t109 -265q0 -191 -141.5 -310.5t-368.5 -119.5q-132 0 -243.5 47t-213.5 146l-67 -152h-105zM350 1874h74l221 -194l221 194h74l-229 -348h-134z" />
    <glyph glyph-name="scaron" unicode="&#x161;" horiz-adv-x="1022" 
d="M82 -8v405h106q26 -145 127 -232t242 -87q104 0 164.5 42.5t60.5 115.5q0 57 -45 93.5t-137 53.5l-184 35q-157 30 -239.5 108t-82.5 195q0 124 99 201t264 77q81 0 160.5 -27.5t150.5 -80.5l41 88h92v-377h-104q-26 141 -112.5 216t-223.5 75q-88 0 -142.5 -39.5
t-54.5 -101.5q0 -60 43 -97t129 -53l193 -37q156 -29 238.5 -102.5t82.5 -183.5q0 -146 -104 -229t-289 -83q-94 0 -175 32t-153 97l-43 -104h-104zM217 1462h74l221 -194l221 194h74l-229 -348h-134z" />
    <glyph glyph-name="Zcaron" unicode="&#x17d;" horiz-adv-x="1270" 
d="M55 0v113l883 1153h-391q-199 0 -267.5 -85.5t-76.5 -349.5h-107v543h1080v-114l-879 -1151h393q126 0 207 32t111 95q23 48 36 127t21 228l111 1v-592h-1121zM340 1874h74l221 -194l221 194h74l-229 -348h-134z" />
    <glyph glyph-name="zcaron" unicode="&#x17e;" horiz-adv-x="1022" 
d="M49 0v102l658 764h-244q-127 0 -169.5 -15.5t-66.5 -53.5q-19 -33 -30 -86t-17 -150h-98v406h842v-101l-654 -764h262q131 0 189.5 19.5t81.5 64.5q16 33 25 84t16 168h100v-438h-895zM217 1462h74l221 -194l221 194h74l-229 -348h-134z" />
    <glyph glyph-name="brokenbar" unicode="&#xa6;" 
d="M449 408h126v-758h-126v758zM449 1432h126v-758h-126v758z" />
    <glyph glyph-name="Eth" unicode="&#xd0;" horiz-adv-x="1632" 
d="M496 645v-536h233q314 0 457 142t143 456q0 286 -145 422.5t-451 136.5h-237v-521h393v-100h-393zM66 0v109h86q87 0 115 23.5t28 127.5v385h-289v100h289v371q0 104 -27.5 127t-115.5 23h-86v108h667q252 0 376.5 -32t215.5 -107q111 -91 168 -230t57 -317
q0 -163 -53 -301.5t-149 -224.5q-98 -88 -227.5 -125t-391.5 -37h-663z" />
    <glyph glyph-name="eth" unicode="&#xf0;" horiz-adv-x="1188" 
d="M432 1427q55 -33 107.5 -70t103.5 -77l303 147l33 -71l-270 -135q214 -196 312.5 -373.5t98.5 -366.5q0 -234 -143.5 -375t-382.5 -141q-234 0 -382.5 137t-148.5 355t148.5 355.5t382.5 137.5q36 0 80.5 -7t95.5 -21q-37 60 -83 119.5t-101 119.5l-307 -155l-35 71
l284 142q-45 45 -145 133l-6 6zM262 457q0 -191 85.5 -292.5t246.5 -101.5q160 0 246 102t86 292q0 189 -86.5 292t-245.5 103q-160 0 -246 -102.5t-86 -292.5z" />
    <glyph glyph-name="Yacute" unicode="&#xdd;" horiz-adv-x="1305" 
d="M551 543l-363 590q-40 67 -84 100t-94 33h-59v108h631v-108h-133q-36 0 -54 -10.5t-18 -30.5q0 -18 7.5 -39t21.5 -43l278 -461l299 481q12 20 18.5 36.5t6.5 29.5q0 16 -20 26.5t-52 10.5h-139v108h559v-108h-49q-62 0 -107.5 -34.5t-107.5 -135.5l-342 -553v-283
q0 -103 28 -127t117 -24h129v-109h-748v109h130q89 0 117 24t28 127v283zM477 1526l276 301q26 29 54 44.5t53 15.5q31 0 53.5 -23t22.5 -55q0 -27 -17.5 -48t-66.5 -53l-301 -182h-74z" />
    <glyph glyph-name="yacute" unicode="&#xfd;" horiz-adv-x="1169" 
d="M522 -6l-334 778q-24 56 -53 76t-82 20h-53v99h524v-99h-90q-36 0 -52.5 -9.5t-16.5 -31.5q0 -12 4.5 -30.5t13.5 -38.5l231 -547l236 557q6 15 9 26t3 19q0 32 -20 43.5t-80 11.5h-84v99h491v-99h-61q-46 0 -74 -23.5t-63 -105.5l-287 -659l-10 -24q-215 -496 -451 -496
q-102 0 -169.5 65.5t-67.5 161.5q0 66 39.5 109t99.5 43q48 0 79.5 -31.5t31.5 -79.5q0 -49 -30.5 -74t-90.5 -27q23 -33 51.5 -49t66.5 -16q81 0 146 73t143 259zM410 1114l276 301q26 29 54 44.5t53 15.5q31 0 53.5 -23t22.5 -55q0 -27 -17.5 -48t-66.5 -53l-301 -182h-74
z" />
    <glyph glyph-name="Thorn" unicode="&#xde;" horiz-adv-x="1399" 
d="M485 420h228q203 0 301 65.5t98 200.5q0 146 -92 207t-320 61h-215v-534zM57 1374h660v-108h-86q-89 0 -117.5 -24t-28.5 -126v-53h211q339 0 482 -86.5t143 -284.5q0 -104 -41.5 -182t-124.5 -129q-61 -37 -161 -53.5t-281 -16.5h-228v-51q0 -103 28.5 -127t117.5 -24
h102v-109h-676v109h84q89 0 117.5 24t28.5 127v856q0 102 -28.5 126t-117.5 24h-84v108z" />
    <glyph glyph-name="thorn" unicode="&#xfe;" horiz-adv-x="1247" 
d="M373 477q0 -178 84 -284.5t225 -106.5q133 0 206 104t73 293q0 187 -73.5 291.5t-203.5 104.5q-143 0 -227 -108.5t-84 -293.5zM199 -223v1382q0 72 -26 94.5t-107 22.5h-46v98h353v-573q61 96 147.5 146t190.5 50q203 0 325.5 -140t122.5 -374q0 -232 -122.5 -375
t-319.5 -143q-113 0 -197 48t-147 149v-385q0 -73 26.5 -96t106.5 -23h65v-98h-551v98h46q80 0 106.5 23t26.5 96z" />
    <glyph glyph-name="minus" unicode="&#x2212;" horiz-adv-x="1706" 
d="M254 670h1198v-119h-1198v119z" />
    <glyph glyph-name="multiply" unicode="&#xd7;" horiz-adv-x="1706" 
d="M381 1169l477 -477l475 477l82 -82l-475 -477l475 -475l-82 -82l-475 475l-477 -475l-80 82l475 475l-475 477z" />
    <glyph glyph-name="onesuperior" unicode="&#xb9;" horiz-adv-x="829" 
d="M174 500v63h66q90 0 111.5 14t21.5 72v432h-195v59q114 6 169 35.5t77 94.5h70v-623q0 -55 20 -69.5t104 -14.5h62v-63h-506z" />
    <glyph glyph-name="twosuperior" unicode="&#xb2;" horiz-adv-x="829" 
d="M70 500v20q0 100 46.5 168.5t149.5 120.5q53 25 128 55t93 39q49 22 74 57t25 82q0 74 -56.5 117t-154.5 43q-73 0 -122.5 -26t-82.5 -80q3 0 9 1t9 1q38 0 59 -18t21 -50q0 -35 -23.5 -57.5t-60.5 -22.5q-41 0 -68.5 30t-27.5 75q0 91 89 153t226 62q145 0 231.5 -64
t86.5 -170q0 -46 -15 -82.5t-44 -64.5q-41 -44 -184 -89q-28 -9 -41 -13q-12 -4 -36 -11q-181 -53 -231 -145q19 10 41.5 15t48.5 5q39 0 95 -16q4 -1 7 -2l93 -25q26 -8 54 -12t52 -4q64 0 90.5 34.5t28.5 120.5l61 1q0 -133 -51.5 -202t-150.5 -69q-30 0 -61 8t-68 25
l-70 35l-4 2q-70 35 -117 35q-43 0 -62.5 -19.5t-21.5 -62.5h-65z" />
    <glyph glyph-name="threesuperior" unicode="&#xb3;" horiz-adv-x="829" 
d="M152 631q36 -44 87.5 -64t129.5 -20q111 0 173 42.5t62 119.5q0 84 -62.5 122.5t-201.5 38.5h-23v66h27q132 0 188 30.5t56 100.5q0 63 -53 100t-144 37q-55 0 -103 -14.5t-91 -44.5q35 -6 51 -23t16 -49q0 -29 -22.5 -47t-59.5 -18q-39 0 -63.5 22.5t-24.5 59.5
q0 72 92.5 126t225.5 54q140 0 225.5 -54.5t85.5 -142.5q0 -65 -47 -108t-137 -62q99 -18 154 -68.5t55 -123.5q0 -104 -101 -168t-268 -64q-135 0 -228.5 58.5t-93.5 138.5q0 43 28 69.5t73 26.5q37 0 59.5 -19.5t22.5 -52.5q0 -32 -22.5 -49.5t-65.5 -19.5z" />
    <glyph glyph-name="onequarter" unicode="&#xbc;" horiz-adv-x="1923" 
d="M1591 274v314l-317 -314h317zM1419 0v59h80q61 0 76.5 12t15.5 50v86h-422v59l461 453h76v-445h166v-67h-166v-80q0 -43 18 -55.5t76 -12.5h72v-59h-453zM449 -35l897 1317h127l-898 -1317h-126zM166 549v59h63q88 0 107.5 13t19.5 67v404h-186v54q108 6 160.5 33.5
t72.5 88.5h68v-582q0 -51 19 -64.5t100 -13.5h59v-59h-483z" />
    <glyph glyph-name="onehalf" unicode="&#xbd;" horiz-adv-x="1923" 
d="M1200 0v20q0 93 44.5 157t141.5 112q54 25 125.5 53t85.5 35q48 20 71.5 52t23.5 77q0 69 -54 109t-147 40q-71 0 -118.5 -23.5t-78.5 -74.5h19q36 0 56 -16.5t20 -46.5q0 -32 -23 -52t-57 -20q-40 0 -66 27t-26 69q0 85 85 143t216 58q137 0 220 -59.5t83 -157.5
q0 -42 -14 -77t-42 -63q-39 -39 -172 -80q-30 -9 -45 -14q-10 -3 -31 -9q-175 -51 -223 -136q18 9 39 13.5t49 4.5q32 0 80 -12q12 -3 17 -4l88 -23q25 -7 51 -11.5t49 -4.5q61 0 87 32.5t28 112.5h59q0 -123 -50 -188.5t-144 -65.5q-25 0 -52.5 7.5t-70.5 25.5l-66 31l-8 4
q-65 33 -109 33q-40 0 -58.5 -18t-21.5 -60h-61zM449 -35l897 1317h127l-898 -1317h-126zM166 549v59h63q88 0 107.5 13t19.5 67v404h-186v54q108 6 160.5 33.5t72.5 88.5h68v-582q0 -51 19 -64.5t100 -13.5h59v-59h-483z" />
    <glyph glyph-name="threequarters" unicode="&#xbe;" horiz-adv-x="1923" 
d="M1591 274v314l-317 -314h317zM1419 0v59h80q61 0 76.5 12t15.5 50v86h-422v59l461 453h76v-445h166v-67h-166v-80q0 -43 18 -55.5t76 -12.5h72v-59h-453zM449 -35l897 1317h127l-898 -1317h-126zM146 671q32 -40 80 -58.5t124 -18.5q109 0 168.5 39t59.5 110
q0 80 -60.5 116t-193.5 36h-21v61h27q126 0 178.5 28.5t52.5 94.5q0 58 -50.5 92.5t-135.5 34.5q-52 0 -98.5 -13.5t-87.5 -41.5q32 -5 47.5 -21t15.5 -45q0 -28 -21.5 -45.5t-56.5 -17.5q-38 0 -62 22t-24 56q0 67 89 117.5t216 50.5q133 0 215 -51.5t82 -133.5
q0 -60 -45 -100t-131 -57q95 -17 147 -64t52 -117q0 -96 -97 -156.5t-254 -60.5q-129 0 -219 55.5t-90 131.5q0 38 28 63t71 25q34 0 55.5 -18.5t21.5 -47.5q0 -30 -21.5 -47t-61.5 -19z" />
    <glyph glyph-name="franc" unicode="&#x20a3;" horiz-adv-x="2384" 
d="M57 0v109h84q89 0 117.5 24t28.5 127v856q0 102 -28 126t-118 24h-84v108h1258v-547h-107v25q0 244 -80 329t-315 85h-328v-490h111q144 0 181.5 48.5t37.5 215.5h105v-673h-105q-3 193 -46 247t-175 54h-109v-408q0 -103 28.5 -127t117.5 -24h102v-109h-676zM1827 217
q0 -73 25.5 -95t105.5 -22h100v-100h-598v100h58q81 0 107 22.5t26 94.5v533q0 73 -26.5 95.5t-106.5 22.5h-58v99h367v-201q54 117 127.5 174t167.5 57q102 0 167.5 -62t65.5 -155q0 -63 -35 -104t-90 -41q-48 0 -81 30.5t-33 73.5q0 46 27.5 74.5t72.5 28.5h12
q-23 31 -50.5 45t-63.5 14q-122 0 -204.5 -128t-82.5 -327v-229z" />
    <glyph glyph-name="Gbreve" unicode="&#x11e;" horiz-adv-x="1593" 
d="M1372 -14h-110l-74 129q-109 -78 -218.5 -117t-219.5 -39q-307 0 -488.5 197.5t-181.5 531.5q0 157 53 298t150 241q89 92 208 140t259 48q121 0 224.5 -42.5t199.5 -131.5l69 133h96v-506h-108q-47 204 -171.5 318t-297.5 114q-209 0 -334 -165.5t-125 -446.5
q0 -287 126 -446.5t349 -159.5q177 0 286.5 85.5t109.5 225.5v86q0 70 -28 93.5t-130 23.5h-111v109h692v-109h-79q-99 0 -122.5 -21.5t-23.5 -95.5v-493zM496 1839h65q18 -70 73.5 -101.5t162.5 -31.5t162 31.5t71 101.5h66q-22 -137 -97.5 -207.5t-201.5 -70.5
q-127 0 -203.5 70.5t-97.5 207.5z" />
    <glyph glyph-name="gbreve" unicode="&#x11f;" horiz-adv-x="1333" 
d="M537 -41q-159 0 -237.5 -35.5t-78.5 -107.5q0 -75 80 -114.5t231 -39.5q227 0 337 40t110 122q0 73 -70 103t-252 30zM336 645q0 -139 59.5 -206.5t182.5 -67.5t187 67t64 197t-64 200t-183 70q-115 0 -180.5 -69t-65.5 -191zM262 -10q-77 22 -116.5 65.5t-39.5 106.5
q0 59 39.5 106t130.5 94q-66 56 -98.5 124t-32.5 151q0 165 117 266t309 101q99 0 185 -28.5t159 -84.5q54 58 106.5 84t115.5 26q86 0 138 -49t52 -131q0 -61 -33 -100t-86 -39q-44 0 -74 28.5t-30 71.5q0 42 26.5 67t73.5 30q-14 20 -31 29.5t-40 9.5q-48 0 -88.5 -24.5
t-77.5 -76.5q27 -42 40 -87t13 -97q0 -171 -117 -270t-319 -99q-74 0 -146.5 19.5t-75.5 19.5q-38 0 -71 -31t-33 -69q0 -43 40.5 -61.5t135.5 -18.5h318q187 0 286 -68t99 -196q0 -152 -140.5 -225.5t-429.5 -73.5q-240 0 -372 64t-132 179q0 67 53.5 117t145.5 70z
M367 1427h65q18 -70 73.5 -101.5t162.5 -31.5t162 31.5t71 101.5h66q-22 -137 -97.5 -207.5t-201.5 -70.5q-127 0 -203.5 70.5t-97.5 207.5z" />
    <glyph glyph-name="Idotaccent" unicode="&#x130;" horiz-adv-x="801" 
d="M61 0v109h93q89 0 117 24t28 127v856q0 102 -28 126t-117 24h-93v108h678v-108h-92q-90 0 -117.5 -24t-27.5 -126v-856q0 -103 28 -127t117 -24h92v-109h-678zM284 1690q0 48 35 83.5t82 35.5q48 0 83.5 -35.5t35.5 -83.5q0 -51 -34 -85t-85 -34q-50 0 -83.5 34t-33.5 85
z" />
    <glyph glyph-name="Scedilla" unicode="&#x15e;" horiz-adv-x="1290" 
d="M88 0v569h113q32 -224 168 -352.5t342 -128.5q149 0 239 71t90 187q0 99 -68 154.5t-249 95.5l-170 37q-276 62 -368.5 148t-92.5 253q0 174 134 277.5t362 103.5q113 0 213.5 -37.5t195.5 -115.5l60 124h96v-520h-111q-26 208 -142.5 319t-309.5 111q-152 0 -237 -61.5
t-85 -171.5q0 -86 67.5 -139.5t211.5 -81.5l198 -41q264 -53 373 -147t109 -265q0 -191 -141.5 -310.5t-368.5 -119.5q-132 0 -243.5 47t-213.5 146l-67 -152h-105zM371 -379l36 90q60 -38 120 -58t112 -20q57 0 84.5 22.5t27.5 68.5q0 43 -27.5 64.5t-82.5 21.5
q-13 0 -29 -2t-33 -4v196h66v-115q11 2 23.5 3t37.5 1q88 0 137.5 -43.5t49.5 -121.5q0 -84 -59.5 -131.5t-165.5 -47.5q-59 0 -131 18.5t-166 57.5z" />
    <glyph glyph-name="scedilla" unicode="&#x15f;" horiz-adv-x="1022" 
d="M82 -8v405h106q26 -145 127 -232t242 -87q104 0 164.5 42.5t60.5 115.5q0 57 -45 93.5t-137 53.5l-184 35q-157 30 -239.5 108t-82.5 195q0 124 99 201t264 77q81 0 160.5 -27.5t150.5 -80.5l41 88h92v-377h-104q-26 141 -112.5 216t-223.5 75q-88 0 -142.5 -39.5
t-54.5 -101.5q0 -60 43 -97t129 -53l193 -37q156 -29 238.5 -102.5t82.5 -183.5q0 -146 -104 -229t-289 -83q-94 0 -175 32t-153 97l-43 -104h-104zM238 -379l36 90q60 -38 120 -58t112 -20q57 0 84.5 22.5t27.5 68.5q0 43 -27.5 64.5t-82.5 21.5q-13 0 -29 -2t-33 -4v196
h66v-115q11 2 23.5 3t37.5 1q88 0 137.5 -43.5t49.5 -121.5q0 -84 -59.5 -131.5t-165.5 -47.5q-59 0 -131 18.5t-166 57.5z" />
    <glyph glyph-name="Cacute" unicode="&#x106;" horiz-adv-x="1450" 
d="M1225 500h123q-20 -266 -167.5 -403.5t-410.5 -137.5q-308 0 -499 203t-191 530q0 152 53.5 288.5t151.5 236.5q96 96 219 147t258 51q113 0 218 -40.5t210 -125.5l51 125h94v-534h-104q-20 206 -146 332t-311 126q-204 0 -337.5 -171t-133.5 -435q0 -280 132.5 -444
t359.5 -164q184 0 294 106.5t136 309.5zM576 1526l276 301q26 29 54 44.5t53 15.5q31 0 53.5 -23t22.5 -55q0 -27 -17.5 -48t-66.5 -53l-301 -182h-74z" />
    <glyph glyph-name="cacute" unicode="&#x107;" horiz-adv-x="1051" 
d="M874 360h119q-29 -196 -140 -296.5t-300 -100.5q-222 0 -356 140t-134 374q0 231 145.5 379t371.5 148q181 0 302.5 -89t121.5 -217q0 -67 -37 -108t-97 -41q-54 0 -86 29t-32 77q0 50 26.5 76.5t85.5 36.5q-34 68 -101.5 101.5t-168.5 33.5q-155 0 -243.5 -113
t-88.5 -313q0 -183 82.5 -288t226.5 -105q122 0 199 70t104 206zM402 1114l276 301q26 29 54 44.5t53 15.5q31 0 53.5 -23t22.5 -55q0 -27 -17.5 -48t-66.5 -53l-301 -182h-74z" />
    <glyph glyph-name="Ccaron" unicode="&#x10c;" horiz-adv-x="1450" 
d="M1225 500h123q-20 -266 -167.5 -403.5t-410.5 -137.5q-308 0 -499 203t-191 530q0 152 53.5 288.5t151.5 236.5q96 96 219 147t258 51q113 0 218 -40.5t210 -125.5l51 125h94v-534h-104q-20 206 -146 332t-311 126q-204 0 -337.5 -171t-133.5 -435q0 -280 132.5 -444
t359.5 -164q184 0 294 106.5t136 309.5zM457 1874h74l221 -194l221 194h74l-229 -348h-134z" />
    <glyph glyph-name="ccaron" unicode="&#x10d;" horiz-adv-x="1051" 
d="M874 360h119q-29 -196 -140 -296.5t-300 -100.5q-222 0 -356 140t-134 374q0 231 145.5 379t371.5 148q181 0 302.5 -89t121.5 -217q0 -67 -37 -108t-97 -41q-54 0 -86 29t-32 77q0 50 26.5 76.5t85.5 36.5q-34 68 -101.5 101.5t-168.5 33.5q-155 0 -243.5 -113
t-88.5 -313q0 -183 82.5 -288t226.5 -105q122 0 199 70t104 206zM283 1462h74l221 -194l221 194h74l-229 -348h-134z" />
    <glyph glyph-name="dcroat" unicode="&#x111;" horiz-adv-x="1262" 
d="M862 786v293h-340v90h340v7q0 57 -28 78.5t-105 21.5h-65v98h372v-205h244v-90h-244v-862q0 -73 27 -95t106 -22h52v-100h-359v168q-63 -100 -149.5 -149.5t-198.5 -49.5q-195 0 -316.5 142t-121.5 372q0 218 124.5 359t317.5 141q113 0 196 -47.5t148 -149.5zM274 481
q0 -184 73.5 -287.5t203.5 -103.5q141 0 226 106.5t85 284.5q0 169 -86.5 275t-224.5 106q-129 0 -203 -101.5t-74 -279.5z" />
    <glyph glyph-name="sfthyphen" unicode="&#xad;" horiz-adv-x="682" 
d="M76 414v151h532v-151h-532z" />
    <glyph glyph-name="periodcentered" unicode="&#x2219;" horiz-adv-x="627" 
d="M199 629q0 48 33 82t81 34t82.5 -34.5t34.5 -81.5q0 -48 -34.5 -81.5t-82.5 -33.5t-81 33.5t-33 81.5z" />
    <glyph glyph-name="Euro" horiz-adv-x="1255" 
d="M1214 453q-18 -239 -148 -363.5t-361 -124.5q-194 0 -335.5 133t-183.5 355h-186l31 96h141q-1 13 -1.5 28t-0.5 46q0 25 1.5 50t4.5 49l-176 1l31 96h159q48 212 187 337.5t325 125.5q109 0 196 -36.5t151 -108.5l47 110h106v-403h-115q-31 152 -132 241t-242 89
q-119 0 -202 -93.5t-114 -261.5h549l-31 -96h-529q-3 -40 -4 -61t-1 -39q0 -31 0.5 -46.5t1.5 -27.5h481l-30 -96h-439q32 -170 121 -271.5t203 -101.5q166 0 261 92.5t120 280.5h114z" />
    <glyph glyph-name="Euro" unicode="&#x20ac;" horiz-adv-x="1255" 
d="M1214 453q-18 -239 -148 -363.5t-361 -124.5q-194 0 -335.5 133t-183.5 355h-186l31 96h141q-1 13 -1.5 28t-0.5 46q0 25 1.5 50t4.5 49l-176 1l31 96h159q48 212 187 337.5t325 125.5q109 0 196 -36.5t151 -108.5l47 110h106v-403h-115q-31 152 -132 241t-242 89
q-119 0 -202 -93.5t-114 -261.5h549l-31 -96h-529q-3 -40 -4 -61t-1 -39q0 -31 0.5 -46.5t1.5 -27.5h481l-30 -96h-439q32 -170 121 -271.5t203 -101.5q166 0 261 92.5t120 280.5h114z" />
    </font>
</defs>
</svg>
